# Blender 4.0.2
# www.blender.org
mtllib left_pins.mtl
o cube.002
v -1.062500 0.125000 0.125000
v -1.062500 0.125000 -0.125000
v -1.062500 -0.125000 0.125000
v -1.062500 -0.125000 -0.125000
v -1.312500 0.125000 -0.125000
v -1.312500 0.125000 0.125000
v -1.312500 -0.125000 -0.125000
v -1.312500 -0.125000 0.125000
v -1.062500 0.125000 -1.562500
v -1.062500 0.125000 -1.812500
v -1.062500 -0.125000 -1.562500
v -1.062500 -0.125000 -1.812500
v -1.312500 0.125000 -1.812500
v -1.312500 0.125000 -1.562500
v -1.312500 -0.125000 -1.812500
v -1.312500 -0.125000 -1.562500
v -1.062500 0.125000 1.812500
v -1.062500 0.125000 1.562500
v -1.062500 -0.125000 1.812500
v -1.062500 -0.125000 1.562500
v -1.312500 0.125000 1.562500
v -1.312500 0.125000 1.812500
v -1.312500 -0.125000 1.562500
v -1.312500 -0.125000 1.812500
vn -0.0000 -0.0000 -1.0000
vn -0.0000 -0.0000 1.0000
vn -1.0000 -0.0000 -0.0000
vn -0.0000 1.0000 -0.0000
vn -0.0000 -1.0000 -0.0000
vt 0.375000 0.500000
vt 0.500000 0.500000
vt 0.500000 0.625000
vt 0.375000 0.625000
vt 0.250000 0.500000
vt 0.250000 0.625000
s 0
usemtl m_b199a1ec-dca9-031a-48d9-148c94935a52.001
f 4/1/1 7/2/1 5/3/1 2/4/1
f 8/1/2 3/2/2 1/3/2 6/4/2
f 7/5/3 8/1/3 6/4/3 5/6/3
f 6/1/4 1/2/4 2/3/4 5/4/4
f 7/1/5 4/2/5 3/3/5 8/4/5
f 12/1/1 15/2/1 13/3/1 10/4/1
f 16/1/2 11/2/2 9/3/2 14/4/2
f 15/5/3 16/1/3 14/4/3 13/6/3
f 14/1/4 9/2/4 10/3/4 13/4/4
f 15/1/5 12/2/5 11/3/5 16/4/5
f 20/1/1 23/2/1 21/3/1 18/4/1
f 24/1/2 19/2/2 17/3/2 22/4/2
f 23/5/3 24/1/3 22/4/3 21/6/3
f 22/1/4 17/2/4 18/3/4 21/4/4
f 23/1/5 20/2/5 19/3/5 24/4/5
