# Blender 4.0.2
# www.blender.org
mtllib right_m_rod.mtl
o cube.001
v 1.312500 0.125000 2.437500
v 1.312500 0.125000 0.125000
v 1.312500 -0.125000 2.437500
v 1.312500 -0.125000 0.125000
v 1.187500 0.125000 0.125000
v 1.187500 0.125000 2.437500
v 1.187500 -0.125000 0.125000
v 1.187500 -0.125000 2.437500
v 1.312500 0.187500 2.812500
v 1.312500 0.187500 2.437500
v 1.312500 -0.187500 2.812500
v 1.312500 -0.187500 2.437500
v 1.187500 0.187500 2.437500
v 1.187500 0.187500 2.812500
v 1.187500 -0.187500 2.437500
v 1.187500 -0.187500 2.812500
vn -0.0000 -0.0000 -1.0000
vn 1.0000 -0.0000 -0.0000
vn -0.0000 -0.0000 1.0000
vn -1.0000 -0.0000 -0.0000
vn -0.0000 1.0000 -0.0000
vn -0.0000 -1.0000 -0.0000
vt 0.776786 0.491071
vt 0.794643 0.491071
vt 0.794643 0.526786
vt 0.776786 0.526786
vt 0.669643 0.651786
vt 1.000000 0.651786
vt 1.000000 0.687500
vt 0.669643 0.687500
vt 0.669643 0.616071
vt 1.000000 0.616071
vt 0.669643 0.669643
vt 1.000000 0.669643
vt 0.839286 0.062500
vt 0.857143 0.062500
vt 0.857143 0.008929
vt 0.839286 0.008929
vt 0.785714 0.008929
vt 0.785714 0.062500
s 0
usemtl m_a04509b2-9e79-7152-ac01-54b87f7e5258.015
f 4/1/1 7/2/1 5/3/1 2/4/1
f 3/5/2 4/6/2 2/7/2 1/8/2
f 8/1/3 3/2/3 1/3/3 6/4/3
f 7/9/4 8/10/4 6/6/4 5/5/4
f 6/11/5 1/8/5 2/7/5 5/12/5
f 7/12/6 4/7/6 3/8/6 8/11/6
f 12/13/1 15/14/1 13/15/1 10/16/1
f 11/13/2 12/16/2 10/17/2 9/18/2
f 16/15/3 11/16/3 9/13/3 14/14/3
f 15/16/4 16/17/4 14/18/4 13/13/4
f 14/15/5 9/16/5 10/13/5 13/14/5
f 15/15/6 12/16/6 11/13/6 16/14/6
