# Blender 4.1.0
# www.blender.org
mtllib frame.mtl
o cube.023
v 0.437500 0.875000 1.125000
v 0.437500 0.875000 0.875000
v 0.437500 0.625000 1.125000
v 0.437500 0.625000 0.875000
v -0.437500 0.875000 0.875000
v -0.437500 0.875000 1.125000
v -0.437500 0.625000 0.875000
v -0.437500 0.625000 1.125000
v 0.312500 1.062500 0.562500
v 0.312500 1.062500 -0.562500
v 0.312500 0.437500 0.562500
v 0.312500 0.437500 -0.562500
v -0.312500 1.062500 -0.562500
v -0.312500 1.062500 0.562500
v -0.312500 0.437500 -0.562500
v -0.312500 0.437500 0.562500
v 0.437500 1.250000 0.437500
v 0.437500 1.250000 -0.437500
v 0.437500 0.750000 0.437500
v 0.437500 0.750000 -0.437500
v -0.437500 1.250000 -0.437500
v -0.437500 1.250000 0.437500
v -0.437500 0.750000 -0.437500
v -0.437500 0.750000 0.437500
v 0.750000 1.312500 0.500000
v 0.750000 1.312500 -0.500000
v 0.750000 0.687500 0.500000
v 0.750000 0.687500 -0.500000
v 0.375000 1.312500 -0.500000
v 0.375000 1.312500 0.500000
v 0.375000 0.687500 -0.500000
v 0.375000 0.687500 0.500000
v 0.125000 0.875000 0.687500
v 0.125000 0.875000 0.562500
v 0.125000 0.625000 0.687500
v 0.125000 0.625000 0.562500
v -0.125000 0.875000 0.562500
v -0.125000 0.875000 0.687500
v -0.125000 0.625000 0.562500
v -0.125000 0.625000 0.687500
v 0.312500 1.062500 1.312500
v 0.312500 1.062500 0.687500
v 0.312500 0.437500 1.312500
v 0.312500 0.437500 0.687500
v -0.312500 1.062500 0.687500
v -0.312500 1.062500 1.312500
v -0.312500 0.437500 0.687500
v -0.312500 0.437500 1.312500
v 0.093750 1.250000 1.093750
v 0.093750 1.250000 0.906250
v 0.093750 1.062500 1.093750
v 0.093750 1.062500 0.906250
v -0.093750 1.250000 0.906250
v -0.093750 1.250000 1.093750
v -0.093750 1.062500 0.906250
v -0.093750 1.062500 1.093750
v 0.125000 0.875000 -0.562500
v 0.125000 0.875000 -0.687500
v 0.125000 0.625000 -0.562500
v 0.125000 0.625000 -0.687500
v -0.125000 0.875000 -0.687500
v -0.125000 0.875000 -0.562500
v -0.125000 0.625000 -0.687500
v -0.125000 0.625000 -0.562500
v 0.250000 1.500000 0.250000
v 0.250000 1.500000 -0.250000
v 0.250000 1.250000 0.250000
v 0.250000 1.250000 -0.250000
v -0.250000 1.500000 -0.250000
v -0.250000 1.500000 0.250000
v -0.250000 1.250000 -0.250000
v -0.250000 1.250000 0.250000
v 0.312500 1.062500 -0.687500
v 0.312500 1.062500 -1.312500
v 0.312500 0.437500 -0.687500
v 0.312500 0.437500 -1.312500
v -0.312500 1.062500 -1.312500
v -0.312500 1.062500 -0.687500
v -0.312500 0.437500 -1.312500
v -0.312500 0.437500 -0.687500
v 0.750000 0.750000 -0.646447
v 0.750000 1.103553 -1.000000
v 0.750000 0.396447 -1.000000
v 0.750000 0.750000 -1.353553
v 0.375000 1.103553 -1.000000
v 0.375000 0.750000 -0.646447
v 0.375000 0.750000 -1.353553
v 0.375000 0.396447 -1.000000
v 0.687500 1.280330 -0.292893
v 0.687500 1.457107 -0.469670
v 0.687500 0.838388 -0.734835
v 0.687500 1.015165 -0.911612
v 0.437500 1.457107 -0.469670
v 0.437500 1.280330 -0.292893
v 0.437500 1.015165 -0.911612
v 0.437500 0.838388 -0.734835
v -0.375000 1.312500 0.500000
v -0.375000 1.312500 -0.500000
v -0.375000 0.687500 0.500000
v -0.375000 0.687500 -0.500000
v -0.750000 1.312500 -0.500000
v -0.750000 1.312500 0.500000
v -0.750000 0.687500 -0.500000
v -0.750000 0.687500 0.500000
v -0.437500 1.280330 -0.292893
v -0.437500 1.457107 -0.469670
v -0.437500 0.838388 -0.734835
v -0.437500 1.015165 -0.911612
v -0.687500 1.457107 -0.469670
v -0.687500 1.280330 -0.292893
v -0.687500 1.015165 -0.911612
v -0.687500 0.838388 -0.734835
v -0.375000 0.750000 -0.646447
v -0.375000 1.103553 -1.000000
v -0.375000 0.396447 -1.000000
v -0.375000 0.750000 -1.353553
v -0.750000 1.103553 -1.000000
v -0.750000 0.750000 -0.646447
v -0.750000 0.750000 -1.353553
v -0.750000 0.396447 -1.000000
v -0.375000 1.103554 1.000000
v -0.375000 0.750000 0.646447
v -0.375000 0.750000 1.353553
v -0.375000 0.396447 1.000000
v -0.750000 0.750000 0.646447
v -0.750000 1.103554 1.000000
v -0.750000 0.396447 1.000000
v -0.750000 0.750000 1.353553
v -0.437500 1.457107 0.469670
v -0.437500 1.280330 0.292893
v -0.437500 1.015165 0.911612
v -0.437500 0.838388 0.734835
v -0.687500 1.280330 0.292893
v -0.687500 1.457107 0.469670
v -0.687500 0.838388 0.734835
v -0.687500 1.015165 0.911612
v 0.687500 1.457107 0.469670
v 0.687500 1.280330 0.292893
v 0.687500 1.015165 0.911612
v 0.687500 0.838388 0.734835
v 0.437500 1.280330 0.292893
v 0.437500 1.457107 0.469670
v 0.437500 0.838388 0.734835
v 0.437500 1.015165 0.911612
v 0.750000 1.103554 1.000000
v 0.750000 0.750000 0.646447
v 0.750000 0.750000 1.353553
v 0.750000 0.396447 1.000000
v 0.375000 0.750000 0.646447
v 0.375000 1.103554 1.000000
v 0.375000 0.396447 1.000000
v 0.375000 0.750000 1.353553
v 0.437500 0.875000 -0.875000
v 0.437500 0.875000 -1.125000
v 0.437500 0.625000 -0.875000
v 0.437500 0.625000 -1.125000
v -0.437500 0.875000 -1.125000
v -0.437500 0.875000 -0.875000
v -0.437500 0.625000 -1.125000
v -0.437500 0.625000 -0.875000
v 0.093750 1.250000 -0.906250
v 0.093750 1.250000 -1.093750
v 0.093750 1.062500 -0.906250
v 0.093750 1.062500 -1.093750
v -0.093750 1.250000 -1.093750
v -0.093750 1.250000 -0.906250
v -0.093750 1.062500 -1.093750
v -0.093750 1.062500 -0.906250
v -0.371875 1.003125 0.253125
v -0.371875 1.003125 -0.253125
v -0.371875 0.496875 0.253125
v -0.371875 0.496875 -0.253125
v -0.753125 1.003125 -0.253125
v -0.753125 1.003125 0.253125
v -0.753125 0.496875 -0.253125
v -0.753125 0.496875 0.253125
v 0.753125 1.003125 0.253125
v 0.753125 1.003125 -0.253125
v 0.753125 0.496875 0.253125
v 0.753125 0.496875 -0.253125
v 0.371875 1.003125 -0.253125
v 0.371875 1.003125 0.253125
v 0.371875 0.496875 -0.253125
v 0.371875 0.496875 0.253125
v 0.437500 0.875000 0.125000
v 0.437500 0.875000 -0.125000
v 0.437500 0.625000 0.125000
v 0.437500 0.625000 -0.125000
v -0.437500 0.875000 -0.125000
v -0.437500 0.875000 0.125000
v -0.437500 0.625000 -0.125000
v -0.437500 0.625000 0.125000
vn -0.0000 -0.0000 -1.0000
vn 1.0000 -0.0000 -0.0000
vn -0.0000 -0.0000 1.0000
vn -0.0000 1.0000 -0.0000
vn -0.0000 -1.0000 -0.0000
vn -1.0000 -0.0000 -0.0000
vn -0.0000 0.7071 -0.7071
vn -0.0000 -0.7071 0.7071
vn -0.0000 0.7071 0.7071
vn -0.0000 -0.7071 -0.7071
vt 0.625000 0.937500
vt 0.625000 0.062500
vt 0.375000 0.062500
vt 0.375000 0.937500
vt 0.250000 0.750000
vt 0.000000 0.750000
vt 0.000000 1.000000
vt 0.250000 1.000000
vt 0.687500 0.687500
vt 1.000000 0.687500
vt 1.000000 1.000000
vt 0.687500 1.000000
vt 0.312500 0.437500
vt 0.312500 1.000000
vt 0.000000 0.437500
vt 0.000000 0.000000
vt 0.312500 0.000000
vt 0.312500 0.562500
vt 0.000000 0.562500
vt 0.312500 0.312500
vt 0.750000 0.312500
vt 0.750000 0.562500
vt 0.687500 0.562500
vt 0.437500 1.000000
vt 0.437500 0.562500
vt 0.500000 0.000000
vt 0.500000 0.312500
vt 0.500000 0.500000
vt 1.000000 0.500000
vt 1.000000 0.812500
vt 0.500000 0.812500
vt 1.000000 0.125000
vt 1.000000 0.312500
vt 0.500000 0.125000
vt 0.625000 0.812500
vt 0.375000 0.812500
vt 0.625000 0.000000
vt 0.625000 0.312500
vt 0.937500 0.000000
vt 0.937500 0.312500
vt 0.718750 0.375000
vt 0.625000 0.375000
vt 0.625000 0.468750
vt 0.718750 0.468750
vt 0.812500 0.468750
vt 0.812500 0.375000
vt 0.125000 0.333333
vt 0.291667 0.333333
vt 0.291667 0.416667
vt 0.125000 0.416667
vt 0.562500 0.812500
vt 0.729167 0.812500
vt 0.729167 0.979167
vt 0.562500 0.979167
vt 0.770833 0.000000
vt 1.000000 0.000000
vt 1.000000 0.166667
vt 0.770833 0.166667
vt 0.031250 0.000000
vt 0.218750 0.000000
vt 0.218750 0.250000
vt 0.031250 0.250000
vt 0.000000 0.250000
vt 0.250000 0.250000
vt 0.250000 0.500000
vt 0.000000 0.500000
vt 0.250000 0.187500
vt 0.375000 0.187500
vt 0.375000 0.500000
vt 0.500000 0.187500
vt 0.250000 0.375000
vt 0.375000 0.375000
vt 0.718750 0.000000
vt 0.875000 0.000000
vt 0.875000 0.156250
vt 0.718750 0.156250
s 0
usemtl m_5bc0ae5c-0837-593f-447d-092967c6415f
f 4/1/1 7/2/1 5/3/1 2/4/1
f 3/5/2 4/6/2 2/7/2 1/8/2
f 8/1/3 3/2/3 1/3/3 6/4/3
f 6/1/4 1/2/4 2/3/4 5/4/4
f 7/1/5 4/2/5 3/3/5 8/4/5
f 36/6/1 39/5/1 37/8/1 34/7/1
f 35/35/2 36/1/2 34/4/2 33/36/2
f 40/6/3 35/5/3 33/8/3 38/7/3
f 39/35/6 40/1/6 38/4/6 37/36/6
f 38/36/4 33/35/4 34/1/4 37/4/4
f 39/36/5 36/35/5 35/1/5 40/4/5
f 60/6/1 63/5/1 61/8/1 58/7/1
f 59/35/2 60/1/2 58/4/2 57/36/2
f 64/6/3 59/5/3 57/8/3 62/7/3
f 63/35/6 64/1/6 62/4/6 61/36/6
f 62/36/4 57/35/4 58/1/4 61/4/4
f 63/36/5 60/35/5 59/1/5 64/4/5
f 156/1/1 159/2/1 157/3/1 154/4/1
f 155/5/2 156/6/2 154/7/2 153/8/2
f 160/1/3 155/2/3 153/3/3 158/4/3
f 158/1/4 153/2/4 154/3/4 157/4/4
f 159/1/5 156/2/5 155/3/5 160/4/5
f 188/1/1 191/2/1 189/3/1 186/4/1
f 187/5/2 188/6/2 186/7/2 185/8/2
f 192/1/3 187/2/3 185/3/3 190/4/3
f 190/1/4 185/2/4 186/3/4 189/4/4
f 191/1/5 188/2/5 187/3/5 192/4/5
usemtl m_581d4751-149c-c8bb-d170-f9eb7a3cf7fa
f 12/9/1 15/10/1 13/11/1 10/12/1
f 16/9/3 11/10/3 9/11/3 14/12/3
f 14/16/4 9/17/4 10/18/4 13/19/4
f 15/16/5 12/17/5 11/18/5 16/19/5
f 20/20/1 23/21/1 21/22/1 18/18/1
f 19/23/2 20/12/2 18/24/2 17/25/2
f 24/20/3 19/21/3 17/22/3 22/18/3
f 23/23/6 24/12/6 22/24/6 21/25/6
f 22/19/4 17/25/4 18/24/4 21/7/4
f 23/19/5 20/25/5 19/24/5 24/7/5
f 44/37/1 47/17/1 45/20/1 42/38/1
f 43/37/2 44/17/2 42/20/2 41/38/2
f 48/37/3 43/39/3 41/40/3 46/38/3
f 47/37/6 48/17/6 46/20/6 45/38/6
f 46/37/4 41/39/4 42/40/4 45/38/4
f 47/37/5 44/39/5 43/40/5 48/38/5
f 76/39/1 79/37/1 77/38/1 74/40/1
f 75/17/2 76/37/2 74/38/2 73/20/2
f 80/17/3 75/37/3 73/38/3 78/20/3
f 79/17/6 80/37/6 78/38/6 77/20/6
f 78/38/4 73/40/4 74/39/4 77/37/4
f 79/38/5 76/40/5 75/39/5 80/37/5
usemtl m_0882bb85-3206-8061-4d12-e25642f659d9
f 11/13/2 12/14/2 10/7/2 9/15/2
f 15/13/6 16/14/6 14/7/6 13/15/6
f 28/17/1 31/26/1 29/27/1 26/20/1
f 27/28/2 28/29/2 26/30/2 25/31/2
f 32/17/3 27/26/3 25/27/3 30/20/3
f 31/28/6 32/29/6 30/30/6 29/31/6
f 30/32/4 25/33/4 26/27/4 29/34/4
f 31/29/5 28/33/5 27/27/5 32/28/5
f 100/17/1 103/26/1 101/27/1 98/20/1
f 99/28/2 100/29/2 98/30/2 97/31/2
f 104/17/3 99/26/3 97/27/3 102/20/3
f 103/28/6 104/29/6 102/30/6 101/31/6
f 102/32/4 97/33/4 98/27/4 101/34/4
f 103/33/5 100/29/5 99/28/5 104/27/5
usemtl m_81cd79f4-1094-df42-63d7-38b4c4191f9c
f 52/41/1 55/42/1 53/43/1 50/44/1
f 51/41/2 52/42/2 50/43/2 49/44/2
f 56/41/3 51/42/3 49/43/3 54/44/3
f 55/41/6 56/42/6 54/43/6 53/44/6
f 54/44/4 49/45/4 50/46/4 53/41/4
f 164/41/1 167/42/1 165/43/1 162/44/1
f 163/41/2 164/42/2 162/43/2 161/44/2
f 168/41/3 163/42/3 161/43/3 166/44/3
f 167/41/6 168/42/6 166/43/6 165/44/6
f 166/44/4 161/45/4 162/46/4 165/41/4
usemtl m_68127406-a372-71f7-1194-049b1f1f0114
f 68/47/1 71/48/1 69/49/1 66/50/1
f 67/47/2 68/48/2 66/49/2 65/50/2
f 72/47/3 67/48/3 65/49/3 70/50/3
f 71/47/6 72/48/6 70/49/6 69/50/6
f 70/51/4 65/52/4 66/53/4 69/54/4
f 71/55/5 68/56/5 67/57/5 72/58/5
usemtl m_127ca0aa-e9df-8d82-2c65-6f4ef1cf062d
f 84/59/7 87/60/7 85/61/7 82/62/7
f 83/63/2 84/64/2 82/65/2 81/66/2
f 88/59/8 83/60/8 81/61/8 86/62/8
f 87/63/6 88/64/6 86/65/6 85/66/6
f 86/59/9 81/60/9 82/61/9 85/62/9
f 87/59/10 84/60/10 83/61/10 88/62/10
f 92/67/7 95/68/7 93/69/7 90/65/7
f 91/68/2 92/70/2 90/28/2 89/69/2
f 96/67/8 91/68/8 89/69/8 94/65/8
f 95/68/6 96/70/6 94/28/6 93/69/6
f 94/71/9 89/72/9 90/69/9 93/65/9
f 95/73/10 92/74/10 91/75/10 96/76/10
f 108/67/7 111/68/7 109/69/7 106/65/7
f 107/68/2 108/70/2 106/28/2 105/69/2
f 112/67/8 107/68/8 105/69/8 110/65/8
f 111/68/6 112/70/6 110/28/6 109/69/6
f 110/71/9 105/72/9 106/69/9 109/65/9
f 111/73/10 108/74/10 107/75/10 112/76/10
f 116/59/7 119/60/7 117/61/7 114/62/7
f 115/63/2 116/64/2 114/65/2 113/66/2
f 120/59/8 115/60/8 113/61/8 118/62/8
f 119/63/6 120/64/6 118/65/6 117/66/6
f 118/59/9 113/60/9 114/61/9 117/62/9
f 119/59/10 116/60/10 115/61/10 120/62/10
f 124/60/10 127/59/10 125/62/10 122/61/10
f 123/64/2 124/63/2 122/66/2 121/65/2
f 128/60/9 123/59/9 121/62/9 126/61/9
f 127/64/6 128/63/6 126/66/6 125/65/6
f 126/62/7 121/61/7 122/60/7 125/59/7
f 127/62/8 124/61/8 123/60/8 128/59/8
f 132/68/10 135/67/10 133/65/10 130/69/10
f 131/70/2 132/68/2 130/69/2 129/28/2
f 136/68/9 131/67/9 129/65/9 134/69/9
f 135/70/6 136/68/6 134/69/6 133/28/6
f 134/65/7 129/69/7 130/72/7 133/71/7
f 135/76/8 132/75/8 131/74/8 136/73/8
f 140/68/10 143/67/10 141/65/10 138/69/10
f 139/70/2 140/68/2 138/69/2 137/28/2
f 144/68/9 139/67/9 137/65/9 142/69/9
f 143/70/6 144/68/6 142/69/6 141/28/6
f 142/65/7 137/69/7 138/72/7 141/71/7
f 143/76/8 140/75/8 139/74/8 144/73/8
f 148/60/10 151/59/10 149/62/10 146/61/10
f 147/64/2 148/63/2 146/66/2 145/65/2
f 152/60/9 147/59/9 145/62/9 150/61/9
f 151/64/6 152/63/6 150/66/6 149/65/6
f 150/62/7 145/61/7 146/60/7 149/59/7
f 151/62/8 148/61/8 147/60/8 152/59/8
f 172/59/1 175/60/1 173/61/1 170/62/1
f 171/63/2 172/64/2 170/65/2 169/66/2
f 176/59/3 171/60/3 169/61/3 174/62/3
f 175/63/6 176/64/6 174/65/6 173/66/6
f 174/59/4 169/60/4 170/61/4 173/62/4
f 175/59/5 172/60/5 171/61/5 176/62/5
f 180/59/1 183/60/1 181/61/1 178/62/1
f 179/63/2 180/64/2 178/65/2 177/66/2
f 184/59/3 179/60/3 177/61/3 182/62/3
f 183/63/6 184/64/6 182/65/6 181/66/6
f 182/59/4 177/60/4 178/61/4 181/62/4
f 183/59/5 180/60/5 179/61/5 184/62/5
