# Blender 4.1.1
# www.blender.org
mtllib frame.mtl
o cube.042
v -0.500000 0.687500 0.750000
v -0.500000 0.687500 -0.750000
v -0.500000 0.625000 0.750000
v -0.500000 0.625000 -0.750000
v -0.687500 0.687500 -0.750000
v -0.687500 0.687500 0.750000
v -0.687500 0.625000 -0.750000
v -0.687500 0.625000 0.750000
v 1.371875 1.562500 -3.495312
v 1.371875 1.562500 -3.557812
v 1.371875 0.625000 -3.495312
v 1.371875 0.625000 -3.557812
v 0.871875 1.562500 -3.557812
v 0.871875 1.562500 -3.495312
v 0.871875 0.625000 -3.557812
v 0.871875 0.625000 -3.495312
v 1.434375 1.625000 -2.495313
v 1.434375 1.625000 -3.495313
v 1.434375 0.562500 -2.495312
v 1.434375 0.562500 -3.495312
v 0.809375 1.625000 -3.495313
v 0.809375 1.625000 -2.495313
v 0.809375 0.562500 -3.495312
v 0.809375 0.562500 -2.495312
v 1.371875 1.562500 -2.432812
v 1.371875 1.562500 -2.495312
v 1.371875 0.625000 -2.432812
v 1.371875 0.625000 -2.495312
v 0.871875 1.562500 -2.495312
v 0.871875 1.562500 -2.432812
v 0.871875 0.625000 -2.495312
v 0.871875 0.625000 -2.432812
v -0.871875 1.562500 -2.432812
v -0.871875 1.562500 -2.495312
v -0.871875 0.625000 -2.432812
v -0.871875 0.625000 -2.495312
v -1.371875 1.562500 -2.495312
v -1.371875 1.562500 -2.432812
v -1.371875 0.625000 -2.495312
v -1.371875 0.625000 -2.432812
v -0.871875 1.562500 -3.495312
v -0.871875 1.562500 -3.557812
v -0.871875 0.625000 -3.495312
v -0.871875 0.625000 -3.557812
v -1.371875 1.562500 -3.557812
v -1.371875 1.562500 -3.495312
v -1.371875 0.625000 -3.557812
v -1.371875 0.625000 -3.495312
v -0.809375 1.625000 -2.495313
v -0.809375 1.625000 -3.495313
v -0.809375 0.562500 -2.495312
v -0.809375 0.562500 -3.495312
v -1.434375 1.625000 -3.495313
v -1.434375 1.625000 -2.495313
v -1.434375 0.562500 -3.495312
v -1.434375 0.562500 -2.495312
v -1.062500 0.562500 -3.250000
v -1.062500 0.562500 -3.375000
v -1.062500 0.437500 -3.250000
v -1.062500 0.437500 -3.375000
v -1.187500 0.562500 -3.375000
v -1.187500 0.562500 -3.250000
v -1.187500 0.437500 -3.375000
v -1.187500 0.437500 -3.250000
v -1.062500 0.562500 -2.625000
v -1.062500 0.562500 -2.750000
v -1.062500 0.437500 -2.625000
v -1.062500 0.437500 -2.750000
v -1.187500 0.562500 -2.750000
v -1.187500 0.562500 -2.625000
v -1.187500 0.437500 -2.750000
v -1.187500 0.437500 -2.625000
v 1.187500 0.562500 -2.625000
v 1.187500 0.562500 -2.750000
v 1.187500 0.437500 -2.625000
v 1.187500 0.437500 -2.750000
v 1.062500 0.562500 -2.750000
v 1.062500 0.562500 -2.625000
v 1.062500 0.437500 -2.750000
v 1.062500 0.437500 -2.625000
v 1.187500 0.562500 -3.250000
v 1.187500 0.562500 -3.375000
v 1.187500 0.437500 -3.250000
v 1.187500 0.437500 -3.375000
v 1.062500 0.562500 -3.375000
v 1.062500 0.562500 -3.250000
v 1.062500 0.437500 -3.375000
v 1.062500 0.437500 -3.250000
v -1.068750 0.812500 -1.312500
v -1.068750 0.812500 -2.437500
v -1.068750 0.687500 -1.312500
v -1.068750 0.687500 -2.437500
v -1.193750 0.812500 -2.437500
v -1.193750 0.812500 -1.312500
v -1.193750 0.687500 -2.437500
v -1.193750 0.687500 -1.312500
v -1.068750 1.312500 -1.312500
v -1.068750 1.312500 -2.437500
v -1.068750 1.187500 -1.312500
v -1.068750 1.187500 -2.437500
v -1.193750 1.312500 -2.437500
v -1.193750 1.312500 -1.312500
v -1.193750 1.187500 -2.437500
v -1.193750 1.187500 -1.312500
v 1.193750 1.312500 -1.312500
v 1.193750 1.312500 -2.437500
v 1.193750 1.187500 -1.312500
v 1.193750 1.187500 -2.437500
v 1.068750 1.312500 -2.437500
v 1.068750 1.312500 -1.312500
v 1.068750 1.187500 -2.437500
v 1.068750 1.187500 -1.312500
v 1.193750 0.812500 -1.312500
v 1.193750 0.812500 -2.437500
v 1.193750 0.687500 -1.312500
v 1.193750 0.687500 -2.437500
v 1.068750 0.812500 -2.437500
v 1.068750 0.812500 -1.312500
v 1.068750 0.687500 -2.437500
v 1.068750 0.687500 -1.312500
v -0.312500 0.875000 -0.875000
v -0.312500 0.875000 -1.125000
v -0.312500 0.625000 -0.875000
v -0.312500 0.625000 -1.125000
v -0.437500 0.875000 -1.125000
v -0.437500 0.875000 -0.875000
v -0.437500 0.625000 -1.125000
v -0.437500 0.625000 -0.875000
v 0.437500 0.875000 -0.875000
v 0.437500 0.875000 -1.125000
v 0.437500 0.625000 -0.875000
v 0.437500 0.625000 -1.125000
v 0.312500 0.875000 -1.125000
v 0.312500 0.875000 -0.875000
v 0.312500 0.625000 -1.125000
v 0.312500 0.625000 -0.875000
v 0.125000 0.875000 -0.562500
v 0.125000 0.875000 -0.687500
v 0.125000 0.625000 -0.562500
v 0.125000 0.625000 -0.687500
v -0.125000 0.875000 -0.687500
v -0.125000 0.875000 -0.562500
v -0.125000 0.625000 -0.687500
v -0.125000 0.625000 -0.562500
v 0.687500 0.977652 1.120894
v 0.687500 1.312500 0.312500
v 0.687500 0.919910 1.096977
v 0.687500 1.254758 0.288582
v 0.500000 1.312500 0.312500
v 0.500000 0.977652 1.120894
v 0.500000 1.254758 0.288582
v 0.500000 0.919910 1.096977
v 0.750000 1.000000 -0.750000
v 0.750000 1.000000 -1.250000
v 0.750000 0.500000 -0.750000
v 0.750000 0.500000 -1.250000
v 0.437500 1.000000 -1.250000
v 0.437500 1.000000 -0.750000
v 0.437500 0.500000 -1.250000
v 0.437500 0.500000 -0.750000
v 0.312500 1.062500 -0.687500
v 0.312500 1.062500 -1.312500
v 0.312500 0.437500 -0.687500
v 0.312500 0.437500 -1.312500
v -0.312500 1.062500 -1.312500
v -0.312500 1.062500 -0.687500
v -0.312500 0.437500 -1.312500
v -0.312500 0.437500 -0.687500
v 0.093750 1.250000 -0.906250
v 0.093750 1.250000 -1.093750
v 0.093750 1.062500 -0.906250
v 0.093750 1.062500 -1.093750
v -0.093750 1.250000 -1.093750
v -0.093750 1.250000 -0.906250
v -0.093750 1.062500 -1.093750
v -0.093750 1.062500 -0.906250
v -0.437500 1.000000 -0.750000
v -0.437500 1.000000 -1.250000
v -0.437500 0.500000 -0.750000
v -0.437500 0.500000 -1.250000
v -0.750000 1.000000 -1.250000
v -0.750000 1.000000 -0.750000
v -0.750000 0.500000 -1.250000
v -0.750000 0.500000 -0.750000
v -0.437500 1.000000 1.250000
v -0.437500 1.000000 0.750000
v -0.437500 0.500000 1.250000
v -0.437500 0.500000 0.750000
v -0.750000 1.000000 0.750000
v -0.750000 1.000000 1.250000
v -0.750000 0.500000 0.750000
v -0.750000 0.500000 1.250000
v 0.312500 1.062500 1.312500
v 0.312500 1.062500 0.687500
v 0.312500 0.437500 1.312500
v 0.312500 0.437500 0.687500
v -0.312500 1.062500 0.687500
v -0.312500 1.062500 1.312500
v -0.312500 0.437500 0.687500
v -0.312500 0.437500 1.312500
v 0.750000 1.000000 1.250000
v 0.750000 1.000000 0.750000
v 0.750000 0.500000 1.250000
v 0.750000 0.500000 0.750000
v 0.437500 1.000000 0.750000
v 0.437500 1.000000 1.250000
v 0.437500 0.500000 0.750000
v 0.437500 0.500000 1.250000
v 0.093750 1.250000 1.093750
v 0.093750 1.250000 0.906250
v 0.093750 1.062500 1.093750
v 0.093750 1.062500 0.906250
v -0.093750 1.250000 0.906250
v -0.093750 1.250000 1.093750
v -0.093750 1.062500 0.906250
v -0.093750 1.062500 1.093750
v 0.312500 1.062500 0.562500
v 0.312500 1.062500 -0.562500
v 0.312500 0.437500 0.562500
v 0.312500 0.437500 -0.562500
v -0.312500 1.062500 -0.562500
v -0.312500 1.062500 0.562500
v -0.312500 0.437500 -0.562500
v -0.312500 0.437500 0.562500
v 0.437500 1.250000 0.437500
v 0.437500 1.250000 -0.437500
v 0.437500 0.750000 0.437500
v 0.437500 0.750000 -0.437500
v -0.437500 1.250000 -0.437500
v -0.437500 1.250000 0.437500
v -0.437500 0.750000 -0.437500
v -0.437500 0.750000 0.437500
v -0.431250 1.381250 0.318750
v -0.431250 1.381250 -0.318750
v -0.431250 0.681250 0.318750
v -0.431250 0.681250 -0.318750
v -0.756250 1.381250 -0.318750
v -0.756250 1.381250 0.318750
v -0.756250 0.681250 -0.318750
v -0.756250 0.681250 0.318750
v 0.756250 1.381250 0.318750
v 0.756250 1.381250 -0.318750
v 0.756250 0.681250 0.318750
v 0.756250 0.681250 -0.318750
v 0.431250 1.381250 -0.318750
v 0.431250 1.381250 0.318750
v 0.431250 0.681250 -0.318750
v 0.431250 0.681250 0.318750
v 0.445083 0.809359 0.312500
v 0.445083 0.809359 0.125000
v 0.533471 0.720971 0.312500
v 0.533471 0.720971 0.125000
v 0.224112 0.588388 0.125000
v 0.224112 0.588388 0.312500
v 0.312500 0.500000 0.125000
v 0.312500 0.500000 0.312500
v 0.445083 0.809359 -0.125000
v 0.445083 0.809359 -0.312500
v 0.533471 0.720971 -0.125000
v 0.533471 0.720971 -0.312500
v 0.224112 0.588388 -0.312500
v 0.224112 0.588388 -0.125000
v 0.312500 0.500000 -0.312500
v 0.312500 0.500000 -0.125000
v -0.224112 0.588388 -0.125000
v -0.224112 0.588388 -0.312500
v -0.312500 0.500000 -0.125000
v -0.312500 0.500000 -0.312500
v -0.445083 0.809359 -0.312500
v -0.445083 0.809359 -0.125000
v -0.533471 0.720971 -0.312500
v -0.533471 0.720971 -0.125000
v -0.224112 0.588388 0.312500
v -0.224112 0.588388 0.125000
v -0.312500 0.500000 0.312500
v -0.312500 0.500000 0.125000
v -0.445083 0.809359 0.125000
v -0.445083 0.809359 0.312500
v -0.533471 0.720971 0.125000
v -0.533471 0.720971 0.312500
v 0.687500 1.312500 -0.312500
v 0.687500 0.977652 -1.120895
v 0.687500 1.254758 -0.288582
v 0.687500 0.919909 -1.096977
v 0.500000 0.977652 -1.120895
v 0.500000 1.312500 -0.312500
v 0.500000 0.919909 -1.096977
v 0.500000 1.254758 -0.288582
v -0.500000 1.312500 -0.312500
v -0.500000 0.977652 -1.120895
v -0.500000 1.254758 -0.288582
v -0.500000 0.919909 -1.096977
v -0.687500 0.977652 -1.120895
v -0.687500 1.312500 -0.312500
v -0.687500 0.919909 -1.096977
v -0.687500 1.254758 -0.288582
v -0.500000 0.977652 1.120894
v -0.500000 1.312500 0.312500
v -0.500000 0.919910 1.096977
v -0.500000 1.254758 0.288582
v -0.687500 1.312500 0.312500
v -0.687500 0.977652 1.120894
v -0.687500 1.254758 0.288582
v -0.687500 0.919910 1.096977
v 0.125000 0.875000 0.687500
v 0.125000 0.875000 0.562500
v 0.125000 0.625000 0.687500
v 0.125000 0.625000 0.562500
v -0.125000 0.875000 0.562500
v -0.125000 0.875000 0.687500
v -0.125000 0.625000 0.562500
v -0.125000 0.625000 0.687500
v 0.437500 0.875000 1.125000
v 0.437500 0.875000 0.875000
v 0.437500 0.625000 1.125000
v 0.437500 0.625000 0.875000
v 0.312500 0.875000 0.875000
v 0.312500 0.875000 1.125000
v 0.312500 0.625000 0.875000
v 0.312500 0.625000 1.125000
v -0.312500 0.875000 1.125000
v -0.312500 0.875000 0.875000
v -0.312500 0.625000 1.125000
v -0.312500 0.625000 0.875000
v -0.437500 0.875000 0.875000
v -0.437500 0.875000 1.125000
v -0.437500 0.625000 0.875000
v -0.437500 0.625000 1.125000
v 0.375000 1.437500 0.375000
v 0.375000 1.437500 -0.375000
v 0.375000 1.312500 0.375000
v 0.375000 1.312500 -0.375000
v -0.375000 1.437500 -0.375000
v -0.375000 1.437500 0.375000
v -0.375000 1.312500 -0.375000
v -0.375000 1.312500 0.375000
v 0.687500 0.687500 0.750000
v 0.687500 0.687500 -0.750000
v 0.687500 0.625000 0.750000
v 0.687500 0.625000 -0.750000
v 0.500000 0.687500 -0.750000
v 0.500000 0.687500 0.750000
v 0.500000 0.625000 -0.750000
v 0.500000 0.625000 0.750000
vn -0.0000 -0.0000 -1.0000
vn 1.0000 -0.0000 -0.0000
vn -0.0000 -0.0000 1.0000
vn -1.0000 -0.0000 -0.0000
vn -0.0000 1.0000 -0.0000
vn -0.0000 -1.0000 -0.0000
vn -0.0000 0.3827 -0.9239
vn -0.0000 -0.3827 0.9239
vn -0.0000 0.9239 0.3827
vn -0.0000 -0.9239 -0.3827
vn 0.7071 0.7071 -0.0000
vn -0.7071 -0.7071 -0.0000
vn -0.7071 0.7071 -0.0000
vn 0.7071 -0.7071 -0.0000
vn -0.0000 -0.3827 -0.9239
vn -0.0000 0.3827 0.9239
vn -0.0000 0.9239 -0.3827
vn -0.0000 -0.9239 0.3827
vt 0.000000 1.000000
vt 0.115385 0.600962
vt 0.000000 0.600962
vt 0.000000 0.605769
vt 0.115385 0.605769
vt 0.115385 0.610577
vt 0.000000 0.610577
vt 0.000000 0.615385
vt 0.115385 0.615385
vt 0.000000 0.614423
vt 0.000000 0.600000
vt 0.115385 0.600000
vt 0.115385 0.614423
vt 0.000000 0.615385
vt 0.714286 0.428571
vt 0.642857 0.428571
vt 0.642857 0.562500
vt 0.714286 0.562500
vt 0.705357 0.428571
vt 0.705357 0.562500
vt 0.633929 0.428571
vt 0.562500 0.428571
vt 0.562500 0.562500
vt 0.633929 0.562500
vt 0.651786 0.428571
vt 0.651786 0.562500
vt 0.642857 0.553571
vt 0.714286 0.553571
vt 0.714286 0.437500
vt 0.642857 0.437500
vt 0.357143 0.312500
vt 0.446429 0.312500
vt 0.446429 0.464286
vt 0.357143 0.464286
vt 0.214286 0.312500
vt 0.214286 0.464286
vt 0.357143 0.473214
vt 0.357143 0.562500
vt 0.214286 0.562500
vt 0.214286 0.473214
vt 0.571429 0.428571
vt 0.571429 0.562500
vt 0.625000 0.428571
vt 0.625000 0.562500
vt 0.633929 0.553571
vt 0.562500 0.553571
vt 0.562500 0.437500
vt 0.633929 0.437500
vt 0.062500 0.093750
vt 0.000000 0.093750
vt 0.000000 0.156250
vt 0.062500 0.156250
vt 0.187500 0.125000
vt 0.187500 0.062500
vt 0.125000 0.062500
vt 0.125000 0.125000
vt 0.142857 0.580357
vt 0.160714 0.580357
vt 0.160714 0.598214
vt 0.142857 0.598214
vt 0.000000 0.598214
vt 0.000000 0.580357
vt 0.625000 0.000000
vt 0.625000 0.125000
vt 0.375000 0.125000
vt 0.375000 0.000000
vt 0.500000 0.218750
vt 1.000000 0.218750
vt 1.000000 0.500000
vt 0.500000 0.500000
vt 0.000000 0.750000
vt 0.250000 0.750000
vt 0.250000 0.500000
vt 0.000000 0.500000
vt 0.500000 0.937500
vt 0.312500 0.937500
vt 0.312500 1.000000
vt 0.500000 1.000000
vt 0.000000 0.533654
vt 0.071154 0.533654
vt 0.071154 0.537500
vt 0.000000 0.537500
vt 0.000000 0.524038
vt 0.071154 0.524038
vt 0.071154 0.527885
vt 0.000000 0.527885
vt 0.500000 0.000000
vt 0.656250 0.000000
vt 0.656250 0.250000
vt 0.500000 0.250000
vt 0.750000 0.250000
vt 0.750000 0.500000
vt 0.812500 0.000000
vt 0.812500 0.250000
vt 0.593750 0.031250
vt 0.343750 0.031250
vt 0.343750 0.281250
vt 0.593750 0.281250
vt 0.937500 0.000000
vt 0.625000 0.312500
vt 0.937500 0.312500
vt 0.312500 0.000000
vt 0.312500 0.312500
vt 0.625000 0.375000
vt 0.718750 0.375000
vt 0.718750 0.468750
vt 0.625000 0.468750
vt 0.812500 0.375000
vt 0.812500 0.468750
vt 0.000000 0.625000
vt 0.187500 0.625000
vt 0.187500 0.812500
vt 0.000000 0.812500
vt 0.687500 0.687500
vt 1.000000 0.687500
vt 1.000000 1.000000
vt 0.687500 1.000000
vt 0.312500 0.562500
vt 0.000000 0.562500
vt 0.000000 0.000000
vt 0.750000 0.312500
vt 0.750000 0.562500
vt 0.687500 0.562500
vt 0.437500 1.000000
vt 0.437500 0.562500
vt 0.812500 0.656250
vt 0.968750 0.656250
vt 0.968750 1.000000
vt 0.812500 1.000000
vt 0.500000 0.656250
vt 0.812500 0.500000
vt 0.812500 0.531250
vt 0.750000 0.531250
vt 0.750000 0.375000
vt 0.687500 0.625000
vt 0.718750 0.625000
vt 0.718750 0.687500
vt 0.906250 0.375000
vt 0.906250 0.531250
vt 0.583333 0.541667
vt 0.833333 0.541667
vt 0.833333 0.583333
vt 0.583333 0.583333
vt 0.562500 0.812500
vt 0.729167 0.812500
vt 0.729167 0.979167
vt 0.562500 0.979167
vt 0.583333 0.333333
vt 0.833333 0.333333
s 0
usemtl m_82132302-1612-b39a-cc4f-def3346f6017
f 4/1/1 7/1/1 5/1/1 2/1/1
f 3/2/2 4/3/2 2/4/2 1/5/2
f 8/1/3 3/1/3 1/1/3 6/1/3
f 7/6/4 8/7/4 6/8/4 5/9/4
f 6/10/5 1/11/5 2/12/5 5/13/5
f 7/9/6 4/2/6 3/3/6 8/14/6
f 148/75/7 151/76/7 149/77/7 146/78/7
f 147/79/2 148/80/2 146/81/2 145/82/2
f 152/75/8 147/76/8 145/77/8 150/78/8
f 151/83/4 152/84/4 150/85/4 149/86/4
f 150/83/9 145/82/9 146/81/9 149/84/9
f 151/84/10 148/81/10 147/82/10 152/83/10
f 284/75/15 287/76/15 285/77/15 282/78/15
f 283/79/2 284/80/2 282/81/2 281/82/2
f 288/75/16 283/76/16 281/77/16 286/78/16
f 287/83/4 288/84/4 286/85/4 285/86/4
f 286/83/17 281/82/17 282/81/17 285/84/17
f 287/84/18 284/81/18 283/82/18 288/83/18
f 292/76/15 295/75/15 293/78/15 290/77/15
f 291/84/2 292/83/2 290/86/2 289/85/2
f 296/76/16 291/75/16 289/78/16 294/77/16
f 295/80/4 296/79/4 294/82/4 293/81/4
f 294/82/17 289/83/17 290/84/17 293/81/17
f 295/81/18 292/84/18 291/83/18 296/82/18
f 300/76/7 303/75/7 301/78/7 298/77/7
f 299/84/2 300/83/2 298/86/2 297/85/2
f 304/76/8 299/75/8 297/78/8 302/77/8
f 303/80/4 304/79/4 302/82/4 301/81/4
f 302/82/9 297/83/9 298/84/9 301/81/9
f 303/81/10 300/84/10 299/83/10 304/82/10
f 340/1/1 343/1/1 341/1/1 338/1/1
f 339/7/2 340/6/2 338/9/2 337/8/2
f 344/1/3 339/1/3 337/1/3 342/1/3
f 343/3/4 344/2/4 342/5/4 341/4/4
f 342/11/5 337/10/5 338/13/5 341/12/5
f 343/2/6 340/9/6 339/14/6 344/3/6
usemtl m_ec6f6917-f447-215e-ebd8-0b7cdc5ce34d
f 12/15/1 15/16/1 13/17/1 10/18/1
f 11/15/2 12/19/2 10/20/2 9/18/2
f 16/21/3 11/22/3 9/23/3 14/24/3
f 15/25/4 16/16/4 14/17/4 13/26/4
f 14/27/5 9/28/5 10/18/5 13/17/5
f 15/16/6 12/15/6 11/29/6 16/30/6
f 20/31/1 23/32/1 21/33/1 18/34/1
f 19/35/2 20/31/2 18/34/2 17/36/2
f 24/31/3 19/32/3 17/33/3 22/34/3
f 23/31/4 24/35/4 22/36/4 21/34/4
f 22/37/5 17/38/5 18/39/5 21/40/5
f 23/37/6 20/38/6 19/39/6 24/40/6
f 28/15/1 31/16/1 29/17/1 26/18/1
f 27/41/2 28/22/2 26/23/2 25/42/2
f 32/21/3 27/22/3 25/23/3 30/24/3
f 31/21/4 32/43/4 30/44/4 29/24/4
f 30/45/5 25/46/5 26/23/5 29/24/5
f 31/21/6 28/22/6 27/47/6 32/48/6
f 36/16/1 39/15/1 37/18/1 34/17/1
f 35/43/2 36/21/2 34/24/2 33/44/2
f 40/22/3 35/21/3 33/24/3 38/23/3
f 39/22/4 40/41/4 38/42/4 37/23/4
f 38/46/5 33/45/5 34/24/5 37/23/5
f 39/22/6 36/21/6 35/48/6 40/47/6
f 44/16/1 47/15/1 45/18/1 42/17/1
f 43/16/2 44/25/2 42/26/2 41/17/2
f 48/22/3 43/21/3 41/24/3 46/23/3
f 47/19/4 48/15/4 46/18/4 45/20/4
f 46/28/5 41/27/5 42/17/5 45/18/5
f 47/15/6 44/16/6 43/30/6 48/29/6
f 52/32/1 55/31/1 53/34/1 50/33/1
f 51/35/2 52/31/2 50/34/2 49/36/2
f 56/32/3 51/31/3 49/34/3 54/33/3
f 55/31/4 56/35/4 54/36/4 53/34/4
f 54/38/5 49/37/5 50/40/5 53/39/5
f 55/38/6 52/37/6 51/40/6 56/39/6
f 92/57/1 95/58/1 93/59/1 90/60/1
f 91/59/2 92/61/2 90/62/2 89/58/2
f 96/58/3 91/57/3 89/60/3 94/59/3
f 95/62/4 96/58/4 94/59/4 93/61/4
f 94/59/5 89/58/5 90/62/5 93/61/5
f 95/62/6 92/61/6 91/59/6 96/58/6
f 100/57/1 103/58/1 101/59/1 98/60/1
f 99/59/2 100/61/2 98/62/2 97/58/2
f 104/58/3 99/57/3 97/60/3 102/59/3
f 103/62/4 104/58/4 102/59/4 101/61/4
f 102/59/5 97/58/5 98/62/5 101/61/5
f 103/62/6 100/61/6 99/59/6 104/58/6
f 108/58/1 111/57/1 109/60/1 106/59/1
f 107/58/2 108/62/2 106/61/2 105/59/2
f 112/57/3 107/58/3 105/59/3 110/60/3
f 111/61/4 112/59/4 110/58/4 109/62/4
f 110/58/5 105/59/5 106/61/5 109/62/5
f 111/61/6 108/62/6 107/58/6 112/59/6
f 116/58/1 119/57/1 117/60/1 114/59/1
f 115/58/2 116/62/2 114/61/2 113/59/2
f 120/57/3 115/58/3 113/59/3 118/60/3
f 119/61/4 120/59/4 118/58/4 117/62/4
f 118/58/5 113/59/5 114/61/5 117/62/5
f 119/61/6 116/62/6 115/58/6 120/59/6
usemtl m_4ab3f651-4f22-0271-1410-0aebf5fe8517
f 60/49/1 63/50/1 61/51/1 58/52/1
f 59/49/2 60/50/2 58/51/2 57/52/2
f 64/49/3 59/50/3 57/51/3 62/52/3
f 63/49/4 64/50/4 62/51/4 61/52/4
f 62/49/5 57/50/5 58/51/5 61/52/5
f 63/53/6 60/54/6 59/55/6 64/56/6
f 68/49/1 71/50/1 69/51/1 66/52/1
f 67/49/2 68/50/2 66/51/2 65/52/2
f 72/49/3 67/50/3 65/51/3 70/52/3
f 71/49/4 72/50/4 70/51/4 69/52/4
f 70/49/5 65/50/5 66/51/5 69/52/5
f 71/53/6 68/54/6 67/55/6 72/56/6
f 76/50/1 79/49/1 77/52/1 74/51/1
f 75/50/2 76/49/2 74/52/2 73/51/2
f 80/50/3 75/49/3 73/52/3 78/51/3
f 79/50/4 80/49/4 78/52/4 77/51/4
f 78/50/5 73/49/5 74/52/5 77/51/5
f 79/54/6 76/53/6 75/56/6 80/55/6
f 84/50/1 87/49/1 85/52/1 82/51/1
f 83/50/2 84/49/2 82/52/2 81/51/2
f 88/50/3 83/49/3 81/52/3 86/51/3
f 87/50/4 88/49/4 86/52/4 85/51/4
f 86/50/5 81/49/5 82/52/5 85/51/5
f 87/54/6 84/53/6 83/56/6 88/55/6
usemtl m_f80a42bf-1594-7bcb-0d34-41ed31796bcf
f 124/63/1 127/64/1 125/65/1 122/66/1
f 123/67/2 124/68/2 122/69/2 121/70/2
f 128/63/3 123/64/3 121/65/3 126/66/3
f 127/67/4 128/68/4 126/69/4 125/70/4
f 126/63/5 121/64/5 122/65/5 125/66/5
f 127/63/6 124/64/6 123/65/6 128/66/6
f 132/63/1 135/64/1 133/65/1 130/66/1
f 131/67/2 132/68/2 130/69/2 129/70/2
f 136/63/3 131/64/3 129/65/3 134/66/3
f 135/67/4 136/68/4 134/69/4 133/70/4
f 134/63/5 129/64/5 130/65/5 133/66/5
f 135/63/6 132/64/6 131/65/6 136/66/6
f 140/71/1 143/72/1 141/73/1 138/74/1
f 139/63/2 140/64/2 138/65/2 137/66/2
f 144/71/3 139/72/3 137/73/3 142/74/3
f 143/63/4 144/64/4 142/65/4 141/66/4
f 142/66/5 137/63/5 138/64/5 141/65/5
f 143/66/6 140/63/6 139/64/6 144/65/6
f 308/72/1 311/71/1 309/74/1 306/73/1
f 307/64/2 308/63/2 306/66/2 305/65/2
f 312/72/3 307/71/3 305/74/3 310/73/3
f 311/64/4 312/63/4 310/66/4 309/65/4
f 310/65/5 305/64/5 306/63/5 309/66/5
f 311/65/6 308/64/6 307/63/6 312/66/6
f 316/64/1 319/63/1 317/66/1 314/65/1
f 315/68/2 316/67/2 314/70/2 313/69/2
f 320/64/3 315/63/3 313/66/3 318/65/3
f 319/68/4 320/67/4 318/70/4 317/69/4
f 318/66/5 313/65/5 314/64/5 317/63/5
f 319/66/6 316/65/6 315/64/6 320/63/6
f 324/64/1 327/63/1 325/66/1 322/65/1
f 323/68/2 324/67/2 322/70/2 321/69/2
f 328/64/3 323/63/3 321/66/3 326/65/3
f 327/68/4 328/67/4 326/70/4 325/69/4
f 326/66/5 321/65/5 322/64/5 325/63/5
f 327/66/6 324/65/6 323/64/6 328/63/6
usemtl m_4890b568-30af-09f6-cf68-a39a687cea9c
f 156/87/1 159/88/1 157/89/1 154/90/1
f 155/91/2 156/90/2 154/70/2 153/92/2
f 160/93/3 155/88/3 153/89/3 158/94/3
f 158/94/5 153/89/5 154/88/5 157/93/5
f 159/88/6 156/87/6 155/90/6 160/89/6
f 180/88/1 183/87/1 181/90/1 178/89/1
f 184/88/3 179/93/3 177/94/3 182/89/3
f 183/90/4 184/91/4 182/92/4 181/70/4
f 182/89/5 177/94/5 178/93/5 181/88/5
f 183/87/6 180/88/6 179/89/6 184/90/6
f 188/93/1 191/88/1 189/89/1 186/94/1
f 192/87/3 187/88/3 185/89/3 190/90/3
f 191/90/4 192/91/4 190/92/4 189/70/4
f 190/88/5 185/93/5 186/94/5 189/89/5
f 191/87/6 188/88/6 187/89/6 192/90/6
f 204/88/1 207/93/1 205/94/1 202/89/1
f 203/91/2 204/90/2 202/70/2 201/92/2
f 208/88/3 203/87/3 201/90/3 206/89/3
f 206/93/5 201/88/5 202/89/5 205/94/5
f 207/88/6 204/87/6 203/90/6 208/89/6
f 236/126/1 239/127/1 237/128/1 234/129/1
f 235/130/2 236/126/2 234/129/2 233/78/2
f 240/126/3 235/127/3 233/128/3 238/129/3
f 239/130/4 240/126/4 238/129/4 237/78/4
f 238/131/5 233/126/5 234/130/5 237/70/5
f 239/131/6 236/126/6 235/130/6 240/70/6
f 244/127/1 247/126/1 245/129/1 242/128/1
f 243/126/2 244/130/2 242/78/2 241/129/2
f 248/127/3 243/126/3 241/129/3 246/128/3
f 247/126/4 248/130/4 246/78/4 245/129/4
f 246/126/5 241/131/5 242/70/5 245/130/5
f 247/126/6 244/131/6 243/70/6 248/130/6
usemtl m_20b13978-4fc2-8143-eddc-8d41e8d4a2bb
f 159/95/4 160/96/4 158/97/4 157/98/4
f 164/99/1 167/63/1 165/100/1 162/101/1
f 163/102/2 164/63/2 162/100/2 161/103/2
f 168/102/3 163/63/3 161/100/3 166/103/3
f 167/102/4 168/63/4 166/100/4 165/103/4
f 166/100/5 161/101/5 162/99/5 165/63/5
f 167/100/6 164/101/6 163/99/6 168/63/6
f 179/96/2 180/95/2 178/98/2 177/97/2
f 187/96/2 188/95/2 186/98/2 185/97/2
f 196/63/1 199/102/1 197/103/1 194/100/1
f 195/102/2 196/63/2 194/100/2 193/103/2
f 200/63/3 195/99/3 193/101/3 198/100/3
f 199/102/4 200/63/4 198/100/4 197/103/4
f 198/100/5 193/101/5 194/99/5 197/63/5
f 199/100/6 196/101/6 195/99/6 200/63/6
f 207/95/4 208/96/4 206/97/4 205/98/4
f 220/114/1 223/115/1 221/116/1 218/117/1
f 219/102/2 220/118/2 218/119/2 217/120/2
f 224/114/3 219/115/3 217/116/3 222/117/3
f 223/102/4 224/118/4 222/119/4 221/120/4
f 222/120/5 217/102/5 218/118/5 221/119/5
f 223/120/6 220/102/6 219/118/6 224/119/6
f 228/103/1 231/121/1 229/122/1 226/118/1
f 227/123/2 228/117/2 226/124/2 225/125/2
f 232/103/3 227/121/3 225/122/3 230/118/3
f 231/123/4 232/117/4 230/124/4 229/125/4
f 230/125/5 225/119/5 226/1/5 229/124/5
f 231/125/6 228/119/6 227/1/6 232/124/6
f 252/108/1 255/132/1 253/133/1 250/134/1
f 251/135/11 252/136/11 250/137/11 249/114/11
f 256/108/3 251/132/3 249/133/3 254/134/3
f 255/135/12 256/136/12 254/137/12 253/114/12
f 254/138/13 249/139/13 250/132/13 253/108/13
f 255/138/14 252/139/14 251/132/14 256/108/14
f 260/108/1 263/132/1 261/133/1 258/134/1
f 259/135/11 260/136/11 258/137/11 257/114/11
f 264/108/3 259/132/3 257/133/3 262/134/3
f 263/135/12 264/136/12 262/137/12 261/114/12
f 262/138/13 257/139/13 258/132/13 261/108/13
f 263/138/14 260/139/14 259/132/14 264/108/14
f 268/132/1 271/108/1 269/134/1 266/133/1
f 267/136/14 268/135/14 266/114/14 265/137/14
f 272/132/3 267/108/3 265/134/3 270/133/3
f 271/136/13 272/135/13 270/114/13 269/137/13
f 270/139/11 265/138/11 266/108/11 269/132/11
f 271/139/12 268/138/12 267/108/12 272/132/12
f 276/132/1 279/108/1 277/134/1 274/133/1
f 275/136/14 276/135/14 274/114/14 273/137/14
f 280/132/3 275/108/3 273/134/3 278/133/3
f 279/136/13 280/135/13 278/114/13 277/137/13
f 278/139/11 273/138/11 274/108/11 277/132/11
f 279/139/12 276/138/12 275/108/12 280/132/12
usemtl m_d9d69c3a-5ba3-3bbe-30c9-f864775ef81e
f 172/104/1 175/105/1 173/106/1 170/107/1
f 171/104/2 172/105/2 170/106/2 169/107/2
f 176/104/3 171/105/3 169/106/3 174/107/3
f 175/104/4 176/105/4 174/106/4 173/107/4
f 174/105/5 169/108/5 170/109/5 173/106/5
f 212/104/1 215/105/1 213/106/1 210/107/1
f 211/104/2 212/105/2 210/106/2 209/107/2
f 216/104/3 211/105/3 209/106/3 214/107/3
f 215/104/4 216/105/4 214/106/4 213/107/4
f 214/105/5 209/108/5 210/109/5 213/106/5
usemtl none
f 175/110/6 172/111/6 171/112/6 176/113/6
f 215/110/6 212/111/6 211/112/6 216/113/6
usemtl m_c3b161cf-2b13-3649-0967-e656bc2b4762
f 332/140/1 335/141/1 333/142/1 330/143/1
f 331/140/2 332/141/2 330/142/2 329/143/2
f 336/140/3 331/141/3 329/142/3 334/143/3
f 335/140/4 336/141/4 334/142/4 333/143/4
f 334/144/5 329/145/5 330/146/5 333/147/5
f 335/148/6 332/149/6 331/142/6 336/143/6
