# Blender 4.1.1
# www.blender.org
mtllib left_p_rod.mtl
o Rod
v -1.187500 1.375000 -4.750000
v -1.187500 1.375000 -6.000000
v -1.187500 1.125000 -4.750000
v -1.187500 1.125000 -6.000000
v -1.312500 1.375000 -6.000000
v -1.312500 1.375000 -4.750000
v -1.312500 1.125000 -6.000000
v -1.312500 1.125000 -4.750000
v -1.181250 1.443750 -4.368750
v -1.181250 1.443750 -4.756250
v -1.181250 1.056250 -4.368750
v -1.181250 1.056250 -4.756250
v -1.318750 1.443750 -4.756250
v -1.318750 1.443750 -4.368750
v -1.318750 1.056250 -4.756250
v -1.318750 1.056250 -4.368750
v -1.250000 1.375000 -4.437500
v -1.250000 1.375000 -4.687500
v -1.250000 1.125000 -4.437500
v -1.250000 1.125000 -4.687500
v -1.375000 1.375000 -4.687500
v -1.375000 1.375000 -4.437500
v -1.375000 1.125000 -4.687500
v -1.375000 1.125000 -4.437500
v -1.184375 1.565625 -4.309375
v -1.184375 1.565625 -4.815625
v -1.184375 1.496875 -4.309375
v -1.184375 1.496875 -4.815625
v -1.315625 1.565625 -4.815625
v -1.315625 1.565625 -4.309375
v -1.315625 1.496875 -4.815625
v -1.315625 1.496875 -4.309375
vn -0.0000 -0.0000 -1.0000
vn 1.0000 -0.0000 -0.0000
vn -0.0000 -0.0000 1.0000
vn -1.0000 -0.0000 -0.0000
vn -0.0000 1.0000 -0.0000
vn -0.0000 -1.0000 -0.0000
vt 0.982143 0.312500
vt 1.000000 0.312500
vt 1.000000 0.348214
vt 0.982143 0.348214
vt 0.794643 0.312500
vt 0.973214 0.312500
vt 0.973214 0.348214
vt 0.794643 0.348214
vt 0.812500 0.312500
vt 0.812500 0.348214
vt 0.794643 0.330357
vt 0.973214 0.330357
vt 0.964286 0.080357
vt 0.982143 0.080357
vt 0.982143 0.133929
vt 0.964286 0.133929
vt 0.946429 0.080357
vt 1.000000 0.080357
vt 1.000000 0.133929
vt 0.946429 0.133929
vt 0.928571 0.008929
vt 0.946429 0.008929
vt 0.946429 0.062500
vt 0.928571 0.062500
vt 0.910714 0.035714
vt 0.892857 0.035714
vt 0.892857 0.071429
vt 0.910714 0.071429
vt 0.857143 0.035714
vt 0.857143 0.071429
vt 0.000000 0.973214
vt 0.017857 0.973214
vt 0.017857 0.982143
vt 0.000000 0.982143
vt 0.482143 0.553571
vt 0.553571 0.553571
vt 0.553571 0.562500
vt 0.482143 0.562500
vt 0.133929 0.982143
vt 0.133929 1.000000
vt 0.062500 1.000000
vt 0.062500 0.982143
s 0
usemtl m_0c0763b5-a325-edc4-31a8-810cceeac193.010
f 4/1/1 7/2/1 5/3/1 2/4/1
f 3/5/2 4/6/2 2/7/2 1/8/2
f 8/9/3 3/5/3 1/8/3 6/10/3
f 7/6/4 8/5/4 6/8/4 5/7/4
f 6/11/5 1/5/5 2/6/5 5/12/5
f 7/6/6 4/12/6 3/11/6 8/5/6
f 12/13/1 15/14/1 13/15/1 10/16/1
f 11/17/2 12/18/2 10/19/2 9/20/2
f 16/13/3 11/14/3 9/15/3 14/16/3
f 15/17/4 16/18/4 14/19/4 13/20/4
f 14/21/5 9/22/5 10/23/5 13/24/5
f 15/21/6 12/22/6 11/23/6 16/24/6
f 20/25/1 23/26/1 21/27/1 18/28/1
f 19/29/2 20/26/2 18/27/2 17/30/2
f 24/26/3 19/25/3 17/28/3 22/27/3
f 23/26/4 24/29/4 22/30/4 21/27/4
f 22/26/5 17/25/5 18/28/5 21/27/5
f 23/26/6 20/25/6 19/28/6 24/27/6
f 28/31/1 31/32/1 29/33/1 26/34/1
f 27/35/2 28/36/2 26/37/2 25/38/2
f 32/33/3 27/34/3 25/31/3 30/32/3
f 31/36/4 32/35/4 30/38/4 29/37/4
f 30/39/5 25/40/5 26/41/5 29/42/5
f 31/39/6 28/40/6 27/41/6 32/42/6
