# Blender 4.1.1
# www.blender.org
mtllib right_m_rod.mtl
o cube.001
v 1.312500 0.187500 4.750000
v 1.312500 0.187500 4.375000
v 1.312500 -0.187500 4.750000
v 1.312500 -0.187500 4.375000
v 1.187500 0.187500 4.375000
v 1.187500 0.187500 4.750000
v 1.187500 -0.187500 4.375000
v 1.187500 -0.187500 4.750000
v 1.187500 0.125000 4.375000
v 1.312500 0.125000 4.375000
v 1.187500 -0.125000 4.375000
v 1.312500 -0.125000 4.375000
v 1.312500 0.125000 0.125000
v 1.187500 0.125000 0.125000
v 1.312500 -0.125000 0.125000
v 1.187500 -0.125000 0.125000
vn -0.0000 -0.0000 -1.0000
vn 1.0000 -0.0000 -0.0000
vn -0.0000 -0.0000 1.0000
vn -1.0000 -0.0000 -0.0000
vn -0.0000 1.0000 -0.0000
vn -0.0000 -1.0000 -0.0000
vt 0.857143 0.008929
vt 0.839286 0.008929
vt 0.839286 0.062500
vt 0.857143 0.062500
vt 0.785714 0.008929
vt 0.785714 0.062500
vt 1.000000 0.812500
vt 0.392857 0.812500
vt 0.392857 0.848214
vt 1.000000 0.848214
vt 0.410714 0.812500
vt 0.410714 0.848214
vt 0.392857 0.794643
vt 1.000000 0.794643
s 0
usemtl m_0c0763b5-a325-edc4-31a8-810cceeac193.012
f 4/1/1 7/2/1 5/3/1 2/4/1
f 3/2/2 4/5/2 2/6/2 1/3/2
f 8/1/3 3/2/3 1/3/3 6/4/3
f 7/2/4 8/5/4 6/6/4 5/3/4
f 6/1/5 1/2/5 2/3/5 5/4/5
f 7/1/6 4/2/6 3/3/6 8/4/6
f 12/7/2 15/8/2 13/9/2 10/10/2
f 11/11/3 12/8/3 10/9/3 9/12/3
f 16/7/4 11/8/4 9/9/4 14/10/4
f 15/11/1 16/8/1 14/9/1 13/12/1
f 14/7/5 9/8/5 10/13/5 13/14/5
f 15/14/6 12/13/6 11/8/6 16/7/6
