# Blender 4.0.2
# www.blender.org
mtllib right_c_rod.mtl
o cube.007
v 1.375000 0.125000 0.125000
v 1.375000 0.125000 -0.125000
v 1.375000 -0.125000 0.125000
v 1.375000 -0.125000 -0.125000
v 1.125000 0.125000 -0.125000
v 1.125000 0.125000 0.125000
v 1.125000 -0.125000 -0.125000
v 1.125000 -0.125000 0.125000
v 1.187500 0.125000 1.500000
v 1.187500 0.125000 0.187500
v 1.187500 -0.125000 1.500000
v 1.187500 -0.125000 0.187500
v 1.062500 0.125000 0.187500
v 1.062500 0.125000 1.500000
v 1.062500 -0.125000 0.187500
v 1.062500 -0.125000 1.500000
v 1.187500 0.125000 -0.187500
v 1.187500 0.125000 -1.500000
v 1.187500 -0.125000 -0.187500
v 1.187500 -0.125000 -1.500000
v 1.062500 0.125000 -1.500000
v 1.062500 0.125000 -0.187500
v 1.062500 -0.125000 -1.500000
v 1.062500 -0.125000 -0.187500
v 1.250000 0.125000 1.812500
v 1.250000 0.125000 1.562500
v 1.250000 -0.125000 1.812500
v 1.250000 -0.125000 1.562500
v 1.000000 0.125000 1.562500
v 1.000000 0.125000 1.812500
v 1.000000 -0.125000 1.562500
v 1.000000 -0.125000 1.812500
v 1.187500 0.187500 1.875000
v 1.187500 0.187500 1.500000
v 1.187500 -0.187500 1.875000
v 1.187500 -0.187500 1.500000
v 1.062500 0.187500 1.500000
v 1.062500 0.187500 1.875000
v 1.062500 -0.187500 1.500000
v 1.062500 -0.187500 1.875000
v 1.187500 0.187500 0.187500
v 1.187500 0.187500 -0.187500
v 1.187500 -0.187500 0.187500
v 1.187500 -0.187500 -0.187500
v 1.062500 0.187500 -0.187500
v 1.062500 0.187500 0.187500
v 1.062500 -0.187500 -0.187500
v 1.062500 -0.187500 0.187500
v 1.193750 0.125000 -1.562500
v 1.193750 0.125000 -1.812500
v 1.193750 -0.125000 -1.562500
v 1.193750 -0.125000 -1.812500
v 0.943750 0.125000 -1.812500
v 0.943750 0.125000 -1.562500
v 0.943750 -0.125000 -1.812500
v 0.943750 -0.125000 -1.562500
v 1.187500 0.187500 -1.500000
v 1.187500 0.187500 -1.875000
v 1.187500 -0.187500 -1.500000
v 1.187500 -0.187500 -1.875000
v 1.062500 0.187500 -1.875000
v 1.062500 0.187500 -1.500000
v 1.062500 -0.187500 -1.875000
v 1.062500 -0.187500 -1.500000
vn -0.0000 -0.0000 -1.0000
vn 1.0000 -0.0000 -0.0000
vn -0.0000 -0.0000 1.0000
vn -1.0000 -0.0000 -0.0000
vn -0.0000 1.0000 -0.0000
vn -0.0000 -1.0000 -0.0000
vt 0.892857 0.071429
vt 0.928571 0.071429
vt 0.928571 0.035714
vt 0.892857 0.035714
vt 0.857143 0.035714
vt 0.857143 0.071429
vt 0.812500 0.410714
vt 0.830357 0.410714
vt 0.830357 0.446429
vt 0.812500 0.446429
vt 1.000000 0.410714
vt 1.000000 0.446429
vt 0.812500 0.375000
vt 1.000000 0.375000
vt 0.812500 0.428571
vt 1.000000 0.428571
vt 1.000000 0.401786
vt 1.000000 0.419643
vt 0.812500 0.419643
vt 0.812500 0.401786
vt 0.839286 0.062500
vt 0.857143 0.062500
vt 0.857143 0.008929
vt 0.839286 0.008929
vt 0.785714 0.008929
vt 0.785714 0.062500
s 0
usemtl m_a04509b2-9e79-7152-ac01-54b87f7e5258.017
f 4/1/1 7/2/1 5/3/1 2/4/1
f 3/1/2 4/4/2 2/5/2 1/6/2
f 8/3/3 3/4/3 1/1/3 6/2/3
f 7/4/4 8/5/4 6/6/4 5/1/4
f 6/3/5 1/4/5 2/1/5 5/2/5
f 7/3/6 4/4/6 3/1/6 8/2/6
f 12/7/1 15/8/1 13/9/1 10/10/1
f 11/7/2 12/11/2 10/12/2 9/10/2
f 16/7/3 11/8/3 9/9/3 14/10/3
f 15/13/4 16/14/4 14/11/4 13/7/4
f 14/15/5 9/10/5 10/12/5 13/16/5
f 15/17/6 12/18/6 11/19/6 16/20/6
f 20/7/1 23/8/1 21/9/1 18/10/1
f 19/7/2 20/11/2 18/12/2 17/10/2
f 24/7/3 19/8/3 17/9/3 22/10/3
f 23/13/4 24/14/4 22/11/4 21/7/4
f 22/15/5 17/10/5 18/12/5 21/16/5
f 23/17/6 20/18/6 19/19/6 24/20/6
f 28/1/1 31/2/1 29/3/1 26/4/1
f 27/1/2 28/4/2 26/5/2 25/6/2
f 32/3/3 27/4/3 25/1/3 30/2/3
f 31/4/4 32/5/4 30/6/4 29/1/4
f 30/3/5 25/4/5 26/1/5 29/2/5
f 31/3/6 28/4/6 27/1/6 32/2/6
f 36/21/1 39/22/1 37/23/1 34/24/1
f 35/21/2 36/24/2 34/25/2 33/26/2
f 40/23/3 35/24/3 33/21/3 38/22/3
f 39/24/4 40/25/4 38/26/4 37/21/4
f 38/23/5 33/24/5 34/21/5 37/22/5
f 39/23/6 36/24/6 35/21/6 40/22/6
f 44/21/1 47/22/1 45/23/1 42/24/1
f 43/21/2 44/24/2 42/25/2 41/26/2
f 48/23/3 43/24/3 41/21/3 46/22/3
f 47/24/4 48/25/4 46/26/4 45/21/4
f 46/23/5 41/24/5 42/21/5 45/22/5
f 47/23/6 44/24/6 43/21/6 48/22/6
f 52/1/1 55/2/1 53/3/1 50/4/1
f 51/1/2 52/4/2 50/5/2 49/6/2
f 56/3/3 51/4/3 49/1/3 54/2/3
f 55/4/4 56/5/4 54/6/4 53/1/4
f 54/3/5 49/4/5 50/1/5 53/2/5
f 55/3/6 52/4/6 51/1/6 56/2/6
f 60/21/1 63/22/1 61/23/1 58/24/1
f 59/21/2 60/24/2 58/25/2 57/26/2
f 64/23/3 59/24/3 57/21/3 62/22/3
f 63/24/4 64/25/4 62/26/4 61/21/4
f 62/23/5 57/24/5 58/21/5 61/22/5
f 63/23/6 60/24/6 59/21/6 64/22/6
