# Blender 4.0.2
# www.blender.org
mtllib right_pins.mtl
o cube.004
v 1.312500 0.125000 -3.250000
v 1.312500 0.125000 -3.500000
v 1.312500 -0.125000 -3.250000
v 1.312500 -0.125000 -3.500000
v 1.062500 0.125000 -3.500000
v 1.062500 0.125000 -3.250000
v 1.062500 -0.125000 -3.500000
v 1.062500 -0.125000 -3.250000
v 1.312500 0.125000 0.125000
v 1.312500 0.125000 -0.125000
v 1.312500 -0.125000 0.125000
v 1.312500 -0.125000 -0.125000
v 1.062500 0.125000 -0.125000
v 1.062500 0.125000 0.125000
v 1.062500 -0.125000 -0.125000
v 1.062500 -0.125000 0.125000
v 1.312500 0.125000 1.812500
v 1.312500 0.125000 1.562500
v 1.312500 -0.125000 1.812500
v 1.312500 -0.125000 1.562500
v 1.062500 0.125000 1.562500
v 1.062500 0.125000 1.812500
v 1.062500 -0.125000 1.562500
v 1.062500 -0.125000 1.812500
v 1.312500 0.125000 3.500000
v 1.312500 0.125000 3.250000
v 1.312500 -0.125000 3.500000
v 1.312500 -0.125000 3.250000
v 1.062500 0.125000 3.250000
v 1.062500 0.125000 3.500000
v 1.062500 -0.125000 3.250000
v 1.062500 -0.125000 3.500000
v 1.312500 0.125000 -1.562500
v 1.312500 0.125000 -1.812500
v 1.312500 -0.125000 -1.562500
v 1.312500 -0.125000 -1.812500
v 1.062500 0.125000 -1.812500
v 1.062500 0.125000 -1.562500
v 1.062500 -0.125000 -1.812500
v 1.062500 -0.125000 -1.562500
vn -0.0000 -0.0000 -1.0000
vn 1.0000 -0.0000 -0.0000
vn -0.0000 -0.0000 1.0000
vn -0.0000 1.0000 -0.0000
vn -0.0000 -1.0000 -0.0000
vt 0.375000 0.500000
vt 0.500000 0.500000
vt 0.500000 0.625000
vt 0.375000 0.625000
vt 0.250000 0.500000
vt 0.250000 0.625000
s 0
usemtl m_1c52f3cf-e681-fd29-fdc4-35d95167370a.003
f 4/1/1 7/2/1 5/3/1 2/4/1
f 3/5/2 4/1/2 2/4/2 1/6/2
f 8/2/3 3/1/3 1/4/3 6/3/3
f 6/2/4 1/1/4 2/4/4 5/3/4
f 7/2/5 4/1/5 3/4/5 8/3/5
f 12/1/1 15/2/1 13/3/1 10/4/1
f 11/5/2 12/1/2 10/4/2 9/6/2
f 16/2/3 11/1/3 9/4/3 14/3/3
f 14/2/4 9/1/4 10/4/4 13/3/4
f 15/2/5 12/1/5 11/4/5 16/3/5
f 20/1/1 23/2/1 21/3/1 18/4/1
f 19/5/2 20/1/2 18/4/2 17/6/2
f 24/2/3 19/1/3 17/4/3 22/3/3
f 22/2/4 17/1/4 18/4/4 21/3/4
f 23/2/5 20/1/5 19/4/5 24/3/5
f 28/1/1 31/2/1 29/3/1 26/4/1
f 27/5/2 28/1/2 26/4/2 25/6/2
f 32/2/3 27/1/3 25/4/3 30/3/3
f 30/2/4 25/1/4 26/4/4 29/3/4
f 31/2/5 28/1/5 27/4/5 32/3/5
f 36/1/1 39/2/1 37/3/1 34/4/1
f 35/5/2 36/1/2 34/4/2 33/6/2
f 40/2/3 35/1/3 33/4/3 38/3/3
f 38/2/4 33/1/4 34/4/4 37/3/4
f 39/2/5 36/1/5 35/4/5 40/3/5
