# Blender 4.0.2
# www.blender.org
mtllib right_piston.mtl
o cube.041
v 1.250000 0.250000 3.625000
v 1.250000 0.250000 3.500000
v 1.250000 -0.250000 3.625000
v 1.250000 -0.250000 3.500000
v 1.062500 0.250000 3.500000
v 1.062500 0.250000 3.625000
v 1.062500 -0.250000 3.500000
v 1.062500 -0.250000 3.625000
v 1.187500 -0.062500 -3.625000
v 1.187500 -0.062500 -4.375000
v 1.187500 -0.187500 -3.625000
v 1.187500 -0.187500 -4.375000
v 1.062500 -0.062500 -4.375000
v 1.062500 -0.062500 -3.625000
v 1.062500 -0.187500 -4.375000
v 1.062500 -0.187500 -3.625000
v 1.187500 0.187500 -3.625000
v 1.187500 0.187500 -4.375000
v 1.187500 0.062500 -3.625000
v 1.187500 0.062500 -4.375000
v 1.062500 0.187500 -4.375000
v 1.062500 0.187500 -3.625000
v 1.062500 0.062500 -4.375000
v 1.062500 0.062500 -3.625000
v 1.187500 0.187500 -1.937500
v 1.187500 0.187500 -3.125000
v 1.187500 0.062500 -1.937500
v 1.187500 0.062500 -3.125000
v 1.062500 0.187500 -3.125000
v 1.062500 0.187500 -1.937500
v 1.062500 0.062500 -3.125000
v 1.062500 0.062500 -1.937500
v 1.187500 -0.062500 -1.937500
v 1.187500 -0.062500 -3.125000
v 1.187500 -0.187500 -1.937500
v 1.187500 -0.187500 -3.125000
v 1.062500 -0.062500 -3.125000
v 1.062500 -0.062500 -1.937500
v 1.062500 -0.187500 -3.125000
v 1.062500 -0.187500 -1.937500
v 1.187500 -0.062500 -0.250000
v 1.187500 -0.062500 -1.437500
v 1.187500 -0.187500 -0.250000
v 1.187500 -0.187500 -1.437500
v 1.062500 -0.062500 -1.437500
v 1.062500 -0.062500 -0.250000
v 1.062500 -0.187500 -1.437500
v 1.062500 -0.187500 -0.250000
v 1.187500 0.187500 -0.250000
v 1.187500 0.187500 -1.437500
v 1.187500 0.062500 -0.250000
v 1.187500 0.062500 -1.437500
v 1.062500 0.187500 -1.437500
v 1.062500 0.187500 -0.250000
v 1.062500 0.062500 -1.437500
v 1.062500 0.062500 -0.250000
v 1.187500 0.187500 1.437500
v 1.187500 0.187500 0.250000
v 1.187500 0.062500 1.437500
v 1.187500 0.062500 0.250000
v 1.062500 0.187500 0.250000
v 1.062500 0.187500 1.437500
v 1.062500 0.062500 0.250000
v 1.062500 0.062500 1.437500
v 1.187500 -0.062500 1.437500
v 1.187500 -0.062500 0.250000
v 1.187500 -0.187500 1.437500
v 1.187500 -0.187500 0.250000
v 1.062500 -0.062500 0.250000
v 1.062500 -0.062500 1.437500
v 1.062500 -0.187500 0.250000
v 1.062500 -0.187500 1.437500
v 1.187500 -0.062500 3.125000
v 1.187500 -0.062500 1.937500
v 1.187500 -0.187500 3.125000
v 1.187500 -0.187500 1.937500
v 1.062500 -0.062500 1.937500
v 1.062500 -0.062500 3.125000
v 1.062500 -0.187500 1.937500
v 1.062500 -0.187500 3.125000
v 1.187500 0.187500 3.125000
v 1.187500 0.187500 1.937500
v 1.187500 0.062500 3.125000
v 1.187500 0.062500 1.937500
v 1.062500 0.187500 1.937500
v 1.062500 0.187500 3.125000
v 1.062500 0.062500 1.937500
v 1.062500 0.062500 3.125000
v 1.187500 -0.062500 4.375000
v 1.187500 -0.062500 3.625000
v 1.187500 -0.187500 4.375000
v 1.187500 -0.187500 3.625000
v 1.062500 -0.062500 3.625000
v 1.062500 -0.062500 4.375000
v 1.062500 -0.187500 3.625000
v 1.062500 -0.187500 4.375000
v 1.187500 0.187500 4.375000
v 1.187500 0.187500 3.625000
v 1.187500 0.062500 4.375000
v 1.187500 0.062500 3.625000
v 1.062500 0.187500 3.625000
v 1.062500 0.187500 4.375000
v 1.062500 0.062500 3.625000
v 1.062500 0.062500 4.375000
v 1.187500 0.437500 -3.187500
v 1.187500 0.437500 -3.562500
v 1.187500 0.312500 -3.187500
v 1.187500 0.312500 -3.562500
v 1.062500 0.437500 -3.562500
v 1.062500 0.437500 -3.187500
v 1.062500 0.312500 -3.562500
v 1.062500 0.312500 -3.187500
v 1.187500 0.312500 -3.187500
v 1.187500 0.312500 -3.312500
v 1.187500 -0.312500 -3.187500
v 1.187500 -0.312500 -3.312500
v 1.062500 0.312500 -3.312500
v 1.062500 0.312500 -3.187500
v 1.062500 -0.312500 -3.312500
v 1.062500 -0.312500 -3.187500
v 1.187500 0.312500 -3.437500
v 1.187500 0.312500 -3.562500
v 1.187500 -0.312500 -3.437500
v 1.187500 -0.312500 -3.562500
v 1.062500 0.312500 -3.562500
v 1.062500 0.312500 -3.437500
v 1.062500 -0.312500 -3.562500
v 1.062500 -0.312500 -3.437500
v 1.250000 0.250000 -3.500000
v 1.250000 0.250000 -3.625000
v 1.250000 -0.250000 -3.500000
v 1.250000 -0.250000 -3.625000
v 1.062500 0.250000 -3.625000
v 1.062500 0.250000 -3.500000
v 1.062500 -0.250000 -3.625000
v 1.062500 -0.250000 -3.500000
v 1.187500 -0.312500 -3.187500
v 1.187500 -0.312500 -3.562500
v 1.187500 -0.437500 -3.187500
v 1.187500 -0.437500 -3.562500
v 1.062500 -0.312500 -3.562500
v 1.062500 -0.312500 -3.187500
v 1.062500 -0.437500 -3.562500
v 1.062500 -0.437500 -3.187500
v 1.250000 0.250000 -3.125000
v 1.250000 0.250000 -3.250000
v 1.250000 -0.250000 -3.125000
v 1.250000 -0.250000 -3.250000
v 1.062500 0.250000 -3.250000
v 1.062500 0.250000 -3.125000
v 1.062500 -0.250000 -3.250000
v 1.062500 -0.250000 -3.125000
v 1.187500 0.437500 -1.500000
v 1.187500 0.437500 -1.875000
v 1.187500 0.312500 -1.500000
v 1.187500 0.312500 -1.875000
v 1.062500 0.437500 -1.875000
v 1.062500 0.437500 -1.500000
v 1.062500 0.312500 -1.875000
v 1.062500 0.312500 -1.500000
v 1.187500 0.312500 -1.500000
v 1.187500 0.312500 -1.625000
v 1.187500 -0.312500 -1.500000
v 1.187500 -0.312500 -1.625000
v 1.062500 0.312500 -1.625000
v 1.062500 0.312500 -1.500000
v 1.062500 -0.312500 -1.625000
v 1.062500 -0.312500 -1.500000
v 1.187500 0.312500 -1.750000
v 1.187500 0.312500 -1.875000
v 1.187500 -0.312500 -1.750000
v 1.187500 -0.312500 -1.875000
v 1.062500 0.312500 -1.875000
v 1.062500 0.312500 -1.750000
v 1.062500 -0.312500 -1.875000
v 1.062500 -0.312500 -1.750000
v 1.250000 0.250000 -1.812500
v 1.250000 0.250000 -1.937500
v 1.250000 -0.250000 -1.812500
v 1.250000 -0.250000 -1.937500
v 1.062500 0.250000 -1.937500
v 1.062500 0.250000 -1.812500
v 1.062500 -0.250000 -1.937500
v 1.062500 -0.250000 -1.812500
v 1.187500 -0.312500 -1.500000
v 1.187500 -0.312500 -1.875000
v 1.187500 -0.437500 -1.500000
v 1.187500 -0.437500 -1.875000
v 1.062500 -0.312500 -1.875000
v 1.062500 -0.312500 -1.500000
v 1.062500 -0.437500 -1.875000
v 1.062500 -0.437500 -1.500000
v 1.250000 0.250000 -1.437500
v 1.250000 0.250000 -1.562500
v 1.250000 -0.250000 -1.437500
v 1.250000 -0.250000 -1.562500
v 1.062500 0.250000 -1.562500
v 1.062500 0.250000 -1.437500
v 1.062500 -0.250000 -1.562500
v 1.062500 -0.250000 -1.437500
v 1.187500 0.437500 0.187500
v 1.187500 0.437500 -0.187500
v 1.187500 0.312500 0.187500
v 1.187500 0.312500 -0.187500
v 1.062500 0.437500 -0.187500
v 1.062500 0.437500 0.187500
v 1.062500 0.312500 -0.187500
v 1.062500 0.312500 0.187500
v 1.187500 0.312500 0.187500
v 1.187500 0.312500 0.062500
v 1.187500 -0.312500 0.187500
v 1.187500 -0.312500 0.062500
v 1.062500 0.312500 0.062500
v 1.062500 0.312500 0.187500
v 1.062500 -0.312500 0.062500
v 1.062500 -0.312500 0.187500
v 1.187500 0.312500 -0.062500
v 1.187500 0.312500 -0.187500
v 1.187500 -0.312500 -0.062500
v 1.187500 -0.312500 -0.187500
v 1.062500 0.312500 -0.187500
v 1.062500 0.312500 -0.062500
v 1.062500 -0.312500 -0.187500
v 1.062500 -0.312500 -0.062500
v 1.250000 0.250000 -0.125000
v 1.250000 0.250000 -0.250000
v 1.250000 -0.250000 -0.125000
v 1.250000 -0.250000 -0.250000
v 1.062500 0.250000 -0.250000
v 1.062500 0.250000 -0.125000
v 1.062500 -0.250000 -0.250000
v 1.062500 -0.250000 -0.125000
v 1.187500 -0.312500 0.187500
v 1.187500 -0.312500 -0.187500
v 1.187500 -0.437500 0.187500
v 1.187500 -0.437500 -0.187500
v 1.062500 -0.312500 -0.187500
v 1.062500 -0.312500 0.187500
v 1.062500 -0.437500 -0.187500
v 1.062500 -0.437500 0.187500
v 1.250000 0.250000 0.250000
v 1.250000 0.250000 0.125000
v 1.250000 -0.250000 0.250000
v 1.250000 -0.250000 0.125000
v 1.062500 0.250000 0.125000
v 1.062500 0.250000 0.250000
v 1.062500 -0.250000 0.125000
v 1.062500 -0.250000 0.250000
v 1.187500 0.437500 1.875000
v 1.187500 0.437500 1.500000
v 1.187500 0.312500 1.875000
v 1.187500 0.312500 1.500000
v 1.062500 0.437500 1.500000
v 1.062500 0.437500 1.875000
v 1.062500 0.312500 1.500000
v 1.062500 0.312500 1.875000
v 1.187500 0.312500 1.875000
v 1.187500 0.312500 1.750000
v 1.187500 -0.312500 1.875000
v 1.187500 -0.312500 1.750000
v 1.062500 0.312500 1.750000
v 1.062500 0.312500 1.875000
v 1.062500 -0.312500 1.750000
v 1.062500 -0.312500 1.875000
v 1.187500 0.312500 1.625000
v 1.187500 0.312500 1.500000
v 1.187500 -0.312500 1.625000
v 1.187500 -0.312500 1.500000
v 1.062500 0.312500 1.500000
v 1.062500 0.312500 1.625000
v 1.062500 -0.312500 1.500000
v 1.062500 -0.312500 1.625000
v 1.250000 0.250000 1.562500
v 1.250000 0.250000 1.437500
v 1.250000 -0.250000 1.562500
v 1.250000 -0.250000 1.437500
v 1.062500 0.250000 1.437500
v 1.062500 0.250000 1.562500
v 1.062500 -0.250000 1.437500
v 1.062500 -0.250000 1.562500
v 1.187500 -0.312500 1.875000
v 1.187500 -0.312500 1.500000
v 1.187500 -0.437500 1.875000
v 1.187500 -0.437500 1.500000
v 1.062500 -0.312500 1.500000
v 1.062500 -0.312500 1.875000
v 1.062500 -0.437500 1.500000
v 1.062500 -0.437500 1.875000
v 1.250000 0.250000 1.937500
v 1.250000 0.250000 1.812500
v 1.250000 -0.250000 1.937500
v 1.250000 -0.250000 1.812500
v 1.062500 0.250000 1.812500
v 1.062500 0.250000 1.937500
v 1.062500 -0.250000 1.812500
v 1.062500 -0.250000 1.937500
v 1.187500 0.437500 3.562500
v 1.187500 0.437500 3.187500
v 1.187500 0.312500 3.562500
v 1.187500 0.312500 3.187500
v 1.062500 0.437500 3.187500
v 1.062500 0.437500 3.562500
v 1.062500 0.312500 3.187500
v 1.062500 0.312500 3.562500
v 1.187500 0.312500 3.562500
v 1.187500 0.312500 3.437500
v 1.187500 -0.312500 3.562500
v 1.187500 -0.312500 3.437500
v 1.062500 0.312500 3.437500
v 1.062500 0.312500 3.562500
v 1.062500 -0.312500 3.437500
v 1.062500 -0.312500 3.562500
v 1.187500 0.312500 3.312500
v 1.187500 0.312500 3.187500
v 1.187500 -0.312500 3.312500
v 1.187500 -0.312500 3.187500
v 1.062500 0.312500 3.187500
v 1.062500 0.312500 3.312500
v 1.062500 -0.312500 3.187500
v 1.062500 -0.312500 3.312500
v 1.250000 0.250000 3.250000
v 1.250000 0.250000 3.125000
v 1.250000 -0.250000 3.250000
v 1.250000 -0.250000 3.125000
v 1.062500 0.250000 3.125000
v 1.062500 0.250000 3.250000
v 1.062500 -0.250000 3.125000
v 1.062500 -0.250000 3.250000
v 1.187500 -0.312500 3.562500
v 1.187500 -0.312500 3.187500
v 1.187500 -0.437500 3.562500
v 1.187500 -0.437500 3.187500
v 1.062500 -0.312500 3.187500
v 1.062500 -0.312500 3.562500
v 1.062500 -0.437500 3.187500
v 1.062500 -0.437500 3.562500
vn -0.0000 -0.0000 -1.0000
vn 1.0000 -0.0000 -0.0000
vn -0.0000 -0.0000 1.0000
vn -0.0000 1.0000 -0.0000
vn -0.0000 -1.0000 -0.0000
vn -1.0000 -0.0000 -0.0000
vt 0.250000 0.687500
vt 0.343750 0.687500
vt 0.343750 0.937500
vt 0.250000 0.937500
vt 0.343750 1.000000
vt 0.093750 0.937500
vt 0.093750 1.000000
vt 0.187500 0.468750
vt 0.187500 0.562500
vt 0.125000 0.562500
vt 0.125000 0.468750
vt 1.000000 0.375000
vt 1.000000 0.000000
vt 0.937500 0.000000
vt 0.937500 0.375000
vt 0.000000 1.000000
vt 0.625000 1.000000
vt 0.625000 0.937500
vt 0.000000 0.937500
vt 0.187500 0.531250
vt 0.250000 0.531250
vt 0.250000 0.593750
vt 0.187500 0.593750
vt 0.000000 0.875000
vt 0.187500 0.875000
vt 0.187500 0.937500
vt 0.125000 0.687500
vt 0.062500 0.687500
vt 0.062500 0.875000
vt 0.125000 0.875000
vt 0.250000 0.875000
vt 0.000000 0.562500
vt 0.062500 0.562500
vt 0.250000 0.562500
vt 0.000000 0.593750
vt 0.062500 0.593750
vt 0.187500 0.812500
vt 0.250000 0.812500
vt 0.000000 0.500000
vt 0.187500 0.500000
s 0
usemtl m_1c52f3cf-e681-fd29-fdc4-35d95167370a.004
f 4/1/1 7/2/1 5/3/1 2/4/1
f 3/5/2 4/3/2 2/6/2 1/7/2
f 8/2/3 3/1/3 1/4/3 6/3/3
f 6/8/4 1/9/4 2/10/4 5/11/4
f 7/11/5 4/10/5 3/9/5 8/8/5
f 11/12/2 12/13/2 10/14/2 9/15/2
f 15/13/6 16/12/6 14/15/6 13/14/6
f 14/12/4 9/15/4 10/14/4 13/13/4
f 15/13/5 12/14/5 11/15/5 16/12/5
f 19/12/2 20/13/2 18/14/2 17/15/2
f 23/13/6 24/12/6 22/15/6 21/14/6
f 22/12/4 17/15/4 18/14/4 21/13/4
f 23/13/5 20/14/5 19/15/5 24/12/5
f 91/13/2 92/12/2 90/15/2 89/14/2
f 95/12/6 96/13/6 94/14/6 93/15/6
f 94/13/4 89/14/4 90/15/4 93/12/4
f 95/15/5 92/12/5 91/13/5 96/14/5
f 99/13/2 100/12/2 98/15/2 97/14/2
f 103/12/6 104/13/6 102/14/6 101/15/6
f 102/13/4 97/14/4 98/15/4 101/12/4
f 103/15/5 100/12/5 99/13/5 104/14/5
f 108/20/1 111/21/1 109/22/1 106/23/1
f 107/24/2 108/25/2 106/26/2 105/19/2
f 112/21/3 107/20/3 105/23/3 110/22/3
f 110/27/4 105/28/4 106/29/4 109/30/4
f 111/27/5 108/28/5 107/29/5 112/30/5
f 116/20/1 119/21/1 117/31/1 114/25/1
f 115/32/2 116/33/2 114/29/2 113/24/2
f 120/34/3 115/9/3 113/25/3 118/31/3
f 124/9/1 127/34/1 125/31/1 122/25/1
f 123/35/2 124/36/2 122/29/2 121/24/2
f 128/34/3 123/9/3 121/25/3 126/31/3
f 132/1/1 135/2/1 133/3/1 130/4/1
f 131/3/2 132/5/2 130/7/2 129/6/2
f 136/2/3 131/1/3 129/4/3 134/3/3
f 134/11/4 129/10/4 130/9/4 133/8/4
f 135/8/5 132/9/5 131/10/5 136/11/5
f 140/37/1 143/38/1 141/31/1 138/25/1
f 139/39/2 140/40/2 138/9/2 137/32/2
f 144/38/3 139/37/3 137/25/3 142/31/3
f 142/27/4 137/28/4 138/29/4 141/30/4
f 143/27/5 140/28/5 139/29/5 144/30/5
f 148/1/1 151/2/1 149/3/1 146/4/1
f 147/5/2 148/3/2 146/6/2 145/7/2
f 152/2/3 147/1/3 145/4/3 150/3/3
f 150/8/4 145/9/4 146/10/4 149/11/4
f 151/11/5 148/10/5 147/9/5 152/8/5
f 156/20/1 159/21/1 157/22/1 154/23/1
f 155/24/2 156/25/2 154/26/2 153/19/2
f 160/21/3 155/20/3 153/23/3 158/22/3
f 158/27/4 153/28/4 154/29/4 157/30/4
f 159/27/5 156/28/5 155/29/5 160/30/5
f 164/20/1 167/21/1 165/31/1 162/25/1
f 163/32/2 164/33/2 162/29/2 161/24/2
f 168/34/3 163/9/3 161/25/3 166/31/3
f 172/9/1 175/34/1 173/31/1 170/25/1
f 171/35/2 172/36/2 170/29/2 169/24/2
f 176/34/3 171/9/3 169/25/3 174/31/3
f 180/1/1 183/2/1 181/3/1 178/4/1
f 179/3/2 180/5/2 178/7/2 177/6/2
f 184/2/3 179/1/3 177/4/3 182/3/3
f 182/11/4 177/10/4 178/9/4 181/8/4
f 183/8/5 180/9/5 179/10/5 184/11/5
f 188/37/1 191/38/1 189/31/1 186/25/1
f 187/39/2 188/40/2 186/9/2 185/32/2
f 192/38/3 187/37/3 185/25/3 190/31/3
f 190/27/4 185/28/4 186/29/4 189/30/4
f 191/27/5 188/28/5 187/29/5 192/30/5
f 196/1/1 199/2/1 197/3/1 194/4/1
f 195/5/2 196/3/2 194/6/2 193/7/2
f 200/2/3 195/1/3 193/4/3 198/3/3
f 198/8/4 193/9/4 194/10/4 197/11/4
f 199/11/5 196/10/5 195/9/5 200/8/5
f 204/20/1 207/21/1 205/22/1 202/23/1
f 203/24/2 204/25/2 202/26/2 201/19/2
f 208/21/3 203/20/3 201/23/3 206/22/3
f 206/27/4 201/28/4 202/29/4 205/30/4
f 207/27/5 204/28/5 203/29/5 208/30/5
f 212/20/1 215/21/1 213/31/1 210/25/1
f 211/32/2 212/33/2 210/29/2 209/24/2
f 216/34/3 211/9/3 209/25/3 214/31/3
f 220/9/1 223/34/1 221/31/1 218/25/1
f 219/35/2 220/36/2 218/29/2 217/24/2
f 224/34/3 219/9/3 217/25/3 222/31/3
f 228/1/1 231/2/1 229/3/1 226/4/1
f 227/3/2 228/5/2 226/7/2 225/6/2
f 232/2/3 227/1/3 225/4/3 230/3/3
f 230/11/4 225/10/4 226/9/4 229/8/4
f 231/8/5 228/9/5 227/10/5 232/11/5
f 236/37/1 239/38/1 237/31/1 234/25/1
f 235/39/2 236/40/2 234/9/2 233/32/2
f 240/38/3 235/37/3 233/25/3 238/31/3
f 238/27/4 233/28/4 234/29/4 237/30/4
f 239/27/5 236/28/5 235/29/5 240/30/5
f 244/1/1 247/2/1 245/3/1 242/4/1
f 243/5/2 244/3/2 242/6/2 241/7/2
f 248/2/3 243/1/3 241/4/3 246/3/3
f 246/8/4 241/9/4 242/10/4 245/11/4
f 247/11/5 244/10/5 243/9/5 248/8/5
f 252/20/1 255/21/1 253/22/1 250/23/1
f 251/24/2 252/25/2 250/26/2 249/19/2
f 256/21/3 251/20/3 249/23/3 254/22/3
f 254/27/4 249/28/4 250/29/4 253/30/4
f 255/27/5 252/28/5 251/29/5 256/30/5
f 260/20/1 263/21/1 261/31/1 258/25/1
f 259/32/2 260/33/2 258/29/2 257/24/2
f 264/34/3 259/9/3 257/25/3 262/31/3
f 268/9/1 271/34/1 269/31/1 266/25/1
f 267/35/2 268/36/2 266/29/2 265/24/2
f 272/34/3 267/9/3 265/25/3 270/31/3
f 276/1/1 279/2/1 277/3/1 274/4/1
f 275/3/2 276/5/2 274/7/2 273/6/2
f 280/2/3 275/1/3 273/4/3 278/3/3
f 278/11/4 273/10/4 274/9/4 277/8/4
f 279/8/5 276/9/5 275/10/5 280/11/5
f 284/37/1 287/38/1 285/31/1 282/25/1
f 283/39/2 284/40/2 282/9/2 281/32/2
f 288/38/3 283/37/3 281/25/3 286/31/3
f 286/27/4 281/28/4 282/29/4 285/30/4
f 287/27/5 284/28/5 283/29/5 288/30/5
f 292/1/1 295/2/1 293/3/1 290/4/1
f 291/5/2 292/3/2 290/6/2 289/7/2
f 296/2/3 291/1/3 289/4/3 294/3/3
f 294/8/4 289/9/4 290/10/4 293/11/4
f 295/11/5 292/10/5 291/9/5 296/8/5
f 300/20/1 303/21/1 301/22/1 298/23/1
f 299/24/2 300/25/2 298/26/2 297/19/2
f 304/21/3 299/20/3 297/23/3 302/22/3
f 302/27/4 297/28/4 298/29/4 301/30/4
f 303/27/5 300/28/5 299/29/5 304/30/5
f 308/20/1 311/21/1 309/31/1 306/25/1
f 307/32/2 308/33/2 306/29/2 305/24/2
f 312/34/3 307/9/3 305/25/3 310/31/3
f 316/9/1 319/34/1 317/31/1 314/25/1
f 315/35/2 316/36/2 314/29/2 313/24/2
f 320/34/3 315/9/3 313/25/3 318/31/3
f 324/1/1 327/2/1 325/3/1 322/4/1
f 323/3/2 324/5/2 322/7/2 321/6/2
f 328/2/3 323/1/3 321/4/3 326/3/3
f 326/11/4 321/10/4 322/9/4 325/8/4
f 327/8/5 324/9/5 323/10/5 328/11/5
f 332/37/1 335/38/1 333/31/1 330/25/1
f 331/39/2 332/40/2 330/9/2 329/32/2
f 336/38/3 331/37/3 329/25/3 334/31/3
f 334/27/4 329/28/4 330/29/4 333/30/4
f 335/27/5 332/28/5 331/29/5 336/30/5
usemtl m_05b83f14-ab92-d147-3f95-e23068aec671.001
f 27/16/2 28/17/2 26/18/2 25/19/2
f 31/16/6 32/17/6 30/18/6 29/19/6
f 30/17/4 25/18/4 26/19/4 29/16/4
f 31/17/5 28/18/5 27/19/5 32/16/5
f 35/16/2 36/17/2 34/18/2 33/19/2
f 39/16/6 40/17/6 38/18/6 37/19/6
f 38/17/4 33/18/4 34/19/4 37/16/4
f 39/17/5 36/18/5 35/19/5 40/16/5
f 43/16/2 44/17/2 42/18/2 41/19/2
f 47/16/6 48/17/6 46/18/6 45/19/6
f 46/17/4 41/18/4 42/19/4 45/16/4
f 47/17/5 44/18/5 43/19/5 48/16/5
f 51/16/2 52/17/2 50/18/2 49/19/2
f 55/16/6 56/17/6 54/18/6 53/19/6
f 54/17/4 49/18/4 50/19/4 53/16/4
f 55/17/5 52/18/5 51/19/5 56/16/5
f 59/16/2 60/17/2 58/18/2 57/19/2
f 63/16/6 64/17/6 62/18/6 61/19/6
f 62/17/4 57/18/4 58/19/4 61/16/4
f 63/17/5 60/18/5 59/19/5 64/16/5
f 67/16/2 68/17/2 66/18/2 65/19/2
f 71/16/6 72/17/6 70/18/6 69/19/6
f 70/17/4 65/18/4 66/19/4 69/16/4
f 71/17/5 68/18/5 67/19/5 72/16/5
f 75/16/2 76/17/2 74/18/2 73/19/2
f 79/16/6 80/17/6 78/18/6 77/19/6
f 78/17/4 73/18/4 74/19/4 77/16/4
f 79/17/5 76/18/5 75/19/5 80/16/5
f 83/16/2 84/17/2 82/18/2 81/19/2
f 87/16/6 88/17/6 86/18/6 85/19/6
f 86/17/4 81/18/4 82/19/4 85/16/4
f 87/17/5 84/18/5 83/19/5 88/16/5
