# Blender 4.1.1
# www.blender.org
mtllib right_c_rod.mtl
o cube.013
v 1.187500 0.187500 -4.312500
v 1.187500 0.187500 -4.687500
v 1.187500 -0.187500 -4.312500
v 1.187500 -0.187500 -4.687500
v 1.062500 0.187500 -4.687500
v 1.062500 0.187500 -4.312500
v 1.062500 -0.187500 -4.687500
v 1.062500 -0.187500 -4.312500
v 1.250000 0.125000 4.625000
v 1.250000 0.125000 4.375000
v 1.250000 -0.125000 4.625000
v 1.250000 -0.125000 4.375000
v 1.000000 0.125000 4.375000
v 1.000000 0.125000 4.625000
v 1.000000 -0.125000 4.375000
v 1.000000 -0.125000 4.625000
v 1.187500 0.187500 4.687500
v 1.187500 0.187500 4.312500
v 1.187500 -0.187500 4.687500
v 1.187500 -0.187500 4.312500
v 1.062500 0.187500 4.312500
v 1.062500 0.187500 4.687500
v 1.062500 -0.187500 4.312500
v 1.062500 -0.187500 4.687500
v 1.187500 0.125000 4.312500
v 1.187500 0.125000 2.437500
v 1.187500 -0.125000 4.312500
v 1.187500 -0.125000 2.437500
v 1.062500 0.125000 2.437500
v 1.062500 0.125000 4.312500
v 1.062500 -0.125000 2.437500
v 1.062500 -0.125000 4.312500
v 1.250000 0.125000 2.375000
v 1.250000 0.125000 2.125000
v 1.250000 -0.125000 2.375000
v 1.250000 -0.125000 2.125000
v 1.000000 0.125000 2.125000
v 1.000000 0.125000 2.375000
v 1.000000 -0.125000 2.125000
v 1.000000 -0.125000 2.375000
v 1.375000 0.125000 0.125000
v 1.375000 0.125000 -0.125000
v 1.375000 -0.125000 0.125000
v 1.375000 -0.125000 -0.125000
v 1.125000 0.125000 -0.125000
v 1.125000 0.125000 0.125000
v 1.125000 -0.125000 -0.125000
v 1.125000 -0.125000 0.125000
v 1.187500 0.187500 2.437500
v 1.187500 0.187500 2.062500
v 1.187500 -0.187500 2.437500
v 1.187500 -0.187500 2.062500
v 1.062500 0.187500 2.062500
v 1.062500 0.187500 2.437500
v 1.062500 -0.187500 2.062500
v 1.062500 -0.187500 2.437500
v 1.187500 0.187500 0.187500
v 1.187500 0.187500 -0.187500
v 1.187500 -0.187500 0.187500
v 1.187500 -0.187500 -0.187500
v 1.062500 0.187500 -0.187500
v 1.062500 0.187500 0.187500
v 1.062500 -0.187500 -0.187500
v 1.062500 -0.187500 0.187500
v 1.187500 0.125000 2.062500
v 1.187500 0.125000 0.187500
v 1.187500 -0.125000 2.062500
v 1.187500 -0.125000 0.187500
v 1.062500 0.125000 0.187500
v 1.062500 0.125000 2.062500
v 1.062500 -0.125000 0.187500
v 1.062500 -0.125000 2.062500
v 1.187500 0.125000 -0.187500
v 1.187500 0.125000 -2.062500
v 1.187500 -0.125000 -0.187500
v 1.187500 -0.125000 -2.062500
v 1.062500 0.125000 -2.062500
v 1.062500 0.125000 -0.187500
v 1.062500 -0.125000 -2.062500
v 1.062500 -0.125000 -0.187500
v 1.193750 0.125000 -2.125000
v 1.193750 0.125000 -2.375000
v 1.193750 -0.125000 -2.125000
v 1.193750 -0.125000 -2.375000
v 0.943750 0.125000 -2.375000
v 0.943750 0.125000 -2.125000
v 0.943750 -0.125000 -2.375000
v 0.943750 -0.125000 -2.125000
v 1.187500 0.187500 -2.062500
v 1.187500 0.187500 -2.437500
v 1.187500 -0.187500 -2.062500
v 1.187500 -0.187500 -2.437500
v 1.062500 0.187500 -2.437500
v 1.062500 0.187500 -2.062500
v 1.062500 -0.187500 -2.437500
v 1.062500 -0.187500 -2.062500
v 1.187500 0.125000 -2.437500
v 1.187500 0.125000 -4.312500
v 1.187500 -0.125000 -2.437500
v 1.187500 -0.125000 -4.312500
v 1.062500 0.125000 -4.312500
v 1.062500 0.125000 -2.437500
v 1.062500 -0.125000 -4.312500
v 1.062500 -0.125000 -2.437500
v 1.193750 0.125000 -4.375000
v 1.193750 0.125000 -4.625000
v 1.193750 -0.125000 -4.375000
v 1.193750 -0.125000 -4.625000
v 0.943750 0.125000 -4.625000
v 0.943750 0.125000 -4.375000
v 0.943750 -0.125000 -4.625000
v 0.943750 -0.125000 -4.375000
vn -0.0000 -0.0000 -1.0000
vn 1.0000 -0.0000 -0.0000
vn -0.0000 -0.0000 1.0000
vn -1.0000 -0.0000 -0.0000
vn -0.0000 1.0000 -0.0000
vn -0.0000 -1.0000 -0.0000
vt 0.857143 0.008929
vt 0.839286 0.008929
vt 0.839286 0.062500
vt 0.857143 0.062500
vt 0.785714 0.008929
vt 0.785714 0.062500
vt 0.892857 0.035714
vt 0.928571 0.035714
vt 0.928571 0.071429
vt 0.892857 0.071429
vt 0.857143 0.035714
vt 0.857143 0.071429
vt 0.982143 0.571429
vt 1.000000 0.571429
vt 1.000000 0.607143
vt 0.982143 0.607143
vt 0.732143 0.571429
vt 0.732143 0.607143
vt 0.750000 0.571429
vt 0.767857 0.571429
vt 0.767857 0.607143
vt 0.750000 0.607143
vt 1.000000 0.535714
vt 1.000000 0.553571
vt 0.732143 0.553571
vt 0.732143 0.535714
s 0
usemtl m_0c0763b5-a325-edc4-31a8-810cceeac193.004
f 4/1/1 7/2/1 5/3/1 2/4/1
f 3/2/2 4/5/2 2/6/2 1/3/2
f 8/1/3 3/2/3 1/3/3 6/4/3
f 7/2/4 8/5/4 6/6/4 5/3/4
f 6/1/5 1/2/5 2/3/5 5/4/5
f 7/1/6 4/2/6 3/3/6 8/4/6
f 12/7/1 15/8/1 13/9/1 10/10/1
f 11/11/2 12/7/2 10/10/2 9/12/2
f 16/8/3 11/7/3 9/10/3 14/9/3
f 15/7/4 16/11/4 14/12/4 13/10/4
f 14/8/5 9/7/5 10/10/5 13/9/5
f 15/8/6 12/7/6 11/10/6 16/9/6
f 20/1/1 23/2/1 21/3/1 18/4/1
f 19/2/2 20/5/2 18/6/2 17/3/2
f 24/1/3 19/2/3 17/3/3 22/4/3
f 23/2/4 24/5/4 22/6/4 21/3/4
f 22/1/5 17/2/5 18/3/5 21/4/5
f 23/1/6 20/2/6 19/3/6 24/4/6
f 28/13/1 31/14/1 29/15/1 26/16/1
f 27/17/2 28/14/2 26/15/2 25/18/2
f 32/19/3 27/20/3 25/21/3 30/22/3
f 31/17/4 32/14/4 30/15/4 29/18/4
f 30/23/5 25/24/5 26/25/5 29/26/5
f 31/23/6 28/24/6 27/25/6 32/26/6
f 36/7/1 39/8/1 37/9/1 34/10/1
f 35/11/2 36/7/2 34/10/2 33/12/2
f 40/8/3 35/7/3 33/10/3 38/9/3
f 39/7/4 40/11/4 38/12/4 37/10/4
f 38/8/5 33/7/5 34/10/5 37/9/5
f 39/8/6 36/7/6 35/10/6 40/9/6
f 44/7/1 47/8/1 45/9/1 42/10/1
f 43/11/2 44/7/2 42/10/2 41/12/2
f 48/8/3 43/7/3 41/10/3 46/9/3
f 47/7/4 48/11/4 46/12/4 45/10/4
f 46/8/5 41/7/5 42/10/5 45/9/5
f 47/8/6 44/7/6 43/10/6 48/9/6
f 52/1/1 55/2/1 53/3/1 50/4/1
f 51/2/2 52/5/2 50/6/2 49/3/2
f 56/1/3 51/2/3 49/3/3 54/4/3
f 55/2/4 56/5/4 54/6/4 53/3/4
f 54/1/5 49/2/5 50/3/5 53/4/5
f 55/1/6 52/2/6 51/3/6 56/4/6
f 60/1/1 63/2/1 61/3/1 58/4/1
f 59/2/2 60/5/2 58/6/2 57/3/2
f 64/1/3 59/2/3 57/3/3 62/4/3
f 63/2/4 64/5/4 62/6/4 61/3/4
f 62/1/5 57/2/5 58/3/5 61/4/5
f 63/1/6 60/2/6 59/3/6 64/4/6
f 68/13/1 71/14/1 69/15/1 66/16/1
f 67/17/2 68/14/2 66/15/2 65/18/2
f 72/19/3 67/20/3 65/21/3 70/22/3
f 71/17/4 72/14/4 70/15/4 69/18/4
f 70/23/5 65/24/5 66/25/5 69/26/5
f 71/23/6 68/24/6 67/25/6 72/26/6
f 76/13/1 79/14/1 77/15/1 74/16/1
f 75/17/2 76/14/2 74/15/2 73/18/2
f 80/19/3 75/20/3 73/21/3 78/22/3
f 79/17/4 80/14/4 78/15/4 77/18/4
f 78/23/5 73/24/5 74/25/5 77/26/5
f 79/23/6 76/24/6 75/25/6 80/26/6
f 84/7/1 87/8/1 85/9/1 82/10/1
f 83/11/2 84/7/2 82/10/2 81/12/2
f 88/8/3 83/7/3 81/10/3 86/9/3
f 87/7/4 88/11/4 86/12/4 85/10/4
f 86/8/5 81/7/5 82/10/5 85/9/5
f 87/8/6 84/7/6 83/10/6 88/9/6
f 92/1/1 95/2/1 93/3/1 90/4/1
f 91/2/2 92/5/2 90/6/2 89/3/2
f 96/1/3 91/2/3 89/3/3 94/4/3
f 95/2/4 96/5/4 94/6/4 93/3/4
f 94/1/5 89/2/5 90/3/5 93/4/5
f 95/1/6 92/2/6 91/3/6 96/4/6
f 100/13/1 103/14/1 101/15/1 98/16/1
f 99/17/2 100/14/2 98/15/2 97/18/2
f 104/19/3 99/20/3 97/21/3 102/22/3
f 103/17/4 104/14/4 102/15/4 101/18/4
f 102/23/5 97/24/5 98/25/5 101/26/5
f 103/23/6 100/24/6 99/25/6 104/26/6
f 108/7/1 111/8/1 109/9/1 106/10/1
f 107/11/2 108/7/2 106/10/2 105/12/2
f 112/8/3 107/7/3 105/10/3 110/9/3
f 111/7/4 112/11/4 110/12/4 109/10/4
f 110/8/5 105/7/5 106/10/5 109/9/5
f 111/8/6 108/7/6 107/10/6 112/9/6
