# Blender 4.1.1
# www.blender.org
mtllib right_c_rod.mtl
o cube.004
v 1.375000 0.125000 -1.000000
v 1.375000 0.125000 -1.250000
v 1.375000 -0.125000 -1.000000
v 1.375000 -0.125000 -1.250000
v 1.125000 0.125000 -1.250000
v 1.125000 0.125000 -1.000000
v 1.125000 -0.125000 -1.250000
v 1.125000 -0.125000 -1.000000
v 1.250000 0.125000 1.250000
v 1.250000 0.125000 1.000000
v 1.250000 -0.125000 1.250000
v 1.250000 -0.125000 1.000000
v 1.000000 0.125000 1.000000
v 1.000000 0.125000 1.250000
v 1.000000 -0.125000 1.000000
v 1.000000 -0.125000 1.250000
v 1.187500 0.187500 1.312500
v 1.187500 0.187500 0.937500
v 1.187500 -0.187500 1.312500
v 1.187500 -0.187500 0.937500
v 1.062500 0.187500 0.937500
v 1.062500 0.187500 1.312500
v 1.062500 -0.187500 0.937500
v 1.062500 -0.187500 1.312500
v 1.187500 0.125000 0.937500
v 1.187500 0.125000 -0.937500
v 1.187500 -0.125000 0.937500
v 1.187500 -0.125000 -0.937500
v 1.062500 0.125000 -0.937500
v 1.062500 0.125000 0.937500
v 1.062500 -0.125000 -0.937500
v 1.062500 -0.125000 0.937500
v 1.187500 0.187500 -0.937500
v 1.187500 0.187500 -1.312500
v 1.187500 -0.187500 -0.937500
v 1.187500 -0.187500 -1.312500
v 1.062500 0.187500 -1.312500
v 1.062500 0.187500 -0.937500
v 1.062500 -0.187500 -1.312500
v 1.062500 -0.187500 -0.937500
vn -0.0000 -0.0000 -1.0000
vn 1.0000 -0.0000 -0.0000
vn -0.0000 -0.0000 1.0000
vn -1.0000 -0.0000 -0.0000
vn -0.0000 1.0000 -0.0000
vn -0.0000 -1.0000 -0.0000
vt 0.892857 0.035714
vt 0.928571 0.035714
vt 0.928571 0.071429
vt 0.892857 0.071429
vt 0.857143 0.035714
vt 0.857143 0.071429
vt 0.910714 0.035714
vt 0.910714 0.071429
vt 0.857143 0.008929
vt 0.839286 0.008929
vt 0.839286 0.062500
vt 0.857143 0.062500
vt 0.785714 0.008929
vt 0.785714 0.062500
vt 0.982143 0.571429
vt 1.000000 0.571429
vt 1.000000 0.607143
vt 0.982143 0.607143
vt 0.732143 0.571429
vt 0.732143 0.607143
vt 0.750000 0.571429
vt 0.767857 0.571429
vt 0.767857 0.607143
vt 0.750000 0.607143
vt 1.000000 0.535714
vt 1.000000 0.553571
vt 0.732143 0.553571
vt 0.732143 0.535714
s 0
usemtl m_a04509b2-9e79-7152-ac01-54b87f7e5258.004
f 4/1/1 7/2/1 5/3/1 2/4/1
f 3/5/2 4/1/2 2/4/2 1/6/2
f 8/2/3 3/1/3 1/4/3 6/3/3
f 7/1/4 8/5/4 6/6/4 5/4/4
f 6/2/5 1/1/5 2/4/5 5/3/5
f 7/2/6 4/1/6 3/4/6 8/3/6
f 12/1/1 15/7/1 13/8/1 10/4/1
f 11/5/2 12/1/2 10/4/2 9/6/2
f 16/7/3 11/1/3 9/4/3 14/8/3
f 15/1/4 16/5/4 14/6/4 13/4/4
f 14/7/5 9/1/5 10/4/5 13/8/5
f 15/7/6 12/1/6 11/4/6 16/8/6
f 20/9/1 23/10/1 21/11/1 18/12/1
f 19/10/2 20/13/2 18/14/2 17/11/2
f 24/9/3 19/10/3 17/11/3 22/12/3
f 23/10/4 24/13/4 22/14/4 21/11/4
f 22/9/5 17/10/5 18/11/5 21/12/5
f 23/9/6 20/10/6 19/11/6 24/12/6
f 28/15/1 31/16/1 29/17/1 26/18/1
f 27/19/2 28/16/2 26/17/2 25/20/2
f 32/21/3 27/22/3 25/23/3 30/24/3
f 31/19/4 32/16/4 30/17/4 29/20/4
f 30/25/5 25/26/5 26/27/5 29/28/5
f 31/25/6 28/26/6 27/27/6 32/28/6
f 36/9/1 39/10/1 37/11/1 34/12/1
f 35/10/2 36/13/2 34/14/2 33/11/2
f 40/9/3 35/10/3 33/11/3 38/12/3
f 39/10/4 40/13/4 38/14/4 37/11/4
f 38/9/5 33/10/5 34/11/5 37/12/5
f 39/9/6 36/10/6 35/11/6 40/12/6
