# Blender 4.0.2
# www.blender.org
mtllib left_m_rod.mtl
o cube.001
v -1.187500 0.187500 3.812500
v -1.187500 0.187500 3.437500
v -1.187500 -0.187500 3.812500
v -1.187500 -0.187500 3.437500
v -1.312500 0.187500 3.437500
v -1.312500 0.187500 3.812500
v -1.312500 -0.187500 3.437500
v -1.312500 -0.187500 3.812500
v -1.187500 0.125000 0.125000
v -1.312500 0.125000 0.125000
v -1.187500 -0.125000 0.125000
v -1.312500 -0.125000 0.125000
v -1.312500 0.125000 3.437500
v -1.187500 0.125000 3.437500
v -1.312500 -0.125000 3.437500
v -1.187500 -0.125000 3.437500
vn -0.0000 -0.0000 -1.0000
vn 1.0000 -0.0000 -0.0000
vn -0.0000 -0.0000 1.0000
vn -1.0000 -0.0000 -0.0000
vn -0.0000 1.0000 -0.0000
vn -0.0000 -1.0000 -0.0000
vt 0.839286 0.008929
vt 0.857143 0.008929
vt 0.857143 0.062500
vt 0.839286 0.062500
vt 0.785714 0.008929
vt 0.785714 0.062500
vt 0.526786 0.732143
vt 1.000000 0.732143
vt 1.000000 0.767857
vt 0.526786 0.767857
vt 0.544643 0.732143
vt 0.544643 0.767857
vt 0.839286 0.732143
vt 0.857143 0.732143
vt 0.857143 0.767857
vt 0.839286 0.767857
vt 1.000000 0.714286
vt 0.526786 0.714286
s 0
usemtl m_a04509b2-9e79-7152-ac01-54b87f7e5258.041
f 4/1/1 7/2/1 5/3/1 2/4/1
f 3/5/2 4/1/2 2/4/2 1/6/2
f 8/1/3 3/2/3 1/3/3 6/4/3
f 7/5/4 8/1/4 6/4/4 5/6/4
f 6/1/5 1/2/5 2/3/5 5/4/5
f 7/1/6 4/2/6 3/3/6 8/4/6
f 12/7/4 15/8/4 13/9/4 10/10/4
f 11/7/1 12/11/1 10/12/1 9/10/1
f 16/7/2 11/8/2 9/9/2 14/10/2
f 15/13/3 16/14/3 14/15/3 13/16/3
f 14/7/5 9/8/5 10/17/5 13/18/5
f 15/18/6 12/17/6 11/8/6 16/7/6
