# Made in Blockbench 4.9.4
mtllib axis.mtl

o cube
v 0.25 0.125 0.125
v 0.25 0.125 -0.125
v 0.25 -0.125 0.125
v 0.25 -0.125 -0.125
v -0.3125 0.125 -0.125
v -0.3125 0.125 0.125
v -0.3125 -0.125 -0.125
v -0.3125 -0.125 0.125
vt 0.375 0.4374999999999999
vt 0.375 1
vt 0.625 1
vt 0.625 0.4374999999999999
vt 0.375 0.625
vt 0.625 0.625
vt 0.625 0.375
vt 0.375 0.375
vt 0.375 0.4374999999999999
vt 0.375 1
vt 0.625 1
vt 0.625 0.4374999999999999
vt 0.375 0.625
vt 0.625 0.625
vt 0.625 0.375
vt 0.375 0.375
vt 0.375 0.4374999999999999
vt 0.375 1
vt 0.625 1
vt 0.625 0.4374999999999999
vt 0.375 0.4374999999999999
vt 0.375 1
vt 0.625 1
vt 0.625 0.4374999999999999
vn 0 0 -1
vn 1 0 0
vn 0 0 1
vn -1 0 0
vn 0 1 0
vn 0 -1 0
usemtl m_50e7743e-03fe-ce02-d881-7fe167779158
f 4/4/1 7/3/1 5/2/1 2/1/1
usemtl m_8112be34-5f3f-984c-8a44-7c51cd78f666
f 3/8/2 4/7/2 2/6/2 1/5/2
usemtl m_50e7743e-03fe-ce02-d881-7fe167779158
f 8/12/3 3/11/3 1/10/3 6/9/3
usemtl m_8112be34-5f3f-984c-8a44-7c51cd78f666
f 7/16/4 8/15/4 6/14/4 5/13/4
usemtl m_50e7743e-03fe-ce02-d881-7fe167779158
f 6/20/5 1/19/5 2/18/5 5/17/5
f 7/24/6 4/23/6 3/22/6 8/21/6