# Blender 4.2.3 LTS
# www.blender.org
mtllib frame.mtl
o cube.040
v 0.437500 0.875000 -2.000000
v 0.437500 0.875000 -2.250000
v 0.437500 0.625000 -2.000000
v 0.437500 0.625000 -2.250000
v -0.437500 0.875000 -2.250000
v -0.437500 0.875000 -2.000000
v -0.437500 0.625000 -2.250000
v -0.437500 0.625000 -2.000000
v 0.756250 1.443750 -0.806250
v 0.756250 1.443750 -1.443750
v 0.756250 0.681250 -0.806250
v 0.756250 0.681250 -1.443750
v 0.431250 1.443750 -1.443750
v 0.431250 1.443750 -0.806250
v 0.431250 0.681250 -1.443750
v 0.431250 0.681250 -0.806250
v -0.431250 1.443750 -0.806250
v -0.431250 1.443750 -1.443750
v -0.431250 0.681250 -0.806250
v -0.431250 0.681250 -1.443750
v -0.756250 1.443750 -1.443750
v -0.756250 1.443750 -0.806250
v -0.756250 0.681250 -1.443750
v -0.756250 0.681250 -0.806250
v 0.756250 1.443750 1.443750
v 0.756250 1.443750 0.806250
v 0.756250 0.681250 1.443750
v 0.756250 0.681250 0.806250
v 0.431250 1.443750 0.806250
v 0.431250 1.443750 1.443750
v 0.431250 0.681250 0.806250
v 0.431250 0.681250 1.443750
v -0.431250 1.443750 1.443750
v -0.431250 1.443750 0.806250
v -0.431250 0.681250 1.443750
v -0.431250 0.681250 0.806250
v -0.756250 1.443750 0.806250
v -0.756250 1.443750 1.443750
v -0.756250 0.681250 0.806250
v -0.756250 0.681250 1.443750
v 0.312500 1.062500 0.500000
v 0.312500 1.062500 -0.500000
v 0.312500 0.437500 0.500000
v 0.312500 0.437500 -0.500000
v -0.312500 1.062500 -0.500000
v -0.312500 1.062500 0.500000
v -0.312500 0.437500 -0.500000
v -0.312500 0.437500 0.500000
v 0.437500 1.250000 -0.687500
v 0.437500 1.250000 -1.562500
v 0.437500 0.750000 -0.687500
v 0.437500 0.750000 -1.562500
v -0.437500 1.250000 -1.562500
v -0.437500 1.250000 -0.687500
v -0.437500 0.750000 -1.562500
v -0.437500 0.750000 -0.687500
v 0.312500 1.062500 -0.562500
v 0.312500 1.062500 -1.687500
v 0.312500 0.437500 -0.562500
v 0.312500 0.437500 -1.687500
v -0.312500 1.062500 -1.687500
v -0.312500 1.062500 -0.562500
v -0.312500 0.437500 -1.687500
v -0.312500 0.437500 -0.562500
v 0.437500 1.250000 0.375000
v 0.437500 1.250000 -0.375000
v 0.437500 0.750000 0.375000
v 0.437500 0.750000 -0.375000
v -0.437500 1.250000 -0.375000
v -0.437500 1.250000 0.375000
v -0.437500 0.750000 -0.375000
v -0.437500 0.750000 0.375000
v 0.437500 1.250000 1.562500
v 0.437500 1.250000 0.687500
v 0.437500 0.750000 1.562500
v 0.437500 0.750000 0.687500
v -0.437500 1.250000 0.687500
v -0.437500 1.250000 1.562500
v -0.437500 0.750000 0.687500
v -0.437500 0.750000 1.562500
v 0.312500 1.062500 1.687500
v 0.312500 1.062500 0.562500
v 0.312500 0.437500 1.687500
v 0.312500 0.437500 0.562500
v -0.312500 1.062500 0.562500
v -0.312500 1.062500 1.687500
v -0.312500 0.437500 0.562500
v -0.312500 0.437500 1.687500
v 0.250000 1.500000 0.250000
v 0.250000 1.500000 -0.250000
v 0.250000 1.250000 0.250000
v 0.250000 1.250000 -0.250000
v -0.250000 1.500000 -0.250000
v -0.250000 1.500000 0.250000
v -0.250000 1.250000 -0.250000
v -0.250000 1.250000 0.250000
v 0.312500 1.062500 -1.812500
v 0.312500 1.062500 -2.437500
v 0.312500 0.437500 -1.812500
v 0.312500 0.437500 -2.437500
v -0.312500 1.062500 -2.437500
v -0.312500 1.062500 -1.812500
v -0.312500 0.437500 -2.437500
v -0.312500 0.437500 -1.812500
v 0.750000 1.000000 -1.875000
v 0.750000 1.000000 -2.375000
v 0.750000 0.500000 -1.875000
v 0.750000 0.500000 -2.375000
v 0.437500 1.000000 -2.375000
v 0.437500 1.000000 -1.875000
v 0.437500 0.500000 -2.375000
v 0.437500 0.500000 -1.875000
v 0.093750 1.250000 -2.031250
v 0.093750 1.250000 -2.218750
v 0.093750 1.062500 -2.031250
v 0.093750 1.062500 -2.218750
v -0.093750 1.250000 -2.218750
v -0.093750 1.250000 -2.031250
v -0.093750 1.062500 -2.218750
v -0.093750 1.062500 -2.031250
v 0.750000 1.000000 2.375000
v 0.750000 1.000000 1.875000
v 0.750000 0.500000 2.375000
v 0.750000 0.500000 1.875000
v 0.437500 1.000000 1.875000
v 0.437500 1.000000 2.375000
v 0.437500 0.500000 1.875000
v 0.437500 0.500000 2.375000
v -0.437500 1.000000 2.375000
v -0.437500 1.000000 1.875000
v -0.437500 0.500000 2.375000
v -0.437500 0.500000 1.875000
v -0.750000 1.000000 1.875000
v -0.750000 1.000000 2.375000
v -0.750000 0.500000 1.875000
v -0.750000 0.500000 2.375000
v 0.687500 0.977652 2.245895
v 0.687500 1.336418 1.379757
v 0.687500 0.919910 2.221977
v 0.687500 1.278675 1.355840
v 0.500000 1.336418 1.379757
v 0.500000 0.977652 2.245895
v 0.500000 1.278675 1.355840
v 0.500000 0.919910 2.221977
v 0.687500 0.625000 1.875000
v 0.687500 0.625000 -1.875000
v 0.687500 0.562500 1.875000
v 0.687500 0.562500 -1.875000
v 0.500000 0.625000 -1.875000
v 0.500000 0.625000 1.875000
v 0.500000 0.562500 -1.875000
v 0.500000 0.562500 1.875000
v 0.687500 1.375000 0.812500
v 0.687500 1.375000 -0.812500
v 0.687500 1.312500 0.812500
v 0.687500 1.312500 -0.812500
v 0.500000 1.375000 -0.812500
v 0.500000 1.375000 0.812500
v 0.500000 1.312500 -0.812500
v 0.500000 1.312500 0.812500
v 0.312500 1.062500 2.437500
v 0.312500 1.062500 1.812500
v 0.312500 0.437500 2.437500
v 0.312500 0.437500 1.812500
v -0.312500 1.062500 1.812500
v -0.312500 1.062500 2.437500
v -0.312500 0.437500 1.812500
v -0.312500 0.437500 2.437500
v 0.093750 1.250000 2.218750
v 0.093750 1.250000 2.031250
v 0.093750 1.062500 2.218750
v 0.093750 1.062500 2.031250
v -0.093750 1.250000 2.031250
v -0.093750 1.250000 2.218750
v -0.093750 1.062500 2.031250
v -0.093750 1.062500 2.218750
v -0.437500 1.000000 -1.875000
v -0.437500 1.000000 -2.375000
v -0.437500 0.500000 -1.875000
v -0.437500 0.500000 -2.375000
v -0.750000 1.000000 -2.375000
v -0.750000 1.000000 -1.875000
v -0.750000 0.500000 -2.375000
v -0.750000 0.500000 -1.875000
v -0.224112 0.588388 1.437500
v -0.224112 0.588388 1.250000
v -0.312500 0.500000 1.437500
v -0.312500 0.500000 1.250000
v -0.445083 0.809359 1.250000
v -0.445083 0.809359 1.437500
v -0.533471 0.720971 1.250000
v -0.533471 0.720971 1.437500
v -0.224112 0.588388 1.000000
v -0.224112 0.588388 0.812500
v -0.312500 0.500000 1.000000
v -0.312500 0.500000 0.812500
v -0.445083 0.809359 0.812500
v -0.445083 0.809359 1.000000
v -0.533471 0.720971 0.812500
v -0.533471 0.720971 1.000000
v -0.224112 0.588388 -0.812500
v -0.224112 0.588388 -1.000000
v -0.312500 0.500000 -0.812500
v -0.312500 0.500000 -1.000000
v -0.445083 0.809359 -1.000000
v -0.445083 0.809359 -0.812500
v -0.533471 0.720971 -1.000000
v -0.533471 0.720971 -0.812500
v 0.445083 0.809359 1.000000
v 0.445083 0.809359 0.812500
v 0.533471 0.720971 1.000000
v 0.533471 0.720971 0.812500
v 0.224112 0.588388 0.812500
v 0.224112 0.588388 1.000000
v 0.312500 0.500000 0.812500
v 0.312500 0.500000 1.000000
v 0.445083 0.809359 1.437500
v 0.445083 0.809359 1.250000
v 0.533471 0.720971 1.437500
v 0.533471 0.720971 1.250000
v 0.224112 0.588388 1.250000
v 0.224112 0.588388 1.437500
v 0.312500 0.500000 1.250000
v 0.312500 0.500000 1.437500
v 0.445083 0.809359 -0.812500
v 0.445083 0.809359 -1.000000
v 0.533471 0.720971 -0.812500
v 0.533471 0.720971 -1.000000
v 0.224112 0.588388 -1.000000
v 0.224112 0.588388 -0.812500
v 0.312500 0.500000 -1.000000
v 0.312500 0.500000 -0.812500
v 0.445083 0.809359 -1.250000
v 0.445083 0.809359 -1.437500
v 0.533471 0.720971 -1.250000
v 0.533471 0.720971 -1.437500
v 0.224112 0.588388 -1.437500
v 0.224112 0.588388 -1.250000
v 0.312500 0.500000 -1.437500
v 0.312500 0.500000 -1.250000
v -0.224112 0.588388 -1.250000
v -0.224112 0.588388 -1.437500
v -0.312500 0.500000 -1.250000
v -0.312500 0.500000 -1.437500
v -0.445083 0.809359 -1.437500
v -0.445083 0.809359 -1.250000
v -0.533471 0.720971 -1.437500
v -0.533471 0.720971 -1.250000
v -0.500000 1.375000 0.812500
v -0.500000 1.375000 -0.812500
v -0.500000 1.312500 0.812500
v -0.500000 1.312500 -0.812500
v -0.687500 1.375000 -0.812500
v -0.687500 1.375000 0.812500
v -0.687500 1.312500 -0.812500
v -0.687500 1.312500 0.812500
v -0.500000 0.977652 2.245895
v -0.500000 1.336418 1.379757
v -0.500000 0.919910 2.221977
v -0.500000 1.278675 1.355840
v -0.687500 1.336418 1.379757
v -0.687500 0.977652 2.245895
v -0.687500 1.278675 1.355840
v -0.687500 0.919910 2.221977
v -0.500000 0.625000 1.875000
v -0.500000 0.625000 -1.875000
v -0.500000 0.562500 1.875000
v -0.500000 0.562500 -1.875000
v -0.687500 0.625000 -1.875000
v -0.687500 0.625000 1.875000
v -0.687500 0.562500 -1.875000
v -0.687500 0.562500 1.875000
v 0.687500 1.336418 -1.379758
v 0.687500 0.977652 -2.245895
v 0.687500 1.278675 -1.355840
v 0.687500 0.919909 -2.221977
v 0.500000 0.977652 -2.245895
v 0.500000 1.336418 -1.379758
v 0.500000 0.919909 -2.221977
v 0.500000 1.278675 -1.355840
v -0.500000 1.336418 -1.379758
v -0.500000 0.977652 -2.245895
v -0.500000 1.278675 -1.355840
v -0.500000 0.919909 -2.221977
v -0.687500 0.977652 -2.245895
v -0.687500 1.336418 -1.379758
v -0.687500 0.919909 -2.221977
v -0.687500 1.278675 -1.355840
v 0.437500 0.875000 2.250000
v 0.437500 0.875000 2.000000
v 0.437500 0.625000 2.250000
v 0.437500 0.625000 2.000000
v -0.437500 0.875000 2.000000
v -0.437500 0.875000 2.250000
v -0.437500 0.625000 2.000000
v -0.437500 0.625000 2.250000
v 0.125000 0.875000 1.687500
v -0.125000 0.875000 1.687500
v 0.125000 0.625000 1.687500
v -0.125000 0.625000 1.687500
v -0.125000 0.875000 1.812500
v 0.125000 0.875000 1.812500
v -0.125000 0.625000 1.812500
v 0.125000 0.625000 1.812500
v 0.125000 0.875000 0.500000
v -0.125000 0.875000 0.500000
v 0.125000 0.625000 0.500000
v -0.125000 0.625000 0.500000
v -0.125000 0.875000 0.562500
v 0.125000 0.875000 0.562500
v -0.125000 0.625000 0.562500
v 0.125000 0.625000 0.562500
v -0.125000 0.875000 -0.500000
v 0.125000 0.875000 -0.500000
v -0.125000 0.625000 -0.500000
v 0.125000 0.625000 -0.500000
v 0.125000 0.875000 -0.562500
v -0.125000 0.875000 -0.562500
v 0.125000 0.625000 -0.562500
v -0.125000 0.625000 -0.562500
v -0.125000 0.875000 -1.687500
v 0.125000 0.875000 -1.687500
v -0.125000 0.625000 -1.687500
v 0.125000 0.625000 -1.687500
v 0.125000 0.875000 -1.812500
v -0.125000 0.875000 -1.812500
v 0.125000 0.625000 -1.812500
v -0.125000 0.625000 -1.812500
vn -0.0000 -0.0000 -1.0000
vn 1.0000 -0.0000 -0.0000
vn -0.0000 -0.0000 1.0000
vn -1.0000 -0.0000 -0.0000
vn -0.0000 1.0000 -0.0000
vn -0.0000 -1.0000 -0.0000
vn -0.0000 0.3827 -0.9239
vn -0.0000 -0.3827 0.9239
vn -0.0000 0.9239 0.3827
vn -0.0000 -0.9239 -0.3827
vn 0.7071 -0.7071 -0.0000
vn -0.7071 0.7071 -0.0000
vn 0.7071 0.7071 -0.0000
vn -0.7071 -0.7071 -0.0000
vn -0.0000 -0.3827 -0.9239
vn -0.0000 0.3827 0.9239
vn -0.0000 0.9239 -0.3827
vn -0.0000 -0.9239 0.3827
vt 0.625000 0.875000
vt 0.625000 0.000000
vt 0.375000 0.000000
vt 0.375000 0.875000
vt 1.000000 0.218750
vt 0.812500 0.218750
vt 0.812500 0.500000
vt 1.000000 0.500000
vt 0.812500 0.656250
vt 0.968750 0.656250
vt 0.968750 1.000000
vt 0.812500 1.000000
vt 0.500000 0.656250
vt 0.500000 1.000000
vt 0.500000 0.500000
vt 0.000000 0.500000
vt 0.312500 0.500000
vt 0.312500 0.812500
vt 0.000000 0.812500
vt 0.312500 0.000000
vt 0.000000 0.000000
vt 0.312500 0.312500
vt 0.750000 0.312500
vt 0.750000 0.562500
vt 0.312500 0.562500
vt 0.687500 0.562500
vt 0.687500 1.000000
vt 0.437500 1.000000
vt 0.437500 0.562500
vt 0.000000 0.562500
vt 0.000000 1.000000
vt 0.687500 0.687500
vt 1.000000 0.687500
vt 1.000000 1.000000
vt 0.562500 0.000000
vt 1.000000 0.000000
vt 1.000000 0.250000
vt 0.562500 0.250000
vt 0.562500 0.375000
vt 0.312500 0.375000
vt 1.000000 0.625000
vt 0.562500 0.625000
vt 0.125000 0.333333
vt 0.291667 0.333333
vt 0.291667 0.416667
vt 0.125000 0.416667
vt 0.562500 0.812500
vt 0.729167 0.812500
vt 0.729167 0.979167
vt 0.562500 0.979167
vt 0.937500 0.000000
vt 0.937500 0.312500
vt 0.625000 0.312500
vt 0.500000 0.000000
vt 0.656250 0.000000
vt 0.656250 0.250000
vt 0.500000 0.250000
vt 0.750000 0.250000
vt 0.750000 0.500000
vt 0.812500 0.000000
vt 0.812500 0.250000
vt 0.593750 0.031250
vt 0.343750 0.031250
vt 0.343750 0.281250
vt 0.593750 0.281250
vt 0.625000 0.375000
vt 0.718750 0.375000
vt 0.718750 0.468750
vt 0.625000 0.468750
vt 0.812500 0.375000
vt 0.812500 0.468750
vt 0.281250 0.156250
vt 0.468750 0.156250
vt 0.468750 0.343750
vt 0.281250 0.343750
vt 0.500000 0.937500
vt 0.312500 0.937500
vt 0.312500 1.000000
vt 0.071154 0.533654
vt 0.000000 0.533654
vt 0.000000 0.537500
vt 0.071154 0.537500
vt 0.071154 0.524038
vt 0.000000 0.524038
vt 0.000000 0.527885
vt 0.071154 0.527885
vt 0.000000 0.937500
vt 0.187500 0.937500
vt 0.187500 1.000000
vt 0.288462 0.687500
vt 0.000000 0.687500
vt 0.000000 0.692308
vt 0.288462 0.692308
vt 0.000000 0.677885
vt 0.288462 0.677885
vt 0.288462 0.682692
vt 0.000000 0.682692
vt 0.125000 0.610577
vt 0.000000 0.610577
vt 0.000000 0.615385
vt 0.125000 0.615385
vt 0.000000 0.600962
vt 0.125000 0.600962
vt 0.125000 0.605769
vt 0.000000 0.605769
vt 0.812500 0.531250
vt 0.750000 0.375000
vt 0.750000 0.531250
vt 0.718750 0.625000
vt 0.687500 0.625000
vt 0.718750 0.687500
vt 0.906250 0.531250
vt 0.906250 0.375000
vt 0.625000 0.125000
vt 0.375000 0.125000
vt 0.625000 0.062500
vt 0.375000 0.062500
s 0
usemtl m_befed1b2-188b-18e9-60a7-7ed8c8808c45
f 4/1/1 7/2/1 5/3/1 2/4/1
f 3/5/2 4/6/2 2/7/2 1/8/2
f 8/1/3 3/2/3 1/3/3 6/4/3
f 7/5/4 8/6/4 6/7/4 5/8/4
f 6/3/5 1/4/5 2/1/5 5/2/5
f 7/3/6 4/4/6 3/1/6 8/2/6
f 292/2/1 295/1/1 293/4/1 290/3/1
f 291/6/2 292/5/2 290/8/2 289/7/2
f 296/2/3 291/1/3 289/4/3 294/3/3
f 295/6/4 296/5/4 294/8/4 293/7/4
f 294/2/5 289/1/5 290/4/5 293/3/5
f 295/2/6 292/1/6 291/4/6 296/3/6
f 300/2/4 303/114/4 301/115/4 298/3/4
f 299/6/1 300/5/1 298/8/1 297/7/1
f 304/2/2 299/114/2 297/115/2 302/3/2
f 303/6/3 304/5/3 302/8/3 301/7/3
f 302/2/5 297/114/5 298/115/5 301/3/5
f 303/2/6 300/114/6 299/115/6 304/3/6
f 308/2/4 311/116/4 309/117/4 306/3/4
f 307/6/1 308/5/1 306/8/1 305/7/1
f 312/2/2 307/116/2 305/117/2 310/3/2
f 311/6/3 312/5/3 310/8/3 309/7/3
f 310/2/5 305/116/5 306/117/5 309/3/5
f 311/2/6 308/116/6 307/117/6 312/3/6
f 316/116/2 319/2/2 317/3/2 314/117/2
f 315/5/3 316/6/3 314/7/3 313/8/3
f 320/116/4 315/2/4 313/3/4 318/117/4
f 319/5/1 320/6/1 318/7/1 317/8/1
f 318/3/5 313/117/5 314/116/5 317/2/5
f 319/3/6 316/117/6 315/116/6 320/2/6
f 324/114/2 327/2/2 325/3/2 322/115/2
f 323/5/3 324/6/3 322/7/3 321/8/3
f 328/114/4 323/2/4 321/3/4 326/115/4
f 327/5/1 328/6/1 326/7/1 325/8/1
f 326/3/5 321/115/5 322/114/5 325/2/5
f 327/3/6 324/115/6 323/114/6 328/2/6
usemtl m_65c0f91a-6938-f55d-32df-2d532cb9c8db
f 12/9/1 15/10/1 13/11/1 10/12/1
f 11/13/2 12/9/2 10/12/2 9/14/2
f 16/9/3 11/10/3 9/11/3 14/12/3
f 15/13/4 16/9/4 14/12/4 13/14/4
f 14/7/5 9/9/5 10/13/5 13/15/5
f 15/7/6 12/9/6 11/13/6 16/15/6
f 20/9/1 23/10/1 21/11/1 18/12/1
f 19/13/2 20/9/2 18/12/2 17/14/2
f 24/9/3 19/10/3 17/11/3 22/12/3
f 23/13/4 24/9/4 22/12/4 21/14/4
f 22/7/5 17/9/5 18/13/5 21/15/5
f 23/7/6 20/9/6 19/13/6 24/15/6
f 28/9/1 31/10/1 29/11/1 26/12/1
f 27/13/2 28/9/2 26/12/2 25/14/2
f 32/9/3 27/10/3 25/11/3 30/12/3
f 31/13/4 32/9/4 30/12/4 29/14/4
f 30/7/5 25/9/5 26/13/5 29/15/5
f 31/7/6 28/9/6 27/13/6 32/15/6
f 36/9/1 39/10/1 37/11/1 34/12/1
f 35/13/2 36/9/2 34/12/2 33/14/2
f 40/9/3 35/10/3 33/11/3 38/12/3
f 39/13/4 40/9/4 38/12/4 37/14/4
f 38/7/5 33/9/5 34/13/5 37/15/5
f 39/7/6 36/9/6 35/13/6 40/15/6
f 108/54/1 111/55/1 109/56/1 106/57/1
f 107/58/2 108/57/2 106/15/2 105/59/2
f 112/60/3 107/55/3 105/56/3 110/61/3
f 110/61/5 105/56/5 106/55/5 109/60/5
f 111/55/6 108/54/6 107/57/6 112/56/6
f 124/60/1 127/55/1 125/56/1 122/61/1
f 123/58/2 124/57/2 122/15/2 121/59/2
f 128/54/3 123/55/3 121/56/3 126/57/3
f 126/60/5 121/55/5 122/56/5 125/61/5
f 127/55/6 124/54/6 123/57/6 128/56/6
f 132/60/1 135/55/1 133/56/1 130/61/1
f 136/54/3 131/55/3 129/56/3 134/57/3
f 135/58/4 136/57/4 134/15/4 133/59/4
f 134/60/5 129/55/5 130/56/5 133/61/5
f 135/55/6 132/54/6 131/57/6 136/56/6
f 180/54/1 183/55/1 181/56/1 178/57/1
f 184/60/3 179/55/3 177/56/3 182/61/3
f 183/58/4 184/57/4 182/15/4 181/59/4
f 182/61/5 177/56/5 178/55/5 181/60/5
f 183/55/6 180/54/6 179/57/6 184/56/6
usemtl m_438e7372-8de0-674f-8166-ad85c6ffc533
f 44/16/1 47/17/1 45/18/1 42/19/1
f 43/20/2 44/17/2 42/16/2 41/21/2
f 48/16/3 43/17/3 41/18/3 46/19/3
f 47/20/4 48/17/4 46/16/4 45/21/4
f 46/21/5 41/20/5 42/17/5 45/16/5
f 47/21/6 44/20/6 43/17/6 48/16/6
f 68/35/1 71/36/1 69/37/1 66/38/1
f 67/35/2 68/39/2 66/40/2 65/20/2
f 72/35/3 67/36/3 65/37/3 70/38/3
f 71/35/4 72/39/4 70/40/4 69/20/4
f 70/38/5 65/37/5 66/41/5 69/42/5
f 71/38/6 68/37/6 67/41/6 72/42/6
usemtl m_865d17dc-c202-4950-3831-c831b8d1bbe3
f 52/22/1 55/23/1 53/24/1 50/25/1
f 51/26/2 52/27/2 50/28/2 49/29/2
f 56/22/3 51/23/3 49/24/3 54/25/3
f 55/26/4 56/27/4 54/28/4 53/29/4
f 54/29/5 49/30/5 50/31/5 53/28/5
f 55/29/6 52/30/6 51/31/6 56/28/6
f 60/32/1 63/33/1 61/34/1 58/27/1
f 59/20/2 60/25/2 58/30/2 57/21/2
f 64/32/3 59/33/3 57/34/3 62/27/3
f 63/20/4 64/25/4 62/30/4 61/21/4
f 62/21/5 57/20/5 58/25/5 61/30/5
f 63/21/6 60/20/6 59/25/6 64/30/6
f 76/22/1 79/23/1 77/24/1 74/25/1
f 75/26/2 76/27/2 74/28/2 73/29/2
f 80/22/3 75/23/3 73/24/3 78/25/3
f 79/26/4 80/27/4 78/28/4 77/29/4
f 78/29/5 73/30/5 74/31/5 77/28/5
f 79/29/6 76/30/6 75/31/6 80/28/6
f 84/32/1 87/33/1 85/34/1 82/27/1
f 83/20/2 84/25/2 82/30/2 81/21/2
f 88/32/3 83/33/3 81/34/3 86/27/3
f 87/20/4 88/25/4 86/30/4 85/21/4
f 86/21/5 81/20/5 82/25/5 85/30/5
f 87/21/6 84/20/6 83/25/6 88/30/6
f 100/2/1 103/51/1 101/52/1 98/53/1
f 99/20/2 100/2/2 98/53/2 97/22/2
f 104/20/3 99/2/3 97/53/3 102/22/3
f 103/20/4 104/2/4 102/53/4 101/22/4
f 102/2/5 97/51/5 98/52/5 101/53/5
f 103/2/6 100/51/6 99/52/6 104/53/6
f 111/62/4 112/63/4 110/64/4 109/65/4
f 127/62/4 128/63/4 126/64/4 125/65/4
f 131/62/2 132/63/2 130/64/2 129/65/2
f 164/20/1 167/2/1 165/53/1 162/22/1
f 163/20/2 164/2/2 162/53/2 161/22/2
f 168/2/3 163/51/3 161/52/3 166/53/3
f 167/20/4 168/2/4 166/53/4 165/22/4
f 166/2/5 161/51/5 162/52/5 165/53/5
f 167/2/6 164/51/6 163/52/6 168/53/6
f 179/62/2 180/63/2 178/64/2 177/65/2
f 188/106/1 191/70/1 189/107/1 186/108/1
f 187/109/11 188/110/11 186/32/11 185/111/11
f 192/106/3 187/70/3 185/107/3 190/108/3
f 191/109/12 192/110/12 190/32/12 189/111/12
f 190/112/13 185/113/13 186/70/13 189/106/13
f 191/112/14 188/113/14 187/70/14 192/106/14
f 196/106/1 199/70/1 197/107/1 194/108/1
f 195/109/11 196/110/11 194/32/11 193/111/11
f 200/106/3 195/70/3 193/107/3 198/108/3
f 199/109/12 200/110/12 198/32/12 197/111/12
f 198/112/13 193/113/13 194/70/13 197/106/13
f 199/112/14 196/113/14 195/70/14 200/106/14
f 204/106/1 207/70/1 205/107/1 202/108/1
f 203/109/11 204/110/11 202/32/11 201/111/11
f 208/106/3 203/70/3 201/107/3 206/108/3
f 207/109/12 208/110/12 206/32/12 205/111/12
f 206/112/13 201/113/13 202/70/13 205/106/13
f 207/112/14 204/113/14 203/70/14 208/106/14
f 212/70/1 215/106/1 213/108/1 210/107/1
f 211/110/13 212/109/13 210/111/13 209/32/13
f 216/70/3 211/106/3 209/108/3 214/107/3
f 215/110/14 216/109/14 214/111/14 213/32/14
f 214/113/12 209/112/12 210/106/12 213/70/12
f 215/113/11 212/112/11 211/106/11 216/70/11
f 220/70/1 223/106/1 221/108/1 218/107/1
f 219/110/13 220/109/13 218/111/13 217/32/13
f 224/70/3 219/106/3 217/108/3 222/107/3
f 223/110/14 224/109/14 222/111/14 221/32/14
f 222/113/12 217/112/12 218/106/12 221/70/12
f 223/113/11 220/112/11 219/106/11 224/70/11
f 228/70/1 231/106/1 229/108/1 226/107/1
f 227/110/13 228/109/13 226/111/13 225/32/13
f 232/70/3 227/106/3 225/108/3 230/107/3
f 231/110/14 232/109/14 230/111/14 229/32/14
f 230/113/12 225/112/12 226/106/12 229/70/12
f 231/113/11 228/112/11 227/106/11 232/70/11
f 236/70/1 239/106/1 237/108/1 234/107/1
f 235/110/13 236/109/13 234/111/13 233/32/13
f 240/70/3 235/106/3 233/108/3 238/107/3
f 239/110/14 240/109/14 238/111/14 237/32/14
f 238/113/12 233/112/12 234/106/12 237/70/12
f 239/113/11 236/112/11 235/106/11 240/70/11
f 244/106/1 247/70/1 245/107/1 242/108/1
f 243/109/11 244/110/11 242/32/11 241/111/11
f 248/106/3 243/70/3 241/107/3 246/108/3
f 247/109/12 248/110/12 246/32/12 245/111/12
f 246/112/13 241/113/13 242/70/13 245/106/13
f 247/112/14 244/113/14 243/70/14 248/106/14
usemtl m_67cfc3c3-399a-40fa-798b-f18ce7d45483
f 92/43/1 95/44/1 93/45/1 90/46/1
f 91/43/2 92/44/2 90/45/2 89/46/2
f 96/43/3 91/44/3 89/45/3 94/46/3
f 95/43/4 96/44/4 94/45/4 93/46/4
f 94/47/5 89/48/5 90/49/5 93/50/5
f 95/16/6 92/15/6 91/14/6 96/31/6
usemtl m_74c00c68-db4a-f587-6030-a01829e5617e
f 116/66/1 119/67/1 117/68/1 114/69/1
f 115/66/2 116/67/2 114/68/2 113/69/2
f 120/66/3 115/67/3 113/68/3 118/69/3
f 119/66/4 120/67/4 118/68/4 117/69/4
f 118/67/5 113/70/5 114/71/5 117/68/5
f 172/66/1 175/67/1 173/68/1 170/69/1
f 171/66/2 172/67/2 170/68/2 169/69/2
f 176/66/3 171/67/3 169/68/3 174/69/3
f 175/66/4 176/67/4 174/68/4 173/69/4
f 174/67/5 169/70/5 170/71/5 173/68/5
usemtl none.001
f 119/72/6 116/73/6 115/74/6 120/75/6
f 140/76/7 143/77/7 141/78/7 138/14/7
f 144/76/8 139/77/8 137/78/8 142/14/8
f 148/87/1 151/88/1 149/89/1 146/31/1
f 152/87/3 147/88/3 145/89/3 150/31/3
f 156/87/1 159/88/1 157/89/1 154/31/1
f 160/87/3 155/88/3 153/89/3 158/31/3
f 175/72/6 172/73/6 171/74/6 176/75/6
f 252/88/1 255/87/1 253/31/1 250/89/1
f 256/88/3 251/87/3 249/31/3 254/89/3
f 260/77/7 263/76/7 261/14/7 258/78/7
f 264/77/8 259/76/8 257/14/8 262/78/8
f 268/88/1 271/87/1 269/31/1 266/89/1
f 272/88/3 267/87/3 265/31/3 270/89/3
f 276/77/15 279/76/15 277/14/15 274/78/15
f 280/77/16 275/76/16 273/14/16 278/78/16
f 284/76/15 287/77/15 285/78/15 282/14/15
f 288/76/16 283/77/16 281/78/16 286/14/16
usemtl m_57e12c91-e21b-4934-8069-8211a80054c9
f 139/79/2 140/80/2 138/81/2 137/82/2
f 143/83/4 144/84/4 142/85/4 141/86/4
f 142/83/9 137/82/9 138/81/9 141/84/9
f 143/84/10 140/81/10 139/82/10 144/83/10
f 147/90/2 148/91/2 146/92/2 145/93/2
f 151/94/4 152/95/4 150/96/4 149/97/4
f 150/95/5 145/93/5 146/92/5 149/94/5
f 151/94/6 148/92/6 147/93/6 152/95/6
f 155/98/2 156/99/2 154/100/2 153/101/2
f 159/102/4 160/103/4 158/104/4 157/105/4
f 158/103/5 153/101/5 154/100/5 157/102/5
f 159/102/6 156/100/6 155/101/6 160/103/6
f 251/103/2 252/102/2 250/105/2 249/104/2
f 255/99/4 256/98/4 254/101/4 253/100/4
f 254/101/5 249/103/5 250/102/5 253/100/5
f 255/100/6 252/102/6 251/103/6 256/101/6
f 259/84/2 260/83/2 258/86/2 257/85/2
f 263/80/4 264/79/4 262/82/4 261/81/4
f 262/82/9 257/83/9 258/84/9 261/81/9
f 263/81/10 260/84/10 259/83/10 264/82/10
f 267/95/2 268/94/2 266/97/2 265/96/2
f 271/91/4 272/90/4 270/93/4 269/92/4
f 270/93/5 265/95/5 266/94/5 269/92/5
f 271/92/6 268/94/6 267/95/6 272/93/6
f 275/80/2 276/79/2 274/82/2 273/81/2
f 279/84/4 280/83/4 278/86/4 277/85/4
f 278/84/17 273/81/17 274/82/17 277/83/17
f 279/83/18 276/82/18 275/81/18 280/84/18
f 283/83/2 284/84/2 282/85/2 281/86/2
f 287/79/4 288/80/4 286/81/4 285/82/4
f 286/81/17 281/84/17 282/83/17 285/82/17
f 287/82/18 284/83/18 283/84/18 288/81/18
