# Blender 4.0.2
# www.blender.org
mtllib left_m_rod.mtl
o cube.001
v -1.187500 0.187500 3.500000
v -1.187500 0.187500 3.125000
v -1.187500 -0.187500 3.500000
v -1.187500 -0.187500 3.125000
v -1.312500 0.187500 3.125000
v -1.312500 0.187500 3.500000
v -1.312500 -0.187500 3.125000
v -1.312500 -0.187500 3.500000
v -1.187500 0.125000 0.125000
v -1.312500 0.125000 0.125000
v -1.187500 -0.125000 0.125000
v -1.312500 -0.125000 0.125000
v -1.312500 0.125000 3.125000
v -1.187500 0.125000 3.125000
v -1.312500 -0.125000 3.125000
v -1.187500 -0.125000 3.125000
vn -0.0000 -0.0000 -1.0000
vn 1.0000 -0.0000 -0.0000
vn -0.0000 -0.0000 1.0000
vn -1.0000 -0.0000 -0.0000
vn -0.0000 1.0000 -0.0000
vn -0.0000 -1.0000 -0.0000
vt 0.839286 0.008929
vt 0.857143 0.008929
vt 0.857143 0.062500
vt 0.839286 0.062500
vt 0.785714 0.008929
vt 0.785714 0.062500
vt 0.571429 0.732143
vt 1.000000 0.732143
vt 1.000000 0.767857
vt 0.571429 0.767857
vt 0.589286 0.732143
vt 0.589286 0.767857
vt 1.000000 0.696429
vt 0.571429 0.696429
vt 0.571429 0.714286
vt 1.000000 0.714286
s 0
usemtl m_b6d29aa3-6666-4650-ada9-9a889e298335.002
f 4/1/1 7/2/1 5/3/1 2/4/1
f 3/5/2 4/1/2 2/4/2 1/6/2
f 8/1/3 3/2/3 1/3/3 6/4/3
f 7/5/4 8/1/4 6/4/4 5/6/4
f 6/1/5 1/2/5 2/3/5 5/4/5
f 7/1/6 4/2/6 3/3/6 8/4/6
f 12/7/4 15/8/4 13/9/4 10/10/4
f 11/7/1 12/11/1 10/12/1 9/10/1
f 16/8/2 11/7/2 9/10/2 14/9/2
f 15/7/3 16/11/3 14/12/3 13/10/3
f 14/13/5 9/14/5 10/15/5 13/16/5
f 15/16/6 12/15/6 11/14/6 16/13/6
