# Blender 4.0.2
# www.blender.org
mtllib right_c_rod.mtl
o cube.010
v 1.193750 0.125000 -3.250000
v 1.193750 0.125000 -3.500000
v 1.193750 -0.125000 -3.250000
v 1.193750 -0.125000 -3.500000
v 0.943750 0.125000 -3.500000
v 0.943750 0.125000 -3.250000
v 0.943750 -0.125000 -3.500000
v 0.943750 -0.125000 -3.250000
v 1.187500 0.187500 1.312500
v 1.187500 0.187500 0.937500
v 1.187500 -0.187500 1.312500
v 1.187500 -0.187500 0.937500
v 1.062500 0.187500 0.937500
v 1.062500 0.187500 1.312500
v 1.062500 -0.187500 0.937500
v 1.062500 -0.187500 1.312500
v 1.187500 0.125000 0.937500
v 1.187500 0.125000 -0.937500
v 1.187500 -0.125000 0.937500
v 1.187500 -0.125000 -0.937500
v 1.062500 0.125000 -0.937500
v 1.062500 0.125000 0.937500
v 1.062500 -0.125000 -0.937500
v 1.062500 -0.125000 0.937500
v 1.187500 0.187500 -0.937500
v 1.187500 0.187500 -1.312500
v 1.187500 -0.187500 -0.937500
v 1.187500 -0.187500 -1.312500
v 1.062500 0.187500 -1.312500
v 1.062500 0.187500 -0.937500
v 1.062500 -0.187500 -1.312500
v 1.062500 -0.187500 -0.937500
v 1.250000 0.125000 1.250000
v 1.250000 0.125000 1.000000
v 1.250000 -0.125000 1.250000
v 1.250000 -0.125000 1.000000
v 1.000000 0.125000 1.000000
v 1.000000 0.125000 1.250000
v 1.000000 -0.125000 1.000000
v 1.000000 -0.125000 1.250000
v 1.375000 0.125000 -1.000000
v 1.375000 0.125000 -1.250000
v 1.375000 -0.125000 -1.000000
v 1.375000 -0.125000 -1.250000
v 1.125000 0.125000 -1.250000
v 1.125000 0.125000 -1.000000
v 1.125000 -0.125000 -1.250000
v 1.125000 -0.125000 -1.000000
v 1.187500 0.125000 3.187500
v 1.187500 0.125000 1.312500
v 1.187500 -0.125000 3.187500
v 1.187500 -0.125000 1.312500
v 1.062500 0.125000 1.312500
v 1.062500 0.125000 3.187500
v 1.062500 -0.125000 1.312500
v 1.062500 -0.125000 3.187500
v 1.250000 0.125000 3.500000
v 1.250000 0.125000 3.250000
v 1.250000 -0.125000 3.500000
v 1.250000 -0.125000 3.250000
v 1.000000 0.125000 3.250000
v 1.000000 0.125000 3.500000
v 1.000000 -0.125000 3.250000
v 1.000000 -0.125000 3.500000
v 1.187500 0.187500 3.562500
v 1.187500 0.187500 3.187500
v 1.187500 -0.187500 3.562500
v 1.187500 -0.187500 3.187500
v 1.062500 0.187500 3.187500
v 1.062500 0.187500 3.562500
v 1.062500 -0.187500 3.187500
v 1.062500 -0.187500 3.562500
v 1.187500 0.125000 -1.312500
v 1.187500 0.125000 -3.187500
v 1.187500 -0.125000 -1.312500
v 1.187500 -0.125000 -3.187500
v 1.062500 0.125000 -3.187500
v 1.062500 0.125000 -1.312500
v 1.062500 -0.125000 -3.187500
v 1.062500 -0.125000 -1.312500
v 1.187500 0.187500 -3.187500
v 1.187500 0.187500 -3.562500
v 1.187500 -0.187500 -3.187500
v 1.187500 -0.187500 -3.562500
v 1.062500 0.187500 -3.562500
v 1.062500 0.187500 -3.187500
v 1.062500 -0.187500 -3.562500
v 1.062500 -0.187500 -3.187500
vn -0.0000 -0.0000 -1.0000
vn 1.0000 -0.0000 -0.0000
vn -0.0000 -0.0000 1.0000
vn -1.0000 -0.0000 -0.0000
vn -0.0000 1.0000 -0.0000
vn -0.0000 -1.0000 -0.0000
vt 0.892857 0.035714
vt 0.928571 0.035714
vt 0.928571 0.071429
vt 0.892857 0.071429
vt 0.857143 0.035714
vt 0.857143 0.071429
vt 0.857143 0.008929
vt 0.839286 0.008929
vt 0.839286 0.062500
vt 0.857143 0.062500
vt 0.785714 0.008929
vt 0.785714 0.062500
vt 1.000000 0.571429
vt 0.982143 0.571429
vt 0.982143 0.607143
vt 1.000000 0.607143
vt 0.732143 0.571429
vt 0.732143 0.607143
vt 0.750000 0.571429
vt 0.750000 0.607143
vt 1.000000 0.553571
vt 0.732143 0.553571
s 0
usemtl m_b6d29aa3-6666-4650-ada9-9a889e298335
f 4/1/1 7/2/1 5/3/1 2/4/1
f 3/5/2 4/1/2 2/4/2 1/6/2
f 8/2/3 3/1/3 1/4/3 6/3/3
f 7/1/4 8/5/4 6/6/4 5/4/4
f 6/2/5 1/1/5 2/4/5 5/3/5
f 7/2/6 4/1/6 3/4/6 8/3/6
f 12/7/1 15/8/1 13/9/1 10/10/1
f 11/8/2 12/11/2 10/12/2 9/9/2
f 16/7/3 11/8/3 9/9/3 14/10/3
f 15/8/4 16/11/4 14/12/4 13/9/4
f 14/7/5 9/8/5 10/9/5 13/10/5
f 15/7/6 12/8/6 11/9/6 16/10/6
f 20/13/1 23/14/1 21/15/1 18/16/1
f 19/13/2 20/17/2 18/18/2 17/16/2
f 24/19/3 19/17/3 17/18/3 22/20/3
f 23/13/4 24/17/4 22/18/4 21/16/4
f 22/13/5 17/21/5 18/22/5 21/17/5
f 23/13/6 20/21/6 19/22/6 24/17/6
f 28/7/1 31/8/1 29/9/1 26/10/1
f 27/8/2 28/11/2 26/12/2 25/9/2
f 32/7/3 27/8/3 25/9/3 30/10/3
f 31/8/4 32/11/4 30/12/4 29/9/4
f 30/7/5 25/8/5 26/9/5 29/10/5
f 31/7/6 28/8/6 27/9/6 32/10/6
f 36/1/1 39/2/1 37/3/1 34/4/1
f 35/5/2 36/1/2 34/4/2 33/6/2
f 40/2/3 35/1/3 33/4/3 38/3/3
f 39/1/4 40/5/4 38/6/4 37/4/4
f 38/2/5 33/1/5 34/4/5 37/3/5
f 39/2/6 36/1/6 35/4/6 40/3/6
f 44/1/1 47/2/1 45/3/1 42/4/1
f 43/5/2 44/1/2 42/4/2 41/6/2
f 48/2/3 43/1/3 41/4/3 46/3/3
f 47/1/4 48/5/4 46/6/4 45/4/4
f 46/2/5 41/1/5 42/4/5 45/3/5
f 47/2/6 44/1/6 43/4/6 48/3/6
f 52/13/1 55/14/1 53/15/1 50/16/1
f 51/13/2 52/17/2 50/18/2 49/16/2
f 56/19/3 51/17/3 49/18/3 54/20/3
f 55/13/4 56/17/4 54/18/4 53/16/4
f 54/13/5 49/21/5 50/22/5 53/17/5
f 55/13/6 52/21/6 51/22/6 56/17/6
f 60/1/1 63/2/1 61/3/1 58/4/1
f 59/5/2 60/1/2 58/4/2 57/6/2
f 64/2/3 59/1/3 57/4/3 62/3/3
f 63/1/4 64/5/4 62/6/4 61/4/4
f 62/2/5 57/1/5 58/4/5 61/3/5
f 63/2/6 60/1/6 59/4/6 64/3/6
f 68/7/1 71/8/1 69/9/1 66/10/1
f 67/8/2 68/11/2 66/12/2 65/9/2
f 72/7/3 67/8/3 65/9/3 70/10/3
f 71/8/4 72/11/4 70/12/4 69/9/4
f 70/7/5 65/8/5 66/9/5 69/10/5
f 71/7/6 68/8/6 67/9/6 72/10/6
f 76/13/1 79/14/1 77/15/1 74/16/1
f 75/13/2 76/17/2 74/18/2 73/16/2
f 80/19/3 75/17/3 73/18/3 78/20/3
f 79/13/4 80/17/4 78/18/4 77/16/4
f 78/13/5 73/21/5 74/22/5 77/17/5
f 79/13/6 76/21/6 75/22/6 80/17/6
f 84/7/1 87/8/1 85/9/1 82/10/1
f 83/8/2 84/11/2 82/12/2 81/9/2
f 88/7/3 83/8/3 81/9/3 86/10/3
f 87/8/4 88/11/4 86/12/4 85/9/4
f 86/7/5 81/8/5 82/9/5 85/10/5
f 87/7/6 84/8/6 83/9/6 88/10/6
