# Blender 4.1.0
# www.blender.org
mtllib wheels_semi_blind.mtl
o Cube.003
v 1.062500 0.625000 -0.000000
v 1.062500 0.562500 -0.000000
v 1.062500 0.562500 0.232995
v 0.812500 0.625000 -0.258883
v 1.062500 0.625000 -0.258883
v 0.812500 0.687500 -0.000000
v 0.812500 0.625000 0.258884
v 0.812500 0.687500 0.284772
v 1.062500 0.562500 -0.232995
v 0.812500 0.625000 -0.000000
v 1.062500 0.625000 0.258884
v 0.750000 0.000000 0.000000
v 0.750000 0.687500 -0.284772
v 0.750000 0.687500 -0.000000
v 0.812500 0.687500 -0.284772
v 0.750000 0.687500 0.284772
v 1.062500 0.441942 -0.441942
v 1.062500 0.397748 -0.397748
v 0.812500 0.258884 -0.625000
v 1.062500 0.258884 -0.625000
v 0.812500 0.486136 -0.486136
v 1.062500 0.232995 -0.562500
v 0.812500 0.441942 -0.441942
v 0.750000 0.284772 -0.687500
v 0.750000 0.486136 -0.486136
v 0.812500 0.284772 -0.687500
v 1.062500 -0.000000 -0.625000
v 1.062500 -0.000000 -0.562500
v 0.812500 -0.258883 -0.625000
v 1.062500 -0.258883 -0.625000
v 0.812500 -0.000000 -0.687500
v 1.062500 -0.232995 -0.562500
v 0.812500 -0.000000 -0.625000
v 0.750000 -0.284772 -0.687500
v 0.750000 -0.000000 -0.687500
v 0.812500 -0.284772 -0.687500
v 1.062500 -0.441942 -0.441942
v 1.062500 -0.397747 -0.397748
v 0.812500 -0.625000 -0.258884
v 1.062500 -0.625000 -0.258884
v 0.812500 -0.486136 -0.486136
v 1.062500 -0.562500 -0.232995
v 0.812500 -0.441942 -0.441942
v 0.750000 -0.687500 -0.284772
v 0.750000 -0.486136 -0.486136
v 0.812500 -0.687500 -0.284772
v 1.062500 -0.625000 0.000000
v 1.062500 -0.562500 0.000000
v 0.812500 -0.625000 0.258883
v 1.062500 -0.625000 0.258883
v 0.812500 -0.687500 0.000000
v 1.062500 -0.562500 0.232995
v 0.812500 -0.625000 0.000000
v 0.750000 -0.687500 0.284772
v 0.750000 -0.687500 0.000000
v 0.812500 -0.687500 0.284772
v 1.062500 -0.441942 0.441942
v 1.062500 -0.397748 0.397747
v 0.812500 -0.258884 0.625000
v 1.062500 -0.258884 0.625000
v 0.812500 -0.486136 0.486136
v 1.062500 -0.232995 0.562500
v 0.812500 -0.441942 0.441942
v 0.750000 -0.284772 0.687500
v 0.750000 -0.486136 0.486136
v 0.812500 -0.284772 0.687500
v 1.062500 0.000000 0.625000
v 1.062500 0.000000 0.562500
v 0.812500 0.258883 0.625000
v 1.062500 0.258883 0.625000
v 0.812500 0.000000 0.687500
v 1.062500 0.232995 0.562500
v 0.812500 0.000000 0.625000
v 0.750000 0.284772 0.687500
v 0.750000 0.000000 0.687500
v 0.812500 0.284772 0.687500
v 1.062500 0.441942 0.441942
v 1.062500 0.397747 0.397748
v 0.812500 0.486136 0.486136
v 0.812500 0.441942 0.441942
v 0.750000 0.486136 0.486136
v 1.062500 -0.232995 -0.232995
v 1.062500 -0.232995 0.232995
v 1.062500 -0.232995 0.000000
v 1.062500 0.232995 -0.000000
v 1.062500 -0.000000 -0.232995
v 1.062500 0.000000 0.000000
v 1.062500 0.000000 0.232995
v 1.062500 0.232995 0.232995
v 1.062500 0.232995 -0.232995
v -1.062500 0.000000 0.625000
v -1.062500 0.000000 0.562500
v -1.062500 -0.232995 0.562500
v -0.812500 0.258883 0.625000
v -1.062500 0.258883 0.625000
v -0.812500 0.000000 0.687500
v -0.812500 -0.258884 0.625000
v -0.812500 -0.284772 0.687500
v -1.062500 0.232995 0.562500
v -0.812500 0.000000 0.625000
v -1.062500 -0.258884 0.625000
v -0.750000 -0.000000 0.000000
v -0.750000 0.284772 0.687500
v -0.750000 0.000000 0.687500
v -0.812500 0.284772 0.687500
v -0.750000 -0.284772 0.687500
v -1.062500 0.441942 0.441942
v -1.062500 0.397748 0.397748
v -0.812500 0.625000 0.258884
v -1.062500 0.625000 0.258884
v -0.812500 0.486136 0.486136
v -1.062500 0.562500 0.232995
v -0.812500 0.441942 0.441942
v -0.750000 0.687500 0.284772
v -0.750000 0.486136 0.486136
v -0.812500 0.687500 0.284772
v -1.062500 0.625000 -0.000000
v -1.062500 0.562500 -0.000000
v -0.812500 0.625000 -0.258883
v -1.062500 0.625000 -0.258883
v -0.812500 0.687500 -0.000000
v -1.062500 0.562500 -0.232995
v -0.812500 0.625000 -0.000000
v -0.750000 0.687500 -0.284772
v -0.750000 0.687500 -0.000000
v -0.812500 0.687500 -0.284772
v -1.062500 0.441942 -0.441942
v -1.062500 0.397748 -0.397747
v -0.812500 0.258884 -0.625000
v -1.062500 0.258884 -0.625000
v -0.812500 0.486136 -0.486136
v -1.062500 0.232995 -0.562500
v -0.812500 0.441942 -0.441942
v -0.750000 0.284772 -0.687500
v -0.750000 0.486136 -0.486136
v -0.812500 0.284772 -0.687500
v -1.062500 -0.000000 -0.625000
v -1.062500 -0.000000 -0.562500
v -0.812500 -0.258883 -0.625000
v -1.062500 -0.258883 -0.625000
v -0.812500 -0.000000 -0.687500
v -1.062500 -0.232995 -0.562500
v -0.812500 -0.000000 -0.625000
v -0.750000 -0.284772 -0.687500
v -0.750000 -0.000000 -0.687500
v -0.812500 -0.284772 -0.687500
v -1.062500 -0.441942 -0.441942
v -1.062500 -0.397747 -0.397748
v -0.812500 -0.625000 -0.258884
v -1.062500 -0.625000 -0.258884
v -0.812500 -0.486136 -0.486136
v -1.062500 -0.562500 -0.232995
v -0.812500 -0.441942 -0.441942
v -0.750000 -0.687500 -0.284772
v -0.750000 -0.486136 -0.486136
v -0.812500 -0.687500 -0.284772
v -1.062500 -0.625000 0.000000
v -1.062500 -0.562500 0.000000
v -0.812500 -0.625000 0.258883
v -1.062500 -0.625000 0.258883
v -0.812500 -0.687500 0.000000
v -1.062500 -0.562500 0.232995
v -0.812500 -0.625000 0.000000
v -0.750000 -0.687500 0.284772
v -0.750000 -0.687500 0.000000
v -0.812500 -0.687500 0.284772
v -1.062500 -0.441942 0.441942
v -1.062500 -0.397748 0.397747
v -0.812500 -0.486136 0.486136
v -0.812500 -0.441942 0.441942
v -0.750000 -0.486136 0.486136
v -1.062500 0.232995 -0.232995
v -1.062500 -0.232995 -0.232995
v -1.062500 -0.000000 -0.232995
v -1.062500 0.000000 0.232995
v -1.062500 0.232995 -0.000000
v -1.062500 -0.000000 0.000000
v -1.062500 -0.232995 0.000000
v -1.062500 -0.232995 0.232995
v -1.062500 0.232995 0.232995
vn 1.0000 -0.0000 -0.0000
vn -0.0000 1.0000 -0.0000
vn -1.0000 -0.0000 -0.0000
vn -0.0000 0.7071 -0.7071
vn -0.0000 -0.0000 -1.0000
vn -0.0000 -0.7071 -0.7071
vn -0.0000 -1.0000 -0.0000
vn -0.0000 -0.7071 0.7071
vn -0.0000 -0.0000 1.0000
vn -0.0000 0.7071 0.7071
vt 0.812500 0.750071
vt 0.812500 0.781329
vt 0.929027 0.750071
vt 0.683058 0.843750
vt 0.683058 0.968750
vt 0.812500 0.843750
vt 0.941974 0.781329
vt 0.812500 0.812586
vt 0.954922 0.812586
vt 0.695973 0.750071
vt 0.812500 0.968750
vt 0.941942 0.843750
vt 0.670078 0.843836
vt 0.812500 0.500000
vt 0.812500 0.843836
vt 0.812500 1.000000
vt 0.954886 0.968750
vt 0.683026 0.781329
vt 0.670114 1.000000
vt 0.670114 0.968750
vt 0.954922 0.843836
vt 0.670078 0.812586
vt 0.954886 1.000000
vt 0.941942 0.968750
vt 0.113626 0.488626
vt 0.196002 0.571002
vt 0.196002 0.406250
vt 0.511374 0.488626
vt 0.428997 0.571002
vt 0.593750 0.571002
vt 0.312500 0.571002
vt 0.312500 0.406250
vt 0.196002 0.687500
vt 0.312500 0.803998
vt 0.312500 0.687500
vt 0.593750 0.803997
vt 0.428998 0.687500
vt 0.428998 0.803997
vt 0.031250 0.803998
vt 0.196002 0.803998
vt 0.428997 0.406250
vt 0.196002 0.968750
vt 0.312500 0.968750
vt 0.428998 0.968750
vt 0.511374 0.886374
vt 0.113626 0.886374
vt 0.593750 0.687500
vt 0.031250 0.571002
vt 0.031250 0.687500
s 0
usemtl m_d9d69c3a-5ba3-3bbe-30c9-f864775ef81e.002
f 2/1/1 1/2/1 3/3/1
f 5/4/2 4/5/2 1/6/2
f 7/7/1 6/8/1 8/9/1
f 2/1/1 9/10/1 1/2/1
f 1/6/2 10/11/2 11/12/2
f 13/13/3 12/14/3 14/15/3
f 6/11/2 14/16/2 8/17/2
f 10/2/1 4/18/1 6/8/1
f 6/11/2 13/19/2 14/16/2
f 15/20/2 13/19/2 6/11/2
f 10/2/1 6/8/1 7/7/1
f 12/14/3 16/21/3 14/15/3
f 6/8/1 4/18/1 15/22/1
f 8/17/2 14/16/2 16/23/2
f 11/12/2 10/11/2 7/24/2
f 1/2/1 9/10/1 5/18/1
f 1/6/2 4/5/2 10/11/2
f 3/3/1 1/2/1 11/7/1
f 18/1/1 17/2/1 9/3/1
f 20/4/4 19/5/4 17/6/4
f 4/7/1 21/8/1 15/9/1
f 18/1/1 22/10/1 17/2/1
f 17/6/4 23/11/4 5/12/4
f 24/13/3 12/14/3 25/15/3
f 21/11/4 25/16/4 15/17/4
f 23/2/1 19/18/1 21/8/1
f 21/11/4 24/19/4 25/16/4
f 26/20/4 24/19/4 21/11/4
f 23/2/1 21/8/1 4/7/1
f 12/14/3 13/21/3 25/15/3
f 21/8/1 19/18/1 26/22/1
f 15/17/4 25/16/4 13/23/4
f 5/12/4 23/11/4 4/24/4
f 17/2/1 22/10/1 20/18/1
f 17/6/4 19/5/4 23/11/4
f 9/3/1 17/2/1 5/7/1
f 28/1/1 27/2/1 22/3/1
f 30/4/5 29/5/5 27/6/5
f 19/7/1 31/8/1 26/9/1
f 28/1/1 32/10/1 27/2/1
f 27/6/5 33/11/5 20/12/5
f 34/13/3 12/14/3 35/15/3
f 31/11/5 35/16/5 26/17/5
f 33/2/1 29/18/1 31/8/1
f 31/11/5 34/19/5 35/16/5
f 36/20/5 34/19/5 31/11/5
f 33/2/1 31/8/1 19/7/1
f 12/14/3 24/21/3 35/15/3
f 31/8/1 29/18/1 36/22/1
f 26/17/5 35/16/5 24/23/5
f 20/12/5 33/11/5 19/24/5
f 27/2/1 32/10/1 30/18/1
f 27/6/5 29/5/5 33/11/5
f 22/3/1 27/2/1 20/7/1
f 38/1/1 37/2/1 32/3/1
f 40/4/6 39/5/6 37/6/6
f 29/7/1 41/8/1 36/9/1
f 38/1/1 42/10/1 37/2/1
f 37/6/6 43/11/6 30/12/6
f 44/13/3 12/14/3 45/15/3
f 41/11/6 45/16/6 36/17/6
f 43/2/1 39/18/1 41/8/1
f 41/11/6 44/19/6 45/16/6
f 46/20/6 44/19/6 41/11/6
f 43/2/1 41/8/1 29/7/1
f 12/14/3 34/21/3 45/15/3
f 41/8/1 39/18/1 46/22/1
f 36/17/6 45/16/6 34/23/6
f 30/12/6 43/11/6 29/24/6
f 37/2/1 42/10/1 40/18/1
f 37/6/6 39/5/6 43/11/6
f 32/3/1 37/2/1 30/7/1
f 48/1/1 47/2/1 42/3/1
f 50/4/7 49/5/7 47/6/7
f 39/7/1 51/8/1 46/9/1
f 48/1/1 52/10/1 47/2/1
f 47/6/7 53/11/7 40/12/7
f 54/13/3 12/14/3 55/15/3
f 51/11/7 55/16/7 46/17/7
f 53/2/1 49/18/1 51/8/1
f 51/11/7 54/19/7 55/16/7
f 56/20/7 54/19/7 51/11/7
f 53/2/1 51/8/1 39/7/1
f 12/14/3 44/21/3 55/15/3
f 51/8/1 49/18/1 56/22/1
f 46/17/7 55/16/7 44/23/7
f 40/12/7 53/11/7 39/24/7
f 47/2/1 52/10/1 50/18/1
f 47/6/7 49/5/7 53/11/7
f 42/3/1 47/2/1 40/7/1
f 58/1/1 57/2/1 52/3/1
f 60/4/8 59/5/8 57/6/8
f 49/7/1 61/8/1 56/9/1
f 58/1/1 62/10/1 57/2/1
f 57/6/8 63/11/8 50/12/8
f 64/13/3 12/14/3 65/15/3
f 61/11/8 65/16/8 56/17/8
f 63/2/1 59/18/1 61/8/1
f 61/11/8 64/19/8 65/16/8
f 66/20/8 64/19/8 61/11/8
f 63/2/1 61/8/1 49/7/1
f 12/14/3 54/21/3 65/15/3
f 61/8/1 59/18/1 66/22/1
f 56/17/8 65/16/8 54/23/8
f 50/12/8 63/11/8 49/24/8
f 57/2/1 62/10/1 60/18/1
f 57/6/8 59/5/8 63/11/8
f 52/3/1 57/2/1 50/7/1
f 68/1/1 67/2/1 62/3/1
f 70/4/9 69/5/9 67/6/9
f 59/7/1 71/8/1 66/9/1
f 68/1/1 72/10/1 67/2/1
f 67/6/9 73/11/9 60/12/9
f 74/13/3 12/14/3 75/15/3
f 71/11/9 75/16/9 66/17/9
f 73/2/1 69/18/1 71/8/1
f 71/11/9 74/19/9 75/16/9
f 76/20/9 74/19/9 71/11/9
f 73/2/1 71/8/1 59/7/1
f 12/14/3 64/21/3 75/15/3
f 71/8/1 69/18/1 76/22/1
f 66/17/9 75/16/9 64/23/9
f 60/12/9 73/11/9 59/24/9
f 67/2/1 72/10/1 70/18/1
f 67/6/9 69/5/9 73/11/9
f 62/3/1 67/2/1 60/7/1
f 78/1/1 77/2/1 72/3/1
f 11/4/10 7/5/10 77/6/10
f 69/7/1 79/8/1 76/9/1
f 78/1/1 3/10/1 77/2/1
f 77/6/10 80/11/10 70/12/10
f 16/13/3 12/14/3 81/15/3
f 79/11/10 81/16/10 76/17/10
f 80/2/1 7/18/1 79/8/1
f 79/11/10 16/19/10 81/16/10
f 8/20/10 16/19/10 79/11/10
f 80/2/1 79/8/1 69/7/1
f 12/14/3 74/21/3 81/15/3
f 79/8/1 7/18/1 8/22/1
f 76/17/10 81/16/10 74/23/10
f 70/12/10 80/11/10 69/24/10
f 77/2/1 3/10/1 11/18/1
f 77/6/10 7/5/10 80/11/10
f 72/3/1 77/2/1 70/7/1
f 38/25/1 82/26/1 42/27/1
f 58/28/1 83/29/1 62/30/1
f 42/27/1 84/31/1 48/32/1
f 86/33/1 85/34/1 87/35/1
f 72/36/1 88/37/1 89/38/1
f 86/33/1 22/39/1 90/40/1
f 52/41/1 84/31/1 83/29/1
f 88/37/1 85/34/1 89/38/1
f 85/34/1 9/42/1 2/43/1
f 89/38/1 2/43/1 3/44/1
f 78/45/1 89/38/1 3/44/1
f 90/40/1 18/46/1 9/42/1
f 84/31/1 86/33/1 87/35/1
f 83/29/1 87/35/1 88/37/1
f 68/47/1 83/29/1 88/37/1
f 32/48/1 86/33/1 82/26/1
f 32/48/1 82/26/1 38/25/1
f 52/41/1 83/29/1 58/28/1
f 82/26/1 84/31/1 42/27/1
f 90/40/1 85/34/1 86/33/1
f 68/47/1 88/37/1 72/36/1
f 28/49/1 22/39/1 86/33/1
f 48/32/1 84/31/1 52/41/1
f 87/35/1 85/34/1 88/37/1
f 90/40/1 9/42/1 85/34/1
f 85/34/1 2/43/1 89/38/1
f 72/36/1 89/38/1 78/45/1
f 22/39/1 18/46/1 90/40/1
f 82/26/1 86/33/1 84/31/1
f 84/31/1 87/35/1 83/29/1
f 62/30/1 83/29/1 68/47/1
f 28/49/1 86/33/1 32/48/1
f 91/2/3 92/1/3 93/3/3
f 94/5/9 95/4/9 91/6/9
f 96/8/3 97/7/3 98/9/3
f 99/10/3 92/1/3 91/2/3
f 100/11/9 91/6/9 101/12/9
f 102/14/1 103/13/1 104/15/1
f 104/16/9 96/11/9 98/17/9
f 94/18/3 100/2/3 96/8/3
f 103/19/9 96/11/9 104/16/9
f 103/19/9 105/20/9 96/11/9
f 96/8/3 100/2/3 97/7/3
f 106/21/1 102/14/1 104/15/1
f 94/18/3 96/8/3 105/22/3
f 104/16/9 98/17/9 106/23/9
f 100/11/9 101/12/9 97/24/9
f 99/10/3 91/2/3 95/18/3
f 94/5/9 91/6/9 100/11/9
f 91/2/3 93/3/3 101/7/3
f 107/2/3 108/1/3 99/3/3
f 109/5/10 110/4/10 107/6/10
f 111/8/3 94/7/3 105/9/3
f 112/10/3 108/1/3 107/2/3
f 113/11/10 107/6/10 95/12/10
f 102/14/1 114/13/1 115/15/1
f 115/16/10 111/11/10 105/17/10
f 109/18/3 113/2/3 111/8/3
f 114/19/10 111/11/10 115/16/10
f 114/19/10 116/20/10 111/11/10
f 111/8/3 113/2/3 94/7/3
f 103/21/1 102/14/1 115/15/1
f 109/18/3 111/8/3 116/22/3
f 115/16/10 105/17/10 103/23/10
f 113/11/10 95/12/10 94/24/10
f 112/10/3 107/2/3 110/18/3
f 109/5/10 107/6/10 113/11/10
f 107/2/3 99/3/3 95/7/3
f 117/2/3 118/1/3 112/3/3
f 119/5/2 120/4/2 117/6/2
f 121/8/3 109/7/3 116/9/3
f 122/10/3 118/1/3 117/2/3
f 123/11/2 117/6/2 110/12/2
f 102/14/1 124/13/1 125/15/1
f 125/16/2 121/11/2 116/17/2
f 119/18/3 123/2/3 121/8/3
f 124/19/2 121/11/2 125/16/2
f 124/19/2 126/20/2 121/11/2
f 121/8/3 123/2/3 109/7/3
f 114/21/1 102/14/1 125/15/1
f 119/18/3 121/8/3 126/22/3
f 125/16/2 116/17/2 114/23/2
f 123/11/2 110/12/2 109/24/2
f 122/10/3 117/2/3 120/18/3
f 119/5/2 117/6/2 123/11/2
f 117/2/3 112/3/3 110/7/3
f 127/2/3 128/1/3 122/3/3
f 129/5/4 130/4/4 127/6/4
f 131/8/3 119/7/3 126/9/3
f 132/10/3 128/1/3 127/2/3
f 133/11/4 127/6/4 120/12/4
f 102/14/1 134/13/1 135/15/1
f 135/16/4 131/11/4 126/17/4
f 129/18/3 133/2/3 131/8/3
f 134/19/4 131/11/4 135/16/4
f 134/19/4 136/20/4 131/11/4
f 131/8/3 133/2/3 119/7/3
f 124/21/1 102/14/1 135/15/1
f 129/18/3 131/8/3 136/22/3
f 135/16/4 126/17/4 124/23/4
f 133/11/4 120/12/4 119/24/4
f 132/10/3 127/2/3 130/18/3
f 129/5/4 127/6/4 133/11/4
f 127/2/3 122/3/3 120/7/3
f 137/2/3 138/1/3 132/3/3
f 139/5/5 140/4/5 137/6/5
f 141/8/3 129/7/3 136/9/3
f 142/10/3 138/1/3 137/2/3
f 143/11/5 137/6/5 130/12/5
f 102/14/1 144/13/1 145/15/1
f 145/16/5 141/11/5 136/17/5
f 139/18/3 143/2/3 141/8/3
f 144/19/5 141/11/5 145/16/5
f 144/19/5 146/20/5 141/11/5
f 141/8/3 143/2/3 129/7/3
f 134/21/1 102/14/1 145/15/1
f 139/18/3 141/8/3 146/22/3
f 145/16/5 136/17/5 134/23/5
f 143/11/5 130/12/5 129/24/5
f 142/10/3 137/2/3 140/18/3
f 139/5/5 137/6/5 143/11/5
f 137/2/3 132/3/3 130/7/3
f 147/2/3 148/1/3 142/3/3
f 149/5/6 150/4/6 147/6/6
f 151/8/3 139/7/3 146/9/3
f 152/10/3 148/1/3 147/2/3
f 153/11/6 147/6/6 140/12/6
f 102/14/1 154/13/1 155/15/1
f 155/16/6 151/11/6 146/17/6
f 149/18/3 153/2/3 151/8/3
f 154/19/6 151/11/6 155/16/6
f 154/19/6 156/20/6 151/11/6
f 151/8/3 153/2/3 139/7/3
f 144/21/1 102/14/1 155/15/1
f 149/18/3 151/8/3 156/22/3
f 155/16/6 146/17/6 144/23/6
f 153/11/6 140/12/6 139/24/6
f 152/10/3 147/2/3 150/18/3
f 149/5/6 147/6/6 153/11/6
f 147/2/3 142/3/3 140/7/3
f 157/2/3 158/1/3 152/3/3
f 159/5/7 160/4/7 157/6/7
f 161/8/3 149/7/3 156/9/3
f 162/10/3 158/1/3 157/2/3
f 163/11/7 157/6/7 150/12/7
f 102/14/1 164/13/1 165/15/1
f 165/16/7 161/11/7 156/17/7
f 159/18/3 163/2/3 161/8/3
f 164/19/7 161/11/7 165/16/7
f 164/19/7 166/20/7 161/11/7
f 161/8/3 163/2/3 149/7/3
f 154/21/1 102/14/1 165/15/1
f 159/18/3 161/8/3 166/22/3
f 165/16/7 156/17/7 154/23/7
f 163/11/7 150/12/7 149/24/7
f 162/10/3 157/2/3 160/18/3
f 159/5/7 157/6/7 163/11/7
f 157/2/3 152/3/3 150/7/3
f 167/2/3 168/1/3 162/3/3
f 97/5/8 101/4/8 167/6/8
f 169/8/3 159/7/3 166/9/3
f 93/10/3 168/1/3 167/2/3
f 170/11/8 167/6/8 160/12/8
f 102/14/1 106/13/1 171/15/1
f 171/16/8 169/11/8 166/17/8
f 97/18/3 170/2/3 169/8/3
f 106/19/8 169/11/8 171/16/8
f 106/19/8 98/20/8 169/11/8
f 169/8/3 170/2/3 159/7/3
f 164/21/1 102/14/1 171/15/1
f 97/18/3 169/8/3 98/22/3
f 171/16/8 166/17/8 164/23/8
f 170/11/8 160/12/8 159/24/8
f 93/10/3 167/2/3 101/18/3
f 97/5/8 167/6/8 170/11/8
f 167/2/3 162/3/3 160/7/3
f 172/26/3 128/25/3 132/27/3
f 173/29/3 148/28/3 152/30/3
f 174/31/3 132/27/3 138/32/3
f 175/34/3 176/33/3 177/35/3
f 178/37/3 162/36/3 179/38/3
f 112/39/3 176/33/3 180/40/3
f 174/31/3 142/41/3 173/29/3
f 175/34/3 178/37/3 179/38/3
f 99/42/3 175/34/3 92/43/3
f 92/43/3 179/38/3 93/44/3
f 179/38/3 168/45/3 93/44/3
f 108/46/3 180/40/3 99/42/3
f 176/33/3 174/31/3 177/35/3
f 177/35/3 173/29/3 178/37/3
f 173/29/3 158/47/3 178/37/3
f 176/33/3 122/48/3 172/26/3
f 172/26/3 122/48/3 128/25/3
f 173/29/3 142/41/3 148/28/3
f 174/31/3 172/26/3 132/27/3
f 175/34/3 180/40/3 176/33/3
f 178/37/3 158/47/3 162/36/3
f 112/39/3 118/49/3 176/33/3
f 174/31/3 138/32/3 142/41/3
f 175/34/3 177/35/3 178/37/3
f 99/42/3 180/40/3 175/34/3
f 92/43/3 175/34/3 179/38/3
f 179/38/3 162/36/3 168/45/3
f 108/46/3 112/39/3 180/40/3
f 176/33/3 172/26/3 174/31/3
f 177/35/3 174/31/3 173/29/3
f 173/29/3 152/30/3 158/47/3
f 176/33/3 118/49/3 122/48/3
