# Blender 4.0.2
# www.blender.org
mtllib wheels_blind.mtl
o Cube.003
v -0.750000 -0.000000 -0.000000
v -0.750000 0.258883 0.625000
v -0.750000 0.000000 0.625000
v -1.062500 0.000000 0.625000
v -1.062500 -0.232995 0.562500
v -1.062500 -0.258883 0.625000
v -0.750000 -0.258883 0.625000
v -1.062500 0.232995 0.562500
v -1.062500 0.258883 0.625000
v -1.062500 0.000000 0.562500
v -0.750000 0.625000 0.258884
v -0.750000 0.441942 0.441942
v -1.062500 0.441942 0.441942
v -1.062500 0.562500 0.232995
v -1.062500 0.625000 0.258884
v -1.062500 0.397748 0.397748
v -0.750000 0.625000 -0.258883
v -0.750000 0.625000 -0.000000
v -1.062500 0.625000 -0.000000
v -1.062500 0.562500 -0.232995
v -1.062500 0.625000 -0.258883
v -1.062500 0.562500 -0.000000
v -0.750000 0.258884 -0.625000
v -0.750000 0.441942 -0.441942
v -1.062500 0.441942 -0.441942
v -1.062500 0.232995 -0.562500
v -1.062500 0.258884 -0.625000
v -1.062500 0.397748 -0.397747
v -0.750000 -0.258883 -0.625000
v -0.750000 -0.000000 -0.625000
v -1.062500 -0.000000 -0.625000
v -1.062500 -0.232995 -0.562500
v -1.062500 -0.258883 -0.625000
v -1.062500 -0.000000 -0.562500
v -0.750000 -0.625000 -0.258884
v -0.750000 -0.441942 -0.441942
v -1.062500 -0.441942 -0.441942
v -1.062500 -0.562500 -0.232995
v -1.062500 -0.625000 -0.258884
v -1.062500 -0.397747 -0.397748
v -0.750000 -0.625000 0.258883
v -0.750000 -0.625000 0.000000
v -1.062500 -0.625000 0.000000
v -1.062500 -0.562500 0.232995
v -1.062500 -0.625000 0.258883
v -1.062500 -0.562500 0.000000
v -0.750000 -0.258884 0.625000
v -0.750000 -0.441942 0.441942
v -1.062500 -0.441942 0.441942
v -1.062500 -0.258884 0.625000
v -1.062500 -0.397748 0.397747
v -1.062500 0.232995 -0.232995
v -1.062500 0.232995 0.232995
v -1.062500 -0.232995 -0.232995
v -1.062500 -0.232995 0.232995
v -1.062500 -0.000000 -0.232995
v -1.062500 0.000000 0.232995
v -1.062500 0.232995 -0.000000
v -1.062500 0.000000 0.000000
v -1.062500 -0.232995 0.000000
v 0.750000 0.000000 0.000000
v 0.750000 0.625000 0.258883
v 0.750000 0.625000 -0.000000
v 1.062500 0.625000 -0.000000
v 1.062500 0.562500 -0.232995
v 1.062500 0.625000 -0.258883
v 0.750000 0.625000 -0.258883
v 1.062500 0.562500 0.232995
v 1.062500 0.625000 0.258883
v 1.062500 0.562500 -0.000000
v 0.750000 0.258884 0.625000
v 0.750000 0.441942 0.441942
v 1.062500 0.441942 0.441942
v 1.062500 0.232995 0.562500
v 1.062500 0.258884 0.625000
v 1.062500 0.397748 0.397748
v 0.750000 -0.258883 0.625000
v 0.750000 0.000000 0.625000
v 1.062500 0.000000 0.625000
v 1.062500 -0.232995 0.562500
v 1.062500 -0.258883 0.625000
v 1.062500 0.000000 0.562500
v 0.750000 -0.625000 0.258884
v 0.750000 -0.441942 0.441942
v 1.062500 -0.441942 0.441942
v 1.062500 -0.562500 0.232995
v 1.062500 -0.625000 0.258884
v 1.062500 -0.397747 0.397748
v 0.750000 -0.625000 -0.258883
v 0.750000 -0.625000 0.000000
v 1.062500 -0.625000 0.000000
v 1.062500 -0.562500 -0.232995
v 1.062500 -0.625000 -0.258883
v 1.062500 -0.562500 0.000000
v 0.750000 -0.258884 -0.625000
v 0.750000 -0.441942 -0.441942
v 1.062500 -0.441942 -0.441942
v 1.062500 -0.232995 -0.562500
v 1.062500 -0.258884 -0.625000
v 1.062500 -0.397748 -0.397747
v 0.750000 0.258883 -0.625000
v 0.750000 -0.000000 -0.625000
v 1.062500 -0.000000 -0.625000
v 1.062500 0.232995 -0.562500
v 1.062500 0.258883 -0.625000
v 1.062500 -0.000000 -0.562500
v 0.750000 0.625000 -0.258884
v 0.750000 0.441942 -0.441942
v 1.062500 0.441942 -0.441942
v 1.062500 0.625000 -0.258884
v 1.062500 0.397747 -0.397748
v 1.062500 -0.232995 0.232995
v 1.062500 0.232995 0.232995
v 1.062500 -0.232995 -0.232995
v 1.062500 0.232995 -0.232995
v 1.062500 -0.232995 0.000000
v 1.062500 0.232995 -0.000000
v 1.062500 0.000000 0.232995
v 1.062500 0.000000 0.000000
v 1.062500 -0.000000 -0.232995
vn 1.0000 -0.0000 -0.0000
vn -1.0000 -0.0000 -0.0000
vn -0.0000 -0.0000 1.0000
vn -0.0000 0.7071 0.7071
vn -0.0000 1.0000 -0.0000
vn -0.0000 0.7071 -0.7071
vn -0.0000 -0.0000 -1.0000
vn -0.0000 -0.7071 -0.7071
vn -0.0000 -1.0000 -0.0000
vn -0.0000 -0.7071 0.7071
vt 0.812500 0.531250
vt 0.683004 0.843881
vt 0.812500 0.843881
vt 0.812500 0.843816
vt 0.929046 0.812618
vt 0.941996 0.843881
vt 0.683058 1.000000
vt 0.812500 1.000000
vt 0.941942 0.843750
vt 0.941942 1.000000
vt 0.695953 0.812618
vt 0.812500 0.812618
vt 0.683058 0.843750
vt 0.196002 0.571002
vt 0.113626 0.488626
vt 0.196002 0.406250
vt 0.196002 0.803998
vt 0.113626 0.886374
vt 0.031250 0.803998
vt 0.428998 0.571002
vt 0.511374 0.488626
vt 0.593750 0.571002
vt 0.511374 0.886374
vt 0.428998 0.803998
vt 0.593750 0.803998
vt 0.312500 0.406250
vt 0.312500 0.571002
vt 0.196002 0.968750
vt 0.312500 0.803998
vt 0.312500 0.968750
vt 0.196002 0.687500
vt 0.312500 0.687500
vt 0.428998 0.687500
vt 0.593750 0.687500
vt 0.031250 0.687500
vt 0.428998 0.406250
vt 0.428998 0.968750
vt 0.031250 0.571002
s 0
usemtl m_d9d69c3a-5ba3-3bbe-30c9-f864775ef81e.001
f 1/1/1 2/2/1 3/3/1
f 4/4/2 5/5/2 6/6/2
f 2/7/3 4/4/3 3/8/3
f 3/8/3 6/9/3 7/10/3
f 8/11/2 4/4/2 9/2/2
f 7/6/1 1/1/1 3/3/1
f 4/4/2 10/12/2 5/5/2
f 2/7/3 9/13/3 4/4/3
f 3/8/3 4/4/3 6/9/3
f 8/11/2 10/12/2 4/4/2
f 1/1/1 11/2/1 12/3/1
f 13/4/2 8/5/2 9/6/2
f 11/7/4 13/4/4 12/8/4
f 12/8/4 9/9/4 2/10/4
f 14/11/2 13/4/2 15/2/2
f 2/6/1 1/1/1 12/3/1
f 13/4/2 16/12/2 8/5/2
f 11/7/4 15/13/4 13/4/4
f 12/8/4 13/4/4 9/9/4
f 14/11/2 16/12/2 13/4/2
f 1/1/1 17/2/1 18/3/1
f 19/4/2 14/5/2 15/6/2
f 17/7/5 19/4/5 18/8/5
f 18/8/5 15/9/5 11/10/5
f 20/11/2 19/4/2 21/2/2
f 11/6/1 1/1/1 18/3/1
f 19/4/2 22/12/2 14/5/2
f 17/7/5 21/13/5 19/4/5
f 18/8/5 19/4/5 15/9/5
f 20/11/2 22/12/2 19/4/2
f 1/1/1 23/2/1 24/3/1
f 25/4/2 20/5/2 21/6/2
f 23/7/6 25/4/6 24/8/6
f 24/8/6 21/9/6 17/10/6
f 26/11/2 25/4/2 27/2/2
f 17/6/1 1/1/1 24/3/1
f 25/4/2 28/12/2 20/5/2
f 23/7/6 27/13/6 25/4/6
f 24/8/6 25/4/6 21/9/6
f 26/11/2 28/12/2 25/4/2
f 1/1/1 29/2/1 30/3/1
f 31/4/2 26/5/2 27/6/2
f 29/7/7 31/4/7 30/8/7
f 30/8/7 27/9/7 23/10/7
f 32/11/2 31/4/2 33/2/2
f 23/6/1 1/1/1 30/3/1
f 31/4/2 34/12/2 26/5/2
f 29/7/7 33/13/7 31/4/7
f 30/8/7 31/4/7 27/9/7
f 32/11/2 34/12/2 31/4/2
f 1/1/1 35/2/1 36/3/1
f 37/4/2 32/5/2 33/6/2
f 35/7/8 37/4/8 36/8/8
f 36/8/8 33/9/8 29/10/8
f 38/11/2 37/4/2 39/2/2
f 29/6/1 1/1/1 36/3/1
f 37/4/2 40/12/2 32/5/2
f 35/7/8 39/13/8 37/4/8
f 36/8/8 37/4/8 33/9/8
f 38/11/2 40/12/2 37/4/2
f 1/1/1 41/2/1 42/3/1
f 43/4/2 38/5/2 39/6/2
f 41/7/9 43/4/9 42/8/9
f 42/8/9 39/9/9 35/10/9
f 44/11/2 43/4/2 45/2/2
f 35/6/1 1/1/1 42/3/1
f 43/4/2 46/12/2 38/5/2
f 41/7/9 45/13/9 43/4/9
f 42/8/9 43/4/9 39/9/9
f 44/11/2 46/12/2 43/4/2
f 1/1/1 47/2/1 48/3/1
f 49/4/2 44/5/2 45/6/2
f 47/7/10 49/4/10 48/8/10
f 48/8/10 45/9/10 41/10/10
f 5/11/2 49/4/2 50/2/2
f 41/6/1 1/1/1 48/3/1
f 49/4/2 51/12/2 44/5/2
f 47/7/10 50/13/10 49/4/10
f 48/8/10 49/4/10 45/9/10
f 5/11/2 51/12/2 49/4/2
f 52/14/2 28/15/2 26/16/2
f 53/17/2 16/18/2 14/19/2
f 54/20/2 40/21/2 38/22/2
f 51/23/2 55/24/2 44/25/2
f 52/14/2 34/26/2 56/27/2
f 8/28/2 57/29/2 10/30/2
f 58/31/2 56/27/2 59/32/2
f 60/33/2 38/22/2 46/34/2
f 22/35/2 52/14/2 58/31/2
f 53/17/2 59/32/2 57/29/2
f 55/24/2 46/34/2 44/25/2
f 14/19/2 58/31/2 53/17/2
f 55/24/2 59/32/2 60/33/2
f 59/32/2 54/20/2 60/33/2
f 56/27/2 32/36/2 54/20/2
f 5/37/2 57/29/2 55/24/2
f 52/14/2 26/16/2 34/26/2
f 8/28/2 53/17/2 57/29/2
f 58/31/2 52/14/2 56/27/2
f 60/33/2 54/20/2 38/22/2
f 22/35/2 20/38/2 52/14/2
f 53/17/2 58/31/2 59/32/2
f 55/24/2 60/33/2 46/34/2
f 14/19/2 22/35/2 58/31/2
f 55/24/2 57/29/2 59/32/2
f 59/32/2 56/27/2 54/20/2
f 56/27/2 34/26/2 32/36/2
f 5/37/2 10/30/2 57/29/2
f 52/14/2 20/38/2 28/15/2
f 53/17/2 8/28/2 16/18/2
f 54/20/2 32/36/2 40/21/2
f 51/23/2 5/37/2 55/24/2
f 61/1/2 62/2/2 63/3/2
f 64/4/1 65/5/1 66/6/1
f 62/7/5 64/4/5 63/8/5
f 63/8/5 66/9/5 67/10/5
f 68/11/1 64/4/1 69/2/1
f 67/6/2 61/1/2 63/3/2
f 64/4/1 70/12/1 65/5/1
f 62/7/5 69/13/5 64/4/5
f 63/8/5 64/4/5 66/9/5
f 68/11/1 70/12/1 64/4/1
f 61/1/2 71/2/2 72/3/2
f 73/4/1 68/5/1 69/6/1
f 71/7/4 73/4/4 72/8/4
f 72/8/4 69/9/4 62/10/4
f 74/11/1 73/4/1 75/2/1
f 62/6/2 61/1/2 72/3/2
f 73/4/1 76/12/1 68/5/1
f 71/7/4 75/13/4 73/4/4
f 72/8/4 73/4/4 69/9/4
f 74/11/1 76/12/1 73/4/1
f 61/1/2 77/2/2 78/3/2
f 79/4/1 74/5/1 75/6/1
f 77/7/3 79/4/3 78/8/3
f 78/8/3 75/9/3 71/10/3
f 80/11/1 79/4/1 81/2/1
f 71/6/2 61/1/2 78/3/2
f 79/4/1 82/12/1 74/5/1
f 77/7/3 81/13/3 79/4/3
f 78/8/3 79/4/3 75/9/3
f 80/11/1 82/12/1 79/4/1
f 61/1/2 83/2/2 84/3/2
f 85/4/1 80/5/1 81/6/1
f 83/7/10 85/4/10 84/8/10
f 84/8/10 81/9/10 77/10/10
f 86/11/1 85/4/1 87/2/1
f 77/6/2 61/1/2 84/3/2
f 85/4/1 88/12/1 80/5/1
f 83/7/10 87/13/10 85/4/10
f 84/8/10 85/4/10 81/9/10
f 86/11/1 88/12/1 85/4/1
f 61/1/2 89/2/2 90/3/2
f 91/4/1 86/5/1 87/6/1
f 89/7/9 91/4/9 90/8/9
f 90/8/9 87/9/9 83/10/9
f 92/11/1 91/4/1 93/2/1
f 83/6/2 61/1/2 90/3/2
f 91/4/1 94/12/1 86/5/1
f 89/7/9 93/13/9 91/4/9
f 90/8/9 91/4/9 87/9/9
f 92/11/1 94/12/1 91/4/1
f 61/1/2 95/2/2 96/3/2
f 97/4/1 92/5/1 93/6/1
f 95/7/8 97/4/8 96/8/8
f 96/8/8 93/9/8 89/10/8
f 98/11/1 97/4/1 99/2/1
f 89/6/2 61/1/2 96/3/2
f 97/4/1 100/12/1 92/5/1
f 95/7/8 99/13/8 97/4/8
f 96/8/8 97/4/8 93/9/8
f 98/11/1 100/12/1 97/4/1
f 61/1/2 101/2/2 102/3/2
f 103/4/1 98/5/1 99/6/1
f 101/7/7 103/4/7 102/8/7
f 102/8/7 99/9/7 95/10/7
f 104/11/1 103/4/1 105/2/1
f 95/6/2 61/1/2 102/3/2
f 103/4/1 106/12/1 98/5/1
f 101/7/7 105/13/7 103/4/7
f 102/8/7 103/4/7 99/9/7
f 104/11/1 106/12/1 103/4/1
f 61/1/2 107/2/2 108/3/2
f 109/4/1 104/5/1 105/6/1
f 107/7/6 109/4/6 108/8/6
f 108/8/6 105/9/6 101/10/6
f 65/11/1 109/4/1 110/2/1
f 101/6/2 61/1/2 108/3/2
f 109/4/1 111/12/1 104/5/1
f 107/7/6 110/13/6 109/4/6
f 108/8/6 109/4/6 105/9/6
f 65/11/1 111/12/1 109/4/1
f 112/14/1 88/15/1 86/16/1
f 113/17/1 76/18/1 74/19/1
f 114/20/1 100/21/1 98/22/1
f 111/23/1 115/24/1 104/25/1
f 112/14/1 94/26/1 116/27/1
f 68/28/1 117/29/1 70/30/1
f 118/31/1 116/27/1 119/32/1
f 120/33/1 98/22/1 106/34/1
f 82/35/1 112/14/1 118/31/1
f 113/17/1 119/32/1 117/29/1
f 115/24/1 106/34/1 104/25/1
f 74/19/1 118/31/1 113/17/1
f 115/24/1 119/32/1 120/33/1
f 119/32/1 114/20/1 120/33/1
f 116/27/1 92/36/1 114/20/1
f 65/37/1 117/29/1 115/24/1
f 112/14/1 86/16/1 94/26/1
f 68/28/1 113/17/1 117/29/1
f 118/31/1 112/14/1 116/27/1
f 120/33/1 114/20/1 98/22/1
f 82/35/1 80/38/1 112/14/1
f 113/17/1 118/31/1 119/32/1
f 115/24/1 120/33/1 106/34/1
f 74/19/1 82/35/1 118/31/1
f 115/24/1 117/29/1 119/32/1
f 119/32/1 116/27/1 114/20/1
f 116/27/1 94/26/1 92/36/1
f 65/37/1 70/30/1 117/29/1
f 112/14/1 80/38/1 88/15/1
f 113/17/1 68/28/1 76/18/1
f 114/20/1 92/36/1 100/21/1
f 111/23/1 65/37/1 115/24/1
