# Blender 4.1.0
# www.blender.org
mtllib wheels_single.mtl
o Cube.038_Cube.046
v 0.875694 0.625000 -0.000000
v 1.063194 0.625000 0.258883
v 0.875694 0.625000 0.258884
v 0.875694 0.750000 -0.000000
v 0.750694 0.750000 0.310660
v 0.750694 0.750000 -0.000000
v 0.875694 0.750000 0.310660
v 0.750694 0.000000 0.000000
v 0.875694 0.625000 -0.258883
v 1.063194 0.625000 -0.000000
v 0.875694 0.750000 -0.310660
v 0.750694 0.750000 -0.310660
v 1.063194 0.441942 0.441942
v 0.875694 0.258883 0.625000
v 0.875694 0.441942 0.441942
v 0.875694 0.310660 0.750000
v 0.750694 0.530330 0.530330
v 0.875694 0.530330 0.530330
v 0.750694 0.310660 0.750000
v 1.063194 0.000000 0.625000
v 0.875694 -0.258884 0.625000
v 0.875694 0.000000 0.625000
v 0.875694 -0.310660 0.750000
v 0.750694 0.000000 0.750000
v 0.875694 0.000000 0.750000
v 0.750694 -0.310660 0.750000
v 1.063194 -0.441942 0.441942
v 0.875694 -0.625000 0.258884
v 0.875694 -0.441942 0.441942
v 0.875694 -0.750000 0.310660
v 0.750694 -0.530330 0.530330
v 0.875694 -0.530330 0.530330
v 0.750694 -0.750000 0.310660
v 1.063194 -0.625000 0.000000
v 0.875694 -0.625000 -0.258883
v 0.875694 -0.625000 0.000000
v 0.875694 -0.750000 -0.310660
v 0.750694 -0.750000 0.000000
v 0.875694 -0.750000 0.000000
v 0.750694 -0.750000 -0.310660
v 1.063194 -0.441942 -0.441942
v 0.875694 -0.258884 -0.625000
v 0.875694 -0.441942 -0.441942
v 0.875694 -0.310660 -0.750000
v 0.750694 -0.530330 -0.530330
v 0.875694 -0.530330 -0.530330
v 0.750694 -0.310660 -0.750000
v 1.063194 -0.000000 -0.625000
v 0.875694 0.258883 -0.625000
v 0.875694 -0.000000 -0.625000
v 0.875694 0.310660 -0.750000
v 0.750694 -0.000000 -0.750000
v 0.875694 -0.000000 -0.750000
v 0.750694 0.310660 -0.750000
v 1.063194 -0.232995 0.232995
v 1.063194 -0.562500 0.232995
v 1.063194 -0.397748 0.397748
v 1.063194 0.441942 -0.441942
v 0.875694 0.441942 -0.441942
v 0.875694 0.530330 -0.530330
v 0.750694 0.530330 -0.530330
v 1.063194 0.232995 0.562500
v 1.063194 0.397747 0.397748
v 1.063194 0.562500 0.232995
v 1.063194 -0.232995 0.562500
v 1.063194 0.000000 0.562500
v 1.063194 -0.562500 -0.232995
v 1.063194 -0.562500 0.000000
v 1.063194 -0.625000 0.258884
v 1.063194 -0.232995 -0.562500
v 1.063194 -0.397748 -0.397748
v 1.063194 0.562500 -0.232995
v 1.063194 0.397747 -0.397748
v 1.063194 0.232995 -0.562500
v 1.063194 0.258883 -0.625000
v 1.063194 0.562500 -0.000000
v 1.063194 0.625000 -0.258883
v 1.063194 0.258883 0.625000
v 1.063194 -0.258884 0.625000
v 1.063194 -0.625000 -0.258883
v 1.063194 -0.000000 -0.562500
v 1.063194 -0.258884 -0.625000
v 1.063194 -0.232995 -0.232995
v 1.063194 -0.232995 0.000000
v 1.063194 0.000000 0.232995
v 1.063194 0.000000 0.000000
v 1.063194 -0.000000 -0.232995
v 1.063194 0.232995 0.232995
v 1.063194 0.232995 -0.000000
v 1.063194 0.232995 -0.232995
v -0.875694 0.000000 0.625000
v -1.063194 -0.258883 0.625000
v -0.875694 -0.258884 0.625000
v -0.875694 0.000000 0.750000
v -0.750694 -0.310660 0.750000
v -0.750694 0.000000 0.750000
v -0.875694 -0.310660 0.750000
v -0.750694 -0.000000 0.000000
v -0.875694 0.258883 0.625000
v -1.063194 0.000000 0.625000
v -0.875694 0.310660 0.750000
v -0.750694 0.310660 0.750000
v -1.063194 -0.441942 0.441942
v -0.875694 -0.625000 0.258883
v -0.875694 -0.441942 0.441942
v -0.875694 -0.750000 0.310660
v -0.750694 -0.530330 0.530330
v -0.875694 -0.530330 0.530330
v -0.750694 -0.750000 0.310660
v -1.063194 -0.625000 0.000000
v -0.875694 -0.625000 -0.258884
v -0.875694 -0.625000 0.000000
v -0.875694 -0.750000 -0.310660
v -0.750694 -0.750000 0.000000
v -0.875694 -0.750000 0.000000
v -0.750694 -0.750000 -0.310660
v -1.063194 -0.441942 -0.441942
v -0.875694 -0.258884 -0.625000
v -0.875694 -0.441942 -0.441942
v -0.875694 -0.310660 -0.750000
v -0.750694 -0.530330 -0.530330
v -0.875694 -0.530330 -0.530330
v -0.750694 -0.310660 -0.750000
v -1.063194 -0.000000 -0.625000
v -0.875694 0.258883 -0.625000
v -0.875694 -0.000000 -0.625000
v -0.875694 0.310660 -0.750000
v -0.750694 -0.000000 -0.750000
v -0.875694 -0.000000 -0.750000
v -0.750694 0.310660 -0.750000
v -1.063194 0.441942 -0.441942
v -0.875694 0.625000 -0.258884
v -0.875694 0.441942 -0.441942
v -0.875694 0.750000 -0.310660
v -0.750694 0.530330 -0.530330
v -0.875694 0.530330 -0.530330
v -0.750694 0.750000 -0.310660
v -1.063194 0.625000 0.000000
v -0.875694 0.625000 0.258883
v -0.875694 0.625000 0.000000
v -0.875694 0.750000 0.310660
v -0.750694 0.750000 0.000000
v -0.875694 0.750000 0.000000
v -0.750694 0.750000 0.310660
v -1.063194 -0.232995 -0.232995
v -1.063194 -0.232995 -0.562500
v -1.063194 -0.397748 -0.397748
v -1.063194 0.441942 0.441942
v -0.875694 0.441942 0.441942
v -0.875694 0.530330 0.530330
v -0.750694 0.530330 0.530330
v -1.063194 -0.562500 0.232995
v -1.063194 -0.397748 0.397747
v -1.063194 -0.232995 0.562500
v -1.063194 -0.562500 -0.232995
v -1.063194 -0.562500 0.000000
v -1.063194 0.232995 -0.562500
v -1.063194 -0.000000 -0.562500
v -1.063194 -0.258884 -0.625000
v -1.063194 0.562500 -0.232995
v -1.063194 0.397748 -0.397748
v -1.063194 0.232995 0.562500
v -1.063194 0.397748 0.397747
v -1.063194 0.562500 0.232995
v -1.063194 0.625000 0.258883
v -1.063194 0.000000 0.562500
v -1.063194 0.258883 0.625000
v -1.063194 -0.625000 0.258883
v -1.063194 -0.625000 -0.258884
v -1.063194 0.258883 -0.625000
v -1.063194 0.562500 0.000000
v -1.063194 0.625000 -0.258884
v -1.063194 0.232995 -0.232995
v -1.063194 -0.000000 -0.232995
v -1.063194 -0.232995 0.000000
v -1.063194 -0.000000 0.000000
v -1.063194 0.232995 0.000000
v -1.063194 -0.232995 0.232995
v -1.063194 -0.000000 0.232995
v -1.063194 0.232995 0.232995
vn -0.0000 1.0000 -0.0000
vn 1.0000 -0.0000 -0.0000
vn -1.0000 -0.0000 -0.0000
vn -0.0000 0.7071 0.7071
vn -0.0000 -0.0000 1.0000
vn -0.0000 -0.7071 0.7071
vn -0.0000 -1.0000 -0.0000
vn -0.0000 -0.7071 -0.7071
vn -0.0000 -0.0000 -1.0000
vn -0.0000 0.7071 -0.7071
vt 0.683058 0.843750
vt 0.812500 0.937500
vt 0.683058 0.937500
vt 0.656250 1.000000
vt 0.812500 1.000000
vt 0.683058 0.781250
vt 0.812500 0.843750
vt 0.657170 0.843750
vt 0.812500 0.468750
vt 0.941942 0.937500
vt 0.967830 0.937500
vt 0.941942 0.781250
vt 0.812500 0.781250
vt 0.967830 0.843750
vt 0.657170 0.937500
vt 0.199370 0.406511
vt 0.199370 0.571111
vt 0.115555 0.490555
vt 0.812500 0.781249
vt 0.699369 0.749737
vt 0.812500 0.749901
vt 0.925632 0.749738
vt 0.937500 0.781250
vt 0.699370 0.749739
vt 0.925630 0.749739
vt 0.925632 0.749737
vt 0.593489 0.574370
vt 0.425630 0.571111
vt 0.509445 0.490555
vt 0.312500 0.571043
vt 0.425630 0.406511
vt 0.312500 0.406349
vt 0.199370 0.687500
vt 0.312500 0.687500
vt 0.425630 0.687500
vt 0.593651 0.687500
vt 0.031511 0.574370
vt 0.031349 0.687500
vt 0.199370 0.803889
vt 0.312500 0.803956
vt 0.425630 0.803889
vt 0.593489 0.800630
vt 0.031511 0.800630
vt 0.199370 0.968489
vt 0.312500 0.968651
vt 0.425630 0.968489
vt 0.509445 0.884445
vt 0.115555 0.884445
vt 0.941942 0.843750
vt 0.968750 1.000000
vt 0.687500 0.781248
vt 0.687500 0.781250
s 0
usemtl m_d9d69c3a-5ba3-3bbe-30c9-f864775ef81e
f 2/1/1 1/2/1 3/3/1
f 5/4/1 4/2/1 6/5/1
f 3/6/2 4/7/2 7/8/2
f 6/7/3 8/9/3 5/8/3
f 10/7/1 9/10/1 1/2/1
f 11/11/1 6/5/1 4/2/1
f 9/12/2 4/7/2 1/13/2
f 12/14/3 8/9/3 6/7/3
f 14/3/4 13/7/4 15/2/4
f 17/5/4 16/15/4 18/2/4
f 14/6/2 18/7/2 16/8/2
f 17/7/3 8/9/3 19/8/3
f 13/7/4 3/10/4 15/2/4
f 7/11/4 17/5/4 18/2/4
f 3/12/2 18/7/2 15/13/2
f 5/14/3 8/9/3 17/7/3
f 21/3/5 20/7/5 22/2/5
f 24/5/5 23/15/5 25/2/5
f 21/6/2 25/7/2 23/8/2
f 24/7/3 8/9/3 26/8/3
f 20/7/5 14/10/5 22/2/5
f 16/11/5 24/5/5 25/2/5
f 14/12/2 25/7/2 22/13/2
f 19/14/3 8/9/3 24/7/3
f 28/3/6 27/7/6 29/2/6
f 31/5/6 30/15/6 32/2/6
f 28/6/2 32/7/2 30/8/2
f 31/7/3 8/9/3 33/8/3
f 27/7/6 21/10/6 29/2/6
f 23/11/6 31/5/6 32/2/6
f 21/12/2 32/7/2 29/13/2
f 26/14/3 8/9/3 31/7/3
f 35/3/7 34/7/7 36/2/7
f 38/5/7 37/15/7 39/2/7
f 35/6/2 39/7/2 37/8/2
f 38/7/3 8/9/3 40/8/3
f 34/7/7 28/10/7 36/2/7
f 30/11/7 38/5/7 39/2/7
f 28/12/2 39/7/2 36/13/2
f 33/14/3 8/9/3 38/7/3
f 42/3/8 41/7/8 43/2/8
f 45/5/8 44/15/8 46/2/8
f 42/6/2 46/7/2 44/8/2
f 45/7/3 8/9/3 47/8/3
f 41/7/8 35/10/8 43/2/8
f 37/11/8 45/5/8 46/2/8
f 35/12/2 46/7/2 43/13/2
f 40/14/3 8/9/3 45/7/3
f 49/3/9 48/7/9 50/2/9
f 52/5/9 51/15/9 53/2/9
f 49/6/2 53/7/2 51/8/2
f 52/7/3 8/9/3 54/8/3
f 56/16/2 55/17/2 57/18/2
f 48/7/9 42/10/9 50/2/9
f 44/11/9 52/5/9 53/2/9
f 42/12/2 53/7/2 50/13/2
f 47/14/3 8/9/3 52/7/3
f 9/3/10 58/7/10 59/2/10
f 12/4/10 60/2/10 61/5/10
f 9/6/2 60/7/2 11/8/2
f 61/7/3 8/9/3 12/8/3
f 58/7/10 49/10/10 59/2/10
f 51/11/10 61/5/10 60/2/10
f 49/12/2 60/7/2 59/13/2
f 54/14/3 8/9/3 61/7/3
f 13/19/2 62/20/2 63/21/2
f 13/19/2 64/22/2 2/23/2
f 20/13/2 65/24/2 66/21/2
f 34/13/2 67/24/2 68/21/2
f 34/13/2 56/25/2 69/23/2
f 41/19/2 70/20/2 71/21/2
f 58/19/2 72/20/2 73/21/2
f 58/19/2 74/22/2 75/23/2
f 10/13/2 64/24/2 76/21/2
f 10/13/2 72/25/2 77/23/2
f 20/13/2 62/25/2 78/23/2
f 27/19/2 56/20/2 57/21/2
f 27/19/2 65/26/2 79/23/2
f 41/19/2 67/26/2 80/23/2
f 48/13/2 74/24/2 81/21/2
f 48/13/2 70/25/2 82/23/2
f 70/27/2 83/28/2 71/29/2
f 84/30/2 67/31/2 83/28/2
f 55/17/2 68/32/2 84/30/2
f 85/33/2 84/30/2 86/34/2
f 86/34/2 83/28/2 87/35/2
f 83/28/2 81/36/2 87/35/2
f 65/37/2 85/33/2 66/38/2
f 88/39/2 86/34/2 89/40/2
f 89/40/2 87/35/2 90/41/2
f 90/41/2 81/36/2 74/42/2
f 62/43/2 85/33/2 88/39/2
f 64/44/2 89/40/2 76/45/2
f 76/45/2 90/41/2 72/46/2
f 74/42/2 73/47/2 90/41/2
f 62/43/2 88/39/2 63/48/2
f 83/28/2 67/31/2 71/29/2
f 55/17/2 65/37/2 57/18/2
f 88/39/2 64/44/2 63/48/2
f 73/47/2 72/46/2 90/41/2
f 10/7/1 1/2/1 2/1/1
f 7/15/1 4/2/1 5/4/1
f 1/13/2 4/7/2 3/6/2
f 77/49/1 9/10/1 10/7/1
f 12/50/1 6/5/1 11/11/1
f 11/14/2 4/7/2 9/12/2
f 78/1/4 13/7/4 14/3/4
f 19/4/4 16/15/4 17/5/4
f 15/13/2 18/7/2 14/6/2
f 2/49/4 3/10/4 13/7/4
f 5/50/4 17/5/4 7/11/4
f 7/14/2 18/7/2 3/12/2
f 79/1/5 20/7/5 21/3/5
f 26/4/5 23/15/5 24/5/5
f 22/13/2 25/7/2 21/6/2
f 78/49/5 14/10/5 20/7/5
f 19/50/5 24/5/5 16/11/5
f 16/14/2 25/7/2 14/12/2
f 69/1/6 27/7/6 28/3/6
f 33/4/6 30/15/6 31/5/6
f 29/13/2 32/7/2 28/6/2
f 79/49/6 21/10/6 27/7/6
f 26/50/6 31/5/6 23/11/6
f 23/14/2 32/7/2 21/12/2
f 80/1/7 34/7/7 35/3/7
f 40/4/7 37/15/7 38/5/7
f 36/13/2 39/7/2 35/6/2
f 69/49/7 28/10/7 34/7/7
f 33/50/7 38/5/7 30/11/7
f 30/14/2 39/7/2 28/12/2
f 82/1/8 41/7/8 42/3/8
f 47/4/8 44/15/8 45/5/8
f 43/13/2 46/7/2 42/6/2
f 80/49/8 35/10/8 41/7/8
f 40/50/8 45/5/8 37/11/8
f 37/14/2 46/7/2 35/12/2
f 75/1/9 48/7/9 49/3/9
f 54/4/9 51/15/9 52/5/9
f 50/13/2 53/7/2 49/6/2
f 82/49/9 42/10/9 48/7/9
f 47/50/9 52/5/9 44/11/9
f 44/14/2 53/7/2 42/12/2
f 77/1/10 58/7/10 9/3/10
f 11/15/10 60/2/10 12/4/10
f 59/13/2 60/7/2 9/6/2
f 75/49/10 49/10/10 58/7/10
f 54/50/10 61/5/10 51/11/10
f 51/14/2 60/7/2 49/12/2
f 78/51/2 62/20/2 13/19/2
f 63/21/2 64/22/2 13/19/2
f 79/52/2 65/24/2 20/13/2
f 80/52/2 67/24/2 34/13/2
f 68/21/2 56/25/2 34/13/2
f 82/51/2 70/20/2 41/19/2
f 77/51/2 72/20/2 58/19/2
f 73/21/2 74/22/2 58/19/2
f 2/52/2 64/24/2 10/13/2
f 76/21/2 72/25/2 10/13/2
f 66/21/2 62/25/2 20/13/2
f 69/51/2 56/20/2 27/19/2
f 57/21/2 65/26/2 27/19/2
f 71/21/2 67/26/2 41/19/2
f 75/52/2 74/24/2 48/13/2
f 81/21/2 70/25/2 48/13/2
f 68/32/2 67/31/2 84/30/2
f 56/16/2 68/32/2 55/17/2
f 55/17/2 84/30/2 85/33/2
f 84/30/2 83/28/2 86/34/2
f 70/27/2 81/36/2 83/28/2
f 55/17/2 85/33/2 65/37/2
f 85/33/2 86/34/2 88/39/2
f 86/34/2 87/35/2 89/40/2
f 87/35/2 81/36/2 90/41/2
f 66/38/2 85/33/2 62/43/2
f 88/39/2 89/40/2 64/44/2
f 89/40/2 90/41/2 76/45/2
f 91/2/5 92/1/5 93/3/5
f 94/2/5 95/4/5 96/5/5
f 94/7/3 93/6/3 97/8/3
f 98/9/2 96/7/2 95/8/2
f 99/10/5 100/7/5 91/2/5
f 96/5/5 101/11/5 94/2/5
f 94/7/3 99/12/3 91/13/3
f 98/9/2 102/14/2 96/7/2
f 103/7/6 104/3/6 105/2/6
f 106/15/6 107/5/6 108/2/6
f 108/7/3 104/6/3 106/8/3
f 98/9/2 107/7/2 109/8/2
f 93/10/6 103/7/6 105/2/6
f 107/5/6 97/11/6 108/2/6
f 108/7/3 93/12/3 105/13/3
f 98/9/2 95/14/2 107/7/2
f 110/7/7 111/3/7 112/2/7
f 113/15/7 114/5/7 115/2/7
f 115/7/3 111/6/3 113/8/3
f 98/9/2 114/7/2 116/8/2
f 104/10/7 110/7/7 112/2/7
f 114/5/7 106/11/7 115/2/7
f 115/7/3 104/12/3 112/13/3
f 98/9/2 109/14/2 114/7/2
f 117/7/8 118/3/8 119/2/8
f 120/15/8 121/5/8 122/2/8
f 122/7/3 118/6/3 120/8/3
f 98/9/2 121/7/2 123/8/2
f 111/10/8 117/7/8 119/2/8
f 121/5/8 113/11/8 122/2/8
f 122/7/3 111/12/3 119/13/3
f 98/9/2 116/14/2 121/7/2
f 124/7/9 125/3/9 126/2/9
f 127/15/9 128/5/9 129/2/9
f 129/7/3 125/6/3 127/8/3
f 98/9/2 128/7/2 130/8/2
f 118/10/9 124/7/9 126/2/9
f 128/5/9 120/11/9 129/2/9
f 129/7/3 118/12/3 126/13/3
f 98/9/2 123/14/2 128/7/2
f 131/7/10 132/3/10 133/2/10
f 134/15/10 135/5/10 136/2/10
f 136/7/3 132/6/3 134/8/3
f 98/9/2 135/7/2 137/8/2
f 125/10/10 131/7/10 133/2/10
f 135/5/10 127/11/10 136/2/10
f 136/7/3 125/12/3 133/13/3
f 98/9/2 130/14/2 135/7/2
f 138/7/1 139/3/1 140/2/1
f 141/15/1 142/5/1 143/2/1
f 143/7/3 139/6/3 141/8/3
f 98/9/2 142/7/2 144/8/2
f 145/17/3 146/16/3 147/18/3
f 132/10/1 138/7/1 140/2/1
f 142/5/1 134/11/1 143/2/1
f 143/7/3 132/12/3 140/13/3
f 98/9/2 137/14/2 142/7/2
f 148/7/4 99/3/4 149/2/4
f 150/2/4 102/4/4 151/5/4
f 150/7/3 99/6/3 101/8/3
f 98/9/2 151/7/2 102/8/2
f 139/10/4 148/7/4 149/2/4
f 151/5/4 141/11/4 150/2/4
f 150/7/3 139/12/3 149/13/3
f 98/9/2 144/14/2 151/7/2
f 152/20/3 103/19/3 153/21/3
f 154/22/3 103/19/3 92/23/3
f 155/24/3 110/13/3 156/21/3
f 157/24/3 124/13/3 158/21/3
f 146/25/3 124/13/3 159/23/3
f 160/20/3 131/19/3 161/21/3
f 162/20/3 148/19/3 163/21/3
f 164/22/3 148/19/3 165/23/3
f 154/24/3 100/13/3 166/21/3
f 162/25/3 100/13/3 167/23/3
f 152/25/3 110/13/3 168/23/3
f 146/20/3 117/19/3 147/21/3
f 155/26/3 117/19/3 169/23/3
f 157/26/3 131/19/3 170/23/3
f 164/24/3 138/13/3 171/21/3
f 160/25/3 138/13/3 172/23/3
f 173/28/3 160/27/3 161/29/3
f 157/31/3 174/30/3 173/28/3
f 158/32/3 145/17/3 174/30/3
f 174/30/3 175/33/3 176/34/3
f 173/28/3 176/34/3 177/35/3
f 171/36/3 173/28/3 177/35/3
f 175/33/3 155/37/3 156/38/3
f 176/34/3 178/39/3 179/40/3
f 177/35/3 179/40/3 180/41/3
f 171/36/3 180/41/3 164/42/3
f 175/33/3 152/43/3 178/39/3
f 179/40/3 154/44/3 166/45/3
f 180/41/3 166/45/3 162/46/3
f 163/47/3 164/42/3 180/41/3
f 178/39/3 152/43/3 153/48/3
f 157/31/3 173/28/3 161/29/3
f 155/37/3 145/17/3 147/18/3
f 154/44/3 178/39/3 153/48/3
f 162/46/3 163/47/3 180/41/3
f 91/2/5 100/7/5 92/1/5
f 94/2/5 97/15/5 95/4/5
f 94/7/3 91/13/3 93/6/3
f 99/10/5 167/49/5 100/7/5
f 96/5/5 102/50/5 101/11/5
f 94/7/3 101/14/3 99/12/3
f 103/7/6 168/1/6 104/3/6
f 106/15/6 109/4/6 107/5/6
f 108/7/3 105/13/3 104/6/3
f 93/10/6 92/49/6 103/7/6
f 107/5/6 95/50/6 97/11/6
f 108/7/3 97/14/3 93/12/3
f 110/7/7 169/1/7 111/3/7
f 113/15/7 116/4/7 114/5/7
f 115/7/3 112/13/3 111/6/3
f 104/10/7 168/49/7 110/7/7
f 114/5/7 109/50/7 106/11/7
f 115/7/3 106/14/3 104/12/3
f 117/7/8 159/1/8 118/3/8
f 120/15/8 123/4/8 121/5/8
f 122/7/3 119/13/3 118/6/3
f 111/10/8 169/49/8 117/7/8
f 121/5/8 116/50/8 113/11/8
f 122/7/3 113/14/3 111/12/3
f 124/7/9 170/1/9 125/3/9
f 127/15/9 130/4/9 128/5/9
f 129/7/3 126/13/3 125/6/3
f 118/10/9 159/49/9 124/7/9
f 128/5/9 123/50/9 120/11/9
f 129/7/3 120/14/3 118/12/3
f 131/7/10 172/1/10 132/3/10
f 134/15/10 137/4/10 135/5/10
f 136/7/3 133/13/3 132/6/3
f 125/10/10 170/49/10 131/7/10
f 135/5/10 130/50/10 127/11/10
f 136/7/3 127/14/3 125/12/3
f 138/7/1 165/1/1 139/3/1
f 141/15/1 144/4/1 142/5/1
f 143/7/3 140/13/3 139/6/3
f 132/10/1 172/49/1 138/7/1
f 142/5/1 137/50/1 134/11/1
f 143/7/3 134/14/3 132/12/3
f 148/7/4 167/1/4 99/3/4
f 150/2/4 101/15/4 102/4/4
f 150/7/3 149/13/3 99/6/3
f 139/10/4 165/49/4 148/7/4
f 151/5/4 144/50/4 141/11/4
f 150/7/3 141/14/3 139/12/3
f 152/20/3 168/51/3 103/19/3
f 154/22/3 153/21/3 103/19/3
f 155/24/3 169/52/3 110/13/3
f 157/24/3 170/52/3 124/13/3
f 146/25/3 158/21/3 124/13/3
f 160/20/3 172/51/3 131/19/3
f 162/20/3 167/51/3 148/19/3
f 164/22/3 163/21/3 148/19/3
f 154/24/3 92/52/3 100/13/3
f 162/25/3 166/21/3 100/13/3
f 152/25/3 156/21/3 110/13/3
f 146/20/3 159/51/3 117/19/3
f 155/26/3 147/21/3 117/19/3
f 157/26/3 161/21/3 131/19/3
f 164/24/3 165/52/3 138/13/3
f 160/25/3 171/21/3 138/13/3
f 157/31/3 158/32/3 174/30/3
f 158/32/3 146/16/3 145/17/3
f 174/30/3 145/17/3 175/33/3
f 173/28/3 174/30/3 176/34/3
f 171/36/3 160/27/3 173/28/3
f 175/33/3 145/17/3 155/37/3
f 176/34/3 175/33/3 178/39/3
f 177/35/3 176/34/3 179/40/3
f 171/36/3 177/35/3 180/41/3
f 175/33/3 156/38/3 152/43/3
f 179/40/3 178/39/3 154/44/3
f 180/41/3 179/40/3 166/45/3
