# Blender 4.2.3 LTS
# www.blender.org
mtllib right_c_rod.mtl
o cube.010
v 1.187500 0.187500 2.812500
v 1.187500 0.187500 2.437500
v 1.187500 -0.187500 2.812500
v 1.187500 -0.187500 2.437500
v 1.062500 0.187500 2.437500
v 1.062500 0.187500 2.812500
v 1.062500 -0.187500 2.437500
v 1.062500 -0.187500 2.812500
v 1.187500 0.187500 -2.437500
v 1.187500 0.187500 -2.812500
v 1.187500 -0.187500 -2.437500
v 1.187500 -0.187500 -2.812500
v 1.062500 0.187500 -2.812500
v 1.062500 0.187500 -2.437500
v 1.062500 -0.187500 -2.812500
v 1.062500 -0.187500 -2.437500
v 1.250000 0.125000 -2.500000
v 1.250000 0.125000 -2.750000
v 1.250000 -0.125000 -2.500000
v 1.250000 -0.125000 -2.750000
v 1.187500 0.125000 -2.750000
v 1.187500 0.125000 -2.500000
v 1.187500 -0.125000 -2.750000
v 1.187500 -0.125000 -2.500000
v 1.250000 0.125000 -0.750000
v 1.250000 0.125000 -1.000000
v 1.250000 -0.125000 -0.750000
v 1.250000 -0.125000 -1.000000
v 1.187500 0.125000 -1.000000
v 1.187500 0.125000 -0.750000
v 1.187500 -0.125000 -1.000000
v 1.187500 -0.125000 -0.750000
v 1.250000 0.125000 2.750000
v 1.250000 0.125000 2.500000
v 1.250000 -0.125000 2.750000
v 1.250000 -0.125000 2.500000
v 1.187500 0.125000 2.500000
v 1.187500 0.125000 2.750000
v 1.187500 -0.125000 2.500000
v 1.187500 -0.125000 2.750000
v 1.250000 0.125000 1.000000
v 1.250000 0.125000 0.750000
v 1.250000 -0.125000 1.000000
v 1.250000 -0.125000 0.750000
v 1.187500 0.125000 0.750000
v 1.187500 0.125000 1.000000
v 1.187500 -0.125000 0.750000
v 1.187500 -0.125000 1.000000
v 1.187500 0.125000 -1.062500
v 1.187500 0.125000 -2.437500
v 1.187500 -0.125000 -1.062500
v 1.187500 -0.125000 -2.437500
v 1.062500 0.125000 -2.437500
v 1.062500 0.125000 -1.062500
v 1.062500 -0.125000 -2.437500
v 1.062500 -0.125000 -1.062500
v 1.187500 0.125000 0.687500
v 1.187500 0.125000 -0.687500
v 1.187500 -0.125000 0.687500
v 1.187500 -0.125000 -0.687500
v 1.062500 0.125000 -0.687500
v 1.062500 0.125000 0.687500
v 1.062500 -0.125000 -0.687500
v 1.062500 -0.125000 0.687500
v 1.187500 0.187500 -0.687500
v 1.187500 0.187500 -1.062500
v 1.187500 -0.187500 -0.687500
v 1.187500 -0.187500 -1.062500
v 1.062500 0.187500 -1.062500
v 1.062500 0.187500 -0.687500
v 1.062500 -0.187500 -1.062500
v 1.062500 -0.187500 -0.687500
v 1.187500 0.125000 2.437500
v 1.187500 0.125000 1.062500
v 1.187500 -0.125000 2.437500
v 1.187500 -0.125000 1.062500
v 1.062500 0.125000 1.062500
v 1.062500 0.125000 2.437500
v 1.062500 -0.125000 1.062500
v 1.062500 -0.125000 2.437500
v 1.187500 0.187500 1.062500
v 1.187500 0.187500 0.687500
v 1.187500 -0.187500 1.062500
v 1.187500 -0.187500 0.687500
v 1.062500 0.187500 0.687500
v 1.062500 0.187500 1.062500
v 1.062500 -0.187500 0.687500
v 1.062500 -0.187500 1.062500
vn -0.0000 -0.0000 -1.0000
vn 1.0000 -0.0000 -0.0000
vn -0.0000 -0.0000 1.0000
vn -1.0000 -0.0000 -0.0000
vn -0.0000 1.0000 -0.0000
vn -0.0000 -1.0000 -0.0000
vt 0.839286 0.062500
vt 0.857143 0.062500
vt 0.857143 0.008929
vt 0.839286 0.008929
vt 0.785714 0.008929
vt 0.785714 0.062500
vt 0.892857 0.071429
vt 0.901786 0.071429
vt 0.901786 0.035714
vt 0.892857 0.035714
vt 0.857143 0.035714
vt 0.857143 0.071429
vt 0.812500 0.410714
vt 0.830357 0.410714
vt 0.830357 0.446429
vt 0.812500 0.446429
vt 0.803571 0.410714
vt 1.000000 0.410714
vt 1.000000 0.446429
vt 0.803571 0.446429
vt 1.000000 0.428571
vt 0.803571 0.428571
vt 1.000000 0.401786
vt 1.000000 0.419643
vt 0.803571 0.419643
vt 0.803571 0.401786
vt 0.812500 0.428571
vt 0.812500 0.419643
vt 0.812500 0.401786
s 0
usemtl m_1aa16f2a-3bcb-3a30-89d8-6776de9e79b4.001
f 4/1/1 7/2/1 5/3/1 2/4/1
f 3/1/2 4/4/2 2/5/2 1/6/2
f 8/3/3 3/4/3 1/1/3 6/2/3
f 7/4/4 8/5/4 6/6/4 5/1/4
f 6/3/5 1/4/5 2/1/5 5/2/5
f 7/3/6 4/4/6 3/1/6 8/2/6
f 12/1/1 15/2/1 13/3/1 10/4/1
f 11/1/2 12/4/2 10/5/2 9/6/2
f 16/3/3 11/4/3 9/1/3 14/2/3
f 15/4/4 16/5/4 14/6/4 13/1/4
f 14/3/5 9/4/5 10/1/5 13/2/5
f 15/3/6 12/4/6 11/1/6 16/2/6
f 20/7/1 23/8/1 21/9/1 18/10/1
f 19/7/2 20/10/2 18/11/2 17/12/2
f 24/9/3 19/10/3 17/7/3 22/8/3
f 23/10/4 24/11/4 22/12/4 21/7/4
f 22/9/5 17/10/5 18/7/5 21/8/5
f 23/9/6 20/10/6 19/7/6 24/8/6
f 28/7/1 31/8/1 29/9/1 26/10/1
f 27/7/2 28/10/2 26/11/2 25/12/2
f 32/9/3 27/10/3 25/7/3 30/8/3
f 31/10/4 32/11/4 30/12/4 29/7/4
f 30/9/5 25/10/5 26/7/5 29/8/5
f 31/9/6 28/10/6 27/7/6 32/8/6
f 36/7/1 39/8/1 37/9/1 34/10/1
f 35/7/2 36/10/2 34/11/2 33/12/2
f 40/9/3 35/10/3 33/7/3 38/8/3
f 39/10/4 40/11/4 38/12/4 37/7/4
f 38/9/5 33/10/5 34/7/5 37/8/5
f 39/9/6 36/10/6 35/7/6 40/8/6
f 44/7/1 47/8/1 45/9/1 42/10/1
f 43/7/2 44/10/2 42/11/2 41/12/2
f 48/9/3 43/10/3 41/7/3 46/8/3
f 47/10/4 48/11/4 46/12/4 45/7/4
f 46/9/5 41/10/5 42/7/5 45/8/5
f 47/9/6 44/10/6 43/7/6 48/8/6
f 52/13/1 55/14/1 53/15/1 50/16/1
f 51/17/2 52/18/2 50/19/2 49/20/2
f 56/13/3 51/14/3 49/15/3 54/16/3
f 55/17/4 56/18/4 54/19/4 53/20/4
f 54/21/5 49/19/5 50/20/5 53/22/5
f 55/23/6 52/24/6 51/25/6 56/26/6
f 60/13/1 63/14/1 61/15/1 58/16/1
f 59/17/2 60/18/2 58/19/2 57/20/2
f 64/13/3 59/14/3 57/15/3 62/16/3
f 63/17/4 64/18/4 62/19/4 61/20/4
f 62/21/5 57/19/5 58/20/5 61/22/5
f 63/23/6 60/24/6 59/25/6 64/26/6
f 68/1/1 71/2/1 69/3/1 66/4/1
f 67/1/2 68/4/2 66/5/2 65/6/2
f 72/3/3 67/4/3 65/1/3 70/2/3
f 71/4/4 72/5/4 70/6/4 69/1/4
f 70/3/5 65/4/5 66/1/5 69/2/5
f 71/3/6 68/4/6 67/1/6 72/2/6
f 76/13/1 79/14/1 77/15/1 74/16/1
f 75/13/2 76/18/2 74/19/2 73/16/2
f 80/13/3 75/14/3 73/15/3 78/16/3
f 79/13/4 80/18/4 78/19/4 77/16/4
f 78/27/5 73/16/5 74/19/5 77/21/5
f 79/23/6 76/24/6 75/28/6 80/29/6
f 84/1/1 87/2/1 85/3/1 82/4/1
f 83/1/2 84/4/2 82/5/2 81/6/2
f 88/3/3 83/4/3 81/1/3 86/2/3
f 87/4/4 88/5/4 86/6/4 85/1/4
f 86/3/5 81/4/5 82/1/5 85/2/5
f 87/3/6 84/4/6 83/1/6 88/2/6
