# Blender 4.0.2
# www.blender.org
mtllib left_p_rod.mtl
o Rod
v -1.187500 0.125000 -1.062500
v -1.187500 0.125000 -1.687500
v -1.187500 -0.125000 -1.062500
v -1.187500 -0.125000 -1.687500
v -1.312500 0.125000 -1.687500
v -1.312500 0.125000 -1.062500
v -1.312500 -0.125000 -1.687500
v -1.312500 -0.125000 -1.062500
v -1.181250 0.256250 -1.067188
v -1.318750 0.256250 -1.067188
v -1.181250 -0.256250 -1.067188
v -1.318750 -0.256250 -1.067188
v -1.318750 0.256250 -0.679688
v -1.181250 0.256250 -0.679688
v -1.318750 -0.256250 -0.679688
v -1.181250 -0.256250 -0.679688
v -1.187500 0.125000 -0.750000
v -1.187500 0.125000 -1.000000
v -1.187500 -0.125000 -0.750000
v -1.187500 -0.125000 -1.000000
v -1.375000 0.125000 -1.000000
v -1.375000 0.125000 -0.750000
v -1.375000 -0.125000 -1.000000
v -1.375000 -0.125000 -0.750000
vn -0.0000 -0.0000 -1.0000
vn 1.0000 -0.0000 -0.0000
vn -0.0000 -0.0000 1.0000
vn -1.0000 -0.0000 -0.0000
vn -0.0000 1.0000 -0.0000
vn -0.0000 -1.0000 -0.0000
vt 0.955357 0.178571
vt 0.973214 0.178571
vt 0.973214 0.214286
vt 0.955357 0.214286
vt 0.883929 0.178571
vt 0.883929 0.214286
vt 0.901786 0.178571
vt 0.901786 0.214286
vt 0.883929 0.196429
vt 0.973214 0.196429
vt 0.946429 0.000000
vt 1.000000 0.000000
vt 1.000000 0.071429
vt 0.946429 0.071429
vt 0.964286 0.000000
vt 0.982143 0.000000
vt 0.982143 0.071429
vt 0.964286 0.071429
vt 0.946429 0.062500
vt 1.000000 0.062500
vt 0.928571 0.035714
vt 0.892857 0.035714
vt 0.892857 0.071429
vt 0.928571 0.071429
vt 0.857143 0.035714
vt 0.857143 0.071429
s 0
usemtl m_a04509b2-9e79-7152-ac01-54b87f7e5258.007
f 4/1/1 7/2/1 5/3/1 2/4/1
f 3/5/2 4/2/2 2/3/2 1/6/2
f 8/5/3 3/7/3 1/8/3 6/6/3
f 7/2/4 8/5/4 6/6/4 5/3/4
f 6/6/5 1/9/5 2/10/5 5/3/5
f 7/10/6 4/2/6 3/5/6 8/9/6
f 12/11/4 15/12/4 13/13/4 10/14/4
f 11/15/1 12/16/1 10/17/1 9/18/1
f 16/11/2 11/12/2 9/13/2 14/14/2
f 15/15/3 16/16/3 14/17/3 13/18/3
f 14/19/5 9/20/5 10/13/5 13/14/5
f 15/20/6 12/19/6 11/14/6 16/13/6
f 20/21/1 23/22/1 21/23/1 18/24/1
f 19/25/2 20/22/2 18/23/2 17/26/2
f 24/22/3 19/21/3 17/24/3 22/23/3
f 23/22/4 24/25/4 22/26/4 21/23/4
f 22/22/5 17/21/5 18/24/5 21/23/5
f 23/22/6 20/21/6 19/24/6 24/23/6
