# Blender 4.0.2
# www.blender.org
mtllib right_piston.mtl
o cube.009
v 1.187500 -0.125000 -0.312500
v 1.187500 -0.125000 -1.437500
v 1.187500 -0.312500 -0.312500
v 1.187500 -0.312500 -1.437500
v 1.062500 -0.125000 -1.437500
v 1.062500 -0.125000 -0.312500
v 1.062500 -0.312500 -1.437500
v 1.062500 -0.312500 -0.312500
v 1.187500 0.500000 0.250000
v 1.187500 0.500000 0.125000
v 1.187500 -0.500000 0.250000
v 1.187500 -0.500000 0.125000
v 1.062500 0.500000 0.125000
v 1.062500 0.500000 0.250000
v 1.062500 -0.500000 0.125000
v 1.062500 -0.500000 0.250000
v 1.187500 0.500000 -0.125000
v 1.187500 0.500000 -0.250000
v 1.187500 -0.500000 -0.125000
v 1.187500 -0.500000 -0.250000
v 1.062500 0.500000 -0.250000
v 1.062500 0.500000 -0.125000
v 1.062500 -0.500000 -0.250000
v 1.062500 -0.500000 -0.125000
v 1.187500 -0.500000 0.250000
v 1.187500 -0.500000 -0.250000
v 1.187500 -0.625000 0.250000
v 1.187500 -0.625000 -0.250000
v 1.062500 -0.500000 -0.250000
v 1.062500 -0.500000 0.250000
v 1.062500 -0.625000 -0.250000
v 1.062500 -0.625000 0.250000
v 1.250000 0.375000 -0.187500
v 1.250000 0.375000 -0.312500
v 1.250000 -0.375000 -0.187500
v 1.250000 -0.375000 -0.312500
v 1.062500 0.375000 -0.312500
v 1.062500 0.375000 -0.187500
v 1.062500 -0.375000 -0.312500
v 1.062500 -0.375000 -0.187500
v 1.250000 0.375000 0.312500
v 1.250000 0.375000 0.187500
v 1.250000 -0.375000 0.312500
v 1.250000 -0.375000 0.187500
v 1.062500 0.375000 0.187500
v 1.062500 0.375000 0.312500
v 1.062500 -0.375000 0.187500
v 1.062500 -0.375000 0.312500
v 1.187500 0.625000 0.250000
v 1.187500 0.625000 -0.250000
v 1.187500 0.500000 0.250000
v 1.187500 0.500000 -0.250000
v 1.062500 0.625000 -0.250000
v 1.062500 0.625000 0.250000
v 1.062500 0.500000 -0.250000
v 1.062500 0.500000 0.250000
v 1.187500 -0.125000 1.437500
v 1.187500 -0.125000 0.312500
v 1.187500 -0.312500 1.437500
v 1.187500 -0.312500 0.312500
v 1.062500 -0.125000 0.312500
v 1.062500 -0.125000 1.437500
v 1.062500 -0.312500 0.312500
v 1.062500 -0.312500 1.437500
v 1.187500 0.312500 1.437500
v 1.187500 0.312500 0.312500
v 1.187500 0.125000 1.437500
v 1.187500 0.125000 0.312500
v 1.062500 0.312500 0.312500
v 1.062500 0.312500 1.437500
v 1.062500 0.125000 0.312500
v 1.062500 0.125000 1.437500
v 1.187500 0.312500 -0.312500
v 1.187500 0.312500 -1.437500
v 1.187500 0.125000 -0.312500
v 1.187500 0.125000 -1.437500
v 1.062500 0.312500 -1.437500
v 1.062500 0.312500 -0.312500
v 1.062500 0.125000 -1.437500
v 1.062500 0.125000 -0.312500
vn -0.0000 -0.0000 -1.0000
vn 1.0000 -0.0000 -0.0000
vn -0.0000 -0.0000 1.0000
vn -1.0000 -0.0000 -0.0000
vn -0.0000 1.0000 -0.0000
vn -0.0000 -1.0000 -0.0000
vt 0.125000 0.906250
vt 0.062500 0.906250
vt 0.062500 1.000000
vt 0.125000 1.000000
vt 0.562500 0.000000
vt 0.000000 0.000000
vt 0.000000 0.093750
vt 0.562500 0.093750
vt 0.562500 0.031250
vt 0.000000 0.031250
vt 0.000000 0.062500
vt 0.562500 0.062500
vt 0.187500 0.187500
vt 0.250000 0.187500
vt 0.250000 0.687500
vt 0.187500 0.687500
vt 0.000000 0.187500
vt 0.062500 0.187500
vt 0.062500 0.687500
vt 0.000000 0.687500
vt 0.000000 0.875000
vt 0.125000 0.875000
vt 0.000000 1.000000
vt 0.187500 0.750000
vt 0.250000 0.750000
vt 0.000000 0.812500
vt 0.250000 0.812500
vt 0.000000 0.750000
vt 0.156250 0.437500
vt 0.093750 0.437500
vt 0.093750 0.687500
vt 0.156250 0.687500
vt 0.343750 0.187500
vt 0.250000 0.562500
vt 0.343750 0.562500
vt 0.593750 0.218750
vt 0.593750 0.281250
vt 0.968750 0.281250
vt 0.968750 0.218750
vt 0.062500 0.312500
vt 0.000000 0.312500
vt 0.156250 0.406250
vt 0.156250 0.312500
vt 0.093750 0.312500
vt 0.093750 0.406250
s 0
usemtl m_a3615924-b53f-7e38-820a-6fd7225dda8f.003
f 4/1/1 7/2/1 5/3/1 2/4/1
f 3/5/2 4/6/2 2/7/2 1/8/2
f 8/1/3 3/2/3 1/3/3 6/4/3
f 7/6/4 8/5/4 6/8/4 5/7/4
f 6/9/5 1/8/5 2/7/5 5/10/5
f 7/11/6 4/6/6 3/5/6 8/12/6
f 12/13/1 15/14/1 13/15/1 10/16/1
f 11/17/2 12/18/2 10/19/2 9/20/2
f 16/14/3 11/13/3 9/16/3 14/15/3
f 15/17/4 16/18/4 14/19/4 13/20/4
f 14/21/5 9/22/5 10/4/5 13/23/5
f 15/21/6 12/22/6 11/4/6 16/23/6
f 20/13/1 23/14/1 21/15/1 18/16/1
f 19/18/2 20/17/2 18/20/2 17/19/2
f 24/13/3 19/14/3 17/15/3 22/16/3
f 23/17/4 24/18/4 22/19/4 21/20/4
f 22/21/5 17/22/5 18/4/5 21/23/5
f 23/21/6 20/22/6 19/4/6 24/23/6
f 28/24/1 31/25/1 29/15/1 26/16/1
f 27/26/2 28/27/2 26/25/2 25/28/2
f 32/25/3 27/24/3 25/16/3 30/15/3
f 31/28/4 32/25/4 30/27/4 29/26/4
f 30/29/5 25/30/5 26/31/5 29/32/5
f 31/29/6 28/30/6 27/31/6 32/32/6
f 36/33/1 39/14/1 37/34/1 34/35/1
f 35/36/2 36/37/2 34/38/2 33/39/2
f 40/14/3 35/33/3 33/35/3 38/34/3
f 39/40/4 40/41/4 38/20/4 37/19/4
f 38/42/5 33/43/5 34/44/5 37/45/5
f 39/45/6 36/44/6 35/43/6 40/42/6
f 44/33/1 47/14/1 45/34/1 42/35/1
f 43/37/2 44/36/2 42/39/2 41/38/2
f 48/14/3 43/33/3 41/35/3 46/34/3
f 47/40/4 48/41/4 46/20/4 45/19/4
f 46/45/5 41/44/5 42/43/5 45/42/5
f 47/42/6 44/43/6 43/44/6 48/45/6
f 52/16/1 55/15/1 53/25/1 50/24/1
f 51/28/2 52/25/2 50/27/2 49/26/2
f 56/15/3 51/16/3 49/24/3 54/25/3
f 55/28/4 56/25/4 54/27/4 53/26/4
f 54/29/5 49/30/5 50/31/5 53/32/5
f 55/29/6 52/30/6 51/31/6 56/32/6
f 60/2/1 63/1/1 61/4/1 58/3/1
f 59/6/2 60/5/2 58/8/2 57/7/2
f 64/2/3 59/1/3 57/4/3 62/3/3
f 63/5/4 64/6/4 62/7/4 61/8/4
f 62/10/5 57/7/5 58/8/5 61/9/5
f 63/12/6 60/5/6 59/6/6 64/11/6
f 68/2/1 71/1/1 69/4/1 66/3/1
f 67/6/2 68/5/2 66/8/2 65/7/2
f 72/2/3 67/1/3 65/4/3 70/3/3
f 71/5/4 72/6/4 70/7/4 69/8/4
f 70/10/5 65/7/5 66/8/5 69/9/5
f 71/12/6 68/5/6 67/6/6 72/11/6
f 76/1/1 79/2/1 77/3/1 74/4/1
f 75/5/2 76/6/2 74/7/2 73/8/2
f 80/1/3 75/2/3 73/3/3 78/4/3
f 79/6/4 80/5/4 78/8/4 77/7/4
f 78/9/5 73/8/5 74/7/5 77/10/5
f 79/11/6 76/6/6 75/5/6 80/12/6
