# Blender 4.2.3 LTS
# www.blender.org
mtllib frame.mtl
o cube.025
v 0.750000 1.000000 1.250000
v 0.750000 1.000000 0.750000
v 0.750000 0.500000 1.250000
v 0.750000 0.500000 0.750000
v 0.437500 1.000000 0.750000
v 0.437500 1.000000 1.250000
v 0.437500 0.500000 0.750000
v 0.437500 0.500000 1.250000
v -0.500000 0.953734 1.178637
v -0.500000 1.312500 0.312500
v -0.500000 0.895992 1.154719
v -0.500000 1.254758 0.288582
v -0.687500 1.312500 0.312500
v -0.687500 0.953734 1.178637
v -0.687500 1.254758 0.288582
v -0.687500 0.895992 1.154719
v 0.756250 1.443750 0.318750
v 0.756250 1.443750 -0.318750
v 0.756250 0.681250 0.318750
v 0.756250 0.681250 -0.318750
v 0.431250 1.443750 -0.318750
v 0.431250 1.443750 0.318750
v 0.431250 0.681250 -0.318750
v 0.431250 0.681250 0.318750
v -0.431250 1.443750 0.318750
v -0.431250 1.443750 -0.318750
v -0.431250 0.681250 0.318750
v -0.431250 0.681250 -0.318750
v -0.756250 1.443750 -0.318750
v -0.756250 1.443750 0.318750
v -0.756250 0.681250 -0.318750
v -0.756250 0.681250 0.318750
v 0.437500 1.250000 0.437500
v 0.437500 1.250000 -0.437500
v 0.437500 0.750000 0.437500
v 0.437500 0.750000 -0.437500
v -0.437500 1.250000 -0.437500
v -0.437500 1.250000 0.437500
v -0.437500 0.750000 -0.437500
v -0.437500 0.750000 0.437500
v 0.312500 1.062500 0.562500
v 0.312500 1.062500 -0.562500
v 0.312500 0.437500 0.562500
v 0.312500 0.437500 -0.562500
v -0.312500 1.062500 -0.562500
v -0.312500 1.062500 0.562500
v -0.312500 0.437500 -0.562500
v -0.312500 0.437500 0.562500
v -0.224112 0.588388 0.312500
v -0.224112 0.588388 0.125000
v -0.312500 0.500000 0.312500
v -0.312500 0.500000 0.125000
v -0.445083 0.809359 0.125000
v -0.445083 0.809359 0.312500
v -0.533471 0.720971 0.125000
v -0.533471 0.720971 0.312500
v -0.224112 0.588388 -0.125000
v -0.224112 0.588388 -0.312500
v -0.312500 0.500000 -0.125000
v -0.312500 0.500000 -0.312500
v -0.445083 0.809359 -0.312500
v -0.445083 0.809359 -0.125000
v -0.533471 0.720971 -0.312500
v -0.533471 0.720971 -0.125000
v 0.445083 0.809359 -0.125000
v 0.445083 0.809359 -0.312500
v 0.533471 0.720971 -0.125000
v 0.533471 0.720971 -0.312500
v 0.224112 0.588388 -0.312500
v 0.224112 0.588388 -0.125000
v 0.312500 0.500000 -0.312500
v 0.312500 0.500000 -0.125000
v 0.445083 0.809359 0.312500
v 0.445083 0.809359 0.125000
v 0.533471 0.720971 0.312500
v 0.533471 0.720971 0.125000
v 0.224112 0.588388 0.125000
v 0.224112 0.588388 0.312500
v 0.312500 0.500000 0.125000
v 0.312500 0.500000 0.312500
v 0.312500 1.062500 1.312500
v 0.312500 1.062500 0.687500
v 0.312500 0.437500 1.312500
v 0.312500 0.437500 0.687500
v -0.312500 1.062500 0.687500
v -0.312500 1.062500 1.312500
v -0.312500 0.437500 0.687500
v -0.312500 0.437500 1.312500
v 0.093750 1.250000 1.093750
v 0.093750 1.250000 0.906250
v 0.093750 1.062500 1.093750
v 0.093750 1.062500 0.906250
v -0.093750 1.250000 0.906250
v -0.093750 1.250000 1.093750
v -0.093750 1.062500 0.906250
v -0.093750 1.062500 1.093750
v -0.437500 1.000000 1.250000
v -0.437500 1.000000 0.750000
v -0.437500 0.500000 1.250000
v -0.437500 0.500000 0.750000
v -0.750000 1.000000 0.750000
v -0.750000 1.000000 1.250000
v -0.750000 0.500000 0.750000
v -0.750000 0.500000 1.250000
v 0.312500 1.062500 -0.687500
v 0.312500 1.062500 -1.312500
v 0.312500 0.437500 -0.687500
v 0.312500 0.437500 -1.312500
v -0.312500 1.062500 -1.312500
v -0.312500 1.062500 -0.687500
v -0.312500 0.437500 -1.312500
v -0.312500 0.437500 -0.687500
v 0.750000 1.000000 -0.750000
v 0.750000 1.000000 -1.250000
v 0.750000 0.500000 -0.750000
v 0.750000 0.500000 -1.250000
v 0.437500 1.000000 -1.250000
v 0.437500 1.000000 -0.750000
v 0.437500 0.500000 -1.250000
v 0.437500 0.500000 -0.750000
v 0.093750 1.250000 -0.906250
v 0.093750 1.250000 -1.093750
v 0.093750 1.062500 -0.906250
v 0.093750 1.062500 -1.093750
v -0.093750 1.250000 -1.093750
v -0.093750 1.250000 -0.906250
v -0.093750 1.062500 -1.093750
v -0.093750 1.062500 -0.906250
v -0.437500 1.000000 -0.750000
v -0.437500 1.000000 -1.250000
v -0.437500 0.500000 -0.750000
v -0.437500 0.500000 -1.250000
v -0.750000 1.000000 -1.250000
v -0.750000 1.000000 -0.750000
v -0.750000 0.500000 -1.250000
v -0.750000 0.500000 -0.750000
v 0.437500 0.875000 1.125000
v 0.437500 0.875000 0.875000
v 0.437500 0.625000 1.125000
v 0.437500 0.625000 0.875000
v -0.437500 0.875000 0.875000
v -0.437500 0.875000 1.125000
v -0.437500 0.625000 0.875000
v -0.437500 0.625000 1.125000
v 0.687500 0.953734 1.178637
v 0.687500 1.312500 0.312500
v 0.687500 0.895992 1.154719
v 0.687500 1.254758 0.288582
v 0.500000 1.312500 0.312500
v 0.500000 0.953734 1.178637
v 0.500000 1.254758 0.288582
v 0.500000 0.895992 1.154719
v -0.500000 1.312500 -0.312500
v -0.500000 0.953734 -1.178637
v -0.500000 1.254758 -0.288582
v -0.500000 0.895992 -1.154719
v -0.687500 0.953734 -1.178637
v -0.687500 1.312500 -0.312500
v -0.687500 0.895992 -1.154719
v -0.687500 1.254758 -0.288582
v 0.687500 1.312500 -0.312500
v 0.687500 0.953734 -1.178637
v 0.687500 1.254758 -0.288582
v 0.687500 0.895992 -1.154719
v 0.500000 0.953734 -1.178637
v 0.500000 1.312500 -0.312500
v 0.500000 0.895992 -1.154719
v 0.500000 1.254758 -0.288582
v -0.125000 0.875000 -0.562500
v 0.125000 0.875000 -0.562500
v -0.125000 0.625000 -0.562500
v 0.125000 0.625000 -0.562500
v 0.125000 0.875000 -0.687500
v -0.125000 0.875000 -0.687500
v 0.125000 0.625000 -0.687500
v -0.125000 0.625000 -0.687500
v 0.437500 0.875000 -0.875000
v 0.437500 0.875000 -1.125000
v 0.437500 0.625000 -0.875000
v 0.437500 0.625000 -1.125000
v -0.437500 0.875000 -1.125000
v -0.437500 0.875000 -0.875000
v -0.437500 0.625000 -1.125000
v -0.437500 0.625000 -0.875000
v -0.125000 0.875000 0.687500
v 0.125000 0.875000 0.687500
v -0.125000 0.625000 0.687500
v 0.125000 0.625000 0.687500
v 0.125000 0.875000 0.562500
v -0.125000 0.875000 0.562500
v 0.125000 0.625000 0.562500
v -0.125000 0.625000 0.562500
v 0.687500 0.687500 0.750000
v 0.687500 0.687500 -0.750000
v 0.687500 0.625000 0.750000
v 0.687500 0.625000 -0.750000
v 0.500000 0.687500 -0.750000
v 0.500000 0.687500 0.750000
v 0.500000 0.625000 -0.750000
v 0.500000 0.625000 0.750000
v -0.500000 0.687500 0.750000
v -0.500000 0.687500 -0.750000
v -0.500000 0.625000 0.750000
v -0.500000 0.625000 -0.750000
v -0.687500 0.687500 -0.750000
v -0.687500 0.687500 0.750000
v -0.687500 0.625000 -0.750000
v -0.687500 0.625000 0.750000
vn -0.0000 -0.0000 -1.0000
vn 1.0000 -0.0000 -0.0000
vn -0.0000 -0.0000 1.0000
vn -1.0000 -0.0000 -0.0000
vn -0.0000 1.0000 -0.0000
vn -0.0000 -1.0000 -0.0000
vn -0.0000 0.3827 -0.9239
vn -0.0000 -0.3827 0.9239
vn -0.0000 0.9239 0.3827
vn -0.0000 -0.9239 -0.3827
vn 0.7071 -0.7071 -0.0000
vn -0.7071 0.7071 -0.0000
vn 0.7071 0.7071 -0.0000
vn -0.7071 -0.7071 -0.0000
vn -0.0000 -0.3827 -0.9239
vn -0.0000 0.3827 0.9239
vn -0.0000 0.9239 -0.3827
vn -0.0000 -0.9239 0.3827
vt 0.656250 0.000000
vt 0.812500 0.000000
vt 0.812500 0.250000
vt 0.656250 0.250000
vt 0.500000 0.250000
vt 0.750000 0.250000
vt 0.750000 0.500000
vt 0.500000 0.500000
vt 0.500000 0.000000
vt 0.343750 0.031250
vt 0.593750 0.031250
vt 0.593750 0.281250
vt 0.343750 0.281250
vt 0.500000 0.937500
vt 0.312500 0.937500
vt 0.312500 1.000000
vt 0.500000 1.000000
vt 0.000000 0.524038
vt 0.071154 0.524038
vt 0.071154 0.527885
vt 0.000000 0.527885
vt 0.000000 0.533654
vt 0.071154 0.533654
vt 0.071154 0.537500
vt 0.000000 0.537500
vt 0.812500 0.656250
vt 0.968750 0.656250
vt 0.968750 1.000000
vt 0.812500 1.000000
vt 0.500000 0.656250
vt 0.812500 0.500000
vt 0.312500 0.312500
vt 0.750000 0.312500
vt 0.750000 0.562500
vt 0.312500 0.562500
vt 0.687500 0.562500
vt 0.687500 1.000000
vt 0.437500 1.000000
vt 0.437500 0.562500
vt 0.000000 0.562500
vt 0.000000 1.000000
vt 0.687500 0.687500
vt 1.000000 0.687500
vt 1.000000 1.000000
vt 0.312500 0.000000
vt 0.000000 0.000000
vt 0.812500 0.531250
vt 0.812500 0.375000
vt 0.750000 0.375000
vt 0.750000 0.531250
vt 0.718750 0.625000
vt 0.687500 0.625000
vt 0.718750 0.687500
vt 0.906250 0.531250
vt 0.906250 0.375000
vt 0.625000 0.000000
vt 0.625000 0.312500
vt 0.937500 0.000000
vt 0.937500 0.312500
vt 0.625000 0.375000
vt 0.718750 0.375000
vt 0.718750 0.468750
vt 0.625000 0.468750
vt 0.812500 0.468750
vt 0.281250 0.156250
vt 0.468750 0.156250
vt 0.468750 0.343750
vt 0.281250 0.343750
vt 0.625000 0.875000
vt 0.375000 0.875000
vt 0.375000 0.000000
vt 0.812500 0.218750
vt 1.000000 0.218750
vt 1.000000 0.500000
vt 0.625000 0.125000
vt 0.375000 0.125000
vt 0.000000 0.610577
vt 0.115385 0.610577
vt 0.115385 0.615385
vt 0.000000 0.615385
vt 0.000000 0.600962
vt 0.115385 0.600962
vt 0.115385 0.605769
vt 0.000000 0.605769
vt 0.000000 0.600000
vt 0.000000 0.614423
vt 0.115385 0.614423
vt 0.115385 0.600000
vt 0.000000 0.615385
s 0
usemtl m_149e775e-3cb9-4e40-3ac0-03d4893116e8
f 4/1/1 7/2/1 5/3/1 2/4/1
f 3/5/2 4/6/2 2/7/2 1/8/2
f 8/1/3 3/9/3 1/5/3 6/4/3
f 6/2/5 1/1/5 2/4/5 5/3/5
f 7/4/6 4/5/6 3/9/6 8/1/6
f 20/26/1 23/27/1 21/28/1 18/29/1
f 19/30/2 20/26/2 18/29/2 17/17/2
f 24/26/3 19/27/3 17/28/3 22/29/3
f 23/30/4 24/26/4 22/29/4 21/17/4
f 22/31/5 17/26/5 18/30/5 21/8/5
f 23/31/6 20/26/6 19/30/6 24/8/6
f 28/26/1 31/27/1 29/28/1 26/29/1
f 27/30/2 28/26/2 26/29/2 25/17/2
f 32/26/3 27/27/3 25/28/3 30/29/3
f 31/30/4 32/26/4 30/29/4 29/17/4
f 30/31/5 25/26/5 26/30/5 29/8/5
f 31/31/6 28/26/6 27/30/6 32/8/6
f 100/2/1 103/1/1 101/4/1 98/3/1
f 104/9/3 99/1/3 97/4/3 102/5/3
f 103/6/4 104/5/4 102/8/4 101/7/4
f 102/2/5 97/1/5 98/4/5 101/3/5
f 103/1/6 100/9/6 99/5/6 104/4/6
f 116/9/1 119/1/1 117/4/1 114/5/1
f 115/6/2 116/5/2 114/8/2 113/7/2
f 120/2/3 115/1/3 113/4/3 118/3/3
f 118/3/5 113/4/5 114/1/5 117/2/5
f 119/1/6 116/9/6 115/5/6 120/4/6
f 132/9/1 135/1/1 133/4/1 130/5/1
f 136/2/3 131/1/3 129/4/3 134/3/3
f 135/6/4 136/5/4 134/8/4 133/7/4
f 134/3/5 129/4/5 130/1/5 133/2/5
f 135/1/6 132/9/6 131/5/6 136/4/6
usemtl m_63220acb-2ba9-78b2-18a7-8b276ef9c063
f 7/10/4 8/11/4 6/12/4 5/13/4
f 36/32/1 39/33/1 37/34/1 34/35/1
f 35/36/2 36/37/2 34/38/2 33/39/2
f 40/32/3 35/33/3 33/34/3 38/35/3
f 39/36/4 40/37/4 38/38/4 37/39/4
f 38/39/5 33/40/5 34/41/5 37/38/5
f 39/39/6 36/40/6 35/41/6 40/38/6
f 44/42/1 47/43/1 45/44/1 42/37/1
f 43/45/2 44/35/2 42/40/2 41/46/2
f 48/42/3 43/43/3 41/44/3 46/37/3
f 47/45/4 48/35/4 46/40/4 45/46/4
f 46/46/5 41/45/5 42/35/5 45/40/5
f 47/46/6 44/45/6 43/35/6 48/40/6
f 52/47/1 55/48/1 53/49/1 50/50/1
f 51/51/11 52/52/11 50/42/11 49/53/11
f 56/47/3 51/48/3 49/49/3 54/50/3
f 55/51/12 56/52/12 54/42/12 53/53/12
f 54/54/13 49/55/13 50/48/13 53/47/13
f 55/54/14 52/55/14 51/48/14 56/47/14
f 60/47/1 63/48/1 61/49/1 58/50/1
f 59/51/11 60/52/11 58/42/11 57/53/11
f 64/47/3 59/48/3 57/49/3 62/50/3
f 63/51/12 64/52/12 62/42/12 61/53/12
f 62/54/13 57/55/13 58/48/13 61/47/13
f 63/54/14 60/55/14 59/48/14 64/47/14
f 68/48/1 71/47/1 69/50/1 66/49/1
f 67/52/13 68/51/13 66/53/13 65/42/13
f 72/48/3 67/47/3 65/50/3 70/49/3
f 71/52/14 72/51/14 70/53/14 69/42/14
f 70/55/12 65/54/12 66/47/12 69/48/12
f 71/55/11 68/54/11 67/47/11 72/48/11
f 76/48/1 79/47/1 77/50/1 74/49/1
f 75/52/13 76/51/13 74/53/13 73/42/13
f 80/48/3 75/47/3 73/50/3 78/49/3
f 79/52/14 80/51/14 78/53/14 77/42/14
f 78/55/12 73/54/12 74/47/12 77/48/12
f 79/55/11 76/54/11 75/47/11 80/48/11
f 84/45/1 87/56/1 85/57/1 82/32/1
f 83/45/2 84/56/2 82/57/2 81/32/2
f 88/56/3 83/58/3 81/59/3 86/57/3
f 87/45/4 88/56/4 86/57/4 85/32/4
f 86/56/5 81/58/5 82/59/5 85/57/5
f 87/56/6 84/58/6 83/59/6 88/57/6
f 99/11/2 100/10/2 98/13/2 97/12/2
f 108/56/1 111/58/1 109/59/1 106/57/1
f 107/45/2 108/56/2 106/57/2 105/32/2
f 112/45/3 107/56/3 105/57/3 110/32/3
f 111/45/4 112/56/4 110/57/4 109/32/4
f 110/56/5 105/58/5 106/59/5 109/57/5
f 111/56/6 108/58/6 107/59/6 112/57/6
f 119/11/4 120/10/4 118/13/4 117/12/4
f 131/11/2 132/10/2 130/13/2 129/12/2
usemtl none
f 12/14/7 15/15/7 13/16/7 10/17/7
f 16/14/8 11/15/8 9/16/8 14/17/8
f 95/65/6 92/66/6 91/67/6 96/68/6
f 127/65/6 124/66/6 123/67/6 128/68/6
f 148/15/7 151/14/7 149/17/7 146/16/7
f 152/15/8 147/14/8 145/17/8 150/16/8
f 156/15/15 159/14/15 157/17/15 154/16/15
f 160/15/16 155/14/16 153/17/16 158/16/16
f 164/14/15 167/15/15 165/16/15 162/17/15
f 168/14/16 163/15/16 161/16/16 166/17/16
usemtl m_f7650312-77bc-8543-05ea-d65e30ee4d07
f 11/18/2 12/19/2 10/20/2 9/21/2
f 15/22/4 16/23/4 14/24/4 13/25/4
f 14/24/9 9/19/9 10/18/9 13/25/9
f 15/25/10 12/18/10 11/19/10 16/24/10
f 147/23/2 148/22/2 146/25/2 145/24/2
f 151/19/4 152/18/4 150/21/4 149/20/4
f 150/19/9 145/24/9 146/25/9 149/18/9
f 151/18/10 148/25/10 147/24/10 152/19/10
f 155/19/2 156/18/2 154/21/2 153/20/2
f 159/23/4 160/22/4 158/25/4 157/24/4
f 158/25/17 153/18/17 154/19/17 157/24/17
f 159/24/18 156/19/18 155/18/18 160/25/18
f 163/22/2 164/23/2 162/24/2 161/25/2
f 167/18/4 168/19/4 166/20/4 165/21/4
f 166/18/17 161/25/17 162/24/17 165/19/17
f 167/19/18 164/24/18 163/25/18 168/18/18
f 195/77/2 196/78/2 194/79/2 193/80/2
f 199/81/4 200/82/4 198/83/4 197/84/4
f 198/85/5 193/86/5 194/87/5 197/88/5
f 199/82/6 196/79/6 195/89/6 200/81/6
f 203/82/2 204/81/2 202/84/2 201/83/2
f 207/78/4 208/77/4 206/80/4 205/79/4
f 206/86/5 201/85/5 202/88/5 205/87/5
f 207/79/6 204/82/6 203/81/6 208/89/6
usemtl m_9b02648e-70d5-aa6e-d9ed-4d6e89ea47f5
f 92/60/1 95/61/1 93/62/1 90/63/1
f 91/60/2 92/61/2 90/62/2 89/63/2
f 96/60/3 91/61/3 89/62/3 94/63/3
f 95/60/4 96/61/4 94/62/4 93/63/4
f 94/61/5 89/48/5 90/64/5 93/62/5
f 124/60/1 127/61/1 125/62/1 122/63/1
f 123/60/2 124/61/2 122/62/2 121/63/2
f 128/60/3 123/61/3 121/62/3 126/63/3
f 127/60/4 128/61/4 126/62/4 125/63/4
f 126/61/5 121/48/5 122/64/5 125/62/5
usemtl m_c7dc9a49-cc9b-08c0-e57b-cdc627249ca5
f 140/56/1 143/69/1 141/70/1 138/71/1
f 139/72/2 140/73/2 138/74/2 137/31/2
f 144/56/3 139/69/3 137/70/3 142/71/3
f 143/72/4 144/73/4 142/74/4 141/31/4
f 142/56/5 137/69/5 138/70/5 141/71/5
f 143/56/6 140/69/6 139/70/6 144/71/6
f 172/75/2 175/56/2 173/71/2 170/76/2
f 171/73/3 172/72/3 170/31/3 169/74/3
f 176/75/4 171/56/4 169/71/4 174/76/4
f 175/73/1 176/72/1 174/31/1 173/74/1
f 174/71/5 169/76/5 170/75/5 173/56/5
f 175/71/6 172/76/6 171/75/6 176/56/6
f 180/69/1 183/56/1 181/71/1 178/70/1
f 179/73/2 180/72/2 178/31/2 177/74/2
f 184/69/3 179/56/3 177/71/3 182/70/3
f 183/73/4 184/72/4 182/31/4 181/74/4
f 182/71/5 177/70/5 178/69/5 181/56/5
f 183/71/6 180/70/6 179/69/6 184/56/6
f 188/75/2 191/56/2 189/71/2 186/76/2
f 187/73/3 188/72/3 186/31/3 185/74/3
f 192/75/4 187/56/4 185/71/4 190/76/4
f 191/73/1 192/72/1 190/31/1 189/74/1
f 190/71/5 185/76/5 186/75/5 189/56/5
f 191/71/6 188/76/6 187/75/6 192/56/6
