# Blender 4.0.2
# www.blender.org
mtllib left_p_rod.mtl
o cube.002
v -1.250000 0.125000 -3.625000
v -1.250000 0.125000 -3.875000
v -1.250000 -0.125000 -3.625000
v -1.250000 -0.125000 -3.875000
v -1.375000 0.125000 -3.875000
v -1.375000 0.125000 -3.625000
v -1.375000 -0.125000 -3.875000
v -1.375000 -0.125000 -3.625000
v -1.181250 0.256250 -3.556250
v -1.181250 0.256250 -3.943750
v -1.181250 -0.256250 -3.556250
v -1.181250 -0.256250 -3.943750
v -1.318750 0.256250 -3.943750
v -1.318750 0.256250 -3.556250
v -1.318750 -0.256250 -3.943750
v -1.318750 -0.256250 -3.556250
v -1.187500 0.125000 -3.937500
v -1.187500 0.125000 -5.000000
v -1.187500 -0.125000 -3.937500
v -1.187500 -0.125000 -5.000000
v -1.312500 0.125000 -5.000000
v -1.312500 0.125000 -3.937500
v -1.312500 -0.125000 -5.000000
v -1.312500 -0.125000 -3.937500
vn -0.0000 -0.0000 -1.0000
vn 1.0000 -0.0000 -0.0000
vn -0.0000 -0.0000 1.0000
vn -1.0000 -0.0000 -0.0000
vn -0.0000 1.0000 -0.0000
vn -0.0000 -1.0000 -0.0000
vt 0.901786 0.071429
vt 0.892857 0.071429
vt 0.892857 0.035714
vt 0.901786 0.035714
vt 0.857143 0.035714
vt 0.857143 0.071429
vt 1.000000 0.000000
vt 0.946429 0.000000
vt 0.946429 0.071429
vt 1.000000 0.071429
vt 0.982143 0.000000
vt 0.964286 0.000000
vt 0.964286 0.071429
vt 0.982143 0.071429
vt 0.946429 0.062500
vt 1.000000 0.062500
vt 0.937500 0.267857
vt 0.955357 0.267857
vt 0.955357 0.303571
vt 0.937500 0.303571
vt 0.839286 0.267857
vt 0.991071 0.267857
vt 0.991071 0.303571
vt 0.839286 0.303571
vt 0.857143 0.267857
vt 0.857143 0.303571
vt 0.839286 0.285714
vt 0.991071 0.285714
s 0
usemtl m_a04509b2-9e79-7152-ac01-54b87f7e5258.026
f 4/1/1 7/2/1 5/3/1 2/4/1
f 3/5/2 4/3/2 2/2/2 1/6/2
f 8/3/3 3/4/3 1/1/3 6/2/3
f 7/3/4 8/2/4 6/6/4 5/5/4
f 6/3/5 1/4/5 2/1/5 5/2/5
f 7/3/6 4/4/6 3/1/6 8/2/6
f 12/7/1 15/8/1 13/9/1 10/10/1
f 11/11/2 12/12/2 10/13/2 9/14/2
f 16/8/3 11/7/3 9/10/3 14/9/3
f 15/11/4 16/12/4 14/13/4 13/14/4
f 14/15/5 9/9/5 10/10/5 13/16/5
f 15/16/6 12/10/6 11/9/6 16/15/6
f 20/17/1 23/18/1 21/19/1 18/20/1
f 19/21/2 20/22/2 18/23/2 17/24/2
f 24/21/3 19/25/3 17/26/3 22/24/3
f 23/22/4 24/21/4 22/24/4 21/23/4
f 22/24/5 17/27/5 18/28/5 21/23/5
f 23/22/6 20/28/6 19/27/6 24/21/6
