# Blender 4.0.2
# www.blender.org
mtllib left_m_rod.mtl
o cube.001
v -1.187500 0.187500 3.937500
v -1.187500 0.187500 3.562500
v -1.187500 -0.187500 3.937500
v -1.187500 -0.187500 3.562500
v -1.312500 0.187500 3.562500
v -1.312500 0.187500 3.937500
v -1.312500 -0.187500 3.562500
v -1.312500 -0.187500 3.937500
v -1.187500 0.125000 3.562500
v -1.187500 0.125000 0.125000
v -1.187500 -0.125000 3.562500
v -1.187500 -0.125000 0.125000
v -1.312500 0.125000 0.125000
v -1.312500 0.125000 3.562500
v -1.312500 -0.125000 0.125000
v -1.312500 -0.125000 3.562500
vn -0.0000 -0.0000 -1.0000
vn 1.0000 -0.0000 -0.0000
vn -0.0000 -0.0000 1.0000
vn -1.0000 -0.0000 -0.0000
vn -0.0000 1.0000 -0.0000
vn -0.0000 -1.0000 -0.0000
vt 0.857143 0.062500
vt 0.839286 0.062500
vt 0.839286 0.008929
vt 0.857143 0.008929
vt 0.785714 0.008929
vt 0.785714 0.062500
vt 0.633929 0.732143
vt 0.616071 0.732143
vt 0.616071 0.767857
vt 0.633929 0.767857
vt 0.928571 0.732143
vt 0.437500 0.732143
vt 0.437500 0.767857
vt 0.928571 0.767857
vt 0.464286 0.732143
vt 0.446429 0.732143
vt 0.446429 0.767857
vt 0.464286 0.767857
vt 0.437500 0.750000
vt 0.928571 0.750000
s 0
usemtl m_a04509b2-9e79-7152-ac01-54b87f7e5258.025
f 4/1/1 7/2/1 5/3/1 2/4/1
f 3/5/2 4/3/2 2/2/2 1/6/2
f 8/3/3 3/4/3 1/1/3 6/2/3
f 7/3/4 8/2/4 6/6/4 5/5/4
f 6/3/5 1/4/5 2/1/5 5/2/5
f 7/3/6 4/4/6 3/1/6 8/2/6
f 12/7/1 15/8/1 13/9/1 10/10/1
f 11/11/2 12/12/2 10/13/2 9/14/2
f 16/15/3 11/16/3 9/17/3 14/18/3
f 15/11/4 16/12/4 14/13/4 13/14/4
f 14/13/5 9/19/5 10/20/5 13/14/5
f 15/11/6 12/20/6 11/19/6 16/12/6
