# Blender 4.0.2
# www.blender.org
mtllib left_p_rod.mtl
o Rod
v -1.187500 0.125000 -3.625000
v -1.187500 0.125000 -5.062500
v -1.187500 -0.125000 -3.625000
v -1.187500 -0.125000 -5.062500
v -1.312500 0.125000 -5.062500
v -1.312500 0.125000 -3.625000
v -1.312500 -0.125000 -5.062500
v -1.312500 -0.125000 -3.625000
v -1.181250 0.193750 -3.243750
v -1.181250 0.193750 -3.631250
v -1.181250 -0.193750 -3.243750
v -1.181250 -0.193750 -3.631250
v -1.318750 0.193750 -3.631250
v -1.318750 0.193750 -3.243750
v -1.318750 -0.193750 -3.631250
v -1.318750 -0.193750 -3.243750
v -1.250000 0.125000 -3.312500
v -1.250000 0.125000 -3.562500
v -1.250000 -0.125000 -3.312500
v -1.250000 -0.125000 -3.562500
v -1.375000 0.125000 -3.562500
v -1.375000 0.125000 -3.312500
v -1.375000 -0.125000 -3.562500
v -1.375000 -0.125000 -3.312500
v -1.184375 0.315625 -3.246875
v -1.184375 0.315625 -3.628125
v -1.184375 0.246875 -3.246875
v -1.184375 0.246875 -3.628125
v -1.315625 0.315625 -3.628125
v -1.315625 0.315625 -3.246875
v -1.315625 0.246875 -3.628125
v -1.315625 0.246875 -3.246875
vn -0.0000 -0.0000 -1.0000
vn 1.0000 -0.0000 -0.0000
vn -0.0000 -0.0000 1.0000
vn -1.0000 -0.0000 -0.0000
vn -0.0000 1.0000 -0.0000
vn -0.0000 -1.0000 -0.0000
vt 0.982143 0.312500
vt 1.000000 0.312500
vt 1.000000 0.348214
vt 0.982143 0.348214
vt 0.794643 0.312500
vt 0.794643 0.348214
vt 0.812500 0.312500
vt 0.812500 0.348214
vt 0.794643 0.330357
vt 1.000000 0.330357
vt 0.982143 0.080357
vt 1.000000 0.080357
vt 1.000000 0.133929
vt 0.982143 0.133929
vt 0.946429 0.080357
vt 0.946429 0.133929
vt 0.964286 0.080357
vt 0.964286 0.133929
vt 0.946429 0.008929
vt 0.964286 0.008929
vt 0.964286 0.062500
vt 0.946429 0.062500
vt 0.910714 0.035714
vt 0.892857 0.035714
vt 0.892857 0.071429
vt 0.910714 0.071429
vt 0.857143 0.035714
vt 0.857143 0.071429
vt 0.625000 0.562500
vt 0.625000 0.553571
vt 0.616071 0.553571
vt 0.616071 0.562500
vt 0.571429 0.553571
vt 0.571429 0.562500
vt 0.580357 0.562500
vt 0.580357 0.553571
s 0
usemtl m_a04509b2-9e79-7152-ac01-54b87f7e5258.054
f 4/1/1 7/2/1 5/3/1 2/4/1
f 3/5/2 4/2/2 2/3/2 1/6/2
f 8/5/3 3/7/3 1/8/3 6/6/3
f 7/2/4 8/5/4 6/6/4 5/3/4
f 6/9/5 1/6/5 2/3/5 5/10/5
f 7/2/6 4/10/6 3/9/6 8/5/6
f 12/11/1 15/12/1 13/13/1 10/14/1
f 11/15/2 12/12/2 10/13/2 9/16/2
f 16/17/3 11/11/3 9/14/3 14/18/3
f 15/15/4 16/12/4 14/13/4 13/16/4
f 14/19/5 9/20/5 10/21/5 13/22/5
f 15/19/6 12/20/6 11/21/6 16/22/6
f 20/23/1 23/24/1 21/25/1 18/26/1
f 19/27/2 20/24/2 18/25/2 17/28/2
f 24/24/3 19/23/3 17/26/3 22/25/3
f 23/24/4 24/27/4 22/28/4 21/25/4
f 22/24/5 17/23/5 18/26/5 21/25/5
f 23/24/6 20/23/6 19/26/6 24/25/6
f 28/29/1 31/30/1 29/31/1 26/32/1
f 27/33/2 28/30/2 26/29/2 25/34/2
f 32/35/3 27/36/3 25/33/3 30/34/3
f 31/30/4 32/33/4 30/34/4 29/29/4
f 30/34/5 25/33/5 26/30/5 29/29/5
f 31/29/6 28/30/6 27/33/6 32/34/6
