# Blender 4.0.2
# www.blender.org
mtllib right_m_rod.mtl
o cube.001
v 1.187500 0.125000 4.375000
v 1.312500 0.125000 4.375000
v 1.187500 -0.125000 4.375000
v 1.312500 -0.125000 4.375000
v 1.312500 0.125000 0.125000
v 1.187500 0.125000 0.125000
v 1.312500 -0.125000 0.125000
v 1.187500 -0.125000 0.125000
v 1.312500 0.187500 4.750000
v 1.312500 0.187500 4.375000
v 1.312500 -0.187500 4.750000
v 1.312500 -0.187500 4.375000
v 1.187500 0.187500 4.375000
v 1.187500 0.187500 4.750000
v 1.187500 -0.187500 4.375000
v 1.187500 -0.187500 4.750000
vn 1.0000 -0.0000 -0.0000
vn -0.0000 -0.0000 1.0000
vn -1.0000 -0.0000 -0.0000
vn -0.0000 -0.0000 -1.0000
vn -0.0000 1.0000 -0.0000
vn -0.0000 -1.0000 -0.0000
vt 0.392857 0.812500
vt 1.000000 0.812500
vt 1.000000 0.848214
vt 0.392857 0.848214
vt 0.410714 0.812500
vt 0.410714 0.848214
vt 1.000000 0.794643
vt 0.392857 0.794643
vt 0.857143 0.008929
vt 0.839286 0.008929
vt 0.839286 0.062500
vt 0.857143 0.062500
vt 0.785714 0.008929
vt 0.785714 0.062500
s 0
usemtl m_a04509b2-9e79-7152-ac01-54b87f7e5258.055
f 4/1/1 7/2/1 5/3/1 2/4/1
f 3/1/2 4/5/2 2/6/2 1/4/2
f 8/1/3 3/2/3 1/3/3 6/4/3
f 7/1/4 8/5/4 6/6/4 5/4/4
f 6/1/5 1/2/5 2/7/5 5/8/5
f 7/8/6 4/7/6 3/2/6 8/1/6
f 12/9/4 15/10/4 13/11/4 10/12/4
f 11/10/1 12/13/1 10/14/1 9/11/1
f 16/9/2 11/10/2 9/11/2 14/12/2
f 15/10/3 16/13/3 14/14/3 13/11/3
f 14/9/5 9/10/5 10/11/5 13/12/5
f 15/9/6 12/10/6 11/11/6 16/12/6
