# Blender 4.1.1
# www.blender.org
mtllib left_m_rod.mtl
o cube.001
v -1.062500 0.125000 0.125000
v -1.187500 0.125000 0.125000
v -1.062500 -0.125000 0.125000
v -1.187500 -0.125000 0.125000
v -1.187500 0.125000 2.250000
v -1.062500 0.125000 2.250000
v -1.187500 -0.125000 2.250000
v -1.062500 -0.125000 2.250000
v -1.062500 0.187500 2.625000
v -1.062500 0.187500 2.250000
v -1.062500 -0.187500 2.625000
v -1.062500 -0.187500 2.250000
v -1.187500 0.187500 2.250000
v -1.187500 0.187500 2.625000
v -1.187500 -0.187500 2.250000
v -1.187500 -0.187500 2.625000
vn -1.0000 -0.0000 -0.0000
vn -0.0000 -0.0000 -1.0000
vn 1.0000 -0.0000 -0.0000
vn -0.0000 -0.0000 1.0000
vn -0.0000 1.0000 -0.0000
vn -0.0000 -1.0000 -0.0000
vt 0.973214 0.651786
vt 0.669643 0.651786
vt 0.669643 0.687500
vt 0.973214 0.687500
vt 0.955357 0.651786
vt 0.955357 0.687500
vt 0.687500 0.651786
vt 0.687500 0.687500
vt 0.973214 0.633929
vt 0.669643 0.633929
vt 0.839286 0.008929
vt 0.857143 0.008929
vt 0.857143 0.062500
vt 0.839286 0.062500
vt 0.785714 0.008929
vt 0.785714 0.062500
s 0
usemtl m_647a5394-0028-91ee-b79f-c60b1a88fde7.001
f 4/1/1 7/2/1 5/3/1 2/4/1
f 3/1/2 4/5/2 2/6/2 1/4/2
f 8/1/3 3/2/3 1/3/3 6/4/3
f 7/7/4 8/2/4 6/3/4 5/8/4
f 6/2/5 1/1/5 2/9/5 5/10/5
f 7/10/6 4/9/6 3/1/6 8/2/6
f 12/11/2 15/12/2 13/13/2 10/14/2
f 11/11/3 12/15/3 10/16/3 9/14/3
f 16/11/4 11/12/4 9/13/4 14/14/4
f 15/11/1 16/15/1 14/16/1 13/14/1
f 14/14/5 9/13/5 10/12/5 13/11/5
f 15/14/6 12/13/6 11/12/6 16/11/6
