# Blender 4.1.1
# www.blender.org
mtllib right_p_rod.mtl
o Rod
v 1.187500 1.375000 -2.625000
v 1.187500 1.375000 -3.875000
v 1.187500 1.125000 -2.625000
v 1.187500 1.125000 -3.875000
v 1.062500 1.375000 -3.875000
v 1.062500 1.375000 -2.625000
v 1.062500 1.125000 -3.875000
v 1.062500 1.125000 -2.625000
v 1.193750 1.443750 -2.243750
v 1.193750 1.443750 -2.631250
v 1.193750 1.056250 -2.243750
v 1.193750 1.056250 -2.631250
v 1.056250 1.443750 -2.631250
v 1.056250 1.443750 -2.243750
v 1.056250 1.056250 -2.631250
v 1.056250 1.056250 -2.243750
v 1.190625 1.565625 -2.246875
v 1.190625 1.565625 -2.628125
v 1.190625 1.496875 -2.246875
v 1.190625 1.496875 -2.628125
v 1.059375 1.565625 -2.628125
v 1.059375 1.565625 -2.246875
v 1.059375 1.496875 -2.628125
v 1.059375 1.496875 -2.246875
v 1.250000 1.375000 -2.312500
v 1.250000 1.375000 -2.562500
v 1.250000 1.125000 -2.312500
v 1.250000 1.125000 -2.562500
v 1.000000 1.375000 -2.562500
v 1.000000 1.375000 -2.312500
v 1.000000 1.125000 -2.562500
v 1.000000 1.125000 -2.312500
vn -0.0000 -0.0000 -1.0000
vn 1.0000 -0.0000 -0.0000
vn -0.0000 -0.0000 1.0000
vn -1.0000 -0.0000 -0.0000
vn -0.0000 1.0000 -0.0000
vn -0.0000 -1.0000 -0.0000
vt 0.937500 0.312500
vt 0.955357 0.312500
vt 0.955357 0.348214
vt 0.937500 0.348214
vt 0.794643 0.312500
vt 0.973214 0.312500
vt 0.973214 0.348214
vt 0.794643 0.348214
vt 0.812500 0.312500
vt 0.812500 0.348214
vt 0.794643 0.330357
vt 0.973214 0.330357
vt 0.964286 0.080357
vt 0.982143 0.080357
vt 0.982143 0.133929
vt 0.964286 0.133929
vt 0.946429 0.080357
vt 1.000000 0.080357
vt 1.000000 0.133929
vt 0.946429 0.133929
vt 0.928571 0.008929
vt 0.946429 0.008929
vt 0.946429 0.062500
vt 0.928571 0.062500
vt 0.625000 0.562500
vt 0.625000 0.553571
vt 0.616071 0.553571
vt 0.616071 0.562500
vt 0.571429 0.553571
vt 0.571429 0.562500
vt 0.580357 0.562500
vt 0.580357 0.553571
vt 0.892857 0.035714
vt 0.928571 0.035714
vt 0.928571 0.071429
vt 0.892857 0.071429
vt 0.857143 0.035714
vt 0.857143 0.071429
s 0
usemtl m_647a5394-0028-91ee-b79f-c60b1a88fde7.004
f 4/1/1 7/2/1 5/3/1 2/4/1
f 3/5/2 4/6/2 2/7/2 1/8/2
f 8/5/3 3/9/3 1/10/3 6/8/3
f 7/6/4 8/5/4 6/8/4 5/7/4
f 6/11/5 1/8/5 2/7/5 5/12/5
f 7/6/6 4/12/6 3/11/6 8/5/6
f 12/13/1 15/14/1 13/15/1 10/16/1
f 11/17/2 12/18/2 10/19/2 9/20/2
f 16/13/3 11/14/3 9/15/3 14/16/3
f 15/17/4 16/18/4 14/19/4 13/20/4
f 14/21/5 9/22/5 10/23/5 13/24/5
f 15/21/6 12/22/6 11/23/6 16/24/6
f 20/25/1 23/26/1 21/27/1 18/28/1
f 19/29/2 20/26/2 18/25/2 17/30/2
f 24/31/3 19/32/3 17/29/3 22/30/3
f 23/26/4 24/29/4 22/30/4 21/25/4
f 22/30/5 17/29/5 18/26/5 21/25/5
f 23/25/6 20/26/6 19/29/6 24/30/6
f 28/33/1 31/34/1 29/35/1 26/36/1
f 27/37/2 28/33/2 26/36/2 25/38/2
f 32/33/3 27/34/3 25/35/3 30/36/3
f 31/33/4 32/37/4 30/38/4 29/36/4
f 30/33/5 25/34/5 26/35/5 29/36/5
f 31/33/6 28/34/6 27/35/6 32/36/6
