# Blender 4.1.0
# www.blender.org
mtllib left_c_rod.mtl
o cube.007
v -1.125000 0.125000 0.125000
v -1.125000 0.125000 -0.125000
v -1.125000 -0.125000 0.125000
v -1.125000 -0.125000 -0.125000
v -1.375000 0.125000 -0.125000
v -1.375000 0.125000 0.125000
v -1.375000 -0.125000 -0.125000
v -1.375000 -0.125000 0.125000
v -1.062500 0.125000 -0.187500
v -1.062500 0.125000 -1.500000
v -1.062500 -0.125000 -0.187500
v -1.062500 -0.125000 -1.500000
v -1.187500 0.125000 -1.500000
v -1.187500 0.125000 -0.187500
v -1.187500 -0.125000 -1.500000
v -1.187500 -0.125000 -0.187500
v -1.062500 0.125000 2.187500
v -1.062500 0.125000 0.187500
v -1.062500 -0.125000 2.187500
v -1.062500 -0.125000 0.187500
v -1.187500 0.125000 0.187500
v -1.187500 0.125000 2.187500
v -1.187500 -0.125000 0.187500
v -1.187500 -0.125000 2.187500
v -1.062500 0.187500 -1.500000
v -1.062500 0.187500 -1.875000
v -1.062500 -0.187500 -1.500000
v -1.062500 -0.187500 -1.875000
v -1.187500 0.187500 -1.875000
v -1.187500 0.187500 -1.500000
v -1.187500 -0.187500 -1.875000
v -1.187500 -0.187500 -1.500000
v -0.943750 0.125000 -1.562500
v -0.943750 0.125000 -1.812500
v -0.943750 -0.125000 -1.562500
v -0.943750 -0.125000 -1.812500
v -1.193750 0.125000 -1.812500
v -1.193750 0.125000 -1.562500
v -1.193750 -0.125000 -1.812500
v -1.193750 -0.125000 -1.562500
v -1.062500 0.187500 0.187500
v -1.062500 0.187500 -0.187500
v -1.062500 -0.187500 0.187500
v -1.062500 -0.187500 -0.187500
v -1.187500 0.187500 -0.187500
v -1.187500 0.187500 0.187500
v -1.187500 -0.187500 -0.187500
v -1.187500 -0.187500 0.187500
v -1.062500 0.187500 2.562500
v -1.062500 0.187500 2.187500
v -1.062500 -0.187500 2.562500
v -1.062500 -0.187500 2.187500
v -1.187500 0.187500 2.187500
v -1.187500 0.187500 2.562500
v -1.187500 -0.187500 2.187500
v -1.187500 -0.187500 2.562500
v -1.000000 0.125000 2.500000
v -1.000000 0.125000 2.250000
v -1.000000 -0.125000 2.500000
v -1.000000 -0.125000 2.250000
v -1.250000 0.125000 2.250000
v -1.250000 0.125000 2.500000
v -1.250000 -0.125000 2.250000
v -1.250000 -0.125000 2.500000
vn -0.0000 -0.0000 -1.0000
vn 1.0000 -0.0000 -0.0000
vn -0.0000 -0.0000 1.0000
vn -1.0000 -0.0000 -0.0000
vn -0.0000 1.0000 -0.0000
vn -0.0000 -1.0000 -0.0000
vt 0.928571 0.071429
vt 0.892857 0.071429
vt 0.892857 0.035714
vt 0.928571 0.035714
vt 0.857143 0.035714
vt 0.857143 0.071429
vt 0.830357 0.410714
vt 0.812500 0.410714
vt 0.812500 0.446429
vt 0.830357 0.446429
vt 1.000000 0.410714
vt 1.000000 0.446429
vt 0.812500 0.428571
vt 1.000000 0.428571
vt 1.000000 0.419643
vt 1.000000 0.401786
vt 0.812500 0.401786
vt 0.812500 0.419643
vt 0.687500 0.651786
vt 0.669643 0.651786
vt 0.669643 0.687500
vt 0.687500 0.687500
vt 0.955357 0.651786
vt 0.955357 0.687500
vt 0.669643 0.669643
vt 0.955357 0.669643
vt 0.955357 0.660714
vt 0.955357 0.642857
vt 0.669643 0.642857
vt 0.669643 0.660714
vt 0.857143 0.062500
vt 0.839286 0.062500
vt 0.839286 0.008929
vt 0.857143 0.008929
vt 0.785714 0.008929
vt 0.785714 0.062500
s 0
usemtl m_ec6f6917-f447-215e-ebd8-0b7cdc5ce34d.002
f 4/1/1 7/2/1 5/3/1 2/4/1
f 3/5/2 4/3/2 2/2/2 1/6/2
f 8/3/3 3/4/3 1/1/3 6/2/3
f 7/3/4 8/2/4 6/6/4 5/5/4
f 6/3/5 1/4/5 2/1/5 5/2/5
f 7/3/6 4/4/6 3/1/6 8/2/6
f 12/7/1 15/8/1 13/9/1 10/10/1
f 11/11/2 12/8/2 10/9/2 9/12/2
f 16/7/3 11/8/3 9/9/3 14/10/3
f 15/11/4 16/8/4 14/9/4 13/12/4
f 14/9/5 9/13/5 10/14/5 13/12/5
f 15/15/6 12/16/6 11/17/6 16/18/6
f 20/19/1 23/20/1 21/21/1 18/22/1
f 19/23/2 20/20/2 18/21/2 17/24/2
f 24/19/3 19/20/3 17/21/3 22/22/3
f 23/23/4 24/20/4 22/21/4 21/24/4
f 22/21/5 17/25/5 18/26/5 21/24/5
f 23/27/6 20/28/6 19/29/6 24/30/6
f 28/31/1 31/32/1 29/33/1 26/34/1
f 27/35/2 28/33/2 26/32/2 25/36/2
f 32/33/3 27/34/3 25/31/3 30/32/3
f 31/33/4 32/32/4 30/36/4 29/35/4
f 30/33/5 25/34/5 26/31/5 29/32/5
f 31/33/6 28/34/6 27/31/6 32/32/6
f 36/1/1 39/2/1 37/3/1 34/4/1
f 35/5/2 36/3/2 34/2/2 33/6/2
f 40/3/3 35/4/3 33/1/3 38/2/3
f 39/3/4 40/2/4 38/6/4 37/5/4
f 38/3/5 33/4/5 34/1/5 37/2/5
f 39/3/6 36/4/6 35/1/6 40/2/6
f 44/31/1 47/32/1 45/33/1 42/34/1
f 43/35/2 44/33/2 42/32/2 41/36/2
f 48/33/3 43/34/3 41/31/3 46/32/3
f 47/33/4 48/32/4 46/36/4 45/35/4
f 46/33/5 41/34/5 42/31/5 45/32/5
f 47/33/6 44/34/6 43/31/6 48/32/6
f 52/31/1 55/32/1 53/33/1 50/34/1
f 51/35/2 52/33/2 50/32/2 49/36/2
f 56/33/3 51/34/3 49/31/3 54/32/3
f 55/33/4 56/32/4 54/36/4 53/35/4
f 54/33/5 49/34/5 50/31/5 53/32/5
f 55/33/6 52/34/6 51/31/6 56/32/6
f 60/1/1 63/2/1 61/3/1 58/4/1
f 59/5/2 60/3/2 58/2/2 57/6/2
f 64/3/3 59/4/3 57/1/3 62/2/3
f 63/3/4 64/2/4 62/6/4 61/5/4
f 62/3/5 57/4/5 58/1/5 61/2/5
f 63/3/6 60/4/6 59/1/6 64/2/6
