# Blender 4.1.0
# www.blender.org
mtllib right_c_rod.mtl
o cube.007
v 1.187500 0.187500 -1.500000
v 1.187500 0.187500 -1.875000
v 1.187500 -0.187500 -1.500000
v 1.187500 -0.187500 -1.875000
v 1.062500 0.187500 -1.875000
v 1.062500 0.187500 -1.500000
v 1.062500 -0.187500 -1.875000
v 1.062500 -0.187500 -1.500000
v 1.187500 0.125000 2.187500
v 1.187500 0.125000 0.187500
v 1.187500 -0.125000 2.187500
v 1.187500 -0.125000 0.187500
v 1.062500 0.125000 0.187500
v 1.062500 0.125000 2.187500
v 1.062500 -0.125000 0.187500
v 1.062500 -0.125000 2.187500
v 1.187500 0.125000 -0.187500
v 1.187500 0.125000 -1.500000
v 1.187500 -0.125000 -0.187500
v 1.187500 -0.125000 -1.500000
v 1.062500 0.125000 -1.500000
v 1.062500 0.125000 -0.187500
v 1.062500 -0.125000 -1.500000
v 1.062500 -0.125000 -0.187500
v 1.250000 0.125000 2.500000
v 1.250000 0.125000 2.250000
v 1.250000 -0.125000 2.500000
v 1.250000 -0.125000 2.250000
v 1.000000 0.125000 2.250000
v 1.000000 0.125000 2.500000
v 1.000000 -0.125000 2.250000
v 1.000000 -0.125000 2.500000
v 1.375000 0.125000 0.125000
v 1.375000 0.125000 -0.125000
v 1.375000 -0.125000 0.125000
v 1.375000 -0.125000 -0.125000
v 1.125000 0.125000 -0.125000
v 1.125000 0.125000 0.125000
v 1.125000 -0.125000 -0.125000
v 1.125000 -0.125000 0.125000
v 1.187500 0.187500 2.562500
v 1.187500 0.187500 2.187500
v 1.187500 -0.187500 2.562500
v 1.187500 -0.187500 2.187500
v 1.062500 0.187500 2.187500
v 1.062500 0.187500 2.562500
v 1.062500 -0.187500 2.187500
v 1.062500 -0.187500 2.562500
v 1.187500 0.187500 0.187500
v 1.187500 0.187500 -0.187500
v 1.187500 -0.187500 0.187500
v 1.187500 -0.187500 -0.187500
v 1.062500 0.187500 -0.187500
v 1.062500 0.187500 0.187500
v 1.062500 -0.187500 -0.187500
v 1.062500 -0.187500 0.187500
v 1.193750 0.125000 -1.562500
v 1.193750 0.125000 -1.812500
v 1.193750 -0.125000 -1.562500
v 1.193750 -0.125000 -1.812500
v 0.943750 0.125000 -1.812500
v 0.943750 0.125000 -1.562500
v 0.943750 -0.125000 -1.812500
v 0.943750 -0.125000 -1.562500
vn -0.0000 -0.0000 -1.0000
vn 1.0000 -0.0000 -0.0000
vn -0.0000 -0.0000 1.0000
vn -1.0000 -0.0000 -0.0000
vn -0.0000 1.0000 -0.0000
vn -0.0000 -1.0000 -0.0000
vt 0.839286 0.062500
vt 0.857143 0.062500
vt 0.857143 0.008929
vt 0.839286 0.008929
vt 0.785714 0.008929
vt 0.785714 0.062500
vt 0.669643 0.651786
vt 0.687500 0.651786
vt 0.687500 0.687500
vt 0.669643 0.687500
vt 0.955357 0.651786
vt 0.955357 0.687500
vt 0.669643 0.669643
vt 0.955357 0.669643
vt 0.955357 0.642857
vt 0.955357 0.660714
vt 0.669643 0.660714
vt 0.669643 0.642857
vt 0.812500 0.410714
vt 0.830357 0.410714
vt 0.830357 0.446429
vt 0.812500 0.446429
vt 1.000000 0.410714
vt 1.000000 0.446429
vt 0.812500 0.428571
vt 1.000000 0.428571
vt 1.000000 0.401786
vt 1.000000 0.419643
vt 0.812500 0.419643
vt 0.812500 0.401786
vt 0.892857 0.071429
vt 0.928571 0.071429
vt 0.928571 0.035714
vt 0.892857 0.035714
vt 0.857143 0.035714
vt 0.857143 0.071429
s 0
usemtl m_ec6f6917-f447-215e-ebd8-0b7cdc5ce34d.003
f 4/1/1 7/2/1 5/3/1 2/4/1
f 3/1/2 4/4/2 2/5/2 1/6/2
f 8/3/3 3/4/3 1/1/3 6/2/3
f 7/4/4 8/5/4 6/6/4 5/1/4
f 6/3/5 1/4/5 2/1/5 5/2/5
f 7/3/6 4/4/6 3/1/6 8/2/6
f 12/7/1 15/8/1 13/9/1 10/10/1
f 11/7/2 12/11/2 10/12/2 9/10/2
f 16/7/3 11/8/3 9/9/3 14/10/3
f 15/7/4 16/11/4 14/12/4 13/10/4
f 14/13/5 9/10/5 10/12/5 13/14/5
f 15/15/6 12/16/6 11/17/6 16/18/6
f 20/19/1 23/20/1 21/21/1 18/22/1
f 19/19/2 20/23/2 18/24/2 17/22/2
f 24/19/3 19/20/3 17/21/3 22/22/3
f 23/19/4 24/23/4 22/24/4 21/22/4
f 22/25/5 17/22/5 18/24/5 21/26/5
f 23/27/6 20/28/6 19/29/6 24/30/6
f 28/31/1 31/32/1 29/33/1 26/34/1
f 27/31/2 28/34/2 26/35/2 25/36/2
f 32/33/3 27/34/3 25/31/3 30/32/3
f 31/34/4 32/35/4 30/36/4 29/31/4
f 30/33/5 25/34/5 26/31/5 29/32/5
f 31/33/6 28/34/6 27/31/6 32/32/6
f 36/31/1 39/32/1 37/33/1 34/34/1
f 35/31/2 36/34/2 34/35/2 33/36/2
f 40/33/3 35/34/3 33/31/3 38/32/3
f 39/34/4 40/35/4 38/36/4 37/31/4
f 38/33/5 33/34/5 34/31/5 37/32/5
f 39/33/6 36/34/6 35/31/6 40/32/6
f 44/1/1 47/2/1 45/3/1 42/4/1
f 43/1/2 44/4/2 42/5/2 41/6/2
f 48/3/3 43/4/3 41/1/3 46/2/3
f 47/4/4 48/5/4 46/6/4 45/1/4
f 46/3/5 41/4/5 42/1/5 45/2/5
f 47/3/6 44/4/6 43/1/6 48/2/6
f 52/1/1 55/2/1 53/3/1 50/4/1
f 51/1/2 52/4/2 50/5/2 49/6/2
f 56/3/3 51/4/3 49/1/3 54/2/3
f 55/4/4 56/5/4 54/6/4 53/1/4
f 54/3/5 49/4/5 50/1/5 53/2/5
f 55/3/6 52/4/6 51/1/6 56/2/6
f 60/31/1 63/32/1 61/33/1 58/34/1
f 59/31/2 60/34/2 58/35/2 57/36/2
f 64/33/3 59/34/3 57/31/3 62/32/3
f 63/34/4 64/35/4 62/36/4 61/31/4
f 62/33/5 57/34/5 58/31/5 61/32/5
f 63/33/6 60/34/6 59/31/6 64/32/6
