# Blender 4.2.3 LTS
# www.blender.org
mtllib frame.mtl
o cube.040
v -0.500000 0.625000 1.625000
v -0.500000 0.625000 -1.625000
v -0.500000 0.562500 1.625000
v -0.500000 0.562500 -1.625000
v -0.687500 0.625000 -1.625000
v -0.687500 0.625000 1.625000
v -0.687500 0.562500 -1.625000
v -0.687500 0.562500 1.625000
v 0.437500 1.250000 0.250000
v 0.437500 1.250000 -0.250000
v 0.437500 0.750000 0.250000
v 0.437500 0.750000 -0.250000
v -0.437500 1.250000 -0.250000
v -0.437500 1.250000 0.250000
v -0.437500 0.750000 -0.250000
v -0.437500 0.750000 0.250000
v 0.312500 1.062500 -0.312500
v 0.312500 1.062500 -1.437500
v 0.312500 0.437500 -0.312500
v 0.312500 0.437500 -1.437500
v -0.312500 1.062500 -1.437500
v -0.312500 1.062500 -0.312500
v -0.312500 0.437500 -1.437500
v -0.312500 0.437500 -0.312500
v 0.437500 1.250000 -0.437500
v 0.437500 1.250000 -1.312500
v 0.437500 0.750000 -0.437500
v 0.437500 0.750000 -1.312500
v -0.437500 1.250000 -1.312500
v -0.437500 1.250000 -0.437500
v -0.437500 0.750000 -1.312500
v -0.437500 0.750000 -0.437500
v 0.312500 1.062500 -1.562500
v 0.312500 1.062500 -2.187500
v 0.312500 0.437500 -1.562500
v 0.312500 0.437500 -2.187500
v -0.312500 1.062500 -2.187500
v -0.312500 1.062500 -1.562500
v -0.312500 0.437500 -2.187500
v -0.312500 0.437500 -1.562500
v 0.093750 1.250000 -1.781250
v 0.093750 1.250000 -1.968750
v 0.093750 1.062500 -1.781250
v 0.093750 1.062500 -1.968750
v -0.093750 1.250000 -1.968750
v -0.093750 1.250000 -1.781250
v -0.093750 1.062500 -1.968750
v -0.093750 1.062500 -1.781250
v 0.437500 0.875000 -1.750000
v 0.437500 0.875000 -2.000000
v 0.437500 0.625000 -1.750000
v 0.437500 0.625000 -2.000000
v 0.312500 0.875000 -2.000000
v 0.312500 0.875000 -1.750000
v 0.312500 0.625000 -2.000000
v 0.312500 0.625000 -1.750000
v -0.312500 0.875000 -1.750000
v -0.312500 0.875000 -2.000000
v -0.312500 0.625000 -1.750000
v -0.312500 0.625000 -2.000000
v -0.437500 0.875000 -2.000000
v -0.437500 0.875000 -1.750000
v -0.437500 0.625000 -2.000000
v -0.437500 0.625000 -1.750000
v 0.125000 0.875000 -1.437500
v 0.125000 0.875000 -1.562500
v 0.125000 0.625000 -1.437500
v 0.125000 0.625000 -1.562500
v -0.125000 0.875000 -1.562500
v -0.125000 0.875000 -1.437500
v -0.125000 0.625000 -1.562500
v -0.125000 0.625000 -1.437500
v 0.312500 1.062500 0.312500
v 0.312500 1.062500 -0.312500
v 0.312500 0.437500 0.312500
v 0.312500 0.437500 -0.312500
v -0.312500 1.062500 -0.312500
v -0.312500 1.062500 0.312500
v -0.312500 0.437500 -0.312500
v -0.312500 0.437500 0.312500
v 0.250000 1.500000 0.250000
v 0.250000 1.500000 -0.250000
v 0.250000 1.250000 0.250000
v 0.250000 1.250000 -0.250000
v -0.250000 1.500000 -0.250000
v -0.250000 1.500000 0.250000
v -0.250000 1.250000 -0.250000
v -0.250000 1.250000 0.250000
v 0.687500 0.977652 1.995894
v 0.687500 1.312500 1.187500
v 0.687500 0.919910 1.971977
v 0.687500 1.254758 1.163582
v 0.500000 1.312500 1.187500
v 0.500000 0.977652 1.995894
v 0.500000 1.254758 1.163582
v 0.500000 0.919910 1.971977
v 0.687500 1.312500 0.562500
v 0.687500 1.312500 -0.562500
v 0.687500 1.250000 0.562500
v 0.687500 1.250000 -0.562500
v 0.500000 1.312500 -0.562500
v 0.500000 1.312500 0.562500
v 0.500000 1.250000 -0.562500
v 0.500000 1.250000 0.562500
v 0.687500 0.625000 1.625000
v 0.687500 0.625000 -1.625000
v 0.687500 0.562500 1.625000
v 0.687500 0.562500 -1.625000
v 0.500000 0.625000 -1.625000
v 0.500000 0.625000 1.625000
v 0.500000 0.562500 -1.625000
v 0.500000 0.562500 1.625000
v 0.445083 0.809359 1.187500
v 0.445083 0.809359 1.000000
v 0.533471 0.720971 1.187500
v 0.533471 0.720971 1.000000
v 0.224112 0.588388 1.000000
v 0.224112 0.588388 1.187500
v 0.312500 0.500000 1.000000
v 0.312500 0.500000 1.187500
v 0.445083 0.809359 0.750000
v 0.445083 0.809359 0.562500
v 0.533471 0.720971 0.750000
v 0.533471 0.720971 0.562500
v 0.224112 0.588388 0.562500
v 0.224112 0.588388 0.750000
v 0.312500 0.500000 0.562500
v 0.312500 0.500000 0.750000
v 0.687500 1.312500 -1.187500
v 0.687500 0.977652 -1.995895
v 0.687500 1.254757 -1.163582
v 0.687500 0.919909 -1.971977
v 0.500000 0.977652 -1.995895
v 0.500000 1.312500 -1.187500
v 0.500000 0.919909 -1.971977
v 0.500000 1.254757 -1.163582
v -0.431250 1.381250 -0.556250
v -0.431250 1.381250 -1.193750
v -0.431250 0.681250 -0.556250
v -0.431250 0.681250 -1.193750
v -0.756250 1.381250 -1.193750
v -0.756250 1.381250 -0.556250
v -0.756250 0.681250 -1.193750
v -0.756250 0.681250 -0.556250
v -0.437500 1.000000 -1.625000
v -0.437500 1.000000 -2.125000
v -0.437500 0.500000 -1.625000
v -0.437500 0.500000 -2.125000
v -0.750000 1.000000 -2.125000
v -0.750000 1.000000 -1.625000
v -0.750000 0.500000 -2.125000
v -0.750000 0.500000 -1.625000
v -0.431250 1.381250 1.193750
v -0.431250 1.381250 0.556250
v -0.431250 0.681250 1.193750
v -0.431250 0.681250 0.556250
v -0.756250 1.381250 0.556250
v -0.756250 1.381250 1.193750
v -0.756250 0.681250 0.556250
v -0.756250 0.681250 1.193750
v 0.437500 1.250000 1.312500
v 0.437500 1.250000 0.437500
v 0.437500 0.750000 1.312500
v 0.437500 0.750000 0.437500
v -0.437500 1.250000 0.437500
v -0.437500 1.250000 1.312500
v -0.437500 0.750000 0.437500
v -0.437500 0.750000 1.312500
v 0.312500 1.062500 1.437500
v 0.312500 1.062500 0.312500
v 0.312500 0.437500 1.437500
v 0.312500 0.437500 0.312500
v -0.312500 1.062500 0.312500
v -0.312500 1.062500 1.437500
v -0.312500 0.437500 0.312500
v -0.312500 0.437500 1.437500
v 0.312500 1.062500 2.187500
v 0.312500 1.062500 1.562500
v 0.312500 0.437500 2.187500
v 0.312500 0.437500 1.562500
v -0.312500 1.062500 1.562500
v -0.312500 1.062500 2.187500
v -0.312500 0.437500 1.562500
v -0.312500 0.437500 2.187500
v 0.093750 1.250000 1.968750
v 0.093750 1.250000 1.781250
v 0.093750 1.062500 1.968750
v 0.093750 1.062500 1.781250
v -0.093750 1.250000 1.781250
v -0.093750 1.250000 1.968750
v -0.093750 1.062500 1.781250
v -0.093750 1.062500 1.968750
v -0.437500 1.000000 2.125000
v -0.437500 1.000000 1.625000
v -0.437500 0.500000 2.125000
v -0.437500 0.500000 1.625000
v -0.750000 1.000000 1.625000
v -0.750000 1.000000 2.125000
v -0.750000 0.500000 1.625000
v -0.750000 0.500000 2.125000
v 0.750000 1.000000 2.125000
v 0.750000 1.000000 1.625000
v 0.750000 0.500000 2.125000
v 0.750000 0.500000 1.625000
v 0.437500 1.000000 1.625000
v 0.437500 1.000000 2.125000
v 0.437500 0.500000 1.625000
v 0.437500 0.500000 2.125000
v 0.756250 1.381250 1.193750
v 0.756250 1.381250 0.556250
v 0.756250 0.681250 1.193750
v 0.756250 0.681250 0.556250
v 0.431250 1.381250 0.556250
v 0.431250 1.381250 1.193750
v 0.431250 0.681250 0.556250
v 0.431250 0.681250 1.193750
v 0.756250 1.381250 -0.556250
v 0.756250 1.381250 -1.193750
v 0.756250 0.681250 -0.556250
v 0.756250 0.681250 -1.193750
v 0.431250 1.381250 -1.193750
v 0.431250 1.381250 -0.556250
v 0.431250 0.681250 -1.193750
v 0.431250 0.681250 -0.556250
v 0.750000 1.000000 -1.625000
v 0.750000 1.000000 -2.125000
v 0.750000 0.500000 -1.625000
v 0.750000 0.500000 -2.125000
v 0.437500 1.000000 -2.125000
v 0.437500 1.000000 -1.625000
v 0.437500 0.500000 -2.125000
v 0.437500 0.500000 -1.625000
v 0.445083 0.809359 -1.000000
v 0.445083 0.809359 -1.187500
v 0.533471 0.720971 -1.000000
v 0.533471 0.720971 -1.187500
v 0.224112 0.588388 -1.187500
v 0.224112 0.588388 -1.000000
v 0.312500 0.500000 -1.187500
v 0.312500 0.500000 -1.000000
v 0.445083 0.809359 -0.562500
v 0.445083 0.809359 -0.750000
v 0.533471 0.720971 -0.562500
v 0.533471 0.720971 -0.750000
v 0.224112 0.588388 -0.750000
v 0.224112 0.588388 -0.562500
v 0.312500 0.500000 -0.750000
v 0.312500 0.500000 -0.562500
v -0.224112 0.588388 -1.000000
v -0.224112 0.588388 -1.187500
v -0.312500 0.500000 -1.000000
v -0.312500 0.500000 -1.187500
v -0.445083 0.809359 -1.187500
v -0.445083 0.809359 -1.000000
v -0.533471 0.720971 -1.187500
v -0.533471 0.720971 -1.000000
v -0.224112 0.588388 -0.562500
v -0.224112 0.588388 -0.750000
v -0.312500 0.500000 -0.562500
v -0.312500 0.500000 -0.750000
v -0.445083 0.809359 -0.750000
v -0.445083 0.809359 -0.562500
v -0.533471 0.720971 -0.750000
v -0.533471 0.720971 -0.562500
v -0.224112 0.588388 0.750000
v -0.224112 0.588388 0.562500
v -0.312500 0.500000 0.750000
v -0.312500 0.500000 0.562500
v -0.445083 0.809359 0.562500
v -0.445083 0.809359 0.750000
v -0.533471 0.720971 0.562500
v -0.533471 0.720971 0.750000
v -0.224112 0.588388 1.187500
v -0.224112 0.588388 1.000000
v -0.312500 0.500000 1.187500
v -0.312500 0.500000 1.000000
v -0.445083 0.809359 1.000000
v -0.445083 0.809359 1.187500
v -0.533471 0.720971 1.000000
v -0.533471 0.720971 1.187500
v -0.500000 1.312500 -1.187500
v -0.500000 0.977652 -1.995895
v -0.500000 1.254757 -1.163582
v -0.500000 0.919909 -1.971977
v -0.687500 0.977652 -1.995895
v -0.687500 1.312500 -1.187500
v -0.687500 0.919909 -1.971977
v -0.687500 1.254757 -1.163582
v -0.500000 1.312500 0.562500
v -0.500000 1.312500 -0.562500
v -0.500000 1.250000 0.562500
v -0.500000 1.250000 -0.562500
v -0.687500 1.312500 -0.562500
v -0.687500 1.312500 0.562500
v -0.687500 1.250000 -0.562500
v -0.687500 1.250000 0.562500
v -0.500000 0.977652 1.995894
v -0.500000 1.312500 1.187500
v -0.500000 0.919910 1.971977
v -0.500000 1.254758 1.163582
v -0.687500 1.312500 1.187500
v -0.687500 0.977652 1.995894
v -0.687500 1.254758 1.163582
v -0.687500 0.919910 1.971977
v 0.125000 0.875000 1.562500
v 0.125000 0.875000 1.437500
v 0.125000 0.625000 1.562500
v 0.125000 0.625000 1.437500
v -0.125000 0.875000 1.437500
v -0.125000 0.875000 1.562500
v -0.125000 0.625000 1.437500
v -0.125000 0.625000 1.562500
v 0.437500 0.875000 2.000000
v 0.437500 0.875000 1.750000
v 0.437500 0.625000 2.000000
v 0.437500 0.625000 1.750000
v 0.312500 0.875000 1.750000
v 0.312500 0.875000 2.000000
v 0.312500 0.625000 1.750000
v 0.312500 0.625000 2.000000
v -0.312500 0.875000 2.000000
v -0.312500 0.875000 1.750000
v -0.312500 0.625000 2.000000
v -0.312500 0.625000 1.750000
v -0.437500 0.875000 1.750000
v -0.437500 0.875000 2.000000
v -0.437500 0.625000 1.750000
v -0.437500 0.625000 2.000000
vn -0.0000 -0.0000 -1.0000
vn 1.0000 -0.0000 -0.0000
vn -0.0000 -0.0000 1.0000
vn -1.0000 -0.0000 -0.0000
vn -0.0000 1.0000 -0.0000
vn -0.0000 -1.0000 -0.0000
vn -0.0000 0.3827 -0.9239
vn -0.0000 -0.3827 0.9239
vn -0.0000 0.9239 0.3827
vn -0.0000 -0.9239 -0.3827
vn 0.7071 0.7071 -0.0000
vn -0.7071 -0.7071 -0.0000
vn -0.7071 0.7071 -0.0000
vn 0.7071 -0.7071 -0.0000
vn -0.0000 -0.3827 -0.9239
vn -0.0000 0.3827 0.9239
vn -0.0000 0.9239 -0.3827
vn -0.0000 -0.9239 0.3827
vt 0.000000 0.937500
vt 0.187500 0.937500
vt 0.187500 1.000000
vt 0.000000 1.000000
vt 0.000000 0.677885
vt 0.250000 0.677885
vt 0.250000 0.682692
vt 0.000000 0.682692
vt 0.250000 0.687500
vt 0.000000 0.687500
vt 0.000000 0.692308
vt 0.250000 0.692308
vt 0.000000 0.000000
vt 0.291667 0.000000
vt 0.291667 0.166667
vt 0.000000 0.166667
vt 0.458333 0.166667
vt 0.458333 0.333333
vt 0.291667 0.333333
vt 0.000000 0.333333
vt 0.687500 0.687500
vt 1.000000 0.687500
vt 1.000000 1.000000
vt 0.687500 1.000000
vt 0.312500 0.000000
vt 0.312500 0.562500
vt 0.000000 0.562500
vt 0.062500 0.000000
vt 0.156250 0.000000
vt 0.156250 0.125000
vt 0.062500 0.125000
vt 0.312500 0.312500
vt 0.750000 0.312500
vt 0.750000 0.562500
vt 0.687500 0.562500
vt 0.437500 1.000000
vt 0.437500 0.562500
vt 0.937500 0.000000
vt 0.625000 0.000000
vt 0.625000 0.312500
vt 0.937500 0.312500
vt 0.625000 0.375000
vt 0.718750 0.375000
vt 0.718750 0.468750
vt 0.625000 0.468750
vt 0.812500 0.375000
vt 0.812500 0.468750
vt 0.000000 0.625000
vt 0.187500 0.625000
vt 0.187500 0.812500
vt 0.000000 0.812500
vt 0.625000 0.125000
vt 0.375000 0.125000
vt 0.375000 0.000000
vt 0.500000 0.218750
vt 1.000000 0.218750
vt 1.000000 0.500000
vt 0.500000 0.500000
vt 0.000000 0.750000
vt 0.250000 0.750000
vt 0.250000 0.500000
vt 0.000000 0.500000
vt 0.093750 0.000000
vt 0.187500 0.000000
vt 0.187500 0.125000
vt 0.093750 0.125000
vt 0.125000 0.000000
vt 0.125000 0.093750
vt 0.093750 0.093750
vt 0.125000 0.333333
vt 0.291667 0.416667
vt 0.125000 0.416667
vt 0.562500 0.812500
vt 0.729167 0.812500
vt 0.729167 0.979167
vt 0.562500 0.979167
vt 0.500000 1.000000
vt 0.000000 0.533654
vt 0.071154 0.533654
vt 0.071154 0.537500
vt 0.000000 0.537500
vt 0.000000 0.524038
vt 0.071154 0.524038
vt 0.071154 0.527885
vt 0.000000 0.527885
vt 0.086538 0.610577
vt 0.000000 0.610577
vt 0.000000 0.615385
vt 0.086538 0.615385
vt 0.000000 0.600962
vt 0.086538 0.600962
vt 0.086538 0.605769
vt 0.000000 0.605769
vt 0.812500 0.531250
vt 0.750000 0.531250
vt 0.750000 0.375000
vt 0.687500 0.625000
vt 0.718750 0.625000
vt 0.718750 0.687500
vt 0.906250 0.375000
vt 0.906250 0.531250
vt 0.375000 0.937500
vt 0.375000 1.000000
vt 0.812500 0.656250
vt 0.968750 0.656250
vt 0.968750 1.000000
vt 0.812500 1.000000
vt 0.500000 0.656250
vt 0.812500 0.500000
vt 0.656250 0.000000
vt 0.500000 0.000000
vt 0.500000 0.250000
vt 0.656250 0.250000
vt 0.343750 0.031250
vt 0.593750 0.031250
vt 0.593750 0.281250
vt 0.343750 0.281250
vt 0.812500 0.000000
vt 0.812500 0.250000
vt 0.750000 0.250000
vt 0.750000 0.500000
s 0
usemtl none.001
f 4/1/1 7/2/1 5/3/1 2/4/1
f 8/1/3 3/2/3 1/3/3 6/4/3
f 92/1/7 95/2/7 93/3/7 90/4/7
f 96/1/8 91/2/8 89/3/8 94/4/8
f 100/1/1 103/2/1 101/3/1 98/4/1
f 104/1/3 99/2/3 97/3/3 102/4/3
f 108/1/1 111/2/1 109/3/1 106/4/1
f 112/1/3 107/2/3 105/3/3 110/4/3
f 132/2/15 135/102/15 133/103/15 130/3/15
f 136/2/16 131/102/16 129/103/16 134/3/16
f 284/102/15 287/2/15 285/3/15 282/103/15
f 288/102/16 283/2/16 281/3/16 286/103/16
f 292/2/1 295/1/1 293/4/1 290/3/1
f 296/2/3 291/1/3 289/4/3 294/3/3
f 300/2/7 303/1/7 301/4/7 298/3/7
f 304/2/8 299/1/8 297/4/8 302/3/8
usemtl m_cef2cace-d399-3312-f09c-a6fc20c5d500
f 3/5/2 4/6/2 2/7/2 1/8/2
f 7/9/4 8/10/4 6/11/4 5/12/4
f 6/12/5 1/6/5 2/5/5 5/11/5
f 7/12/6 4/6/6 3/5/6 8/11/6
f 91/78/2 92/79/2 90/80/2 89/81/2
f 95/82/4 96/83/4 94/84/4 93/85/4
f 94/82/9 89/81/9 90/80/9 93/83/9
f 95/83/10 92/80/10 91/81/10 96/82/10
f 99/86/2 100/87/2 98/88/2 97/89/2
f 103/90/4 104/91/4 102/92/4 101/93/4
f 102/91/5 97/89/5 98/88/5 101/90/5
f 103/91/6 100/89/6 99/88/6 104/90/6
f 107/10/2 108/9/2 106/12/2 105/11/2
f 111/6/4 112/5/4 110/8/4 109/7/4
f 110/6/5 105/12/5 106/11/5 109/5/5
f 111/6/6 108/12/6 107/11/6 112/5/6
f 131/78/2 132/79/2 130/80/2 129/81/2
f 135/82/4 136/83/4 134/84/4 133/85/4
f 134/82/17 129/81/17 130/80/17 133/83/17
f 135/83/18 132/80/18 131/81/18 136/82/18
f 283/83/2 284/82/2 282/85/2 281/84/2
f 287/79/4 288/78/4 286/81/4 285/80/4
f 286/81/17 281/82/17 282/83/17 285/80/17
f 287/80/18 284/83/18 283/82/18 288/81/18
f 291/91/2 292/90/2 290/93/2 289/92/2
f 295/86/4 296/87/4 294/88/4 293/89/4
f 294/89/5 289/91/5 290/90/5 293/88/5
f 295/89/6 292/91/6 291/90/6 296/88/6
f 299/83/2 300/82/2 298/85/2 297/84/2
f 303/79/4 304/78/4 302/81/4 301/80/4
f 302/81/9 297/82/9 298/83/9 301/80/9
f 303/80/10 300/83/10 299/82/10 304/81/10
usemtl m_f717a10c-056c-64e3-3e10-1f95ab8de21e
f 12/13/1 15/14/1 13/15/1 10/16/1
f 11/17/2 12/18/2 10/19/2 9/15/2
f 16/13/3 11/14/3 9/15/3 14/16/3
f 15/17/4 16/18/4 14/19/4 13/15/4
f 14/16/5 9/15/5 10/19/5 13/20/5
f 15/16/6 12/15/6 11/19/6 16/20/6
f 84/70/1 87/19/1 85/71/1 82/72/1
f 83/70/2 84/19/2 82/71/2 81/72/2
f 88/70/3 83/19/3 81/71/3 86/72/3
f 87/70/4 88/19/4 86/71/4 85/72/4
f 86/73/5 81/74/5 82/75/5 85/76/5
f 87/62/6 84/58/6 83/77/6 88/4/6
usemtl m_e0ac4705-0fba-dce9-0804-8cef2b559576
f 20/21/1 23/22/1 21/23/1 18/24/1
f 19/25/2 20/26/2 18/27/2 17/13/2
f 23/25/4 24/26/4 22/27/4 21/13/4
f 22/13/5 17/25/5 18/26/5 21/27/5
f 23/13/6 20/25/6 19/26/6 24/27/6
f 28/32/1 31/33/1 29/34/1 26/26/1
f 27/35/2 28/24/2 26/36/2 25/37/2
f 32/32/3 27/33/3 25/34/3 30/26/3
f 31/35/4 32/24/4 30/36/4 29/37/4
f 30/37/5 25/27/5 26/4/5 29/36/5
f 31/37/6 28/27/6 27/4/6 32/36/6
f 36/38/1 39/39/1 37/40/1 34/41/1
f 35/25/2 36/39/2 34/40/2 33/32/2
f 40/25/3 35/39/3 33/40/3 38/32/3
f 39/25/4 40/39/4 38/40/4 37/32/4
f 38/40/5 33/41/5 34/38/5 37/39/5
f 39/40/6 36/41/6 35/38/6 40/39/6
f 75/39/2 76/38/2 74/41/2 73/40/2
f 79/39/4 80/38/4 78/41/4 77/40/4
f 78/40/5 73/41/5 74/38/5 77/39/5
f 79/39/6 76/38/6 75/41/6 80/40/6
f 116/46/1 119/94/1 117/95/1 114/96/1
f 115/97/11 116/98/11 114/99/11 113/21/11
f 120/46/3 115/94/3 113/95/3 118/96/3
f 119/97/12 120/98/12 118/99/12 117/21/12
f 118/100/13 113/101/13 114/94/13 117/46/13
f 119/100/14 116/101/14 115/94/14 120/46/14
f 124/46/1 127/94/1 125/95/1 122/96/1
f 123/97/11 124/98/11 122/99/11 121/21/11
f 128/46/3 123/94/3 121/95/3 126/96/3
f 127/97/12 128/98/12 126/99/12 125/21/12
f 126/100/13 121/101/13 122/94/13 125/46/13
f 127/100/14 124/101/14 123/94/14 128/46/14
f 147/114/2 148/115/2 146/116/2 145/117/2
f 164/33/1 167/32/1 165/26/1 162/34/1
f 163/24/2 164/35/2 162/37/2 161/36/2
f 168/33/3 163/32/3 161/26/3 166/34/3
f 167/24/4 168/35/4 166/37/4 165/36/4
f 166/36/5 161/4/5 162/27/5 165/37/5
f 167/36/6 164/4/6 163/27/6 168/37/6
f 171/26/2 172/25/2 170/13/2 169/27/2
f 176/22/3 171/21/3 169/24/3 174/23/3
f 175/26/4 176/25/4 174/13/4 173/27/4
f 174/27/5 169/26/5 170/25/5 173/13/5
f 175/27/6 172/26/6 171/25/6 176/13/6
f 180/39/1 183/25/1 181/32/1 178/40/1
f 179/39/2 180/25/2 178/32/2 177/40/2
f 184/39/3 179/38/3 177/41/3 182/40/3
f 183/39/4 184/25/4 182/32/4 181/40/4
f 182/39/5 177/38/5 178/41/5 181/40/5
f 183/39/6 180/38/6 179/41/6 184/40/6
f 195/115/2 196/114/2 194/117/2 193/116/2
f 207/114/4 208/115/4 206/116/4 205/117/4
f 231/115/4 232/114/4 230/117/4 229/116/4
f 236/46/1 239/94/1 237/95/1 234/96/1
f 235/97/11 236/98/11 234/99/11 233/21/11
f 240/46/3 235/94/3 233/95/3 238/96/3
f 239/97/12 240/98/12 238/99/12 237/21/12
f 238/100/13 233/101/13 234/94/13 237/46/13
f 239/100/14 236/101/14 235/94/14 240/46/14
f 244/46/1 247/94/1 245/95/1 242/96/1
f 243/97/11 244/98/11 242/99/11 241/21/11
f 248/46/3 243/94/3 241/95/3 246/96/3
f 247/97/12 248/98/12 246/99/12 245/21/12
f 246/100/13 241/101/13 242/94/13 245/46/13
f 247/100/14 244/101/14 243/94/14 248/46/14
f 252/94/1 255/46/1 253/96/1 250/95/1
f 251/98/14 252/97/14 250/21/14 249/99/14
f 256/94/3 251/46/3 249/96/3 254/95/3
f 255/98/13 256/97/13 254/21/13 253/99/13
f 254/101/11 249/100/11 250/46/11 253/94/11
f 255/101/12 252/100/12 251/46/12 256/94/12
f 260/94/1 263/46/1 261/96/1 258/95/1
f 259/98/14 260/97/14 258/21/14 257/99/14
f 264/94/3 259/46/3 257/96/3 262/95/3
f 263/98/13 264/97/13 262/21/13 261/99/13
f 262/101/11 257/100/11 258/46/11 261/94/11
f 263/101/12 260/100/12 259/46/12 264/94/12
f 268/94/1 271/46/1 269/96/1 266/95/1
f 267/98/14 268/97/14 266/21/14 265/99/14
f 272/94/3 267/46/3 265/96/3 270/95/3
f 271/98/13 272/97/13 270/21/13 269/99/13
f 270/101/11 265/100/11 266/46/11 269/94/11
f 271/101/12 268/100/12 267/46/12 272/94/12
f 276/94/1 279/46/1 277/96/1 274/95/1
f 275/98/14 276/97/14 274/21/14 273/99/14
f 280/94/3 275/46/3 273/96/3 278/95/3
f 279/98/13 280/97/13 278/21/13 277/99/13
f 278/101/11 273/100/11 274/46/11 277/94/11
f 279/101/12 276/100/12 275/46/12 280/94/12
usemtl m_4788cc9f-7512-d255-636b-0bf5a7f94e2a
f 24/28/3 19/29/3 17/30/3 22/31/3
f 76/63/1 79/64/1 77/65/1 74/66/1
f 80/63/3 75/67/3 73/68/3 78/69/3
f 140/104/1 143/105/1 141/106/1 138/107/1
f 139/108/2 140/104/2 138/107/2 137/77/2
f 144/104/3 139/105/3 137/106/3 142/107/3
f 143/108/4 144/104/4 142/107/4 141/77/4
f 142/109/5 137/104/5 138/108/5 141/58/5
f 143/109/6 140/104/6 139/108/6 144/58/6
f 148/110/1 151/111/1 149/112/1 146/113/1
f 152/110/3 147/118/3 145/119/3 150/113/3
f 151/112/4 152/120/4 150/121/4 149/58/4
f 150/113/5 145/119/5 146/118/5 149/110/5
f 151/111/6 148/110/6 147/113/6 152/112/6
f 156/105/1 159/104/1 157/107/1 154/106/1
f 155/104/2 156/108/2 154/77/2 153/107/2
f 160/105/3 155/104/3 153/107/3 158/106/3
f 159/104/4 160/108/4 158/77/4 157/107/4
f 158/58/5 153/108/5 154/104/5 157/109/5
f 159/58/6 156/108/6 155/104/6 160/109/6
f 172/29/1 175/28/1 173/31/1 170/30/1
f 196/118/1 199/110/1 197/113/1 194/119/1
f 200/111/3 195/110/3 193/113/3 198/112/3
f 199/120/4 200/112/4 198/58/4 197/121/4
f 198/110/5 193/118/5 194/119/5 197/113/5
f 199/112/6 196/113/6 195/110/6 200/111/6
f 204/110/1 207/118/1 205/119/1 202/113/1
f 203/112/2 204/120/2 202/121/2 201/58/2
f 208/110/3 203/111/3 201/112/3 206/113/3
f 206/118/5 201/110/5 202/113/5 205/119/5
f 207/113/6 204/112/6 203/111/6 208/110/6
f 212/104/1 215/105/1 213/106/1 210/107/1
f 211/108/2 212/104/2 210/107/2 209/77/2
f 216/104/3 211/105/3 209/106/3 214/107/3
f 215/108/4 216/104/4 214/107/4 213/77/4
f 214/108/5 209/58/5 210/109/5 213/104/5
f 215/108/6 212/58/6 211/109/6 216/104/6
f 220/105/1 223/104/1 221/107/1 218/106/1
f 219/104/2 220/108/2 218/77/2 217/107/2
f 224/105/3 219/104/3 217/107/3 222/106/3
f 223/104/4 224/108/4 222/77/4 221/107/4
f 222/104/5 217/109/5 218/58/5 221/108/5
f 223/104/6 220/109/6 219/58/6 224/108/6
f 228/111/1 231/110/1 229/113/1 226/112/1
f 227/120/2 228/112/2 226/58/2 225/121/2
f 232/118/3 227/110/3 225/113/3 230/119/3
f 230/119/5 225/113/5 226/110/5 229/118/5
f 231/110/6 228/111/6 227/112/6 232/113/6
usemtl m_d9d69c3a-5ba3-3bbe-30c9-f864775ef81e.001
f 44/42/1 47/43/1 45/44/1 42/45/1
f 43/42/2 44/43/2 42/44/2 41/45/2
f 48/42/3 43/43/3 41/44/3 46/45/3
f 47/42/4 48/43/4 46/44/4 45/45/4
f 46/43/5 41/46/5 42/47/5 45/44/5
f 47/48/6 44/49/6 43/50/6 48/51/6
f 188/43/1 191/42/1 189/45/1 186/44/1
f 187/43/2 188/42/2 186/45/2 185/44/2
f 192/43/3 187/42/3 185/45/3 190/44/3
f 191/43/4 192/42/4 190/45/4 189/44/4
f 190/44/5 185/47/5 186/46/5 189/43/5
f 191/51/6 188/50/6 187/49/6 192/48/6
usemtl m_c7eaf5d9-77af-7f7c-31ee-3bf5ba2d7259
f 52/39/1 55/52/1 53/53/1 50/54/1
f 51/55/2 52/56/2 50/57/2 49/58/2
f 56/39/3 51/52/3 49/53/3 54/54/3
f 55/55/4 56/56/4 54/57/4 53/58/4
f 54/39/5 49/52/5 50/53/5 53/54/5
f 55/39/6 52/52/6 51/53/6 56/54/6
f 60/39/1 63/52/1 61/53/1 58/54/1
f 59/55/2 60/56/2 58/57/2 57/58/2
f 64/39/3 59/52/3 57/53/3 62/54/3
f 63/55/4 64/56/4 62/57/4 61/58/4
f 62/39/5 57/52/5 58/53/5 61/54/5
f 63/39/6 60/52/6 59/53/6 64/54/6
f 68/59/1 71/60/1 69/61/1 66/62/1
f 67/39/2 68/52/2 66/53/2 65/54/2
f 72/59/3 67/60/3 65/61/3 70/62/3
f 71/39/4 72/52/4 70/53/4 69/54/4
f 70/54/5 65/39/5 66/52/5 69/53/5
f 71/54/6 68/39/6 67/52/6 72/53/6
f 308/60/1 311/59/1 309/62/1 306/61/1
f 307/52/2 308/39/2 306/54/2 305/53/2
f 312/60/3 307/59/3 305/62/3 310/61/3
f 311/52/4 312/39/4 310/54/4 309/53/4
f 310/53/5 305/52/5 306/39/5 309/54/5
f 311/53/6 308/52/6 307/39/6 312/54/6
f 316/52/1 319/39/1 317/54/1 314/53/1
f 315/56/2 316/55/2 314/58/2 313/57/2
f 320/52/3 315/39/3 313/54/3 318/53/3
f 319/56/4 320/55/4 318/58/4 317/57/4
f 318/54/5 313/53/5 314/52/5 317/39/5
f 319/54/6 316/53/6 315/52/6 320/39/6
f 324/52/1 327/39/1 325/54/1 322/53/1
f 323/56/2 324/55/2 322/58/2 321/57/2
f 328/52/3 323/39/3 321/54/3 326/53/3
f 327/56/4 328/55/4 326/58/4 325/57/4
f 326/54/5 321/53/5 322/52/5 325/39/5
f 327/54/6 324/53/6 323/52/6 328/39/6
