# Blender 4.1.0
# www.blender.org
mtllib left_c_rod.mtl
o cube.007
v -1.125000 0.125000 0.125000
v -1.125000 0.125000 -0.125000
v -1.125000 -0.125000 0.125000
v -1.125000 -0.125000 -0.125000
v -1.375000 0.125000 -0.125000
v -1.375000 0.125000 0.125000
v -1.375000 -0.125000 -0.125000
v -1.375000 -0.125000 0.125000
v -1.062500 0.187500 0.187500
v -1.062500 0.187500 -0.187500
v -1.062500 -0.187500 0.187500
v -1.062500 -0.187500 -0.187500
v -1.187500 0.187500 -0.187500
v -1.187500 0.187500 0.187500
v -1.187500 -0.187500 -0.187500
v -1.187500 -0.187500 0.187500
v -1.062500 0.125000 -0.187500
v -1.062500 0.125000 -2.062500
v -1.062500 -0.125000 -0.187500
v -1.062500 -0.125000 -2.062500
v -1.187500 0.125000 -2.062500
v -1.187500 0.125000 -0.187500
v -1.187500 -0.125000 -2.062500
v -1.187500 -0.125000 -0.187500
v -1.062500 0.187500 -2.062500
v -1.062500 0.187500 -2.437500
v -1.062500 -0.187500 -2.062500
v -1.062500 -0.187500 -2.437500
v -1.187500 0.187500 -2.437500
v -1.187500 0.187500 -2.062500
v -1.187500 -0.187500 -2.437500
v -1.187500 -0.187500 -2.062500
v -0.943750 0.125000 -2.125000
v -0.943750 0.125000 -2.375000
v -0.943750 -0.125000 -2.125000
v -0.943750 -0.125000 -2.375000
v -1.193750 0.125000 -2.375000
v -1.193750 0.125000 -2.125000
v -1.193750 -0.125000 -2.375000
v -1.193750 -0.125000 -2.125000
v -1.062500 0.125000 3.187500
v -1.062500 0.125000 0.187500
v -1.062500 -0.125000 3.187500
v -1.062500 -0.125000 0.187500
v -1.187500 0.125000 0.187500
v -1.187500 0.125000 3.187500
v -1.187500 -0.125000 0.187500
v -1.187500 -0.125000 3.187500
v -1.000000 0.125000 3.500000
v -1.000000 0.125000 3.250000
v -1.000000 -0.125000 3.500000
v -1.000000 -0.125000 3.250000
v -1.250000 0.125000 3.250000
v -1.250000 0.125000 3.500000
v -1.250000 -0.125000 3.250000
v -1.250000 -0.125000 3.500000
v -1.062500 0.187500 3.562500
v -1.062500 0.187500 3.187500
v -1.062500 -0.187500 3.562500
v -1.062500 -0.187500 3.187500
v -1.187500 0.187500 3.187500
v -1.187500 0.187500 3.562500
v -1.187500 -0.187500 3.187500
v -1.187500 -0.187500 3.562500
vn -0.0000 -0.0000 -1.0000
vn 1.0000 -0.0000 -0.0000
vn -0.0000 -0.0000 1.0000
vn -1.0000 -0.0000 -0.0000
vn -0.0000 1.0000 -0.0000
vn -0.0000 -1.0000 -0.0000
vt 0.928571 0.035714
vt 0.892857 0.035714
vt 0.892857 0.071429
vt 0.928571 0.071429
vt 0.857143 0.035714
vt 0.857143 0.071429
vt 0.839286 0.008929
vt 0.857143 0.008929
vt 0.857143 0.062500
vt 0.839286 0.062500
vt 0.785714 0.008929
vt 0.785714 0.062500
vt 0.839286 0.000000
vt 0.857143 0.000000
vt 0.857143 0.053571
vt 0.839286 0.053571
vt 0.982143 0.571429
vt 1.000000 0.571429
vt 1.000000 0.607143
vt 0.982143 0.607143
vt 0.732143 0.571429
vt 0.732143 0.607143
vt 0.750000 0.571429
vt 0.750000 0.607143
vt 1.000000 0.553571
vt 0.732143 0.553571
vt 0.705357 0.732143
vt 0.687500 0.732143
vt 0.687500 0.767857
vt 0.705357 0.767857
vt 0.866071 0.732143
vt 0.437500 0.732143
vt 0.437500 0.767857
vt 0.866071 0.767857
vt 0.455357 0.732143
vt 0.455357 0.767857
vt 0.437500 0.714286
vt 0.866071 0.714286
s 0
usemtl m_647a5394-0028-91ee-b79f-c60b1a88fde7.002
f 4/1/1 7/2/1 5/3/1 2/4/1
f 3/5/2 4/2/2 2/3/2 1/6/2
f 8/2/3 3/1/3 1/4/3 6/3/3
f 7/2/4 8/5/4 6/6/4 5/3/4
f 6/2/5 1/1/5 2/4/5 5/3/5
f 7/2/6 4/1/6 3/4/6 8/3/6
f 12/7/1 15/8/1 13/9/1 10/10/1
f 11/11/2 12/7/2 10/10/2 9/12/2
f 16/7/3 11/8/3 9/9/3 14/10/3
f 15/11/4 16/7/4 14/10/4 13/12/4
f 14/13/5 9/14/5 10/15/5 13/16/5
f 15/13/6 12/14/6 11/15/6 16/16/6
f 20/17/1 23/18/1 21/19/1 18/20/1
f 19/21/2 20/18/2 18/19/2 17/22/2
f 24/21/3 19/23/3 17/24/3 22/22/3
f 23/21/4 24/18/4 22/19/4 21/22/4
f 22/25/5 17/18/5 18/21/5 21/26/5
f 23/25/6 20/18/6 19/21/6 24/26/6
f 28/7/1 31/8/1 29/9/1 26/10/1
f 27/11/2 28/7/2 26/10/2 25/12/2
f 32/7/3 27/8/3 25/9/3 30/10/3
f 31/7/4 32/11/4 30/12/4 29/10/4
f 30/10/5 25/9/5 26/8/5 29/7/5
f 31/10/6 28/9/6 27/8/6 32/7/6
f 36/1/1 39/2/1 37/3/1 34/4/1
f 35/5/2 36/2/2 34/3/2 33/6/2
f 40/2/3 35/1/3 33/4/3 38/3/3
f 39/2/4 40/5/4 38/6/4 37/3/4
f 38/2/5 33/1/5 34/4/5 37/3/5
f 39/2/6 36/1/6 35/4/6 40/3/6
f 44/27/1 47/28/1 45/29/1 42/30/1
f 43/31/2 44/32/2 42/33/2 41/34/2
f 48/35/3 43/32/3 41/33/3 46/36/3
f 47/31/4 48/32/4 46/33/4 45/34/4
f 46/37/5 41/32/5 42/31/5 45/38/5
f 47/37/6 44/32/6 43/31/6 48/38/6
f 52/1/1 55/2/1 53/3/1 50/4/1
f 51/5/2 52/2/2 50/3/2 49/6/2
f 56/2/3 51/1/3 49/4/3 54/3/3
f 55/2/4 56/5/4 54/6/4 53/3/4
f 54/2/5 49/1/5 50/4/5 53/3/5
f 55/2/6 52/1/6 51/4/6 56/3/6
f 60/7/1 63/8/1 61/9/1 58/10/1
f 59/11/2 60/7/2 58/10/2 57/12/2
f 64/7/3 59/8/3 57/9/3 62/10/3
f 63/7/4 64/11/4 62/12/4 61/10/4
f 62/10/5 57/9/5 58/8/5 61/7/5
f 63/10/6 60/9/6 59/8/6 64/7/6
