# Blender 4.2.3 LTS
# www.blender.org
mtllib left_c_rod.mtl
o cube.013
v -1.062500 0.125000 -1.875000
v -1.062500 0.125000 -3.187500
v -1.062500 -0.125000 -1.875000
v -1.062500 -0.125000 -3.187500
v -1.187500 0.125000 -3.187500
v -1.187500 0.125000 -1.875000
v -1.187500 -0.125000 -3.187500
v -1.187500 -0.125000 -1.875000
v -1.062500 0.187500 -3.187500
v -1.062500 0.187500 -3.562500
v -1.062500 -0.187500 -3.187500
v -1.062500 -0.187500 -3.562500
v -1.187500 0.187500 -3.562500
v -1.187500 0.187500 -3.187500
v -1.187500 -0.187500 -3.562500
v -1.187500 -0.187500 -3.187500
v -1.062500 0.187500 -1.500000
v -1.062500 0.187500 -1.875000
v -1.062500 -0.187500 -1.500000
v -1.062500 -0.187500 -1.875000
v -1.187500 0.187500 -1.875000
v -1.187500 0.187500 -1.500000
v -1.187500 -0.187500 -1.875000
v -1.187500 -0.187500 -1.500000
v -1.062500 0.187500 0.187500
v -1.062500 0.187500 -0.187500
v -1.062500 -0.187500 0.187500
v -1.062500 -0.187500 -0.187500
v -1.187500 0.187500 -0.187500
v -1.187500 0.187500 0.187500
v -1.187500 -0.187500 -0.187500
v -1.187500 -0.187500 0.187500
v -1.062500 0.187500 1.875000
v -1.062500 0.187500 1.500000
v -1.062500 -0.187500 1.875000
v -1.062500 -0.187500 1.500000
v -1.187500 0.187500 1.500000
v -1.187500 0.187500 1.875000
v -1.187500 -0.187500 1.500000
v -1.187500 -0.187500 1.875000
v -1.062500 0.187500 3.562500
v -1.062500 0.187500 3.187500
v -1.062500 -0.187500 3.562500
v -1.062500 -0.187500 3.187500
v -1.187500 0.187500 3.187500
v -1.187500 0.187500 3.562500
v -1.187500 -0.187500 3.187500
v -1.187500 -0.187500 3.562500
v -1.187500 0.125000 3.500000
v -1.187500 0.125000 3.250000
v -1.187500 -0.125000 3.500000
v -1.187500 -0.125000 3.250000
v -1.250000 0.125000 3.250000
v -1.250000 0.125000 3.500000
v -1.250000 -0.125000 3.250000
v -1.250000 -0.125000 3.500000
v -1.187500 0.125000 1.812500
v -1.187500 0.125000 1.562500
v -1.187500 -0.125000 1.812500
v -1.187500 -0.125000 1.562500
v -1.250000 0.125000 1.562500
v -1.250000 0.125000 1.812500
v -1.250000 -0.125000 1.562500
v -1.250000 -0.125000 1.812500
v -1.187500 0.125000 0.125000
v -1.187500 0.125000 -0.125000
v -1.187500 -0.125000 0.125000
v -1.187500 -0.125000 -0.125000
v -1.250000 0.125000 -0.125000
v -1.250000 0.125000 0.125000
v -1.250000 -0.125000 -0.125000
v -1.250000 -0.125000 0.125000
v -1.187500 0.125000 -1.562500
v -1.187500 0.125000 -1.812500
v -1.187500 -0.125000 -1.562500
v -1.187500 -0.125000 -1.812500
v -1.250000 0.125000 -1.812500
v -1.250000 0.125000 -1.562500
v -1.250000 -0.125000 -1.812500
v -1.250000 -0.125000 -1.562500
v -1.187500 0.125000 -3.250000
v -1.187500 0.125000 -3.500000
v -1.187500 -0.125000 -3.250000
v -1.187500 -0.125000 -3.500000
v -1.250000 0.125000 -3.500000
v -1.250000 0.125000 -3.250000
v -1.250000 -0.125000 -3.500000
v -1.250000 -0.125000 -3.250000
v -1.062500 0.125000 3.187500
v -1.062500 0.125000 1.875000
v -1.062500 -0.125000 3.187500
v -1.062500 -0.125000 1.875000
v -1.187500 0.125000 1.875000
v -1.187500 0.125000 3.187500
v -1.187500 -0.125000 1.875000
v -1.187500 -0.125000 3.187500
v -1.062500 0.125000 1.500000
v -1.062500 0.125000 0.187500
v -1.062500 -0.125000 1.500000
v -1.062500 -0.125000 0.187500
v -1.187500 0.125000 0.187500
v -1.187500 0.125000 1.500000
v -1.187500 -0.125000 0.187500
v -1.187500 -0.125000 1.500000
v -1.062500 0.125000 -0.187500
v -1.062500 0.125000 -1.500000
v -1.062500 -0.125000 -0.187500
v -1.062500 -0.125000 -1.500000
v -1.187500 0.125000 -1.500000
v -1.187500 0.125000 -0.187500
v -1.187500 -0.125000 -1.500000
v -1.187500 -0.125000 -0.187500
vn -0.0000 -0.0000 -1.0000
vn 1.0000 -0.0000 -0.0000
vn -0.0000 -0.0000 1.0000
vn -1.0000 -0.0000 -0.0000
vn -0.0000 1.0000 -0.0000
vn -0.0000 -1.0000 -0.0000
vt 0.982143 0.410714
vt 1.000000 0.410714
vt 1.000000 0.446429
vt 0.982143 0.446429
vt 0.812500 0.410714
vt 0.812500 0.446429
vt 0.830357 0.410714
vt 0.848214 0.410714
vt 0.848214 0.446429
vt 0.830357 0.446429
vt 0.991071 0.410714
vt 0.991071 0.428571
vt 0.803571 0.428571
vt 0.803571 0.410714
vt 0.857143 0.062500
vt 0.839286 0.062500
vt 0.839286 0.008929
vt 0.857143 0.008929
vt 0.785714 0.008929
vt 0.785714 0.062500
vt 0.901786 0.071429
vt 0.892857 0.071429
vt 0.892857 0.035714
vt 0.901786 0.035714
vt 0.857143 0.035714
vt 0.857143 0.071429
vt 0.803571 0.446429
vt 0.991071 0.446429
s 0
usemtl m_a04509b2-9e79-7152-ac01-54b87f7e5258.004
f 4/1/1 7/2/1 5/3/1 2/4/1
f 3/5/2 4/2/2 2/3/2 1/6/2
f 8/7/3 3/8/3 1/9/3 6/10/3
f 7/5/4 8/2/4 6/3/4 5/6/4
f 6/11/5 1/12/5 2/13/5 5/14/5
f 7/11/6 4/12/6 3/13/6 8/14/6
f 12/15/1 15/16/1 13/17/1 10/18/1
f 11/19/2 12/17/2 10/16/2 9/20/2
f 16/17/3 11/18/3 9/15/3 14/16/3
f 15/17/4 16/16/4 14/20/4 13/19/4
f 14/17/5 9/18/5 10/15/5 13/16/5
f 15/17/6 12/18/6 11/15/6 16/16/6
f 20/15/1 23/16/1 21/17/1 18/18/1
f 19/19/2 20/17/2 18/16/2 17/20/2
f 24/17/3 19/18/3 17/15/3 22/16/3
f 23/17/4 24/16/4 22/20/4 21/19/4
f 22/17/5 17/18/5 18/15/5 21/16/5
f 23/17/6 20/18/6 19/15/6 24/16/6
f 28/15/1 31/16/1 29/17/1 26/18/1
f 27/19/2 28/17/2 26/16/2 25/20/2
f 32/17/3 27/18/3 25/15/3 30/16/3
f 31/17/4 32/16/4 30/20/4 29/19/4
f 30/17/5 25/18/5 26/15/5 29/16/5
f 31/17/6 28/18/6 27/15/6 32/16/6
f 36/15/1 39/16/1 37/17/1 34/18/1
f 35/19/2 36/17/2 34/16/2 33/20/2
f 40/17/3 35/18/3 33/15/3 38/16/3
f 39/17/4 40/16/4 38/20/4 37/19/4
f 38/17/5 33/18/5 34/15/5 37/16/5
f 39/17/6 36/18/6 35/15/6 40/16/6
f 44/15/1 47/16/1 45/17/1 42/18/1
f 43/19/2 44/17/2 42/16/2 41/20/2
f 48/17/3 43/18/3 41/15/3 46/16/3
f 47/17/4 48/16/4 46/20/4 45/19/4
f 46/17/5 41/18/5 42/15/5 45/16/5
f 47/17/6 44/18/6 43/15/6 48/16/6
f 52/21/1 55/22/1 53/23/1 50/24/1
f 51/25/2 52/23/2 50/22/2 49/26/2
f 56/23/3 51/24/3 49/21/3 54/22/3
f 55/23/4 56/22/4 54/26/4 53/25/4
f 54/23/5 49/24/5 50/21/5 53/22/5
f 55/23/6 52/24/6 51/21/6 56/22/6
f 60/21/1 63/22/1 61/23/1 58/24/1
f 59/25/2 60/23/2 58/22/2 57/26/2
f 64/23/3 59/24/3 57/21/3 62/22/3
f 63/23/4 64/22/4 62/26/4 61/25/4
f 62/23/5 57/24/5 58/21/5 61/22/5
f 63/23/6 60/24/6 59/21/6 64/22/6
f 68/21/1 71/22/1 69/23/1 66/24/1
f 67/25/2 68/23/2 66/22/2 65/26/2
f 72/23/3 67/24/3 65/21/3 70/22/3
f 71/23/4 72/22/4 70/26/4 69/25/4
f 70/23/5 65/24/5 66/21/5 69/22/5
f 71/23/6 68/24/6 67/21/6 72/22/6
f 76/21/1 79/22/1 77/23/1 74/24/1
f 75/25/2 76/23/2 74/22/2 73/26/2
f 80/23/3 75/24/3 73/21/3 78/22/3
f 79/23/4 80/22/4 78/26/4 77/25/4
f 78/23/5 73/24/5 74/21/5 77/22/5
f 79/23/6 76/24/6 75/21/6 80/22/6
f 84/21/1 87/22/1 85/23/1 82/24/1
f 83/25/2 84/23/2 82/22/2 81/26/2
f 88/23/3 83/24/3 81/21/3 86/22/3
f 87/23/4 88/22/4 86/26/4 85/25/4
f 86/23/5 81/24/5 82/21/5 85/22/5
f 87/23/6 84/24/6 83/21/6 88/22/6
f 92/2/1 95/1/1 93/4/1 90/3/1
f 91/11/2 92/14/2 90/27/2 89/28/2
f 96/7/3 91/5/3 89/6/3 94/10/3
f 95/11/4 96/14/4 94/27/4 93/28/4
f 94/28/5 89/12/5 90/13/5 93/27/5
f 95/11/6 92/12/6 91/13/6 96/14/6
f 100/2/1 103/1/1 101/4/1 98/3/1
f 99/11/2 100/14/2 98/27/2 97/28/2
f 104/7/3 99/5/3 97/6/3 102/10/3
f 103/11/4 104/14/4 102/27/4 101/28/4
f 102/28/5 97/12/5 98/13/5 101/27/5
f 103/11/6 100/12/6 99/13/6 104/14/6
f 108/1/1 111/2/1 109/3/1 106/4/1
f 107/5/2 108/2/2 106/3/2 105/6/2
f 112/7/3 107/8/3 105/9/3 110/10/3
f 111/5/4 112/2/4 110/3/4 109/6/4
f 110/11/5 105/12/5 106/13/5 109/14/5
f 111/11/6 108/12/6 107/13/6 112/14/6
