# Blender 4.2.3 LTS
# www.blender.org
mtllib right_c_rod.mtl
o cube.013
v 1.250000 0.125000 0.125000
v 1.250000 0.125000 -0.125000
v 1.250000 -0.125000 0.125000
v 1.250000 -0.125000 -0.125000
v 1.187500 0.125000 -0.125000
v 1.187500 0.125000 0.125000
v 1.187500 -0.125000 -0.125000
v 1.187500 -0.125000 0.125000
v 1.187500 0.187500 -3.187500
v 1.187500 0.187500 -3.562500
v 1.187500 -0.187500 -3.187500
v 1.187500 -0.187500 -3.562500
v 1.062500 0.187500 -3.562500
v 1.062500 0.187500 -3.187500
v 1.062500 -0.187500 -3.562500
v 1.062500 -0.187500 -3.187500
v 1.187500 0.187500 -1.500000
v 1.187500 0.187500 -1.875000
v 1.187500 -0.187500 -1.500000
v 1.187500 -0.187500 -1.875000
v 1.062500 0.187500 -1.875000
v 1.062500 0.187500 -1.500000
v 1.062500 -0.187500 -1.875000
v 1.062500 -0.187500 -1.500000
v 1.187500 0.187500 0.187500
v 1.187500 0.187500 -0.187500
v 1.187500 -0.187500 0.187500
v 1.187500 -0.187500 -0.187500
v 1.062500 0.187500 -0.187500
v 1.062500 0.187500 0.187500
v 1.062500 -0.187500 -0.187500
v 1.062500 -0.187500 0.187500
v 1.187500 0.187500 1.875000
v 1.187500 0.187500 1.500000
v 1.187500 -0.187500 1.875000
v 1.187500 -0.187500 1.500000
v 1.062500 0.187500 1.500000
v 1.062500 0.187500 1.875000
v 1.062500 -0.187500 1.500000
v 1.062500 -0.187500 1.875000
v 1.187500 0.187500 3.562500
v 1.187500 0.187500 3.187500
v 1.187500 -0.187500 3.562500
v 1.187500 -0.187500 3.187500
v 1.062500 0.187500 3.187500
v 1.062500 0.187500 3.562500
v 1.062500 -0.187500 3.187500
v 1.062500 -0.187500 3.562500
v 1.187500 0.125000 3.187500
v 1.187500 0.125000 1.875000
v 1.187500 -0.125000 3.187500
v 1.187500 -0.125000 1.875000
v 1.062500 0.125000 1.875000
v 1.062500 0.125000 3.187500
v 1.062500 -0.125000 1.875000
v 1.062500 -0.125000 3.187500
v 1.187500 0.125000 1.500000
v 1.187500 0.125000 0.187500
v 1.187500 -0.125000 1.500000
v 1.187500 -0.125000 0.187500
v 1.062500 0.125000 0.187500
v 1.062500 0.125000 1.500000
v 1.062500 -0.125000 0.187500
v 1.062500 -0.125000 1.500000
v 1.187500 0.125000 -0.187500
v 1.187500 0.125000 -1.500000
v 1.187500 -0.125000 -0.187500
v 1.187500 -0.125000 -1.500000
v 1.062500 0.125000 -1.500000
v 1.062500 0.125000 -0.187500
v 1.062500 -0.125000 -1.500000
v 1.062500 -0.125000 -0.187500
v 1.187500 0.125000 -1.875000
v 1.187500 0.125000 -3.187500
v 1.187500 -0.125000 -1.875000
v 1.187500 -0.125000 -3.187500
v 1.062500 0.125000 -3.187500
v 1.062500 0.125000 -1.875000
v 1.062500 -0.125000 -3.187500
v 1.062500 -0.125000 -1.875000
v 1.250000 0.125000 3.500000
v 1.250000 0.125000 3.250000
v 1.250000 -0.125000 3.500000
v 1.250000 -0.125000 3.250000
v 1.187500 0.125000 3.250000
v 1.187500 0.125000 3.500000
v 1.187500 -0.125000 3.250000
v 1.187500 -0.125000 3.500000
v 1.250000 0.125000 1.812500
v 1.250000 0.125000 1.562500
v 1.250000 -0.125000 1.812500
v 1.250000 -0.125000 1.562500
v 1.187500 0.125000 1.562500
v 1.187500 0.125000 1.812500
v 1.187500 -0.125000 1.562500
v 1.187500 -0.125000 1.812500
v 1.250000 0.125000 -1.562500
v 1.250000 0.125000 -1.812500
v 1.250000 -0.125000 -1.562500
v 1.250000 -0.125000 -1.812500
v 1.187500 0.125000 -1.812500
v 1.187500 0.125000 -1.562500
v 1.187500 -0.125000 -1.812500
v 1.187500 -0.125000 -1.562500
v 1.250000 0.125000 -3.250000
v 1.250000 0.125000 -3.500000
v 1.250000 -0.125000 -3.250000
v 1.250000 -0.125000 -3.500000
v 1.187500 0.125000 -3.500000
v 1.187500 0.125000 -3.250000
v 1.187500 -0.125000 -3.500000
v 1.187500 -0.125000 -3.250000
vn -0.0000 -0.0000 -1.0000
vn 1.0000 -0.0000 -0.0000
vn -0.0000 -0.0000 1.0000
vn -1.0000 -0.0000 -0.0000
vn -0.0000 1.0000 -0.0000
vn -0.0000 -1.0000 -0.0000
vt 0.892857 0.071429
vt 0.901786 0.071429
vt 0.901786 0.035714
vt 0.892857 0.035714
vt 0.857143 0.035714
vt 0.857143 0.071429
vt 0.839286 0.062500
vt 0.857143 0.062500
vt 0.857143 0.008929
vt 0.839286 0.008929
vt 0.785714 0.008929
vt 0.785714 0.062500
vt 0.982143 0.410714
vt 1.000000 0.410714
vt 1.000000 0.446429
vt 0.982143 0.446429
vt 0.803571 0.410714
vt 0.991071 0.410714
vt 0.991071 0.446429
vt 0.803571 0.446429
vt 0.812500 0.410714
vt 0.830357 0.410714
vt 0.830357 0.446429
vt 0.812500 0.446429
vt 0.991071 0.428571
vt 0.803571 0.428571
vt 0.991071 0.392857
vt 0.803571 0.392857
s 0
usemtl m_a04509b2-9e79-7152-ac01-54b87f7e5258.005
f 4/1/1 7/2/1 5/3/1 2/4/1
f 3/1/2 4/4/2 2/5/2 1/6/2
f 8/3/3 3/4/3 1/1/3 6/2/3
f 7/4/4 8/5/4 6/6/4 5/1/4
f 6/3/5 1/4/5 2/1/5 5/2/5
f 7/3/6 4/4/6 3/1/6 8/2/6
f 12/7/1 15/8/1 13/9/1 10/10/1
f 11/7/2 12/10/2 10/11/2 9/12/2
f 16/9/3 11/10/3 9/7/3 14/8/3
f 15/10/4 16/11/4 14/12/4 13/7/4
f 14/9/5 9/10/5 10/7/5 13/8/5
f 15/9/6 12/10/6 11/7/6 16/8/6
f 20/7/1 23/8/1 21/9/1 18/10/1
f 19/7/2 20/10/2 18/11/2 17/12/2
f 24/9/3 19/10/3 17/7/3 22/8/3
f 23/10/4 24/11/4 22/12/4 21/7/4
f 22/9/5 17/10/5 18/7/5 21/8/5
f 23/9/6 20/10/6 19/7/6 24/8/6
f 28/7/1 31/8/1 29/9/1 26/10/1
f 27/7/2 28/10/2 26/11/2 25/12/2
f 32/9/3 27/10/3 25/7/3 30/8/3
f 31/10/4 32/11/4 30/12/4 29/7/4
f 30/9/5 25/10/5 26/7/5 29/8/5
f 31/9/6 28/10/6 27/7/6 32/8/6
f 36/7/1 39/8/1 37/9/1 34/10/1
f 35/7/2 36/10/2 34/11/2 33/12/2
f 40/9/3 35/10/3 33/7/3 38/8/3
f 39/10/4 40/11/4 38/12/4 37/7/4
f 38/9/5 33/10/5 34/7/5 37/8/5
f 39/9/6 36/10/6 35/7/6 40/8/6
f 44/7/1 47/8/1 45/9/1 42/10/1
f 43/7/2 44/10/2 42/11/2 41/12/2
f 48/9/3 43/10/3 41/7/3 46/8/3
f 47/10/4 48/11/4 46/12/4 45/7/4
f 46/9/5 41/10/5 42/7/5 45/8/5
f 47/9/6 44/10/6 43/7/6 48/8/6
f 52/13/1 55/14/1 53/15/1 50/16/1
f 51/17/2 52/18/2 50/19/2 49/20/2
f 56/21/3 51/22/3 49/23/3 54/24/3
f 55/17/4 56/18/4 54/19/4 53/20/4
f 54/25/5 49/19/5 50/20/5 53/26/5
f 55/25/6 52/18/6 51/17/6 56/26/6
f 60/13/1 63/14/1 61/15/1 58/16/1
f 59/17/2 60/18/2 58/19/2 57/20/2
f 64/21/3 59/22/3 57/23/3 62/24/3
f 63/17/4 64/18/4 62/19/4 61/20/4
f 62/25/5 57/19/5 58/20/5 61/26/5
f 63/25/6 60/18/6 59/17/6 64/26/6
f 68/13/1 71/14/1 69/15/1 66/16/1
f 67/17/2 68/18/2 66/19/2 65/20/2
f 72/21/3 67/22/3 65/23/3 70/24/3
f 71/17/4 72/18/4 70/19/4 69/20/4
f 70/25/5 65/19/5 66/20/5 69/26/5
f 71/27/6 68/18/6 67/17/6 72/28/6
f 76/13/1 79/14/1 77/15/1 74/16/1
f 75/17/2 76/18/2 74/19/2 73/20/2
f 80/21/3 75/22/3 73/23/3 78/24/3
f 79/17/4 80/18/4 78/19/4 77/20/4
f 78/25/5 73/19/5 74/20/5 77/26/5
f 79/27/6 76/18/6 75/17/6 80/28/6
f 84/1/1 87/2/1 85/3/1 82/4/1
f 83/1/2 84/4/2 82/5/2 81/6/2
f 88/3/3 83/4/3 81/1/3 86/2/3
f 87/4/4 88/5/4 86/6/4 85/1/4
f 86/3/5 81/4/5 82/1/5 85/2/5
f 87/3/6 84/4/6 83/1/6 88/2/6
f 92/1/1 95/2/1 93/3/1 90/4/1
f 91/1/2 92/4/2 90/5/2 89/6/2
f 96/3/3 91/4/3 89/1/3 94/2/3
f 95/4/4 96/5/4 94/6/4 93/1/4
f 94/3/5 89/4/5 90/1/5 93/2/5
f 95/3/6 92/4/6 91/1/6 96/2/6
f 100/1/1 103/2/1 101/3/1 98/4/1
f 99/1/2 100/4/2 98/5/2 97/6/2
f 104/3/3 99/4/3 97/1/3 102/2/3
f 103/4/4 104/5/4 102/6/4 101/1/4
f 102/3/5 97/4/5 98/1/5 101/2/5
f 103/3/6 100/4/6 99/1/6 104/2/6
f 108/1/1 111/2/1 109/3/1 106/4/1
f 107/1/2 108/4/2 106/5/2 105/6/2
f 112/3/3 107/4/3 105/1/3 110/2/3
f 111/4/4 112/5/4 110/6/4 109/1/4
f 110/3/5 105/4/5 106/1/5 109/2/5
f 111/3/6 108/4/6 107/1/6 112/2/6
