# Blender 4.0.2
# www.blender.org
mtllib left_piston.mtl
o cube.017
v -1.062500 -0.312500 1.062500
v -1.062500 -0.312500 0.687500
v -1.062500 -0.437500 1.062500
v -1.062500 -0.437500 0.687500
v -1.187500 -0.312500 0.687500
v -1.187500 -0.312500 1.062500
v -1.187500 -0.437500 0.687500
v -1.187500 -0.437500 1.062500
v -1.062500 0.187500 -1.125000
v -1.062500 0.187500 -1.875000
v -1.062500 0.062500 -1.125000
v -1.062500 0.062500 -1.875000
v -1.187500 0.187500 -1.875000
v -1.187500 0.187500 -1.125000
v -1.187500 0.062500 -1.875000
v -1.187500 0.062500 -1.125000
v -1.062500 -0.062500 -1.125000
v -1.062500 -0.062500 -1.875000
v -1.062500 -0.187500 -1.125000
v -1.062500 -0.187500 -1.875000
v -1.187500 -0.062500 -1.875000
v -1.187500 -0.062500 -1.125000
v -1.187500 -0.187500 -1.875000
v -1.187500 -0.187500 -1.125000
v -1.062500 0.187500 0.625000
v -1.062500 0.187500 -0.625000
v -1.062500 0.062500 0.625000
v -1.062500 0.062500 -0.625000
v -1.187500 0.187500 -0.625000
v -1.187500 0.187500 0.625000
v -1.187500 0.062500 -0.625000
v -1.187500 0.062500 0.625000
v -1.062500 -0.062500 1.875000
v -1.062500 -0.062500 1.125000
v -1.062500 -0.187500 1.875000
v -1.062500 -0.187500 1.125000
v -1.187500 -0.062500 1.125000
v -1.187500 -0.062500 1.875000
v -1.187500 -0.187500 1.125000
v -1.187500 -0.187500 1.875000
v -1.062500 0.187500 1.875000
v -1.062500 0.187500 1.125000
v -1.062500 0.062500 1.875000
v -1.062500 0.062500 1.125000
v -1.187500 0.187500 1.125000
v -1.187500 0.187500 1.875000
v -1.187500 0.062500 1.125000
v -1.187500 0.062500 1.875000
v -1.062500 -0.062500 0.625000
v -1.062500 -0.062500 -0.625000
v -1.062500 -0.187500 0.625000
v -1.062500 -0.187500 -0.625000
v -1.187500 -0.062500 -0.625000
v -1.187500 -0.062500 0.625000
v -1.187500 -0.187500 -0.625000
v -1.187500 -0.187500 0.625000
v -1.062500 -0.312500 -0.687500
v -1.062500 -0.312500 -1.062500
v -1.062500 -0.437500 -0.687500
v -1.062500 -0.437500 -1.062500
v -1.187500 -0.312500 -1.062500
v -1.187500 -0.312500 -0.687500
v -1.187500 -0.437500 -1.062500
v -1.187500 -0.437500 -0.687500
v -1.062500 0.312500 -0.687500
v -1.062500 0.312500 -0.812500
v -1.062500 -0.312500 -0.687500
v -1.062500 -0.312500 -0.812500
v -1.187500 0.312500 -0.812500
v -1.187500 0.312500 -0.687500
v -1.187500 -0.312500 -0.812500
v -1.187500 -0.312500 -0.687500
v -1.062500 0.312500 -0.937500
v -1.062500 0.312500 -1.062500
v -1.062500 -0.312500 -0.937500
v -1.062500 -0.312500 -1.062500
v -1.187500 0.312500 -1.062500
v -1.187500 0.312500 -0.937500
v -1.187500 -0.312500 -1.062500
v -1.187500 -0.312500 -0.937500
v -1.062500 0.250000 -1.000000
v -1.062500 0.250000 -1.125000
v -1.062500 -0.250000 -1.000000
v -1.062500 -0.250000 -1.125000
v -1.250000 0.250000 -1.125000
v -1.250000 0.250000 -1.000000
v -1.250000 -0.250000 -1.125000
v -1.250000 -0.250000 -1.000000
v -1.062500 0.437500 -0.687500
v -1.062500 0.437500 -1.062500
v -1.062500 0.312500 -0.687500
v -1.062500 0.312500 -1.062500
v -1.187500 0.437500 -1.062500
v -1.187500 0.437500 -0.687500
v -1.187500 0.312500 -1.062500
v -1.187500 0.312500 -0.687500
v -1.062500 0.250000 -0.625000
v -1.062500 0.250000 -0.750000
v -1.062500 -0.250000 -0.625000
v -1.062500 -0.250000 -0.750000
v -1.250000 0.250000 -0.750000
v -1.250000 0.250000 -0.625000
v -1.250000 -0.250000 -0.750000
v -1.250000 -0.250000 -0.625000
v -1.062500 0.437500 1.062500
v -1.062500 0.437500 0.687500
v -1.062500 0.312500 1.062500
v -1.062500 0.312500 0.687500
v -1.187500 0.437500 0.687500
v -1.187500 0.437500 1.062500
v -1.187500 0.312500 0.687500
v -1.187500 0.312500 1.062500
v -1.062500 0.250000 1.125000
v -1.062500 0.250000 1.000000
v -1.062500 -0.250000 1.125000
v -1.062500 -0.250000 1.000000
v -1.250000 0.250000 1.000000
v -1.250000 0.250000 1.125000
v -1.250000 -0.250000 1.000000
v -1.250000 -0.250000 1.125000
v -1.062500 0.312500 1.062500
v -1.062500 0.312500 0.937500
v -1.062500 -0.312500 1.062500
v -1.062500 -0.312500 0.937500
v -1.187500 0.312500 0.937500
v -1.187500 0.312500 1.062500
v -1.187500 -0.312500 0.937500
v -1.187500 -0.312500 1.062500
v -1.062500 0.312500 0.812500
v -1.062500 0.312500 0.687500
v -1.062500 -0.312500 0.812500
v -1.062500 -0.312500 0.687500
v -1.187500 0.312500 0.687500
v -1.187500 0.312500 0.812500
v -1.187500 -0.312500 0.687500
v -1.187500 -0.312500 0.812500
v -1.062500 0.250000 0.750000
v -1.062500 0.250000 0.625000
v -1.062500 -0.250000 0.750000
v -1.062500 -0.250000 0.625000
v -1.250000 0.250000 0.625000
v -1.250000 0.250000 0.750000
v -1.250000 -0.250000 0.625000
v -1.250000 -0.250000 0.750000
vn -0.0000 -0.0000 -1.0000
vn -0.0000 -0.0000 1.0000
vn -1.0000 -0.0000 -0.0000
vn -0.0000 1.0000 -0.0000
vn -0.0000 -1.0000 -0.0000
vn 1.0000 -0.0000 -0.0000
vt 0.250000 0.812500
vt 0.187500 0.812500
vt 0.187500 0.875000
vt 0.250000 0.875000
vt 0.000000 0.500000
vt 0.187500 0.500000
vt 0.187500 0.562500
vt 0.000000 0.562500
vt 0.062500 0.687500
vt 0.125000 0.687500
vt 0.125000 0.875000
vt 0.062500 0.875000
vt 1.000000 0.375000
vt 1.000000 0.000000
vt 0.937500 0.000000
vt 0.937500 0.375000
vt 0.000000 0.968750
vt 0.625000 0.968750
vt 0.625000 0.906250
vt 0.000000 0.906250
vt 0.625000 0.937500
vt 0.625000 1.000000
vt 0.000000 1.000000
vt 0.000000 0.937500
vt 0.062500 0.000000
vt 0.187500 0.000000
vt 0.187500 0.125000
vt 0.062500 0.125000
vt 0.250000 0.562500
vt 0.125000 0.562500
vt 0.250000 0.531250
vt 0.187500 0.531250
vt 0.062500 0.562500
vt 0.000000 0.875000
vt 0.343750 0.687500
vt 0.250000 0.687500
vt 0.250000 0.937500
vt 0.343750 0.937500
vt 0.343750 1.000000
vt 0.093750 0.937500
vt 0.093750 1.000000
vt 0.125000 0.656250
vt 0.062500 0.656250
vt 0.187500 0.593750
vt 0.250000 0.593750
vt 0.187500 0.937500
s 0
usemtl m_4788cc9f-7512-d255-636b-0bf5a7f94e2a.002
f 4/1/1 7/2/1 5/3/1 2/4/1
f 8/2/2 3/1/2 1/4/2 6/3/2
f 7/5/3 8/6/3 6/7/3 5/8/3
f 6/9/4 1/10/4 2/11/4 5/12/4
f 7/9/5 4/10/5 3/11/5 8/12/5
f 11/13/6 12/14/6 10/15/6 9/16/6
f 15/14/3 16/13/3 14/16/3 13/15/3
f 14/16/4 9/13/4 10/14/4 13/15/4
f 15/15/5 12/14/5 11/13/5 16/16/5
f 19/13/6 20/14/6 18/15/6 17/16/6
f 23/14/3 24/13/3 22/16/3 21/15/3
f 22/16/4 17/13/4 18/14/4 21/15/4
f 23/15/5 20/14/5 19/13/5 24/16/5
f 35/14/6 36/13/6 34/16/6 33/15/6
f 40/25/2 35/26/2 33/27/2 38/28/2
f 39/13/3 40/14/3 38/15/3 37/16/3
f 38/15/4 33/14/4 34/13/4 37/16/4
f 39/16/5 36/13/5 35/14/5 40/15/5
f 43/14/6 44/13/6 42/16/6 41/15/6
f 48/25/2 43/26/2 41/27/2 46/28/2
f 47/13/3 48/14/3 46/15/3 45/16/3
f 46/15/4 41/14/4 42/13/4 45/16/4
f 47/16/5 44/13/5 43/14/5 48/15/5
f 60/1/1 63/2/1 61/3/1 58/4/1
f 64/2/2 59/1/2 57/4/2 62/3/2
f 63/5/3 64/6/3 62/7/3 61/8/3
f 62/9/4 57/10/4 58/11/4 61/12/4
f 63/9/5 60/10/5 59/11/5 64/12/5
f 68/29/1 71/7/1 69/3/1 66/4/1
f 72/7/2 67/29/2 65/4/2 70/3/2
f 71/30/3 72/7/3 70/3/3 69/11/3
f 70/25/4 65/26/4 66/27/4 69/28/4
f 71/25/5 68/26/5 67/27/5 72/28/5
f 76/31/1 79/32/1 77/3/1 74/4/1
f 80/7/2 75/29/2 73/4/2 78/3/2
f 79/8/3 80/33/3 78/12/3 77/34/3
f 78/25/4 73/26/4 74/27/4 77/28/4
f 79/25/5 76/26/5 75/27/5 80/28/5
f 84/35/1 87/36/1 85/37/1 82/38/1
f 88/36/2 83/35/2 81/38/2 86/37/2
f 87/39/3 88/38/3 86/40/3 85/41/3
f 86/30/4 81/42/4 82/43/4 85/33/4
f 87/33/5 84/43/5 83/42/5 88/30/5
f 92/31/1 95/32/1 93/44/1 90/45/1
f 96/32/2 91/31/2 89/45/2 94/44/2
f 95/34/3 96/3/3 94/46/3 93/24/3
f 94/9/4 89/10/4 90/11/4 93/12/4
f 95/9/5 92/10/5 91/11/5 96/12/5
f 100/35/1 103/36/1 101/37/1 98/38/1
f 104/36/2 99/35/2 97/38/2 102/37/2
f 103/38/3 104/39/3 102/41/3 101/40/3
f 102/33/4 97/43/4 98/42/4 101/30/4
f 103/30/5 100/42/5 99/43/5 104/33/5
f 108/31/1 111/32/1 109/44/1 106/45/1
f 112/32/2 107/31/2 105/45/2 110/44/2
f 111/34/3 112/3/3 110/46/3 109/24/3
f 110/9/4 105/10/4 106/11/4 109/12/4
f 111/9/5 108/10/5 107/11/5 112/12/5
f 116/35/1 119/36/1 117/37/1 114/38/1
f 120/36/2 115/35/2 113/38/2 118/37/2
f 119/38/3 120/39/3 118/41/3 117/40/3
f 118/33/4 113/43/4 114/42/4 117/30/4
f 119/30/5 116/42/5 115/43/5 120/33/5
f 124/29/1 127/7/1 125/3/1 122/4/1
f 128/7/2 123/29/2 121/4/2 126/3/2
f 127/30/3 128/7/3 126/3/3 125/11/3
f 126/25/4 121/26/4 122/27/4 125/28/4
f 127/25/5 124/26/5 123/27/5 128/28/5
f 132/31/1 135/32/1 133/3/1 130/4/1
f 136/7/2 131/29/2 129/4/2 134/3/2
f 135/8/3 136/33/3 134/12/3 133/34/3
f 134/25/4 129/26/4 130/27/4 133/28/4
f 135/25/5 132/26/5 131/27/5 136/28/5
f 140/35/1 143/36/1 141/37/1 138/38/1
f 144/36/2 139/35/2 137/38/2 142/37/2
f 143/39/3 144/38/3 142/40/3 141/41/3
f 142/30/4 137/42/4 138/43/4 141/33/4
f 143/33/5 140/43/5 139/42/5 144/30/5
usemtl m_04a6fa53-1279-32e6-7219-d4560b0aaf6d
f 27/17/6 28/18/6 26/19/6 25/20/6
f 31/20/3 32/19/3 30/18/3 29/17/3
f 30/21/4 25/22/4 26/23/4 29/24/4
f 31/21/5 28/22/5 27/23/5 32/24/5
f 51/17/6 52/18/6 50/19/6 49/20/6
f 55/20/3 56/19/3 54/18/3 53/17/3
f 54/21/4 49/22/4 50/23/4 53/24/4
f 55/21/5 52/22/5 51/23/5 56/24/5
