# Blender 4.0.2
# www.blender.org
mtllib right_pins.mtl
o cube.001
v 1.312500 0.125000 1.000000
v 1.312500 0.125000 0.750000
v 1.312500 -0.125000 1.000000
v 1.312500 -0.125000 0.750000
v 1.062500 0.125000 0.750000
v 1.062500 0.125000 1.000000
v 1.062500 -0.125000 0.750000
v 1.062500 -0.125000 1.000000
v 1.312500 0.125000 -0.750000
v 1.312500 0.125000 -1.000000
v 1.312500 -0.125000 -0.750000
v 1.312500 -0.125000 -1.000000
v 1.062500 0.125000 -1.000000
v 1.062500 0.125000 -0.750000
v 1.062500 -0.125000 -1.000000
v 1.062500 -0.125000 -0.750000
vn -0.0000 -0.0000 -1.0000
vn 1.0000 -0.0000 -0.0000
vn -0.0000 -0.0000 1.0000
vn -1.0000 -0.0000 -0.0000
vn -0.0000 1.0000 -0.0000
vn -0.0000 -1.0000 -0.0000
vt 0.375000 0.500000
vt 0.500000 0.500000
vt 0.500000 0.625000
vt 0.375000 0.625000
vt 0.250000 0.500000
vt 0.250000 0.625000
vt 0.062500 0.000000
vt 0.156250 0.000000
vt 0.156250 0.125000
vt 0.062500 0.125000
s 0
usemtl m_4788cc9f-7512-d255-636b-0bf5a7f94e2a.003
f 4/1/1 7/2/1 5/3/1 2/4/1
f 3/5/2 4/1/2 2/4/2 1/6/2
f 8/2/3 3/1/3 1/4/3 6/3/3
f 7/7/4 8/8/4 6/9/4 5/10/4
f 6/2/5 1/1/5 2/4/5 5/3/5
f 7/2/6 4/1/6 3/4/6 8/3/6
f 12/1/1 15/2/1 13/3/1 10/4/1
f 11/5/2 12/1/2 10/4/2 9/6/2
f 16/2/3 11/1/3 9/4/3 14/3/3
f 15/7/4 16/8/4 14/9/4 13/10/4
f 14/2/5 9/1/5 10/4/5 13/3/5
f 15/2/6 12/1/6 11/4/6 16/3/6
