# Blender 4.0.2
# www.blender.org
mtllib left_piston.mtl
o cube.025
v -1.187500 -0.500000 2.000000
v -1.187500 -0.500000 2.500000
v -1.187500 -0.625000 2.000000
v -1.187500 -0.625000 2.500000
v -1.062500 -0.500000 2.500000
v -1.062500 -0.500000 2.000000
v -1.062500 -0.625000 2.500000
v -1.062500 -0.625000 2.000000
v -1.062500 0.312500 1.937500
v -1.062500 0.312500 0.312500
v -1.062500 0.125000 1.937500
v -1.062500 0.125000 0.312500
v -1.187500 0.312500 0.312500
v -1.187500 0.312500 1.937500
v -1.187500 0.125000 0.312500
v -1.187500 0.125000 1.937500
v -1.062500 -0.125000 1.937500
v -1.062500 -0.125000 0.312500
v -1.062500 -0.312500 1.937500
v -1.062500 -0.312500 0.312500
v -1.187500 -0.125000 0.312500
v -1.187500 -0.125000 1.937500
v -1.187500 -0.312500 0.312500
v -1.187500 -0.312500 1.937500
v -1.062500 0.312500 -0.312500
v -1.062500 0.312500 -1.937500
v -1.062500 0.125000 -0.312500
v -1.062500 0.125000 -1.937500
v -1.187500 0.312500 -1.937500
v -1.187500 0.312500 -0.312500
v -1.187500 0.125000 -1.937500
v -1.187500 0.125000 -0.312500
v -1.062500 -0.125000 -0.312500
v -1.062500 -0.125000 -1.937500
v -1.062500 -0.312500 -0.312500
v -1.062500 -0.312500 -1.937500
v -1.187500 -0.125000 -1.937500
v -1.187500 -0.125000 -0.312500
v -1.187500 -0.312500 -1.937500
v -1.187500 -0.312500 -0.312500
v -1.062500 0.312500 -2.562500
v -1.062500 0.312500 -3.687500
v -1.062500 0.125000 -2.562500
v -1.062500 0.125000 -3.687500
v -1.187500 0.312500 -3.687500
v -1.187500 0.312500 -2.562500
v -1.187500 0.125000 -3.687500
v -1.187500 0.125000 -2.562500
v -1.062500 -0.125000 -2.562500
v -1.062500 -0.125000 -3.687500
v -1.062500 -0.312500 -2.562500
v -1.062500 -0.312500 -3.687500
v -1.187500 -0.125000 -3.687500
v -1.187500 -0.125000 -2.562500
v -1.187500 -0.312500 -3.687500
v -1.187500 -0.312500 -2.562500
v -1.062500 0.312500 3.687500
v -1.062500 0.312500 2.562500
v -1.062500 0.125000 3.687500
v -1.062500 0.125000 2.562500
v -1.187500 0.312500 2.562500
v -1.187500 0.312500 3.687500
v -1.187500 0.125000 2.562500
v -1.187500 0.125000 3.687500
v -1.062500 -0.125000 3.687500
v -1.062500 -0.125000 2.562500
v -1.062500 -0.312500 3.687500
v -1.062500 -0.312500 2.562500
v -1.187500 -0.125000 2.562500
v -1.187500 -0.125000 3.687500
v -1.187500 -0.312500 2.562500
v -1.187500 -0.312500 3.687500
v -1.187500 0.625000 -0.250000
v -1.187500 0.625000 0.250000
v -1.187500 0.500000 -0.250000
v -1.187500 0.500000 0.250000
v -1.062500 0.625000 0.250000
v -1.062500 0.625000 -0.250000
v -1.062500 0.500000 0.250000
v -1.062500 0.500000 -0.250000
v -1.187500 0.500000 -0.250000
v -1.187500 0.500000 -0.125000
v -1.187500 -0.500000 -0.250000
v -1.187500 -0.500000 -0.125000
v -1.062500 0.500000 -0.125000
v -1.062500 0.500000 -0.250000
v -1.062500 -0.500000 -0.125000
v -1.062500 -0.500000 -0.250000
v -1.187500 0.500000 0.125000
v -1.187500 0.500000 0.250000
v -1.187500 -0.500000 0.125000
v -1.187500 -0.500000 0.250000
v -1.062500 0.500000 0.250000
v -1.062500 0.500000 0.125000
v -1.062500 -0.500000 0.250000
v -1.062500 -0.500000 0.125000
v -1.250000 0.375000 0.187500
v -1.250000 0.375000 0.312500
v -1.250000 -0.375000 0.187500
v -1.250000 -0.375000 0.312500
v -1.062500 0.375000 0.312500
v -1.062500 0.375000 0.187500
v -1.062500 -0.375000 0.312500
v -1.062500 -0.375000 0.187500
v -1.250000 0.375000 -0.312500
v -1.250000 0.375000 -0.187500
v -1.250000 -0.375000 -0.312500
v -1.250000 -0.375000 -0.187500
v -1.062500 0.375000 -0.187500
v -1.062500 0.375000 -0.312500
v -1.062500 -0.375000 -0.187500
v -1.062500 -0.375000 -0.312500
v -1.187500 -0.500000 -0.250000
v -1.187500 -0.500000 0.250000
v -1.187500 -0.625000 -0.250000
v -1.187500 -0.625000 0.250000
v -1.062500 -0.500000 0.250000
v -1.062500 -0.500000 -0.250000
v -1.062500 -0.625000 0.250000
v -1.062500 -0.625000 -0.250000
v -1.250000 0.375000 -2.062500
v -1.250000 0.375000 -1.937500
v -1.250000 -0.375000 -2.062500
v -1.250000 -0.375000 -1.937500
v -1.062500 0.375000 -1.937500
v -1.062500 0.375000 -2.062500
v -1.062500 -0.375000 -1.937500
v -1.062500 -0.375000 -2.062500
v -1.187500 0.625000 -2.500000
v -1.187500 0.625000 -2.000000
v -1.187500 0.500000 -2.500000
v -1.187500 0.500000 -2.000000
v -1.062500 0.625000 -2.000000
v -1.062500 0.625000 -2.500000
v -1.062500 0.500000 -2.000000
v -1.062500 0.500000 -2.500000
v -1.187500 0.500000 -2.125000
v -1.187500 0.500000 -2.000000
v -1.187500 -0.500000 -2.125000
v -1.187500 -0.500000 -2.000000
v -1.062500 0.500000 -2.000000
v -1.062500 0.500000 -2.125000
v -1.062500 -0.500000 -2.000000
v -1.062500 -0.500000 -2.125000
v -1.187500 0.500000 -2.500000
v -1.187500 0.500000 -2.375000
v -1.187500 -0.500000 -2.500000
v -1.187500 -0.500000 -2.375000
v -1.062500 0.500000 -2.375000
v -1.062500 0.500000 -2.500000
v -1.062500 -0.500000 -2.375000
v -1.062500 -0.500000 -2.500000
v -1.250000 0.375000 -2.562500
v -1.250000 0.375000 -2.437500
v -1.250000 -0.375000 -2.562500
v -1.250000 -0.375000 -2.437500
v -1.062500 0.375000 -2.437500
v -1.062500 0.375000 -2.562500
v -1.062500 -0.375000 -2.437500
v -1.062500 -0.375000 -2.562500
v -1.187500 -0.500000 -2.500000
v -1.187500 -0.500000 -2.000000
v -1.187500 -0.625000 -2.500000
v -1.187500 -0.625000 -2.000000
v -1.062500 -0.500000 -2.000000
v -1.062500 -0.500000 -2.500000
v -1.062500 -0.625000 -2.000000
v -1.062500 -0.625000 -2.500000
v -1.250000 0.375000 2.437500
v -1.250000 0.375000 2.562500
v -1.250000 -0.375000 2.437500
v -1.250000 -0.375000 2.562500
v -1.062500 0.375000 2.562500
v -1.062500 0.375000 2.437500
v -1.062500 -0.375000 2.562500
v -1.062500 -0.375000 2.437500
v -1.187500 0.625000 2.000000
v -1.187500 0.625000 2.500000
v -1.187500 0.500000 2.000000
v -1.187500 0.500000 2.500000
v -1.062500 0.625000 2.500000
v -1.062500 0.625000 2.000000
v -1.062500 0.500000 2.500000
v -1.062500 0.500000 2.000000
v -1.187500 0.500000 2.375000
v -1.187500 0.500000 2.500000
v -1.187500 -0.500000 2.375000
v -1.187500 -0.500000 2.500000
v -1.062500 0.500000 2.500000
v -1.062500 0.500000 2.375000
v -1.062500 -0.500000 2.500000
v -1.062500 -0.500000 2.375000
v -1.187500 0.500000 2.000000
v -1.187500 0.500000 2.125000
v -1.187500 -0.500000 2.000000
v -1.187500 -0.500000 2.125000
v -1.062500 0.500000 2.125000
v -1.062500 0.500000 2.000000
v -1.062500 -0.500000 2.125000
v -1.062500 -0.500000 2.000000
v -1.250000 0.375000 1.937500
v -1.250000 0.375000 2.062500
v -1.250000 -0.375000 1.937500
v -1.250000 -0.375000 2.062500
v -1.062500 0.375000 2.062500
v -1.062500 0.375000 1.937500
v -1.062500 -0.375000 2.062500
v -1.062500 -0.375000 1.937500
vn -0.0000 -0.0000 1.0000
vn -1.0000 -0.0000 -0.0000
vn -0.0000 -0.0000 -1.0000
vn -0.0000 1.0000 -0.0000
vn -0.0000 -1.0000 -0.0000
vn 1.0000 -0.0000 -0.0000
vt 0.187500 0.750000
vt 0.250000 0.750000
vt 0.250000 0.687500
vt 0.187500 0.687500
vt 0.000000 0.812500
vt 0.250000 0.812500
vt 0.000000 0.750000
vt 0.156250 0.437500
vt 0.093750 0.437500
vt 0.093750 0.687500
vt 0.156250 0.687500
vt 0.062500 0.906250
vt 0.125000 0.906250
vt 0.125000 1.000000
vt 0.062500 1.000000
vt 0.000000 0.093750
vt 0.812500 0.093750
vt 0.812500 0.187500
vt 0.000000 0.187500
vt 0.812500 0.125000
vt 0.000000 0.125000
vt 0.000000 0.156250
vt 0.812500 0.156250
vt 0.562500 0.000000
vt 0.000000 0.000000
vt 0.562500 0.093750
vt 0.562500 0.031250
vt 0.000000 0.031250
vt 0.000000 0.062500
vt 0.562500 0.062500
vt 0.187500 0.187500
vt 0.250000 0.187500
vt 0.062500 0.187500
vt 0.062500 0.687500
vt 0.000000 0.687500
vt 0.343750 0.187500
vt 0.250000 0.562500
vt 0.343750 0.562500
vt 0.593750 0.218750
vt 0.593750 0.281250
vt 0.968750 0.281250
vt 0.968750 0.218750
vt 0.093750 0.406250
vt 0.093750 0.312500
vt 0.156250 0.312500
vt 0.156250 0.406250
s 0
usemtl m_093b78b2-90a8-d163-1165-ac14f4079509.002
f 4/1/1 7/2/1 5/3/1 2/4/1
f 3/5/2 4/6/2 2/2/2 1/7/2
f 8/2/3 3/1/3 1/4/3 6/3/3
f 6/8/4 1/9/4 2/10/4 5/11/4
f 7/8/5 4/9/5 3/10/5 8/11/5
f 12/12/3 15/13/3 13/14/3 10/15/3
f 11/16/6 12/17/6 10/18/6 9/19/6
f 16/12/1 11/13/1 9/14/1 14/15/1
f 15/16/2 16/17/2 14/18/2 13/19/2
f 14/18/4 9/20/4 10/21/4 13/19/4
f 15/16/5 12/22/5 11/23/5 16/17/5
f 20/12/3 23/13/3 21/14/3 18/15/3
f 19/16/6 20/17/6 18/18/6 17/19/6
f 24/12/1 19/13/1 17/14/1 22/15/1
f 23/16/2 24/17/2 22/18/2 21/19/2
f 22/18/4 17/20/4 18/21/4 21/19/4
f 23/16/5 20/22/5 19/23/5 24/17/5
f 28/12/3 31/13/3 29/14/3 26/15/3
f 27/16/6 28/17/6 26/18/6 25/19/6
f 32/12/1 27/13/1 25/14/1 30/15/1
f 31/16/2 32/17/2 30/18/2 29/19/2
f 30/18/4 25/20/4 26/21/4 29/19/4
f 31/16/5 28/22/5 27/23/5 32/17/5
f 36/12/3 39/13/3 37/14/3 34/15/3
f 35/16/6 36/17/6 34/18/6 33/19/6
f 40/12/1 35/13/1 33/14/1 38/15/1
f 39/16/2 40/17/2 38/18/2 37/19/2
f 38/18/4 33/20/4 34/21/4 37/19/4
f 39/16/5 36/22/5 35/23/5 40/17/5
f 44/12/3 47/13/3 45/14/3 42/15/3
f 43/24/6 44/25/6 42/16/6 41/26/6
f 48/12/1 43/13/1 41/14/1 46/15/1
f 47/25/2 48/24/2 46/26/2 45/16/2
f 46/26/4 41/27/4 42/28/4 45/16/4
f 47/25/5 44/29/5 43/30/5 48/24/5
f 52/12/3 55/13/3 53/14/3 50/15/3
f 51/24/6 52/25/6 50/16/6 49/26/6
f 56/12/1 51/13/1 49/14/1 54/15/1
f 55/25/2 56/24/2 54/26/2 53/16/2
f 54/26/4 49/27/4 50/28/4 53/16/4
f 55/25/5 52/29/5 51/30/5 56/24/5
f 60/12/3 63/13/3 61/14/3 58/15/3
f 59/25/6 60/24/6 58/26/6 57/16/6
f 64/12/1 59/13/1 57/14/1 62/15/1
f 63/24/2 64/25/2 62/16/2 61/26/2
f 62/16/4 57/28/4 58/27/4 61/26/4
f 63/24/5 60/30/5 59/29/5 64/25/5
f 68/12/3 71/13/3 69/14/3 66/15/3
f 67/25/6 68/24/6 66/26/6 65/16/6
f 72/12/1 67/13/1 65/14/1 70/15/1
f 71/24/2 72/25/2 70/16/2 69/26/2
f 70/16/4 65/28/4 66/27/4 69/26/4
f 71/24/5 68/30/5 67/29/5 72/25/5
f 76/4/1 79/3/1 77/2/1 74/1/1
f 75/7/2 76/2/2 74/6/2 73/5/2
f 80/3/3 75/4/3 73/1/3 78/2/3
f 78/8/4 73/9/4 74/10/4 77/11/4
f 79/8/5 76/9/5 75/10/5 80/11/5
f 84/31/1 87/32/1 85/3/1 82/4/1
f 83/19/2 84/33/2 82/34/2 81/35/2
f 88/31/3 83/32/3 81/3/3 86/4/3
f 92/31/1 95/32/1 93/3/1 90/4/1
f 91/33/2 92/19/2 90/35/2 89/34/2
f 96/32/3 91/31/3 89/4/3 94/3/3
f 100/36/1 103/32/1 101/37/1 98/38/1
f 99/39/2 100/40/2 98/41/2 97/42/2
f 104/32/3 99/36/3 97/38/3 102/37/3
f 102/43/4 97/44/4 98/45/4 101/46/4
f 103/46/5 100/45/5 99/44/5 104/43/5
f 108/36/1 111/32/1 109/37/1 106/38/1
f 107/40/2 108/39/2 106/42/2 105/41/2
f 112/32/3 107/36/3 105/38/3 110/37/3
f 110/46/4 105/45/4 106/44/4 109/43/4
f 111/43/5 108/44/5 107/45/5 112/46/5
f 116/1/1 119/2/1 117/3/1 114/4/1
f 115/5/2 116/6/2 114/2/2 113/7/2
f 120/2/3 115/1/3 113/4/3 118/3/3
f 118/8/4 113/9/4 114/10/4 117/11/4
f 119/8/5 116/9/5 115/10/5 120/11/5
f 124/36/1 127/32/1 125/37/1 122/38/1
f 123/39/2 124/40/2 122/41/2 121/42/2
f 128/32/3 123/36/3 121/38/3 126/37/3
f 126/43/4 121/44/4 122/45/4 125/46/4
f 127/46/5 124/45/5 123/44/5 128/43/5
f 132/4/1 135/3/1 133/2/1 130/1/1
f 131/7/2 132/2/2 130/6/2 129/5/2
f 136/3/3 131/4/3 129/1/3 134/2/3
f 134/8/4 129/9/4 130/10/4 133/11/4
f 135/8/5 132/9/5 131/10/5 136/11/5
f 140/31/1 143/32/1 141/3/1 138/4/1
f 139/33/2 140/19/2 138/35/2 137/34/2
f 144/32/3 139/31/3 137/4/3 142/3/3
f 148/31/1 151/32/1 149/3/1 146/4/1
f 147/19/2 148/33/2 146/34/2 145/35/2
f 152/31/3 147/32/3 145/3/3 150/4/3
f 156/36/1 159/32/1 157/37/1 154/38/1
f 155/40/2 156/39/2 154/42/2 153/41/2
f 160/32/3 155/36/3 153/38/3 158/37/3
f 158/46/4 153/45/4 154/44/4 157/43/4
f 159/43/5 156/44/5 155/45/5 160/46/5
f 164/1/1 167/2/1 165/3/1 162/4/1
f 163/5/2 164/6/2 162/2/2 161/7/2
f 168/2/3 163/1/3 161/4/3 166/3/3
f 166/8/4 161/9/4 162/10/4 165/11/4
f 167/8/5 164/9/5 163/10/5 168/11/5
f 172/36/1 175/32/1 173/37/1 170/38/1
f 171/39/2 172/40/2 170/41/2 169/42/2
f 176/32/3 171/36/3 169/38/3 174/37/3
f 174/43/4 169/44/4 170/45/4 173/46/4
f 175/46/5 172/45/5 171/44/5 176/43/5
f 180/4/1 183/3/1 181/2/1 178/1/1
f 179/7/2 180/2/2 178/6/2 177/5/2
f 184/3/3 179/4/3 177/1/3 182/2/3
f 182/8/4 177/9/4 178/10/4 181/11/4
f 183/8/5 180/9/5 179/10/5 184/11/5
f 188/31/1 191/32/1 189/3/1 186/4/1
f 187/33/2 188/19/2 186/35/2 185/34/2
f 192/32/3 187/31/3 185/4/3 190/3/3
f 196/31/1 199/32/1 197/3/1 194/4/1
f 195/19/2 196/33/2 194/34/2 193/35/2
f 200/31/3 195/32/3 193/3/3 198/4/3
f 204/36/1 207/32/1 205/37/1 202/38/1
f 203/40/2 204/39/2 202/42/2 201/41/2
f 208/32/3 203/36/3 201/38/3 206/37/3
f 206/46/4 201/45/4 202/44/4 205/43/4
f 207/43/5 204/44/5 203/45/5 208/46/5
