# Blender 4.0.2
# www.blender.org
mtllib right_pins.mtl
o cube.002
v 1.312500 0.187500 2.437500
v 1.312500 0.187500 2.062500
v 1.312500 -0.187500 2.437500
v 1.312500 -0.187500 2.062500
v 1.062500 0.187500 2.062500
v 1.062500 0.187500 2.437500
v 1.062500 -0.187500 2.062500
v 1.062500 -0.187500 2.437500
v 1.312500 0.187500 -2.062500
v 1.312500 0.187500 -2.437500
v 1.312500 -0.187500 -2.062500
v 1.312500 -0.187500 -2.437500
v 1.062500 0.187500 -2.437500
v 1.062500 0.187500 -2.062500
v 1.062500 -0.187500 -2.437500
v 1.062500 -0.187500 -2.062500
v 1.312500 0.187500 0.187500
v 1.312500 0.187500 -0.187500
v 1.312500 -0.187500 0.187500
v 1.312500 -0.187500 -0.187500
v 1.062500 0.187500 -0.187500
v 1.062500 0.187500 0.187500
v 1.062500 -0.187500 -0.187500
v 1.062500 -0.187500 0.187500
vn -0.0000 -0.0000 -1.0000
vn 1.0000 -0.0000 -0.0000
vn -0.0000 -0.0000 1.0000
vn -0.0000 1.0000 -0.0000
vn -0.0000 -1.0000 -0.0000
vt 0.187500 0.812500
vt 0.312500 0.812500
vt 0.312500 1.000000
vt 0.187500 1.000000
vt 0.000000 0.812500
vt 0.000000 1.000000
s 0
usemtl m_093b78b2-90a8-d163-1165-ac14f4079509.003
f 4/1/1 7/2/1 5/3/1 2/4/1
f 3/5/2 4/1/2 2/4/2 1/6/2
f 8/2/3 3/1/3 1/4/3 6/3/3
f 6/2/4 1/1/4 2/4/4 5/3/4
f 7/2/5 4/1/5 3/4/5 8/3/5
f 12/1/1 15/2/1 13/3/1 10/4/1
f 11/5/2 12/1/2 10/4/2 9/6/2
f 16/2/3 11/1/3 9/4/3 14/3/3
f 14/2/4 9/1/4 10/4/4 13/3/4
f 15/2/5 12/1/5 11/4/5 16/3/5
f 20/1/1 23/2/1 21/3/1 18/4/1
f 19/5/2 20/1/2 18/4/2 17/6/2
f 24/2/3 19/1/3 17/4/3 22/3/3
f 22/2/4 17/1/4 18/4/4 21/3/4
f 23/2/5 20/1/5 19/4/5 24/3/5
