# Blender 4.0.2
# www.blender.org
mtllib right_c_rod.mtl
o cube.010
v 1.375000 0.125000 1.000000
v 1.375000 0.125000 0.750000
v 1.375000 -0.125000 1.000000
v 1.375000 -0.125000 0.750000
v 1.187500 0.125000 0.750000
v 1.187500 0.125000 1.000000
v 1.187500 -0.125000 0.750000
v 1.187500 -0.125000 1.000000
v 1.187500 0.187500 -2.437500
v 1.187500 0.187500 -2.812500
v 1.187500 -0.187500 -2.437500
v 1.187500 -0.187500 -2.812500
v 1.062500 0.187500 -2.812500
v 1.062500 0.187500 -2.437500
v 1.062500 -0.187500 -2.812500
v 1.062500 -0.187500 -2.437500
v 1.193750 0.125000 -2.500000
v 1.193750 0.125000 -2.750000
v 1.193750 -0.125000 -2.500000
v 1.193750 -0.125000 -2.750000
v 1.131250 0.125000 -2.750000
v 1.131250 0.125000 -2.500000
v 1.131250 -0.125000 -2.750000
v 1.131250 -0.125000 -2.500000
v 1.250000 0.125000 2.750000
v 1.250000 0.125000 2.500000
v 1.250000 -0.125000 2.750000
v 1.250000 -0.125000 2.500000
v 1.187500 0.125000 2.500000
v 1.187500 0.125000 2.750000
v 1.187500 -0.125000 2.500000
v 1.187500 -0.125000 2.750000
v 1.187500 0.125000 -1.062500
v 1.187500 0.125000 -2.437500
v 1.187500 -0.125000 -1.062500
v 1.187500 -0.125000 -2.437500
v 1.062500 0.125000 -2.437500
v 1.062500 0.125000 -1.062500
v 1.062500 -0.125000 -2.437500
v 1.062500 -0.125000 -1.062500
v 1.187500 0.125000 0.687500
v 1.187500 0.125000 -0.687500
v 1.187500 -0.125000 0.687500
v 1.187500 -0.125000 -0.687500
v 1.062500 0.125000 -0.687500
v 1.062500 0.125000 0.687500
v 1.062500 -0.125000 -0.687500
v 1.062500 -0.125000 0.687500
v 1.187500 0.187500 -0.687500
v 1.187500 0.187500 -1.062500
v 1.187500 -0.187500 -0.687500
v 1.187500 -0.187500 -1.062500
v 1.062500 0.187500 -1.062500
v 1.062500 0.187500 -0.687500
v 1.062500 -0.187500 -1.062500
v 1.062500 -0.187500 -0.687500
v 1.187500 0.125000 2.437500
v 1.187500 0.125000 1.062500
v 1.187500 -0.125000 2.437500
v 1.187500 -0.125000 1.062500
v 1.062500 0.125000 1.062500
v 1.062500 0.125000 2.437500
v 1.062500 -0.125000 1.062500
v 1.062500 -0.125000 2.437500
v 1.187500 0.187500 1.062500
v 1.187500 0.187500 0.687500
v 1.187500 -0.187500 1.062500
v 1.187500 -0.187500 0.687500
v 1.062500 0.187500 0.687500
v 1.062500 0.187500 1.062500
v 1.062500 -0.187500 0.687500
v 1.062500 -0.187500 1.062500
v 1.187500 0.187500 2.812500
v 1.187500 0.187500 2.437500
v 1.187500 -0.187500 2.812500
v 1.187500 -0.187500 2.437500
v 1.062500 0.187500 2.437500
v 1.062500 0.187500 2.812500
v 1.062500 -0.187500 2.437500
v 1.062500 -0.187500 2.812500
v 1.250000 0.125000 -0.750000
v 1.250000 0.125000 -1.000000
v 1.250000 -0.125000 -0.750000
v 1.250000 -0.125000 -1.000000
v 1.187500 0.125000 -1.000000
v 1.187500 0.125000 -0.750000
v 1.187500 -0.125000 -1.000000
v 1.187500 -0.125000 -0.750000
vn -0.0000 -0.0000 -1.0000
vn 1.0000 -0.0000 -0.0000
vn -0.0000 -0.0000 1.0000
vn -1.0000 -0.0000 -0.0000
vn -0.0000 1.0000 -0.0000
vn -0.0000 -1.0000 -0.0000
vt 0.892857 0.071429
vt 0.919643 0.071429
vt 0.919643 0.035714
vt 0.892857 0.035714
vt 0.857143 0.035714
vt 0.857143 0.071429
vt 0.839286 0.062500
vt 0.857143 0.062500
vt 0.857143 0.008929
vt 0.839286 0.008929
vt 0.785714 0.008929
vt 0.785714 0.062500
vt 0.901786 0.071429
vt 0.901786 0.035714
vt 0.848214 0.410714
vt 0.830357 0.410714
vt 0.830357 0.446429
vt 0.848214 0.446429
vt 1.000000 0.410714
vt 0.803571 0.410714
vt 0.803571 0.446429
vt 1.000000 0.446429
vt 1.000000 0.428571
vt 0.803571 0.428571
vt 1.000000 0.401786
vt 1.000000 0.383929
vt 0.803571 0.383929
vt 0.803571 0.401786
vt 0.812500 0.410714
vt 0.812500 0.446429
vt 0.812500 0.428571
vt 1.000000 0.419643
vt 0.812500 0.419643
vt 0.812500 0.401786
s 0
usemtl m_1aa16f2a-3bcb-3a30-89d8-6776de9e79b4.001
f 4/1/1 7/2/1 5/3/1 2/4/1
f 3/1/2 4/4/2 2/5/2 1/6/2
f 8/3/3 3/4/3 1/1/3 6/2/3
f 7/4/4 8/5/4 6/6/4 5/1/4
f 6/3/5 1/4/5 2/1/5 5/2/5
f 7/3/6 4/4/6 3/1/6 8/2/6
f 12/7/1 15/8/1 13/9/1 10/10/1
f 11/7/2 12/10/2 10/11/2 9/12/2
f 16/9/3 11/10/3 9/7/3 14/8/3
f 15/10/4 16/11/4 14/12/4 13/7/4
f 14/9/5 9/10/5 10/7/5 13/8/5
f 15/9/6 12/10/6 11/7/6 16/8/6
f 20/1/1 23/13/1 21/14/1 18/4/1
f 19/1/2 20/4/2 18/5/2 17/6/2
f 24/14/3 19/4/3 17/1/3 22/13/3
f 23/4/4 24/5/4 22/6/4 21/1/4
f 22/14/5 17/4/5 18/1/5 21/13/5
f 23/14/6 20/4/6 19/1/6 24/13/6
f 28/1/1 31/13/1 29/14/1 26/4/1
f 27/1/2 28/4/2 26/5/2 25/6/2
f 32/14/3 27/4/3 25/1/3 30/13/3
f 31/4/4 32/5/4 30/6/4 29/1/4
f 30/14/5 25/4/5 26/1/5 29/13/5
f 31/14/6 28/4/6 27/1/6 32/13/6
f 36/15/1 39/16/1 37/17/1 34/18/1
f 35/19/2 36/20/2 34/21/2 33/22/2
f 40/15/3 35/16/3 33/17/3 38/18/3
f 39/19/4 40/20/4 38/21/4 37/22/4
f 38/23/5 33/19/5 34/20/5 37/24/5
f 39/25/6 36/26/6 35/27/6 40/28/6
f 44/15/1 47/16/1 45/17/1 42/18/1
f 43/19/2 44/20/2 42/21/2 41/22/2
f 48/15/3 43/16/3 41/17/3 46/18/3
f 47/19/4 48/20/4 46/21/4 45/22/4
f 46/23/5 41/19/5 42/20/5 45/24/5
f 47/25/6 44/26/6 43/27/6 48/28/6
f 52/7/1 55/8/1 53/9/1 50/10/1
f 51/7/2 52/10/2 50/11/2 49/12/2
f 56/9/3 51/10/3 49/7/3 54/8/3
f 55/10/4 56/11/4 54/12/4 53/7/4
f 54/9/5 49/10/5 50/7/5 53/8/5
f 55/9/6 52/10/6 51/7/6 56/8/6
f 60/29/1 63/16/1 61/17/1 58/30/1
f 59/29/2 60/19/2 58/22/2 57/30/2
f 64/29/3 59/16/3 57/17/3 62/30/3
f 63/29/4 64/19/4 62/22/4 61/30/4
f 62/31/5 57/30/5 58/22/5 61/23/5
f 63/25/6 60/32/6 59/33/6 64/34/6
f 68/7/1 71/8/1 69/9/1 66/10/1
f 67/7/2 68/10/2 66/11/2 65/12/2
f 72/9/3 67/10/3 65/7/3 70/8/3
f 71/10/4 72/11/4 70/12/4 69/7/4
f 70/9/5 65/10/5 66/7/5 69/8/5
f 71/9/6 68/10/6 67/7/6 72/8/6
f 76/7/1 79/8/1 77/9/1 74/10/1
f 75/7/2 76/10/2 74/11/2 73/12/2
f 80/9/3 75/10/3 73/7/3 78/8/3
f 79/10/4 80/11/4 78/12/4 77/7/4
f 78/9/5 73/10/5 74/7/5 77/8/5
f 79/9/6 76/10/6 75/7/6 80/8/6
f 84/1/1 87/13/1 85/14/1 82/4/1
f 83/1/2 84/4/2 82/5/2 81/6/2
f 88/14/3 83/4/3 81/1/3 86/13/3
f 87/4/4 88/5/4 86/6/4 85/1/4
f 86/14/5 81/4/5 82/1/5 85/13/5
f 87/14/6 84/4/6 83/1/6 88/13/6
