# Blender 4.0.2
# www.blender.org
mtllib right_m_rod.mtl
o cube.001
v 1.312500 0.187500 3.875000
v 1.312500 0.187500 3.500000
v 1.312500 -0.187500 3.875000
v 1.312500 -0.187500 3.500000
v 1.187500 0.187500 3.500000
v 1.187500 0.187500 3.875000
v 1.187500 -0.187500 3.500000
v 1.187500 -0.187500 3.875000
v 1.312500 0.125000 3.500000
v 1.312500 0.125000 0.125000
v 1.312500 -0.125000 3.500000
v 1.312500 -0.125000 0.125000
v 1.187500 0.125000 0.125000
v 1.187500 0.125000 3.500000
v 1.187500 -0.125000 0.125000
v 1.187500 -0.125000 3.500000
vn -0.0000 -0.0000 -1.0000
vn 1.0000 -0.0000 -0.0000
vn -0.0000 -0.0000 1.0000
vn -1.0000 -0.0000 -0.0000
vn -0.0000 1.0000 -0.0000
vn -0.0000 -1.0000 -0.0000
vt 0.839286 0.062500
vt 0.857143 0.062500
vt 0.857143 0.008929
vt 0.839286 0.008929
vt 0.785714 0.008929
vt 0.785714 0.062500
vt 0.437500 0.732143
vt 0.455357 0.732143
vt 0.455357 0.767857
vt 0.437500 0.767857
vt 0.919643 0.732143
vt 0.919643 0.767857
vt 0.437500 0.750000
vt 0.919643 0.750000
vt 0.919643 0.723214
vt 0.919643 0.741071
vt 0.437500 0.741071
vt 0.437500 0.723214
s 0
usemtl m_1aa16f2a-3bcb-3a30-89d8-6776de9e79b4
f 4/1/1 7/2/1 5/3/1 2/4/1
f 3/1/2 4/4/2 2/5/2 1/6/2
f 8/3/3 3/4/3 1/1/3 6/2/3
f 7/4/4 8/5/4 6/6/4 5/1/4
f 6/3/5 1/4/5 2/1/5 5/2/5
f 7/3/6 4/4/6 3/1/6 8/2/6
f 12/7/1 15/8/1 13/9/1 10/10/1
f 11/7/2 12/11/2 10/12/2 9/10/2
f 16/7/3 11/8/3 9/9/3 14/10/3
f 15/7/4 16/11/4 14/12/4 13/10/4
f 14/13/5 9/10/5 10/12/5 13/14/5
f 15/15/6 12/16/6 11/17/6 16/18/6
