# Blender 4.0.2
# www.blender.org
mtllib right_p_rod.mtl
o cube.002
v 1.318750 0.256250 -2.618750
v 1.318750 0.256250 -3.006250
v 1.318750 -0.256250 -2.618750
v 1.318750 -0.256250 -3.006250
v 1.181250 0.256250 -3.006250
v 1.181250 0.256250 -2.618750
v 1.181250 -0.256250 -3.006250
v 1.181250 -0.256250 -2.618750
v 1.312500 0.125000 -3.000000
v 1.312500 0.125000 -3.812500
v 1.312500 -0.125000 -3.000000
v 1.312500 -0.125000 -3.812500
v 1.187500 0.125000 -3.812500
v 1.187500 0.125000 -3.000000
v 1.187500 -0.125000 -3.812500
v 1.187500 -0.125000 -3.000000
v 1.381250 0.131250 -2.681250
v 1.381250 0.131250 -2.943750
v 1.381250 -0.131250 -2.681250
v 1.381250 -0.131250 -2.943750
v 1.243750 0.131250 -2.943750
v 1.243750 0.131250 -2.681250
v 1.243750 -0.131250 -2.943750
v 1.243750 -0.131250 -2.681250
vn -0.0000 -0.0000 -1.0000
vn 1.0000 -0.0000 -0.0000
vn -0.0000 -0.0000 1.0000
vn -1.0000 -0.0000 -0.0000
vn -0.0000 1.0000 -0.0000
vn -0.0000 -1.0000 -0.0000
vt 0.982143 0.000000
vt 0.964286 0.000000
vt 0.964286 0.071429
vt 0.982143 0.071429
vt 0.946429 0.000000
vt 1.000000 0.000000
vt 1.000000 0.071429
vt 0.946429 0.071429
vt 0.946429 0.062500
vt 1.000000 0.062500
vt 1.000000 0.178571
vt 0.982143 0.178571
vt 0.982143 0.214286
vt 1.000000 0.214286
vt 0.883929 0.178571
vt 0.883929 0.214286
vt 0.901786 0.178571
vt 0.901786 0.214286
vt 0.883929 0.196429
vt 1.000000 0.196429
vt 0.892857 0.071429
vt 0.901786 0.071429
vt 0.901786 0.035714
vt 0.892857 0.035714
vt 0.857143 0.035714
vt 0.857143 0.071429
s 0
usemtl m_1aa16f2a-3bcb-3a30-89d8-6776de9e79b4.009
f 4/1/1 7/2/1 5/3/1 2/4/1
f 3/5/2 4/6/2 2/7/2 1/8/2
f 8/1/3 3/2/3 1/3/3 6/4/3
f 7/6/4 8/5/4 6/8/4 5/7/4
f 6/9/5 1/8/5 2/7/5 5/10/5
f 7/10/6 4/7/6 3/8/6 8/9/6
f 12/11/1 15/12/1 13/13/1 10/14/1
f 11/15/2 12/11/2 10/14/2 9/16/2
f 16/17/3 11/15/3 9/16/3 14/18/3
f 15/11/4 16/15/4 14/16/4 13/14/4
f 14/19/5 9/16/5 10/14/5 13/20/5
f 15/20/6 12/11/6 11/15/6 16/19/6
f 20/21/1 23/22/1 21/23/1 18/24/1
f 19/21/2 20/24/2 18/25/2 17/26/2
f 24/23/3 19/24/3 17/21/3 22/22/3
f 23/24/4 24/25/4 22/26/4 21/21/4
f 22/23/5 17/24/5 18/21/5 21/22/5
f 23/23/6 20/24/6 19/21/6 24/22/6
