# Blender 4.2.3 LTS
# www.blender.org
mtllib right_c_rod.mtl
o cube.007
v 1.250000 0.125000 0.125000
v 1.250000 0.125000 -0.125000
v 1.250000 -0.125000 0.125000
v 1.250000 -0.125000 -0.125000
v 1.000000 0.125000 -0.125000
v 1.000000 0.125000 0.125000
v 1.000000 -0.125000 -0.125000
v 1.000000 -0.125000 0.125000
v 1.187500 0.187500 0.187500
v 1.187500 0.187500 -0.187500
v 1.187500 -0.187500 0.187500
v 1.187500 -0.187500 -0.187500
v 1.062500 0.187500 -0.187500
v 1.062500 0.187500 0.187500
v 1.062500 -0.187500 -0.187500
v 1.062500 -0.187500 0.187500
v 1.187500 0.125000 -0.187500
v 1.187500 0.125000 -2.062500
v 1.187500 -0.125000 -0.187500
v 1.187500 -0.125000 -2.062500
v 1.062500 0.125000 -2.062500
v 1.062500 0.125000 -0.187500
v 1.062500 -0.125000 -2.062500
v 1.062500 -0.125000 -0.187500
v 1.187500 0.187500 -2.062500
v 1.187500 0.187500 -2.437500
v 1.187500 -0.187500 -2.062500
v 1.187500 -0.187500 -2.437500
v 1.062500 0.187500 -2.437500
v 1.062500 0.187500 -2.062500
v 1.062500 -0.187500 -2.437500
v 1.062500 -0.187500 -2.062500
v 1.250000 0.125000 -2.125000
v 1.250000 0.125000 -2.375000
v 1.250000 -0.125000 -2.125000
v 1.250000 -0.125000 -2.375000
v 1.000000 0.125000 -2.375000
v 1.000000 0.125000 -2.125000
v 1.000000 -0.125000 -2.375000
v 1.000000 -0.125000 -2.125000
v 1.187500 0.125000 3.187500
v 1.187500 0.125000 0.187500
v 1.187500 -0.125000 3.187500
v 1.187500 -0.125000 0.187500
v 1.062500 0.125000 0.187500
v 1.062500 0.125000 3.187500
v 1.062500 -0.125000 0.187500
v 1.062500 -0.125000 3.187500
v 1.187500 0.187500 3.562500
v 1.187500 0.187500 3.187500
v 1.187500 -0.187500 3.562500
v 1.187500 -0.187500 3.187500
v 1.062500 0.187500 3.187500
v 1.062500 0.187500 3.562500
v 1.062500 -0.187500 3.187500
v 1.062500 -0.187500 3.562500
v 1.250000 0.125000 3.500000
v 1.250000 0.125000 3.250000
v 1.250000 -0.125000 3.500000
v 1.250000 -0.125000 3.250000
v 1.000000 0.125000 3.250000
v 1.000000 0.125000 3.500000
v 1.000000 -0.125000 3.250000
v 1.000000 -0.125000 3.500000
vn -0.0000 -0.0000 -1.0000
vn 1.0000 -0.0000 -0.0000
vn -0.0000 -0.0000 1.0000
vn -1.0000 -0.0000 -0.0000
vn -0.0000 1.0000 -0.0000
vn -0.0000 -1.0000 -0.0000
vt 0.892857 0.035714
vt 0.928571 0.035714
vt 0.928571 0.071429
vt 0.892857 0.071429
vt 0.857143 0.035714
vt 0.857143 0.071429
vt 0.839286 0.008929
vt 0.857143 0.008929
vt 0.857143 0.062500
vt 0.839286 0.062500
vt 0.785714 0.008929
vt 0.785714 0.062500
vt 0.982143 0.571429
vt 1.000000 0.571429
vt 1.000000 0.607143
vt 0.982143 0.607143
vt 0.732143 0.571429
vt 0.732143 0.607143
vt 0.750000 0.571429
vt 0.750000 0.607143
vt 1.000000 0.535714
vt 1.000000 0.553571
vt 0.732143 0.553571
vt 0.732143 0.535714
vt 0.687500 0.732143
vt 0.705357 0.732143
vt 0.705357 0.767857
vt 0.687500 0.767857
vt 0.437500 0.732143
vt 0.866071 0.732143
vt 0.866071 0.767857
vt 0.437500 0.767857
vt 0.455357 0.732143
vt 0.455357 0.767857
vt 0.866071 0.696429
vt 0.866071 0.714286
vt 0.437500 0.714286
vt 0.437500 0.696429
s 0
usemtl m_647a5394-0028-91ee-b79f-c60b1a88fde7.004
f 4/1/1 7/2/1 5/3/1 2/4/1
f 3/5/2 4/1/2 2/4/2 1/6/2
f 8/2/3 3/1/3 1/4/3 6/3/3
f 7/1/4 8/5/4 6/6/4 5/4/4
f 6/2/5 1/1/5 2/4/5 5/3/5
f 7/2/6 4/1/6 3/4/6 8/3/6
f 12/7/1 15/8/1 13/9/1 10/10/1
f 11/11/2 12/7/2 10/10/2 9/12/2
f 16/8/3 11/7/3 9/10/3 14/9/3
f 15/11/4 16/7/4 14/10/4 13/12/4
f 14/9/5 9/10/5 10/7/5 13/8/5
f 15/9/6 12/10/6 11/7/6 16/8/6
f 20/13/1 23/14/1 21/15/1 18/16/1
f 19/17/2 20/14/2 18/15/2 17/18/2
f 24/17/3 19/19/3 17/20/3 22/18/3
f 23/17/4 24/14/4 22/15/4 21/18/4
f 22/21/5 17/22/5 18/23/5 21/24/5
f 23/21/6 20/22/6 19/23/6 24/24/6
f 28/7/1 31/8/1 29/9/1 26/10/1
f 27/11/2 28/7/2 26/10/2 25/12/2
f 32/8/3 27/7/3 25/10/3 30/9/3
f 31/11/4 32/7/4 30/10/4 29/12/4
f 30/9/5 25/10/5 26/7/5 29/8/5
f 31/9/6 28/10/6 27/7/6 32/8/6
f 36/1/1 39/2/1 37/3/1 34/4/1
f 35/5/2 36/1/2 34/4/2 33/6/2
f 40/2/3 35/1/3 33/4/3 38/3/3
f 39/1/4 40/5/4 38/6/4 37/4/4
f 38/2/5 33/1/5 34/4/5 37/3/5
f 39/2/6 36/1/6 35/4/6 40/3/6
f 44/25/1 47/26/1 45/27/1 42/28/1
f 43/29/2 44/30/2 42/31/2 41/32/2
f 48/29/3 43/33/3 41/34/3 46/32/3
f 47/29/4 48/30/4 46/31/4 45/32/4
f 46/35/5 41/36/5 42/37/5 45/38/5
f 47/35/6 44/36/6 43/37/6 48/38/6
f 52/7/1 55/8/1 53/9/1 50/10/1
f 51/11/2 52/7/2 50/10/2 49/12/2
f 56/8/3 51/7/3 49/10/3 54/9/3
f 55/11/4 56/7/4 54/10/4 53/12/4
f 54/9/5 49/10/5 50/7/5 53/8/5
f 55/9/6 52/10/6 51/7/6 56/8/6
f 60/1/1 63/2/1 61/3/1 58/4/1
f 59/5/2 60/1/2 58/4/2 57/6/2
f 64/2/3 59/1/3 57/4/3 62/3/3
f 63/1/4 64/5/4 62/6/4 61/4/4
f 62/2/5 57/1/5 58/4/5 61/3/5
f 63/2/6 60/1/6 59/4/6 64/3/6
