# Blender 4.1.0
# www.blender.org
mtllib center_m_rod.mtl
o cube.001
v 0.062500 0.125000 3.000000
v 0.062500 0.125000 0.187500
v 0.062500 -0.125000 3.000000
v 0.062500 -0.125000 0.187500
v -0.062500 0.125000 0.187500
v -0.062500 0.125000 3.000000
v -0.062500 -0.125000 0.187500
v -0.062500 -0.125000 3.000000
v 0.062500 0.187500 3.375000
v 0.062500 0.187500 3.000000
v 0.062500 -0.187500 3.375000
v 0.062500 -0.187500 3.000000
v -0.062500 0.187500 3.000000
v -0.062500 0.187500 3.375000
v -0.062500 -0.187500 3.000000
v -0.062500 -0.187500 3.375000
vn -0.0000 -0.0000 -1.0000
vn 1.0000 -0.0000 -0.0000
vn -0.0000 -0.0000 1.0000
vn -1.0000 -0.0000 -0.0000
vn -0.0000 1.0000 -0.0000
vn -0.0000 -1.0000 -0.0000
vt 0.491071 0.732143
vt 0.508929 0.732143
vt 0.508929 0.767857
vt 0.491071 0.767857
vt 1.000000 0.732143
vt 1.000000 0.767857
vt 1.000000 0.714286
vt 0.491071 0.714286
vt 0.839286 0.008929
vt 0.857143 0.008929
vt 0.857143 0.062500
vt 0.839286 0.062500
vt 0.785714 0.008929
vt 0.785714 0.062500
s 0
usemtl m_91999fe3-aab7-0e05-00f8-01022a9398bf
f 4/1/1 7/2/1 5/3/1 2/4/1
f 3/1/2 4/5/2 2/6/2 1/4/2
f 8/1/3 3/2/3 1/3/3 6/4/3
f 7/1/4 8/5/4 6/6/4 5/4/4
f 6/7/5 1/5/5 2/1/5 5/8/5
f 7/7/6 4/5/6 3/1/6 8/8/6
f 12/9/1 15/10/1 13/11/1 10/12/1
f 11/13/2 12/9/2 10/12/2 9/14/2
f 16/9/3 11/10/3 9/11/3 14/12/3
f 15/13/4 16/9/4 14/12/4 13/14/4
f 14/9/5 9/10/5 10/11/5 13/12/5
f 15/9/6 12/10/6 11/11/6 16/12/6
