# Blender 4.1.0
# www.blender.org
mtllib right_m_rod.mtl
o cube.002
v 1.312500 0.125000 4.750000
v 1.312500 0.125000 2.687500
v 1.312500 -0.125000 4.750000
v 1.312500 -0.125000 2.687500
v 1.187500 0.125000 2.687500
v 1.187500 0.125000 4.750000
v 1.187500 -0.125000 2.687500
v 1.187500 -0.125000 4.750000
v 1.312500 0.125000 2.687500
v 1.312500 0.125000 0.187500
v 1.312500 -0.125000 2.687500
v 1.312500 -0.125000 0.187500
v 1.187500 0.125000 0.187500
v 1.187500 0.125000 2.687500
v 1.187500 -0.125000 0.187500
v 1.187500 -0.125000 2.687500
v 1.312500 0.187500 5.125000
v 1.312500 0.187500 4.750000
v 1.312500 -0.187500 5.125000
v 1.312500 -0.187500 4.750000
v 1.187500 0.187500 4.750000
v 1.187500 0.187500 5.125000
v 1.187500 -0.187500 4.750000
v 1.187500 -0.187500 5.125000
vn -0.0000 -0.0000 -1.0000
vn 1.0000 -0.0000 -0.0000
vn -0.0000 -0.0000 1.0000
vn -1.0000 -0.0000 -0.0000
vn -0.0000 1.0000 -0.0000
vn -0.0000 -1.0000 -0.0000
vt 0.633929 0.732143
vt 0.651786 0.732143
vt 0.651786 0.767857
vt 0.633929 0.767857
vt 0.437500 0.732143
vt 0.732143 0.732143
vt 0.732143 0.767857
vt 0.437500 0.767857
vt 0.957589 0.689732
vt 0.975446 0.689732
vt 0.975446 0.725446
vt 0.957589 0.725446
vt 0.437500 0.750000
vt 0.732143 0.750000
vt 0.732143 0.723214
vt 0.732143 0.741071
vt 0.437500 0.741071
vt 0.437500 0.723214
vt 0.000000 0.796875
vt 0.031250 0.796875
vt 0.031250 0.859375
vt 0.000000 0.859375
vt 1.000000 0.732143
vt 1.000000 0.767857
vt 0.803571 0.732143
vt 0.803571 0.767857
vt 0.803571 0.750000
vt 0.803571 0.741071
vt 0.803571 0.723214
vt 0.839286 0.008929
vt 0.857143 0.008929
vt 0.857143 0.062500
vt 0.839286 0.062500
vt 0.785714 0.008929
vt 0.785714 0.062500
s 0
usemtl m_91999fe3-aab7-0e05-00f8-01022a9398bf.008
f 4/1/1 7/2/1 5/3/1 2/4/1
f 3/5/2 4/6/2 2/7/2 1/8/2
f 7/6/4 8/5/4 6/8/4 5/7/4
f 6/13/5 1/8/5 2/7/5 5/14/5
f 7/15/6 4/16/6 3/17/6 8/18/6
f 11/1/2 12/23/2 10/24/2 9/4/2
f 16/1/3 11/2/3 9/3/3 14/4/3
f 15/5/4 16/25/4 14/26/4 13/8/4
f 14/27/5 9/26/5 10/8/5 13/13/5
f 15/18/6 12/17/6 11/28/6 16/29/6
f 20/30/1 23/31/1 21/32/1 18/33/1
f 19/34/2 20/30/2 18/33/2 17/35/2
f 24/30/3 19/31/3 17/32/3 22/33/3
f 23/34/4 24/30/4 22/33/4 21/35/4
f 22/30/5 17/31/5 18/32/5 21/33/5
f 23/30/6 20/31/6 19/32/6 24/33/6
usemtl none.003
f 8/9/3 3/10/3 1/11/3 6/12/3
f 12/19/1 15/20/1 13/21/1 10/22/1
