# Blender 4.1.0
# www.blender.org
mtllib left_c_rod.mtl
o cube.016
v -1.062500 0.187500 2.812500
v -1.062500 0.187500 2.437500
v -1.062500 -0.187500 2.812500
v -1.062500 -0.187500 2.437500
v -1.187500 0.187500 2.437500
v -1.187500 0.187500 2.812500
v -1.187500 -0.187500 2.437500
v -1.187500 -0.187500 2.812500
v -1.062500 0.125000 -1.062500
v -1.062500 0.125000 -2.437500
v -1.062500 -0.125000 -1.062500
v -1.062500 -0.125000 -2.437500
v -1.187500 0.125000 -2.437500
v -1.187500 0.125000 -1.062500
v -1.187500 -0.125000 -2.437500
v -1.187500 -0.125000 -1.062500
v -1.062500 0.125000 0.687500
v -1.062500 0.125000 -0.687500
v -1.062500 -0.125000 0.687500
v -1.062500 -0.125000 -0.687500
v -1.187500 0.125000 -0.687500
v -1.187500 0.125000 0.687500
v -1.187500 -0.125000 -0.687500
v -1.187500 -0.125000 0.687500
v -1.187500 0.125000 1.000000
v -1.187500 0.125000 0.750000
v -1.187500 -0.125000 1.000000
v -1.187500 -0.125000 0.750000
v -1.375000 0.125000 0.750000
v -1.375000 0.125000 1.000000
v -1.375000 -0.125000 0.750000
v -1.375000 -0.125000 1.000000
v -1.062500 0.125000 2.437500
v -1.062500 0.125000 1.062500
v -1.062500 -0.125000 2.437500
v -1.062500 -0.125000 1.062500
v -1.187500 0.125000 1.062500
v -1.187500 0.125000 2.437500
v -1.187500 -0.125000 1.062500
v -1.187500 -0.125000 2.437500
v -1.062500 0.125000 2.750000
v -1.062500 0.125000 2.500000
v -1.062500 -0.125000 2.750000
v -1.062500 -0.125000 2.500000
v -1.250000 0.125000 2.500000
v -1.250000 0.125000 2.750000
v -1.250000 -0.125000 2.500000
v -1.250000 -0.125000 2.750000
v -1.062500 0.125000 4.187500
v -1.062500 0.125000 2.812500
v -1.062500 -0.125000 4.187500
v -1.062500 -0.125000 2.812500
v -1.187500 0.125000 2.812500
v -1.187500 0.125000 4.187500
v -1.187500 -0.125000 2.812500
v -1.187500 -0.125000 4.187500
v -1.062500 0.125000 4.500000
v -1.062500 0.125000 4.250000
v -1.062500 -0.125000 4.500000
v -1.062500 -0.125000 4.250000
v -1.250000 0.125000 4.250000
v -1.250000 0.125000 4.500000
v -1.250000 -0.125000 4.250000
v -1.250000 -0.125000 4.500000
v -1.062500 0.125000 -2.812500
v -1.062500 0.125000 -4.187500
v -1.062500 -0.125000 -2.812500
v -1.062500 -0.125000 -4.187500
v -1.187500 0.125000 -4.187500
v -1.187500 0.125000 -2.812500
v -1.187500 -0.125000 -4.187500
v -1.187500 -0.125000 -2.812500
v -0.943750 0.125000 -4.250000
v -0.943750 0.125000 -4.500000
v -0.943750 -0.125000 -4.250000
v -0.943750 -0.125000 -4.500000
v -1.193750 0.125000 -4.500000
v -1.193750 0.125000 -4.250000
v -1.193750 -0.125000 -4.500000
v -1.193750 -0.125000 -4.250000
v -0.943750 0.125000 -2.500000
v -0.943750 0.125000 -2.750000
v -0.943750 -0.125000 -2.500000
v -0.943750 -0.125000 -2.750000
v -1.193750 0.125000 -2.750000
v -1.193750 0.125000 -2.500000
v -1.193750 -0.125000 -2.750000
v -1.193750 -0.125000 -2.500000
v -0.943750 0.125000 -0.750000
v -0.943750 0.125000 -1.000000
v -0.943750 -0.125000 -0.750000
v -0.943750 -0.125000 -1.000000
v -1.193750 0.125000 -1.000000
v -1.193750 0.125000 -0.750000
v -1.193750 -0.125000 -1.000000
v -1.193750 -0.125000 -0.750000
v -1.062500 0.187500 -4.187500
v -1.062500 0.187500 -4.562500
v -1.062500 -0.187500 -4.187500
v -1.062500 -0.187500 -4.562500
v -1.187500 0.187500 -4.562500
v -1.187500 0.187500 -4.187500
v -1.187500 -0.187500 -4.562500
v -1.187500 -0.187500 -4.187500
v -1.062500 0.187500 -2.437500
v -1.062500 0.187500 -2.812500
v -1.062500 -0.187500 -2.437500
v -1.062500 -0.187500 -2.812500
v -1.187500 0.187500 -2.812500
v -1.187500 0.187500 -2.437500
v -1.187500 -0.187500 -2.812500
v -1.187500 -0.187500 -2.437500
v -1.062500 0.187500 -0.687500
v -1.062500 0.187500 -1.062500
v -1.062500 -0.187500 -0.687500
v -1.062500 -0.187500 -1.062500
v -1.187500 0.187500 -1.062500
v -1.187500 0.187500 -0.687500
v -1.187500 -0.187500 -1.062500
v -1.187500 -0.187500 -0.687500
v -1.062500 0.187500 1.062500
v -1.062500 0.187500 0.687500
v -1.062500 -0.187500 1.062500
v -1.062500 -0.187500 0.687500
v -1.187500 0.187500 0.687500
v -1.187500 0.187500 1.062500
v -1.187500 -0.187500 0.687500
v -1.187500 -0.187500 1.062500
v -1.062500 0.187500 4.562500
v -1.062500 0.187500 4.187500
v -1.062500 -0.187500 4.562500
v -1.062500 -0.187500 4.187500
v -1.187500 0.187500 4.187500
v -1.187500 0.187500 4.562500
v -1.187500 -0.187500 4.187500
v -1.187500 -0.187500 4.562500
vn -0.0000 -0.0000 -1.0000
vn 1.0000 -0.0000 -0.0000
vn -0.0000 -0.0000 1.0000
vn -1.0000 -0.0000 -0.0000
vn -0.0000 1.0000 -0.0000
vn -0.0000 -1.0000 -0.0000
vt 0.839286 0.008929
vt 0.857143 0.008929
vt 0.857143 0.062500
vt 0.839286 0.062500
vt 0.785714 0.008929
vt 0.785714 0.062500
vt 0.821429 0.410714
vt 0.803571 0.410714
vt 0.803571 0.446429
vt 0.821429 0.446429
vt 1.000000 0.410714
vt 1.000000 0.446429
vt 1.000000 0.392857
vt 1.000000 0.375000
vt 0.803571 0.375000
vt 0.803571 0.392857
vt 0.928571 0.035714
vt 0.892857 0.035714
vt 0.892857 0.071429
vt 0.928571 0.071429
vt 0.857143 0.035714
vt 0.857143 0.071429
s 0
usemtl m_91999fe3-aab7-0e05-00f8-01022a9398bf
f 4/1/1 7/2/1 5/3/1 2/4/1
f 3/1/2 4/5/2 2/6/2 1/4/2
f 8/1/3 3/2/3 1/3/3 6/4/3
f 7/1/4 8/5/4 6/6/4 5/4/4
f 6/4/5 1/3/5 2/2/5 5/1/5
f 7/4/6 4/3/6 3/2/6 8/1/6
f 12/7/1 15/8/1 13/9/1 10/10/1
f 11/11/2 12/8/2 10/9/2 9/12/2
f 16/7/3 11/8/3 9/9/3 14/10/3
f 15/11/4 16/8/4 14/9/4 13/12/4
f 14/13/5 9/14/5 10/15/5 13/16/5
f 15/13/6 12/14/6 11/15/6 16/16/6
f 20/7/1 23/8/1 21/9/1 18/10/1
f 19/11/2 20/8/2 18/9/2 17/12/2
f 24/7/3 19/8/3 17/9/3 22/10/3
f 23/11/4 24/8/4 22/9/4 21/12/4
f 22/13/5 17/14/5 18/15/5 21/16/5
f 23/13/6 20/14/6 19/15/6 24/16/6
f 28/17/1 31/18/1 29/19/1 26/20/1
f 27/21/2 28/18/2 26/19/2 25/22/2
f 32/18/3 27/17/3 25/20/3 30/19/3
f 31/18/4 32/21/4 30/22/4 29/19/4
f 30/18/5 25/17/5 26/20/5 29/19/5
f 31/18/6 28/17/6 27/20/6 32/19/6
f 36/7/1 39/8/1 37/9/1 34/10/1
f 35/11/2 36/8/2 34/9/2 33/12/2
f 40/7/3 35/8/3 33/9/3 38/10/3
f 39/11/4 40/8/4 38/9/4 37/12/4
f 38/13/5 33/14/5 34/15/5 37/16/5
f 39/13/6 36/14/6 35/15/6 40/16/6
f 44/17/1 47/18/1 45/19/1 42/20/1
f 43/21/2 44/18/2 42/19/2 41/22/2
f 48/18/3 43/17/3 41/20/3 46/19/3
f 47/18/4 48/21/4 46/22/4 45/19/4
f 46/18/5 41/17/5 42/20/5 45/19/5
f 47/18/6 44/17/6 43/20/6 48/19/6
f 52/7/1 55/8/1 53/9/1 50/10/1
f 51/11/2 52/8/2 50/9/2 49/12/2
f 56/7/3 51/8/3 49/9/3 54/10/3
f 55/11/4 56/8/4 54/9/4 53/12/4
f 54/13/5 49/14/5 50/15/5 53/16/5
f 55/13/6 52/14/6 51/15/6 56/16/6
f 60/17/1 63/18/1 61/19/1 58/20/1
f 59/21/2 60/18/2 58/19/2 57/22/2
f 64/18/3 59/17/3 57/20/3 62/19/3
f 63/18/4 64/21/4 62/22/4 61/19/4
f 62/18/5 57/17/5 58/20/5 61/19/5
f 63/18/6 60/17/6 59/20/6 64/19/6
f 68/7/1 71/8/1 69/9/1 66/10/1
f 67/11/2 68/8/2 66/9/2 65/12/2
f 72/7/3 67/8/3 65/9/3 70/10/3
f 71/11/4 72/8/4 70/9/4 69/12/4
f 70/13/5 65/14/5 66/15/5 69/16/5
f 71/13/6 68/14/6 67/15/6 72/16/6
f 76/17/1 79/18/1 77/19/1 74/20/1
f 75/21/2 76/18/2 74/19/2 73/22/2
f 80/18/3 75/17/3 73/20/3 78/19/3
f 79/18/4 80/21/4 78/22/4 77/19/4
f 78/18/5 73/17/5 74/20/5 77/19/5
f 79/18/6 76/17/6 75/20/6 80/19/6
f 84/17/1 87/18/1 85/19/1 82/20/1
f 83/21/2 84/18/2 82/19/2 81/22/2
f 88/18/3 83/17/3 81/20/3 86/19/3
f 87/18/4 88/21/4 86/22/4 85/19/4
f 86/18/5 81/17/5 82/20/5 85/19/5
f 87/18/6 84/17/6 83/20/6 88/19/6
f 92/17/1 95/18/1 93/19/1 90/20/1
f 91/21/2 92/18/2 90/19/2 89/22/2
f 96/18/3 91/17/3 89/20/3 94/19/3
f 95/18/4 96/21/4 94/22/4 93/19/4
f 94/18/5 89/17/5 90/20/5 93/19/5
f 95/18/6 92/17/6 91/20/6 96/19/6
f 100/1/1 103/2/1 101/3/1 98/4/1
f 99/1/2 100/5/2 98/6/2 97/4/2
f 104/1/3 99/2/3 97/3/3 102/4/3
f 103/1/4 104/5/4 102/6/4 101/4/4
f 102/4/5 97/3/5 98/2/5 101/1/5
f 103/4/6 100/3/6 99/2/6 104/1/6
f 108/1/1 111/2/1 109/3/1 106/4/1
f 107/1/2 108/5/2 106/6/2 105/4/2
f 112/1/3 107/2/3 105/3/3 110/4/3
f 111/1/4 112/5/4 110/6/4 109/4/4
f 110/4/5 105/3/5 106/2/5 109/1/5
f 111/4/6 108/3/6 107/2/6 112/1/6
f 116/1/1 119/2/1 117/3/1 114/4/1
f 115/1/2 116/5/2 114/6/2 113/4/2
f 120/1/3 115/2/3 113/3/3 118/4/3
f 119/1/4 120/5/4 118/6/4 117/4/4
f 118/4/5 113/3/5 114/2/5 117/1/5
f 119/4/6 116/3/6 115/2/6 120/1/6
f 124/1/1 127/2/1 125/3/1 122/4/1
f 123/1/2 124/5/2 122/6/2 121/4/2
f 128/1/3 123/2/3 121/3/3 126/4/3
f 127/1/4 128/5/4 126/6/4 125/4/4
f 126/4/5 121/3/5 122/2/5 125/1/5
f 127/4/6 124/3/6 123/2/6 128/1/6
f 132/1/1 135/2/1 133/3/1 130/4/1
f 131/1/2 132/5/2 130/6/2 129/4/2
f 136/1/3 131/2/3 129/3/3 134/4/3
f 135/1/4 136/5/4 134/6/4 133/4/4
f 134/4/5 129/3/5 130/2/5 133/1/5
f 135/4/6 132/3/6 131/2/6 136/1/6
