# Blender 4.1.0
# www.blender.org
mtllib right_p_rod.mtl
o Rod
v 1.312500 1.125000 -5.000000
v 1.312500 1.125000 -6.000000
v 1.312500 0.875000 -5.000000
v 1.312500 0.875000 -6.000000
v 1.187500 1.125000 -6.000000
v 1.187500 1.125000 -5.000000
v 1.187500 0.875000 -6.000000
v 1.187500 0.875000 -5.000000
v 1.167187 1.265625 -4.614062
v 1.323437 1.265625 -4.614062
v 1.167187 0.734375 -4.614062
v 1.323437 0.734375 -4.614062
v 1.323437 1.265625 -5.020312
v 1.167187 1.265625 -5.020312
v 1.323437 0.734375 -5.020312
v 1.167187 0.734375 -5.020312
v 1.375000 1.125000 -4.687500
v 1.375000 1.125000 -4.937500
v 1.375000 0.875000 -4.687500
v 1.375000 0.875000 -4.937500
v 1.312500 1.125000 -4.937500
v 1.312500 1.125000 -4.687500
v 1.312500 0.875000 -4.937500
v 1.312500 0.875000 -4.687500
vn -0.0000 -0.0000 -1.0000
vn 1.0000 -0.0000 -0.0000
vn -0.0000 -0.0000 1.0000
vn -1.0000 -0.0000 -0.0000
vn -0.0000 1.0000 -0.0000
vn -0.0000 -1.0000 -0.0000
vt 0.928571 0.223214
vt 0.946429 0.223214
vt 0.946429 0.258929
vt 0.928571 0.258929
vt 0.857143 0.223214
vt 1.000000 0.223214
vt 1.000000 0.258929
vt 0.857143 0.258929
vt 0.875000 0.223214
vt 0.875000 0.258929
vt 0.857143 0.241071
vt 1.000000 0.241071
vt 0.946429 0.000000
vt 1.000000 0.000000
vt 1.000000 0.071429
vt 0.946429 0.071429
vt 0.964286 0.000000
vt 0.982143 0.000000
vt 0.982143 0.071429
vt 0.964286 0.071429
vt 0.946429 0.008929
vt 0.946429 0.062500
vt 0.928571 0.062500
vt 0.928571 0.008929
vt 0.892857 0.035714
vt 0.901786 0.035714
vt 0.901786 0.071429
vt 0.892857 0.071429
vt 0.857143 0.035714
vt 0.857143 0.071429
s 0
usemtl m_91999fe3-aab7-0e05-00f8-01022a9398bf.007
f 4/1/1 7/2/1 5/3/1 2/4/1
f 3/5/2 4/6/2 2/7/2 1/8/2
f 8/5/3 3/9/3 1/10/3 6/8/3
f 7/6/4 8/5/4 6/8/4 5/7/4
f 6/8/5 1/11/5 2/12/5 5/7/5
f 7/12/6 4/6/6 3/5/6 8/11/6
f 12/13/2 15/14/2 13/15/2 10/16/2
f 11/17/3 12/18/3 10/19/3 9/20/3
f 16/13/4 11/14/4 9/15/4 14/16/4
f 15/17/1 16/18/1 14/19/1 13/20/1
f 14/21/5 9/22/5 10/23/5 13/24/5
f 15/22/6 12/21/6 11/24/6 16/23/6
f 20/25/1 23/26/1 21/27/1 18/28/1
f 19/29/2 20/25/2 18/28/2 17/30/2
f 24/26/3 19/25/3 17/28/3 22/27/3
f 23/25/4 24/29/4 22/30/4 21/28/4
f 22/26/5 17/25/5 18/28/5 21/27/5
f 23/26/6 20/25/6 19/28/6 24/27/6
