# Blender 4.0.2
# www.blender.org
mtllib left_piston.mtl
o cube.017
v -1.062500 0.312500 2.562500
v -1.062500 0.312500 1.437500
v -1.062500 0.125000 2.562500
v -1.062500 0.125000 1.437500
v -1.187500 0.312500 1.437500
v -1.187500 0.312500 2.562500
v -1.187500 0.125000 1.437500
v -1.187500 0.125000 2.562500
v -1.062500 0.312500 0.812500
v -1.062500 0.312500 -0.812500
v -1.062500 0.125000 0.812500
v -1.062500 0.125000 -0.812500
v -1.187500 0.312500 -0.812500
v -1.187500 0.312500 0.812500
v -1.187500 0.125000 -0.812500
v -1.187500 0.125000 0.812500
v -1.062500 -0.125000 0.812500
v -1.062500 -0.125000 -0.812500
v -1.062500 -0.312500 0.812500
v -1.062500 -0.312500 -0.812500
v -1.187500 -0.125000 -0.812500
v -1.187500 -0.125000 0.812500
v -1.187500 -0.312500 -0.812500
v -1.187500 -0.312500 0.812500
v -1.062500 -0.125000 -1.437500
v -1.062500 -0.125000 -2.562500
v -1.062500 -0.312500 -1.437500
v -1.062500 -0.312500 -2.562500
v -1.187500 -0.125000 -2.562500
v -1.187500 -0.125000 -1.437500
v -1.187500 -0.312500 -2.562500
v -1.187500 -0.312500 -1.437500
v -1.062500 0.312500 -1.437500
v -1.062500 0.312500 -2.562500
v -1.062500 0.125000 -1.437500
v -1.062500 0.125000 -2.562500
v -1.187500 0.312500 -2.562500
v -1.187500 0.312500 -1.437500
v -1.187500 0.125000 -2.562500
v -1.187500 0.125000 -1.437500
v -1.062500 0.500000 -0.875000
v -1.062500 0.500000 -1.000000
v -1.062500 -0.500000 -0.875000
v -1.062500 -0.500000 -1.000000
v -1.187500 0.500000 -1.000000
v -1.187500 0.500000 -0.875000
v -1.187500 -0.500000 -1.000000
v -1.187500 -0.500000 -0.875000
v -1.062500 0.500000 -1.250000
v -1.062500 0.500000 -1.375000
v -1.062500 -0.500000 -1.250000
v -1.062500 -0.500000 -1.375000
v -1.187500 0.500000 -1.375000
v -1.187500 0.500000 -1.250000
v -1.187500 -0.500000 -1.375000
v -1.187500 -0.500000 -1.250000
v -1.062500 -0.500000 -0.875000
v -1.062500 -0.500000 -1.375000
v -1.062500 -0.625000 -0.875000
v -1.062500 -0.625000 -1.375000
v -1.187500 -0.500000 -1.375000
v -1.187500 -0.500000 -0.875000
v -1.187500 -0.625000 -1.375000
v -1.187500 -0.625000 -0.875000
v -1.062500 0.375000 -1.312500
v -1.062500 0.375000 -1.437500
v -1.062500 -0.375000 -1.312500
v -1.062500 -0.375000 -1.437500
v -1.250000 0.375000 -1.437500
v -1.250000 0.375000 -1.312500
v -1.250000 -0.375000 -1.437500
v -1.250000 -0.375000 -1.312500
v -1.062500 0.375000 -0.812500
v -1.062500 0.375000 -0.937500
v -1.062500 -0.375000 -0.812500
v -1.062500 -0.375000 -0.937500
v -1.250000 0.375000 -0.937500
v -1.250000 0.375000 -0.812500
v -1.250000 -0.375000 -0.937500
v -1.250000 -0.375000 -0.812500
v -1.062500 0.625000 -0.875000
v -1.062500 0.625000 -1.375000
v -1.062500 0.500000 -0.875000
v -1.062500 0.500000 -1.375000
v -1.187500 0.625000 -1.375000
v -1.187500 0.625000 -0.875000
v -1.187500 0.500000 -1.375000
v -1.187500 0.500000 -0.875000
v -1.062500 0.375000 1.437500
v -1.062500 0.375000 1.312500
v -1.062500 -0.375000 1.437500
v -1.062500 -0.375000 1.312500
v -1.250000 0.375000 1.312500
v -1.250000 0.375000 1.437500
v -1.250000 -0.375000 1.312500
v -1.250000 -0.375000 1.437500
v -1.062500 0.500000 1.375000
v -1.062500 0.500000 1.250000
v -1.062500 -0.500000 1.375000
v -1.062500 -0.500000 1.250000
v -1.187500 0.500000 1.250000
v -1.187500 0.500000 1.375000
v -1.187500 -0.500000 1.250000
v -1.187500 -0.500000 1.375000
v -1.062500 -0.500000 1.375000
v -1.062500 -0.500000 0.875000
v -1.062500 -0.625000 1.375000
v -1.062500 -0.625000 0.875000
v -1.187500 -0.500000 0.875000
v -1.187500 -0.500000 1.375000
v -1.187500 -0.625000 0.875000
v -1.187500 -0.625000 1.375000
v -1.062500 0.500000 1.000000
v -1.062500 0.500000 0.875000
v -1.062500 -0.500000 1.000000
v -1.062500 -0.500000 0.875000
v -1.187500 0.500000 0.875000
v -1.187500 0.500000 1.000000
v -1.187500 -0.500000 0.875000
v -1.187500 -0.500000 1.000000
v -1.062500 0.375000 0.937500
v -1.062500 0.375000 0.812500
v -1.062500 -0.375000 0.937500
v -1.062500 -0.375000 0.812500
v -1.250000 0.375000 0.812500
v -1.250000 0.375000 0.937500
v -1.250000 -0.375000 0.812500
v -1.250000 -0.375000 0.937500
v -1.062500 0.625000 1.375000
v -1.062500 0.625000 0.875000
v -1.062500 0.500000 1.375000
v -1.062500 0.500000 0.875000
v -1.187500 0.625000 0.875000
v -1.187500 0.625000 1.375000
v -1.187500 0.500000 0.875000
v -1.187500 0.500000 1.375000
v -1.062500 -0.125000 2.562500
v -1.062500 -0.125000 1.437500
v -1.062500 -0.312500 2.562500
v -1.062500 -0.312500 1.437500
v -1.187500 -0.125000 1.437500
v -1.187500 -0.125000 2.562500
v -1.187500 -0.312500 1.437500
v -1.187500 -0.312500 2.562500
vn -0.0000 -0.0000 -1.0000
vn 1.0000 -0.0000 -0.0000
vn -0.0000 -0.0000 1.0000
vn -1.0000 -0.0000 -0.0000
vn -0.0000 1.0000 -0.0000
vn -0.0000 -1.0000 -0.0000
vt 0.062500 0.906250
vt 0.125000 0.906250
vt 0.125000 1.000000
vt 0.062500 1.000000
vt 0.000000 0.000000
vt 0.562500 0.000000
vt 0.562500 0.093750
vt 0.000000 0.093750
vt 0.000000 0.031250
vt 0.562500 0.031250
vt 0.562500 0.062500
vt 0.000000 0.062500
vt 0.812500 0.093750
vt 0.812500 0.187500
vt 0.000000 0.187500
vt 0.812500 0.125000
vt 0.000000 0.125000
vt 0.000000 0.156250
vt 0.812500 0.156250
vt 0.250000 0.187500
vt 0.187500 0.187500
vt 0.187500 0.687500
vt 0.250000 0.687500
vt 0.062500 0.187500
vt 0.000000 0.687500
vt 0.062500 0.687500
vt 0.250000 0.750000
vt 0.187500 0.750000
vt 0.250000 0.812500
vt 0.000000 0.812500
vt 0.000000 0.750000
vt 0.093750 0.437500
vt 0.156250 0.437500
vt 0.156250 0.687500
vt 0.093750 0.687500
vt 0.343750 0.187500
vt 0.343750 0.562500
vt 0.250000 0.562500
vt 0.593750 0.281250
vt 0.593750 0.218750
vt 0.968750 0.218750
vt 0.968750 0.281250
vt 0.156250 0.312500
vt 0.156250 0.406250
vt 0.093750 0.406250
vt 0.093750 0.312500
vt 0.218750 0.312500
vt 0.218750 0.406250
s 0
usemtl m_21a50a98-2b36-07c5-b295-4ef20c090b45.002
f 4/1/1 7/2/1 5/3/1 2/4/1
f 3/5/2 4/6/2 2/7/2 1/8/2
f 8/1/3 3/2/3 1/3/3 6/4/3
f 7/6/4 8/5/4 6/8/4 5/7/4
f 6/8/5 1/9/5 2/10/5 5/7/5
f 7/6/6 4/11/6 3/12/6 8/5/6
f 12/1/1 15/2/1 13/3/1 10/4/1
f 11/8/2 12/13/2 10/14/2 9/15/2
f 16/1/3 11/2/3 9/3/3 14/4/3
f 15/8/4 16/13/4 14/14/4 13/15/4
f 14/14/5 9/16/5 10/17/5 13/15/5
f 15/8/6 12/18/6 11/19/6 16/13/6
f 20/1/1 23/2/1 21/3/1 18/4/1
f 19/8/2 20/13/2 18/14/2 17/15/2
f 24/1/3 19/2/3 17/3/3 22/4/3
f 23/8/4 24/13/4 22/14/4 21/15/4
f 22/14/5 17/16/5 18/17/5 21/15/5
f 23/8/6 20/18/6 19/19/6 24/13/6
f 28/1/1 31/2/1 29/3/1 26/4/1
f 27/6/2 28/5/2 26/8/2 25/7/2
f 32/1/3 27/2/3 25/3/3 30/4/3
f 31/5/4 32/6/4 30/7/4 29/8/4
f 30/7/5 25/10/5 26/9/5 29/8/5
f 31/5/6 28/12/6 27/11/6 32/6/6
f 36/1/1 39/2/1 37/3/1 34/4/1
f 35/6/2 36/5/2 34/8/2 33/7/2
f 40/1/3 35/2/3 33/3/3 38/4/3
f 39/5/4 40/6/4 38/7/4 37/8/4
f 38/7/5 33/10/5 34/9/5 37/8/5
f 39/5/6 36/12/6 35/11/6 40/6/6
f 44/20/1 47/21/1 45/22/1 42/23/1
f 48/21/3 43/20/3 41/23/3 46/22/3
f 47/24/4 48/15/4 46/25/4 45/26/4
f 52/20/1 55/21/1 53/22/1 50/23/1
f 56/20/3 51/21/3 49/22/3 54/23/3
f 55/15/4 56/24/4 54/26/4 53/25/4
f 60/27/1 63/28/1 61/22/1 58/23/1
f 64/28/3 59/27/3 57/23/3 62/22/3
f 63/29/4 64/30/4 62/31/4 61/27/4
f 62/32/5 57/33/5 58/34/5 61/35/5
f 63/32/6 60/33/6 59/34/6 64/35/6
f 68/20/1 71/36/1 69/37/1 66/38/1
f 72/36/3 67/20/3 65/38/3 70/37/3
f 71/39/4 72/40/4 70/41/4 69/42/4
f 70/43/5 65/44/5 66/45/5 69/46/5
f 71/46/6 68/45/6 67/44/6 72/43/6
f 76/20/1 79/36/1 77/37/1 74/38/1
f 80/36/3 75/20/3 73/38/3 78/37/3
f 79/40/4 80/39/4 78/42/4 77/41/4
f 78/46/5 73/45/5 74/44/5 77/43/5
f 79/43/6 76/44/6 75/45/6 80/46/6
f 84/23/1 87/22/1 85/28/1 82/27/1
f 88/22/3 83/23/3 81/27/3 86/28/3
f 87/27/4 88/31/4 86/30/4 85/29/4
f 86/32/5 81/33/5 82/34/5 85/35/5
f 87/32/6 84/33/6 83/34/6 88/35/6
f 92/20/1 95/36/1 93/37/1 90/38/1
f 96/20/3 91/36/3 89/37/3 94/38/3
f 95/41/4 96/42/4 94/39/4 93/40/4
f 94/47/5 89/48/5 90/44/5 93/43/5
f 95/43/6 92/44/6 91/45/6 96/46/6
f 100/21/1 103/20/1 101/23/1 98/22/1
f 104/21/3 99/20/3 97/23/3 102/22/3
f 103/24/4 104/15/4 102/25/4 101/26/4
f 108/27/1 111/28/1 109/22/1 106/23/1
f 112/28/3 107/27/3 105/23/3 110/22/3
f 111/30/4 112/29/4 110/27/4 109/31/4
f 110/32/5 105/33/5 106/34/5 109/35/5
f 111/32/6 108/33/6 107/34/6 112/35/6
f 116/20/1 119/21/1 117/22/1 114/23/1
f 120/20/3 115/21/3 113/22/3 118/23/3
f 119/15/4 120/24/4 118/26/4 117/25/4
f 124/20/1 127/36/1 125/37/1 122/38/1
f 128/20/3 123/36/3 121/37/3 126/38/3
f 127/42/4 128/41/4 126/40/4 125/39/4
f 126/43/5 121/44/5 122/45/5 125/46/5
f 127/47/6 124/48/6 123/44/6 128/43/6
f 132/23/1 135/22/1 133/28/1 130/27/1
f 136/22/3 131/23/3 129/27/3 134/28/3
f 135/31/4 136/27/4 134/29/4 133/30/4
f 134/32/5 129/33/5 130/34/5 133/35/5
f 135/32/6 132/33/6 131/34/6 136/35/6
f 140/1/1 143/2/1 141/3/1 138/4/1
f 139/5/2 140/6/2 138/7/2 137/8/2
f 144/1/3 139/2/3 137/3/3 142/4/3
f 143/6/4 144/5/4 142/8/4 141/7/4
f 142/8/5 137/9/5 138/10/5 141/7/5
f 143/6/6 140/11/6 139/12/6 144/5/6
