# Blender 4.0.2
# www.blender.org
mtllib right_c_rod.mtl
o cube.004
v 1.375000 0.125000 1.250000
v 1.375000 0.125000 1.000000
v 1.375000 -0.125000 1.250000
v 1.375000 -0.125000 1.000000
v 1.125000 0.125000 1.000000
v 1.125000 0.125000 1.250000
v 1.125000 -0.125000 1.000000
v 1.125000 -0.125000 1.250000
v 1.187500 0.187500 1.312500
v 1.187500 0.187500 0.937500
v 1.187500 -0.187500 1.312500
v 1.187500 -0.187500 0.937500
v 1.062500 0.187500 0.937500
v 1.062500 0.187500 1.312500
v 1.062500 -0.187500 0.937500
v 1.062500 -0.187500 1.312500
v 1.187500 0.125000 0.937500
v 1.187500 0.125000 -0.937500
v 1.187500 -0.125000 0.937500
v 1.187500 -0.125000 -0.937500
v 1.062500 0.125000 -0.937500
v 1.062500 0.125000 0.937500
v 1.062500 -0.125000 -0.937500
v 1.062500 -0.125000 0.937500
v 1.187500 0.187500 -0.937500
v 1.187500 0.187500 -1.312500
v 1.187500 -0.187500 -0.937500
v 1.187500 -0.187500 -1.312500
v 1.062500 0.187500 -1.312500
v 1.062500 0.187500 -0.937500
v 1.062500 -0.187500 -1.312500
v 1.062500 -0.187500 -0.937500
v 1.193750 0.125000 -1.000000
v 1.193750 0.125000 -1.250000
v 1.193750 -0.125000 -1.000000
v 1.193750 -0.125000 -1.250000
v 0.943750 0.125000 -1.250000
v 0.943750 0.125000 -1.000000
v 0.943750 -0.125000 -1.250000
v 0.943750 -0.125000 -1.000000
vn -0.0000 -0.0000 -1.0000
vn 1.0000 -0.0000 -0.0000
vn -0.0000 -0.0000 1.0000
vn -1.0000 -0.0000 -0.0000
vn -0.0000 1.0000 -0.0000
vn -0.0000 -1.0000 -0.0000
vt 0.892857 0.035714
vt 0.928571 0.035714
vt 0.928571 0.071429
vt 0.892857 0.071429
vt 0.857143 0.035714
vt 0.857143 0.071429
vt 0.857143 0.008929
vt 0.839286 0.008929
vt 0.839286 0.062500
vt 0.857143 0.062500
vt 0.785714 0.008929
vt 0.785714 0.062500
vt 1.000000 0.571429
vt 0.982143 0.571429
vt 0.982143 0.607143
vt 1.000000 0.607143
vt 0.732143 0.571429
vt 0.732143 0.607143
vt 0.750000 0.571429
vt 0.750000 0.607143
vt 1.000000 0.553571
vt 0.732143 0.553571
vt 0.910714 0.035714
vt 0.910714 0.071429
s 0
usemtl m_a04509b2-9e79-7152-ac01-54b87f7e5258.050
f 4/1/1 7/2/1 5/3/1 2/4/1
f 3/5/2 4/1/2 2/4/2 1/6/2
f 8/2/3 3/1/3 1/4/3 6/3/3
f 7/1/4 8/5/4 6/6/4 5/4/4
f 6/2/5 1/1/5 2/4/5 5/3/5
f 7/2/6 4/1/6 3/4/6 8/3/6
f 12/7/1 15/8/1 13/9/1 10/10/1
f 11/8/2 12/11/2 10/12/2 9/9/2
f 16/7/3 11/8/3 9/9/3 14/10/3
f 15/8/4 16/11/4 14/12/4 13/9/4
f 14/7/5 9/8/5 10/9/5 13/10/5
f 15/7/6 12/8/6 11/9/6 16/10/6
f 20/13/1 23/14/1 21/15/1 18/16/1
f 19/13/2 20/17/2 18/18/2 17/16/2
f 24/19/3 19/17/3 17/18/3 22/20/3
f 23/13/4 24/17/4 22/18/4 21/16/4
f 22/13/5 17/21/5 18/22/5 21/17/5
f 23/13/6 20/21/6 19/22/6 24/17/6
f 28/7/1 31/8/1 29/9/1 26/10/1
f 27/8/2 28/11/2 26/12/2 25/9/2
f 32/7/3 27/8/3 25/9/3 30/10/3
f 31/8/4 32/11/4 30/12/4 29/9/4
f 30/7/5 25/8/5 26/9/5 29/10/5
f 31/7/6 28/8/6 27/9/6 32/10/6
f 36/1/1 39/23/1 37/24/1 34/4/1
f 35/5/2 36/1/2 34/4/2 33/6/2
f 40/23/3 35/1/3 33/4/3 38/24/3
f 39/1/4 40/5/4 38/6/4 37/4/4
f 38/23/5 33/1/5 34/4/5 37/24/5
f 39/23/6 36/1/6 35/4/6 40/24/6
