# Blender 4.2.3 LTS
# www.blender.org
mtllib left_c_rod.mtl
o cube.013
v -1.000000 0.125000 0.125000
v -1.000000 0.125000 -0.125000
v -1.000000 -0.125000 0.125000
v -1.000000 -0.125000 -0.125000
v -1.250000 0.125000 -0.125000
v -1.250000 0.125000 0.125000
v -1.250000 -0.125000 -0.125000
v -1.250000 -0.125000 0.125000
v -1.062500 0.187500 -2.062500
v -1.062500 0.187500 -2.437500
v -1.062500 -0.187500 -2.062500
v -1.062500 -0.187500 -2.437500
v -1.187500 0.187500 -2.437500
v -1.187500 0.187500 -2.062500
v -1.187500 -0.187500 -2.437500
v -1.187500 -0.187500 -2.062500
v -1.062500 0.125000 -2.437500
v -1.062500 0.125000 -4.312500
v -1.062500 -0.125000 -2.437500
v -1.062500 -0.125000 -4.312500
v -1.187500 0.125000 -4.312500
v -1.187500 0.125000 -2.437500
v -1.187500 -0.125000 -4.312500
v -1.187500 -0.125000 -2.437500
v -1.062500 0.187500 -4.312500
v -1.062500 0.187500 -4.687500
v -1.062500 -0.187500 -4.312500
v -1.062500 -0.187500 -4.687500
v -1.187500 0.187500 -4.687500
v -1.187500 0.187500 -4.312500
v -1.187500 -0.187500 -4.687500
v -1.187500 -0.187500 -4.312500
v -1.000000 0.125000 -4.375000
v -1.000000 0.125000 -4.625000
v -1.000000 -0.125000 -4.375000
v -1.000000 -0.125000 -4.625000
v -1.250000 0.125000 -4.625000
v -1.250000 0.125000 -4.375000
v -1.250000 -0.125000 -4.625000
v -1.250000 -0.125000 -4.375000
v -1.062500 0.125000 -0.187500
v -1.062500 0.125000 -2.062500
v -1.062500 -0.125000 -0.187500
v -1.062500 -0.125000 -2.062500
v -1.187500 0.125000 -2.062500
v -1.187500 0.125000 -0.187500
v -1.187500 -0.125000 -2.062500
v -1.187500 -0.125000 -0.187500
v -1.000000 0.125000 -2.125000
v -1.000000 0.125000 -2.375000
v -1.000000 -0.125000 -2.125000
v -1.000000 -0.125000 -2.375000
v -1.250000 0.125000 -2.375000
v -1.250000 0.125000 -2.125000
v -1.250000 -0.125000 -2.375000
v -1.250000 -0.125000 -2.125000
v -1.062500 0.187500 0.187500
v -1.062500 0.187500 -0.187500
v -1.062500 -0.187500 0.187500
v -1.062500 -0.187500 -0.187500
v -1.187500 0.187500 -0.187500
v -1.187500 0.187500 0.187500
v -1.187500 -0.187500 -0.187500
v -1.187500 -0.187500 0.187500
v -1.062500 0.125000 2.062500
v -1.062500 0.125000 0.187500
v -1.062500 -0.125000 2.062500
v -1.062500 -0.125000 0.187500
v -1.187500 0.125000 0.187500
v -1.187500 0.125000 2.062500
v -1.187500 -0.125000 0.187500
v -1.187500 -0.125000 2.062500
v -1.062500 0.187500 2.437500
v -1.062500 0.187500 2.062500
v -1.062500 -0.187500 2.437500
v -1.062500 -0.187500 2.062500
v -1.187500 0.187500 2.062500
v -1.187500 0.187500 2.437500
v -1.187500 -0.187500 2.062500
v -1.187500 -0.187500 2.437500
v -1.000000 0.125000 2.375000
v -1.000000 0.125000 2.125000
v -1.000000 -0.125000 2.375000
v -1.000000 -0.125000 2.125000
v -1.250000 0.125000 2.125000
v -1.250000 0.125000 2.375000
v -1.250000 -0.125000 2.125000
v -1.250000 -0.125000 2.375000
v -1.062500 0.125000 4.312500
v -1.062500 0.125000 2.437500
v -1.062500 -0.125000 4.312500
v -1.062500 -0.125000 2.437500
v -1.187500 0.125000 2.437500
v -1.187500 0.125000 4.312500
v -1.187500 -0.125000 2.437500
v -1.187500 -0.125000 4.312500
v -1.062500 0.187500 4.687500
v -1.062500 0.187500 4.312500
v -1.062500 -0.187500 4.687500
v -1.062500 -0.187500 4.312500
v -1.187500 0.187500 4.312500
v -1.187500 0.187500 4.687500
v -1.187500 -0.187500 4.312500
v -1.187500 -0.187500 4.687500
v -1.000000 0.125000 4.625000
v -1.000000 0.125000 4.375000
v -1.000000 -0.125000 4.625000
v -1.000000 -0.125000 4.375000
v -1.250000 0.125000 4.375000
v -1.250000 0.125000 4.625000
v -1.250000 -0.125000 4.375000
v -1.250000 -0.125000 4.625000
vn -0.0000 -0.0000 -1.0000
vn 1.0000 -0.0000 -0.0000
vn -0.0000 -0.0000 1.0000
vn -1.0000 -0.0000 -0.0000
vn -0.0000 1.0000 -0.0000
vn -0.0000 -1.0000 -0.0000
vt 0.928571 0.035714
vt 0.892857 0.035714
vt 0.892857 0.071429
vt 0.928571 0.071429
vt 0.857143 0.035714
vt 0.857143 0.071429
vt 0.857143 0.008929
vt 0.839286 0.008929
vt 0.839286 0.062500
vt 0.857143 0.062500
vt 0.785714 0.008929
vt 0.785714 0.062500
vt 0.982143 0.571429
vt 1.000000 0.571429
vt 1.000000 0.607143
vt 0.982143 0.607143
vt 0.732143 0.571429
vt 0.732143 0.607143
vt 0.750000 0.571429
vt 0.750000 0.607143
vt 1.000000 0.553571
vt 0.732143 0.553571
s 0
usemtl m_0c0763b5-a325-edc4-31a8-810cceeac193
f 4/1/1 7/2/1 5/3/1 2/4/1
f 3/5/2 4/2/2 2/3/2 1/6/2
f 8/2/3 3/1/3 1/4/3 6/3/3
f 7/2/4 8/5/4 6/6/4 5/3/4
f 6/2/5 1/1/5 2/4/5 5/3/5
f 7/2/6 4/1/6 3/4/6 8/3/6
f 12/7/1 15/8/1 13/9/1 10/10/1
f 11/11/2 12/8/2 10/9/2 9/12/2
f 16/8/3 11/7/3 9/10/3 14/9/3
f 15/11/4 16/8/4 14/9/4 13/12/4
f 14/9/5 9/10/5 10/7/5 13/8/5
f 15/9/6 12/10/6 11/7/6 16/8/6
f 20/13/1 23/14/1 21/15/1 18/16/1
f 19/17/2 20/14/2 18/15/2 17/18/2
f 24/17/3 19/19/3 17/20/3 22/18/3
f 23/17/4 24/14/4 22/15/4 21/18/4
f 22/21/5 17/14/5 18/17/5 21/22/5
f 23/21/6 20/14/6 19/17/6 24/22/6
f 28/7/1 31/8/1 29/9/1 26/10/1
f 27/11/2 28/8/2 26/9/2 25/12/2
f 32/8/3 27/7/3 25/10/3 30/9/3
f 31/11/4 32/8/4 30/9/4 29/12/4
f 30/9/5 25/10/5 26/7/5 29/8/5
f 31/9/6 28/10/6 27/7/6 32/8/6
f 36/1/1 39/2/1 37/3/1 34/4/1
f 35/5/2 36/2/2 34/3/2 33/6/2
f 40/2/3 35/1/3 33/4/3 38/3/3
f 39/2/4 40/5/4 38/6/4 37/3/4
f 38/2/5 33/1/5 34/4/5 37/3/5
f 39/2/6 36/1/6 35/4/6 40/3/6
f 44/13/1 47/14/1 45/15/1 42/16/1
f 43/17/2 44/14/2 42/15/2 41/18/2
f 48/17/3 43/19/3 41/20/3 46/18/3
f 47/17/4 48/14/4 46/15/4 45/18/4
f 46/21/5 41/14/5 42/17/5 45/22/5
f 47/21/6 44/14/6 43/17/6 48/22/6
f 52/1/1 55/2/1 53/3/1 50/4/1
f 51/5/2 52/2/2 50/3/2 49/6/2
f 56/2/3 51/1/3 49/4/3 54/3/3
f 55/2/4 56/5/4 54/6/4 53/3/4
f 54/2/5 49/1/5 50/4/5 53/3/5
f 55/2/6 52/1/6 51/4/6 56/3/6
f 60/7/1 63/8/1 61/9/1 58/10/1
f 59/11/2 60/8/2 58/9/2 57/12/2
f 64/8/3 59/7/3 57/10/3 62/9/3
f 63/11/4 64/8/4 62/9/4 61/12/4
f 62/9/5 57/10/5 58/7/5 61/8/5
f 63/9/6 60/10/6 59/7/6 64/8/6
f 68/13/1 71/14/1 69/15/1 66/16/1
f 67/17/2 68/14/2 66/15/2 65/18/2
f 72/17/3 67/19/3 65/20/3 70/18/3
f 71/17/4 72/14/4 70/15/4 69/18/4
f 70/21/5 65/14/5 66/17/5 69/22/5
f 71/21/6 68/14/6 67/17/6 72/22/6
f 76/7/1 79/8/1 77/9/1 74/10/1
f 75/11/2 76/8/2 74/9/2 73/12/2
f 80/8/3 75/7/3 73/10/3 78/9/3
f 79/11/4 80/8/4 78/9/4 77/12/4
f 78/9/5 73/10/5 74/7/5 77/8/5
f 79/9/6 76/10/6 75/7/6 80/8/6
f 84/1/1 87/2/1 85/3/1 82/4/1
f 83/5/2 84/2/2 82/3/2 81/6/2
f 88/2/3 83/1/3 81/4/3 86/3/3
f 87/2/4 88/5/4 86/6/4 85/3/4
f 86/2/5 81/1/5 82/4/5 85/3/5
f 87/2/6 84/1/6 83/4/6 88/3/6
f 92/13/1 95/14/1 93/15/1 90/16/1
f 91/17/2 92/14/2 90/15/2 89/18/2
f 96/17/3 91/19/3 89/20/3 94/18/3
f 95/17/4 96/14/4 94/15/4 93/18/4
f 94/21/5 89/14/5 90/17/5 93/22/5
f 95/21/6 92/14/6 91/17/6 96/22/6
f 100/7/1 103/8/1 101/9/1 98/10/1
f 99/11/2 100/8/2 98/9/2 97/12/2
f 104/8/3 99/7/3 97/10/3 102/9/3
f 103/11/4 104/8/4 102/9/4 101/12/4
f 102/9/5 97/10/5 98/7/5 101/8/5
f 103/9/6 100/10/6 99/7/6 104/8/6
f 108/1/1 111/2/1 109/3/1 106/4/1
f 107/5/2 108/2/2 106/3/2 105/6/2
f 112/2/3 107/1/3 105/4/3 110/3/3
f 111/2/4 112/5/4 110/6/4 109/3/4
f 110/2/5 105/1/5 106/4/5 109/3/5
f 111/2/6 108/1/6 107/4/6 112/3/6
