# Blender 4.0.2
# www.blender.org
mtllib wheels_semi_blind.mtl
o semi_blind_Cube.001
v 1.062500 0.875000 -0.000000
v 1.062500 0.812500 0.336549
v 1.062500 0.812500 -0.000000
v 0.812500 0.937500 -0.000000
v 0.812500 0.875000 0.362437
v 0.812500 0.875000 -0.000000
v 0.750000 0.000000 0.000000
v 0.750000 0.937500 0.388325
v 0.750000 0.937500 -0.000000
v 0.812500 0.937500 0.388325
v 0.750000 0.937500 -0.388325
v 0.812500 0.937500 -0.388325
v 1.062500 0.875000 -0.362437
v 0.812500 0.875000 -0.362437
v 1.062500 0.812500 -0.336549
v 1.062500 0.875000 0.362437
v 1.062500 0.618719 0.618718
v 1.062500 0.336549 0.812500
v 1.062500 0.574524 0.574524
v 0.812500 0.662913 0.662913
v 0.812500 0.362437 0.875000
v 0.812500 0.618719 0.618718
v 0.750000 0.388325 0.937500
v 0.750000 0.662913 0.662913
v 0.812500 0.388325 0.937500
v 1.062500 0.362437 0.875000
v 1.062500 0.000000 0.875000
v 1.062500 -0.336549 0.812500
v 1.062500 0.000000 0.812500
v 0.812500 0.000000 0.937500
v 0.812500 -0.362437 0.875000
v 0.812500 0.000000 0.875000
v 0.750000 -0.388325 0.937500
v 0.750000 0.000000 0.937500
v 0.812500 -0.388325 0.937500
v 1.062500 -0.362437 0.875000
v 1.062500 -0.618718 0.618719
v 1.062500 -0.812500 0.336549
v 1.062500 -0.574524 0.574524
v 0.812500 -0.662913 0.662913
v 0.812500 -0.875000 0.362437
v 0.812500 -0.618718 0.618719
v 0.750000 -0.937500 0.388325
v 0.750000 -0.662913 0.662913
v 0.812500 -0.937500 0.388325
v 1.062500 -0.875000 0.362437
v 1.062500 -0.875000 0.000000
v 1.062500 -0.812500 -0.336548
v 1.062500 -0.812500 0.000000
v 0.812500 -0.937500 0.000000
v 0.812500 -0.875000 -0.362437
v 0.812500 -0.875000 0.000000
v 0.750000 -0.937500 -0.388325
v 0.750000 -0.937500 0.000000
v 0.812500 -0.937500 -0.388325
v 1.062500 -0.875000 -0.362437
v 1.062500 -0.618719 -0.618718
v 1.062500 -0.336549 -0.812500
v 1.062500 -0.574524 -0.574524
v 0.812500 -0.662913 -0.662912
v 0.812500 -0.362437 -0.875000
v 0.812500 -0.618719 -0.618718
v 0.750000 -0.388325 -0.937500
v 0.750000 -0.662913 -0.662912
v 0.812500 -0.388325 -0.937500
v 1.062500 -0.362437 -0.875000
v 1.062500 -0.000000 -0.875000
v 1.062500 0.336548 -0.812500
v 1.062500 -0.000000 -0.812500
v 0.812500 -0.000000 -0.937500
v 0.812500 0.362437 -0.875000
v 0.812500 -0.000000 -0.875000
v 0.750000 0.388325 -0.937500
v 0.750000 -0.000000 -0.937500
v 0.812500 0.388325 -0.937500
v 1.062500 0.362437 -0.875000
v 1.062500 0.618718 -0.618719
v 1.062500 0.574524 -0.574524
v 0.812500 0.662912 -0.662913
v 0.812500 0.618718 -0.618719
v 0.750000 0.662912 -0.662913
v 1.062500 0.336549 0.336549
v 1.062500 -0.336549 0.336549
v 1.062500 -0.336549 0.000000
v 1.062500 0.000000 0.000000
v 1.062500 0.336548 -0.000000
v 1.062500 0.000000 0.336549
v 1.062500 -0.336549 -0.336549
v 1.062500 0.336548 -0.336549
v 1.062500 -0.000000 -0.336549
v -1.062500 0.000000 0.875000
v -1.062500 0.336549 0.812500
v -1.062500 0.000000 0.812500
v -0.812500 0.000000 0.937500
v -0.812500 0.362437 0.875000
v -0.812500 0.000000 0.875000
v -0.750000 -0.000000 0.000000
v -0.750000 0.388325 0.937500
v -0.750000 0.000000 0.937500
v -0.812500 0.388325 0.937500
v -0.750000 -0.388325 0.937500
v -0.812500 -0.388325 0.937500
v -1.062500 -0.362437 0.875000
v -0.812500 -0.362437 0.875000
v -1.062500 -0.336549 0.812500
v -1.062500 0.362437 0.875000
v -1.062500 0.618718 0.618719
v -1.062500 0.812500 0.336549
v -1.062500 0.574524 0.574524
v -0.812500 0.662913 0.662913
v -0.812500 0.875000 0.362437
v -0.812500 0.618718 0.618719
v -0.750000 0.937500 0.388325
v -0.750000 0.662913 0.662913
v -0.812500 0.937500 0.388325
v -1.062500 0.875000 0.362437
v -1.062500 0.875000 -0.000000
v -1.062500 0.812500 -0.336549
v -1.062500 0.812500 -0.000000
v -0.812500 0.937500 -0.000000
v -0.812500 0.875000 -0.362437
v -0.812500 0.875000 -0.000000
v -0.750000 0.937500 -0.388325
v -0.750000 0.937500 -0.000000
v -0.812500 0.937500 -0.388325
v -1.062500 0.875000 -0.362437
v -1.062500 0.618719 -0.618718
v -1.062500 0.336549 -0.812500
v -1.062500 0.574524 -0.574524
v -0.812500 0.662913 -0.662913
v -0.812500 0.362437 -0.875000
v -0.812500 0.618719 -0.618718
v -0.750000 0.388325 -0.937500
v -0.750000 0.662913 -0.662913
v -0.812500 0.388325 -0.937500
v -1.062500 0.362437 -0.875000
v -1.062500 -0.000000 -0.875000
v -1.062500 -0.336548 -0.812500
v -1.062500 -0.000000 -0.812500
v -0.812500 -0.000000 -0.937500
v -0.812500 -0.362437 -0.875000
v -0.812500 -0.000000 -0.875000
v -0.750000 -0.388325 -0.937500
v -0.750000 -0.000000 -0.937500
v -0.812500 -0.388325 -0.937500
v -1.062500 -0.362437 -0.875000
v -1.062500 -0.618718 -0.618719
v -1.062500 -0.812500 -0.336549
v -1.062500 -0.574524 -0.574524
v -0.812500 -0.662912 -0.662913
v -0.812500 -0.875000 -0.362437
v -0.812500 -0.618718 -0.618719
v -0.750000 -0.937500 -0.388325
v -0.750000 -0.662912 -0.662913
v -0.812500 -0.937500 -0.388325
v -1.062500 -0.875000 -0.362437
v -1.062500 -0.875000 0.000000
v -1.062500 -0.812500 0.336548
v -1.062500 -0.812500 0.000000
v -0.812500 -0.937500 0.000000
v -0.812500 -0.875000 0.362437
v -0.812500 -0.875000 0.000000
v -0.750000 -0.937500 0.388325
v -0.750000 -0.937500 0.000000
v -0.812500 -0.937500 0.388325
v -1.062500 -0.875000 0.362437
v -1.062500 -0.618719 0.618718
v -1.062500 -0.574524 0.574524
v -0.812500 -0.662913 0.662912
v -0.812500 -0.618719 0.618718
v -0.750000 -0.662913 0.662912
v -1.062500 0.336549 0.336549
v -1.062500 0.336549 -0.336549
v -1.062500 -0.000000 -0.336549
v -1.062500 -0.000000 0.000000
v -1.062500 0.000000 0.336548
v -1.062500 0.336549 -0.000000
v -1.062500 -0.336549 -0.336549
v -1.062500 -0.336549 0.336548
v -1.062500 -0.336549 0.000000
vn 1.0000 -0.0000 -0.0000
vn -0.0000 1.0000 -0.0000
vn -1.0000 -0.0000 -0.0000
vn -0.0000 0.7071 0.7071
vn -0.0000 -0.0000 1.0000
vn -0.0000 -0.7071 0.7071
vn -0.0000 -1.0000 -0.0000
vn -0.0000 -0.7071 -0.7071
vn -0.0000 -0.0000 -1.0000
vn -0.0000 0.7071 -0.7071
vt 0.833333 0.833333
vt 0.721150 0.812500
vt 0.833333 0.812500
vt 0.833333 0.854167
vt 0.712521 0.833333
vt 0.712521 0.958333
vt 0.833333 0.875000
vt 0.833333 0.958333
vt 0.833333 0.562500
vt 0.703892 0.875000
vt 0.833333 0.979167
vt 0.703892 0.958333
vt 0.962775 0.979167
vt 0.962775 0.958333
vt 0.954145 0.875000
vt 0.954145 0.958333
vt 0.954146 0.833333
vt 0.962775 0.854167
vt 0.945516 0.812500
vt 0.962775 0.875000
vt 0.703892 0.854167
vt 0.712521 0.875000
vt 0.703892 0.979167
vt 0.403849 0.820516
vt 0.483174 0.899841
vt 0.562500 0.820516
vt 0.403849 0.596151
vt 0.291666 0.437500
vt 0.291666 0.596151
vt 0.291666 0.708333
vt 0.483174 0.516825
vt 0.403849 0.437500
vt 0.291666 0.820516
vt 0.403849 0.708333
vt 0.562500 0.596151
vt 0.403849 0.979167
vt 0.291666 0.979167
vt 0.562500 0.708333
vt 0.020833 0.708333
vt 0.179484 0.596151
vt 0.020833 0.596151
vt 0.179484 0.820516
vt 0.020833 0.820516
vt 0.100158 0.899841
vt 0.100158 0.516825
vt 0.179484 0.708333
vt 0.179484 0.437500
vt 0.179483 0.979167
vt 0.100159 0.899841
vt 0.291667 0.437500
vt 0.291667 0.596151
vt 0.291667 0.708333
vt 0.100159 0.516825
vt 0.291667 0.820516
vt 0.179484 0.979167
vt 0.291667 0.979167
vt 0.483175 0.899841
vt 0.483175 0.516825
vt 0.403850 0.979167
s 0
usemtl m_6ff40f20-dead-c0cd-6d8c-8d49f16cdb47
f 1/1/1 2/2/1 3/3/1
f 4/4/1 5/5/1 6/1/1
f 5/6/2 1/7/2 6/8/2
f 7/9/3 8/10/3 9/7/3
f 9/11/2 10/12/2 4/8/2
f 11/13/2 4/8/2 12/14/2
f 6/8/2 13/15/2 14/16/2
f 4/4/1 14/17/1 12/18/1
f 1/1/1 15/19/1 13/17/1
f 11/20/3 7/9/3 9/7/3
f 1/1/1 16/5/1 2/2/1
f 4/4/1 10/21/1 5/5/1
f 5/6/2 16/22/2 1/7/2
f 9/11/2 8/23/2 10/12/2
f 11/13/2 9/11/2 4/8/2
f 6/8/2 1/7/2 13/15/2
f 4/4/1 6/1/1 14/17/1
f 1/1/1 3/3/1 15/19/1
f 17/1/1 18/2/1 19/3/1
f 20/4/1 21/5/1 22/1/1
f 21/6/4 17/7/4 22/8/4
f 7/9/3 23/10/3 24/7/3
f 24/11/4 25/12/4 20/8/4
f 8/13/4 20/8/4 10/14/4
f 22/8/4 16/15/4 5/16/4
f 20/4/1 5/17/1 10/18/1
f 17/1/1 2/19/1 16/17/1
f 8/20/3 7/9/3 24/7/3
f 17/1/1 26/5/1 18/2/1
f 20/4/1 25/21/1 21/5/1
f 21/6/4 26/22/4 17/7/4
f 24/11/4 23/23/4 25/12/4
f 8/13/4 24/11/4 20/8/4
f 22/8/4 17/7/4 16/15/4
f 20/4/1 22/1/1 5/17/1
f 17/1/1 19/3/1 2/19/1
f 27/1/1 28/2/1 29/3/1
f 30/4/1 31/5/1 32/1/1
f 31/6/5 27/7/5 32/8/5
f 7/9/3 33/10/3 34/7/3
f 34/11/5 35/12/5 30/8/5
f 23/13/5 30/8/5 25/14/5
f 32/8/5 26/15/5 21/16/5
f 30/4/1 21/17/1 25/18/1
f 27/1/1 18/19/1 26/17/1
f 23/20/3 7/9/3 34/7/3
f 27/1/1 36/5/1 28/2/1
f 30/4/1 35/21/1 31/5/1
f 31/6/5 36/22/5 27/7/5
f 34/11/5 33/23/5 35/12/5
f 23/13/5 34/11/5 30/8/5
f 32/8/5 27/7/5 26/15/5
f 30/4/1 32/1/1 21/17/1
f 27/1/1 29/3/1 18/19/1
f 37/1/1 38/2/1 39/3/1
f 40/4/1 41/5/1 42/1/1
f 41/6/6 37/7/6 42/8/6
f 7/9/3 43/10/3 44/7/3
f 44/11/6 45/12/6 40/8/6
f 33/13/6 40/8/6 35/14/6
f 42/8/6 36/15/6 31/16/6
f 40/4/1 31/17/1 35/18/1
f 37/1/1 28/19/1 36/17/1
f 33/20/3 7/9/3 44/7/3
f 37/1/1 46/5/1 38/2/1
f 40/4/1 45/21/1 41/5/1
f 41/6/6 46/22/6 37/7/6
f 44/11/6 43/23/6 45/12/6
f 33/13/6 44/11/6 40/8/6
f 42/8/6 37/7/6 36/15/6
f 40/4/1 42/1/1 31/17/1
f 37/1/1 39/3/1 28/19/1
f 47/1/1 48/2/1 49/3/1
f 50/4/1 51/5/1 52/1/1
f 51/6/7 47/7/7 52/8/7
f 7/9/3 53/10/3 54/7/3
f 54/11/7 55/12/7 50/8/7
f 43/13/7 50/8/7 45/14/7
f 52/8/7 46/15/7 41/16/7
f 50/4/1 41/17/1 45/18/1
f 47/1/1 38/19/1 46/17/1
f 43/20/3 7/9/3 54/7/3
f 47/1/1 56/5/1 48/2/1
f 50/4/1 55/21/1 51/5/1
f 51/6/7 56/22/7 47/7/7
f 54/11/7 53/23/7 55/12/7
f 43/13/7 54/11/7 50/8/7
f 52/8/7 47/7/7 46/15/7
f 50/4/1 52/1/1 41/17/1
f 47/1/1 49/3/1 38/19/1
f 57/1/1 58/2/1 59/3/1
f 60/4/1 61/5/1 62/1/1
f 61/6/8 57/7/8 62/8/8
f 7/9/3 63/10/3 64/7/3
f 64/11/8 65/12/8 60/8/8
f 53/13/8 60/8/8 55/14/8
f 62/8/8 56/15/8 51/16/8
f 60/4/1 51/17/1 55/18/1
f 57/1/1 48/19/1 56/17/1
f 53/20/3 7/9/3 64/7/3
f 57/1/1 66/5/1 58/2/1
f 60/4/1 65/21/1 61/5/1
f 61/6/8 66/22/8 57/7/8
f 64/11/8 63/23/8 65/12/8
f 53/13/8 64/11/8 60/8/8
f 62/8/8 57/7/8 56/15/8
f 60/4/1 62/1/1 51/17/1
f 57/1/1 59/3/1 48/19/1
f 67/1/1 68/2/1 69/3/1
f 70/4/1 71/5/1 72/1/1
f 71/6/9 67/7/9 72/8/9
f 7/9/3 73/10/3 74/7/3
f 74/11/9 75/12/9 70/8/9
f 63/13/9 70/8/9 65/14/9
f 72/8/9 66/15/9 61/16/9
f 70/4/1 61/17/1 65/18/1
f 67/1/1 58/19/1 66/17/1
f 63/20/3 7/9/3 74/7/3
f 67/1/1 76/5/1 68/2/1
f 70/4/1 75/21/1 71/5/1
f 71/6/9 76/22/9 67/7/9
f 74/11/9 73/23/9 75/12/9
f 63/13/9 74/11/9 70/8/9
f 72/8/9 67/7/9 66/15/9
f 70/4/1 72/1/1 61/17/1
f 67/1/1 69/3/1 58/19/1
f 77/1/1 15/2/1 78/3/1
f 79/4/1 14/5/1 80/1/1
f 14/6/10 77/7/10 80/8/10
f 7/9/3 11/10/3 81/7/3
f 81/11/10 12/12/10 79/8/10
f 73/13/10 79/8/10 75/14/10
f 80/8/10 76/15/10 71/16/10
f 79/4/1 71/17/1 75/18/1
f 77/1/1 68/19/1 76/17/1
f 73/20/3 7/9/3 81/7/3
f 77/1/1 13/5/1 15/2/1
f 79/4/1 12/21/1 14/5/1
f 14/6/10 13/22/10 77/7/10
f 81/11/10 11/23/10 12/12/10
f 73/13/10 81/11/10 79/8/10
f 80/8/10 77/7/10 76/15/10
f 79/4/1 80/1/1 71/17/1
f 77/1/1 78/3/1 68/19/1
f 82/24/1 19/25/1 18/26/1
f 83/27/1 49/28/1 84/29/1
f 85/30/1 83/27/1 84/29/1
f 83/27/1 39/31/1 38/32/1
f 86/33/1 87/34/1 85/30/1
f 87/34/1 28/35/1 83/27/1
f 2/36/1 86/33/1 3/37/1
f 82/24/1 29/38/1 87/34/1
f 69/39/1 88/40/1 58/41/1
f 89/42/1 69/39/1 68/43/1
f 78/44/1 89/42/1 68/43/1
f 88/40/1 59/45/1 58/41/1
f 86/33/1 90/46/1 89/42/1
f 85/30/1 88/40/1 90/46/1
f 84/29/1 48/47/1 88/40/1
f 3/37/1 89/42/1 15/48/1
f 82/24/1 2/36/1 19/25/1
f 83/27/1 38/32/1 49/28/1
f 85/30/1 87/34/1 83/27/1
f 83/27/1 28/35/1 39/31/1
f 86/33/1 82/24/1 87/34/1
f 87/34/1 29/38/1 28/35/1
f 2/36/1 82/24/1 86/33/1
f 82/24/1 18/26/1 29/38/1
f 69/39/1 90/46/1 88/40/1
f 89/42/1 90/46/1 69/39/1
f 78/44/1 15/48/1 89/42/1
f 88/40/1 48/47/1 59/45/1
f 86/33/1 85/30/1 90/46/1
f 85/30/1 84/29/1 88/40/1
f 84/29/1 49/28/1 48/47/1
f 3/37/1 86/33/1 89/42/1
f 91/1/3 92/2/3 93/3/3
f 94/4/3 95/5/3 96/1/3
f 95/6/5 91/7/5 96/8/5
f 97/9/1 98/10/1 99/7/1
f 99/11/5 100/12/5 94/8/5
f 101/13/5 94/8/5 102/14/5
f 96/8/5 103/15/5 104/16/5
f 94/4/3 104/17/3 102/18/3
f 91/1/3 105/19/3 103/17/3
f 101/20/1 97/9/1 99/7/1
f 91/1/3 106/5/3 92/2/3
f 94/4/3 100/21/3 95/5/3
f 95/6/5 106/22/5 91/7/5
f 99/11/5 98/23/5 100/12/5
f 101/13/5 99/11/5 94/8/5
f 96/8/5 91/7/5 103/15/5
f 94/4/3 96/1/3 104/17/3
f 91/1/3 93/3/3 105/19/3
f 107/1/3 108/2/3 109/3/3
f 110/4/3 111/5/3 112/1/3
f 111/6/4 107/7/4 112/8/4
f 97/9/1 113/10/1 114/7/1
f 114/11/4 115/12/4 110/8/4
f 98/13/4 110/8/4 100/14/4
f 112/8/4 106/15/4 95/16/4
f 110/4/3 95/17/3 100/18/3
f 107/1/3 92/19/3 106/17/3
f 98/20/1 97/9/1 114/7/1
f 107/1/3 116/5/3 108/2/3
f 110/4/3 115/21/3 111/5/3
f 111/6/4 116/22/4 107/7/4
f 114/11/4 113/23/4 115/12/4
f 98/13/4 114/11/4 110/8/4
f 112/8/4 107/7/4 106/15/4
f 110/4/3 112/1/3 95/17/3
f 107/1/3 109/3/3 92/19/3
f 117/1/3 118/2/3 119/3/3
f 120/4/3 121/5/3 122/1/3
f 121/6/2 117/7/2 122/8/2
f 97/9/1 123/10/1 124/7/1
f 124/11/2 125/12/2 120/8/2
f 113/13/2 120/8/2 115/14/2
f 122/8/2 116/15/2 111/16/2
f 120/4/3 111/17/3 115/18/3
f 117/1/3 108/19/3 116/17/3
f 113/20/1 97/9/1 124/7/1
f 117/1/3 126/5/3 118/2/3
f 120/4/3 125/21/3 121/5/3
f 121/6/2 126/22/2 117/7/2
f 124/11/2 123/23/2 125/12/2
f 113/13/2 124/11/2 120/8/2
f 122/8/2 117/7/2 116/15/2
f 120/4/3 122/1/3 111/17/3
f 117/1/3 119/3/3 108/19/3
f 127/1/3 128/2/3 129/3/3
f 130/4/3 131/5/3 132/1/3
f 131/6/10 127/7/10 132/8/10
f 97/9/1 133/10/1 134/7/1
f 134/11/10 135/12/10 130/8/10
f 123/13/10 130/8/10 125/14/10
f 132/8/10 126/15/10 121/16/10
f 130/4/3 121/17/3 125/18/3
f 127/1/3 118/19/3 126/17/3
f 123/20/1 97/9/1 134/7/1
f 127/1/3 136/5/3 128/2/3
f 130/4/3 135/21/3 131/5/3
f 131/6/10 136/22/10 127/7/10
f 134/11/10 133/23/10 135/12/10
f 123/13/10 134/11/10 130/8/10
f 132/8/10 127/7/10 126/15/10
f 130/4/3 132/1/3 121/17/3
f 127/1/3 129/3/3 118/19/3
f 137/1/3 138/2/3 139/3/3
f 140/4/3 141/5/3 142/1/3
f 141/6/9 137/7/9 142/8/9
f 97/9/1 143/10/1 144/7/1
f 144/11/9 145/12/9 140/8/9
f 133/13/9 140/8/9 135/14/9
f 142/8/9 136/15/9 131/16/9
f 140/4/3 131/17/3 135/18/3
f 137/1/3 128/19/3 136/17/3
f 133/20/1 97/9/1 144/7/1
f 137/1/3 146/5/3 138/2/3
f 140/4/3 145/21/3 141/5/3
f 141/6/9 146/22/9 137/7/9
f 144/11/9 143/23/9 145/12/9
f 133/13/9 144/11/9 140/8/9
f 142/8/9 137/7/9 136/15/9
f 140/4/3 142/1/3 131/17/3
f 137/1/3 139/3/3 128/19/3
f 147/1/3 148/2/3 149/3/3
f 150/4/3 151/5/3 152/1/3
f 151/6/8 147/7/8 152/8/8
f 97/9/1 153/10/1 154/7/1
f 154/11/8 155/12/8 150/8/8
f 143/13/8 150/8/8 145/14/8
f 152/8/8 146/15/8 141/16/8
f 150/4/3 141/17/3 145/18/3
f 147/1/3 138/19/3 146/17/3
f 143/20/1 97/9/1 154/7/1
f 147/1/3 156/5/3 148/2/3
f 150/4/3 155/21/3 151/5/3
f 151/6/8 156/22/8 147/7/8
f 154/11/8 153/23/8 155/12/8
f 143/13/8 154/11/8 150/8/8
f 152/8/8 147/7/8 146/15/8
f 150/4/3 152/1/3 141/17/3
f 147/1/3 149/3/3 138/19/3
f 157/1/3 158/2/3 159/3/3
f 160/4/3 161/5/3 162/1/3
f 161/6/7 157/7/7 162/8/7
f 97/9/1 163/10/1 164/7/1
f 164/11/7 165/12/7 160/8/7
f 153/13/7 160/8/7 155/14/7
f 162/8/7 156/15/7 151/16/7
f 160/4/3 151/17/3 155/18/3
f 157/1/3 148/19/3 156/17/3
f 153/20/1 97/9/1 164/7/1
f 157/1/3 166/5/3 158/2/3
f 160/4/3 165/21/3 161/5/3
f 161/6/7 166/22/7 157/7/7
f 164/11/7 163/23/7 165/12/7
f 153/13/7 164/11/7 160/8/7
f 162/8/7 157/7/7 156/15/7
f 160/4/3 162/1/3 151/17/3
f 157/1/3 159/3/3 148/19/3
f 167/1/3 105/2/3 168/3/3
f 169/4/3 104/5/3 170/1/3
f 104/6/6 167/7/6 170/8/6
f 97/9/1 101/10/1 171/7/1
f 171/11/6 102/12/6 169/8/6
f 163/13/6 169/8/6 165/14/6
f 170/8/6 166/15/6 161/16/6
f 169/4/3 161/17/3 165/18/3
f 167/1/3 158/19/3 166/17/3
f 163/20/1 97/9/1 171/7/1
f 167/1/3 103/5/3 105/2/3
f 169/4/3 102/21/3 104/5/3
f 104/6/6 103/22/6 167/7/6
f 171/11/6 101/23/6 102/12/6
f 163/13/6 171/11/6 169/8/6
f 170/8/6 167/7/6 166/15/6
f 169/4/3 170/1/3 161/17/3
f 167/1/3 168/3/3 158/19/3
f 172/42/3 109/49/3 108/43/3
f 173/40/3 139/50/3 174/51/3
f 175/52/3 173/40/3 174/51/3
f 173/40/3 129/53/3 128/47/3
f 176/54/3 177/46/3 175/52/3
f 177/46/3 118/41/3 173/40/3
f 92/55/3 176/54/3 93/56/3
f 172/42/3 119/39/3 177/46/3
f 159/38/3 178/27/3 148/35/3
f 179/24/3 159/38/3 158/26/3
f 168/57/3 179/24/3 158/26/3
f 178/27/3 149/58/3 148/35/3
f 176/54/3 180/34/3 179/24/3
f 175/52/3 178/27/3 180/34/3
f 174/51/3 138/32/3 178/27/3
f 93/56/3 179/24/3 105/59/3
f 172/42/3 92/55/3 109/49/3
f 173/40/3 128/47/3 139/50/3
f 175/52/3 177/46/3 173/40/3
f 173/40/3 118/41/3 129/53/3
f 176/54/3 172/42/3 177/46/3
f 177/46/3 119/39/3 118/41/3
f 92/55/3 172/42/3 176/54/3
f 172/42/3 108/43/3 119/39/3
f 159/38/3 180/34/3 178/27/3
f 179/24/3 180/34/3 159/38/3
f 168/57/3 105/59/3 179/24/3
f 178/27/3 138/32/3 149/58/3
f 176/54/3 175/52/3 180/34/3
f 175/52/3 174/51/3 178/27/3
f 174/51/3 139/50/3 138/32/3
f 93/56/3 176/54/3 179/24/3
