# Blender 4.0.2
# www.blender.org
mtllib wheels.mtl
o 32x32_Cube.001
v -0.750000 0.414214 1.000000
v -0.875000 0.000000 1.000000
v -0.750000 0.000000 1.000000
v -0.750000 0.000000 0.000000
v -0.875000 -0.362437 0.875000
v -0.875000 -0.414214 1.000000
v -0.875000 0.362437 0.875000
v -1.062500 0.000000 0.875000
v -0.875000 0.000000 0.875000
v -1.062500 -0.336549 0.812500
v -1.062500 -0.362437 0.875000
v -1.062500 0.336549 0.812500
v -1.062500 0.362437 0.875000
v -0.875000 0.414214 1.000000
v -0.750000 -0.414214 1.000000
v -1.062500 0.000000 0.812500
v -0.750000 1.000000 0.414214
v -0.875000 0.707107 0.707107
v -0.750000 0.707107 0.707107
v -0.875000 0.875000 0.362437
v -1.062500 0.618718 0.618719
v -0.875000 0.618718 0.618719
v -1.062500 0.812500 0.336549
v -1.062500 0.875000 0.362437
v -0.875000 1.000000 0.414214
v -1.062500 0.574524 0.574524
v -0.750000 1.000000 -0.414214
v -0.875000 1.000000 -0.000000
v -0.750000 1.000000 -0.000000
v -0.875000 0.875000 -0.362437
v -1.062500 0.875000 -0.000000
v -0.875000 0.875000 -0.000000
v -1.062500 0.812500 -0.336549
v -1.062500 0.875000 -0.362437
v -0.875000 1.000000 -0.414214
v -1.062500 0.812500 -0.000000
v -0.750000 0.414214 -1.000000
v -0.875000 0.707107 -0.707107
v -0.750000 0.707107 -0.707107
v -0.875000 0.362437 -0.875000
v -1.062500 0.618719 -0.618718
v -0.875000 0.618719 -0.618718
v -1.062500 0.336549 -0.812500
v -1.062500 0.362437 -0.875000
v -0.875000 0.414214 -1.000000
v -1.062500 0.574524 -0.574524
v -0.750000 -0.414213 -1.000000
v -0.875000 -0.000000 -1.000000
v -0.750000 -0.000000 -1.000000
v -0.875000 -0.362437 -0.875000
v -1.062500 -0.000000 -0.875000
v -0.875000 -0.000000 -0.875000
v -1.062500 -0.336548 -0.812500
v -1.062500 -0.362437 -0.875000
v -0.875000 -0.414213 -1.000000
v -1.062500 -0.000000 -0.812500
v -0.750000 -1.000000 -0.414214
v -0.875000 -0.707107 -0.707107
v -0.750000 -0.707107 -0.707107
v -0.875000 -0.875000 -0.362437
v -1.062500 -0.618718 -0.618719
v -0.875000 -0.618718 -0.618719
v -1.062500 -0.812500 -0.336549
v -1.062500 -0.875000 -0.362437
v -0.875000 -1.000000 -0.414214
v -1.062500 -0.574524 -0.574524
v -0.750000 -1.000000 0.414213
v -0.875000 -1.000000 0.000000
v -0.750000 -1.000000 0.000000
v -0.875000 -0.875000 0.362437
v -1.062500 -0.875000 0.000000
v -0.875000 -0.875000 0.000000
v -1.062500 -0.812500 0.336548
v -1.062500 -0.875000 0.362437
v -0.875000 -1.000000 0.414213
v -1.062500 -0.812500 0.000000
v -0.875000 -0.707107 0.707107
v -0.750000 -0.707107 0.707107
v -1.062500 -0.618719 0.618718
v -0.875000 -0.618719 0.618718
v -1.062500 -0.574524 0.574524
v -1.062500 0.336549 -0.336549
v -1.062500 -0.336549 -0.336549
v -1.062500 -0.000000 -0.336549
v -1.062500 0.336549 0.336548
v -1.062500 0.000000 0.000000
v -1.062500 0.000000 0.336548
v -1.062500 -0.336549 0.336548
v -1.062500 0.336549 -0.000000
v -1.062500 -0.336549 0.000000
v 0.750000 1.000000 -0.414214
v 0.875000 1.000000 0.000000
v 0.750000 1.000000 0.000000
v 0.750000 0.000000 0.000000
v 0.875000 0.875000 0.362437
v 0.875000 1.000000 0.414214
v 0.875000 0.875000 -0.362437
v 1.062500 0.875000 0.000000
v 0.875000 0.875000 0.000000
v 1.062500 0.812500 0.336549
v 1.062500 0.875000 0.362437
v 1.062500 0.812500 -0.336549
v 1.062500 0.875000 -0.362437
v 0.875000 1.000000 -0.414214
v 0.750000 1.000000 0.414214
v 1.062500 0.812500 0.000000
v 0.750000 0.414214 -1.000000
v 0.875000 0.707107 -0.707107
v 0.750000 0.707107 -0.707107
v 0.875000 0.362437 -0.875000
v 1.062500 0.618719 -0.618718
v 0.875000 0.618719 -0.618718
v 1.062500 0.336549 -0.812500
v 1.062500 0.362437 -0.875000
v 0.875000 0.414214 -1.000000
v 1.062500 0.574524 -0.574524
v 0.750000 -0.414214 -1.000000
v 0.875000 -0.000000 -1.000000
v 0.750000 -0.000000 -1.000000
v 0.875000 -0.362437 -0.875000
v 1.062500 -0.000000 -0.875000
v 0.875000 -0.000000 -0.875000
v 1.062500 -0.336549 -0.812500
v 1.062500 -0.362437 -0.875000
v 0.875000 -0.414214 -1.000000
v 1.062500 -0.000000 -0.812500
v 0.750000 -1.000000 -0.414214
v 0.875000 -0.707107 -0.707107
v 0.750000 -0.707107 -0.707107
v 0.875000 -0.875000 -0.362437
v 1.062500 -0.618718 -0.618719
v 0.875000 -0.618718 -0.618719
v 1.062500 -0.812500 -0.336549
v 1.062500 -0.875000 -0.362437
v 0.875000 -1.000000 -0.414214
v 1.062500 -0.574524 -0.574524
v 0.750000 -1.000000 0.414213
v 0.875000 -1.000000 0.000000
v 0.750000 -1.000000 0.000000
v 0.875000 -0.875000 0.362437
v 1.062500 -0.875000 0.000000
v 0.875000 -0.875000 0.000000
v 1.062500 -0.812500 0.336548
v 1.062500 -0.875000 0.362437
v 0.875000 -1.000000 0.414213
v 1.062500 -0.812500 0.000000
v 0.750000 -0.414214 1.000000
v 0.875000 -0.707107 0.707107
v 0.750000 -0.707107 0.707107
v 0.875000 -0.362437 0.875000
v 1.062500 -0.618719 0.618718
v 0.875000 -0.618719 0.618718
v 1.062500 -0.336549 0.812500
v 1.062500 -0.362437 0.875000
v 0.875000 -0.414214 1.000000
v 1.062500 -0.574524 0.574524
v 0.750000 0.414213 1.000000
v 0.875000 0.000000 1.000000
v 0.750000 0.000000 1.000000
v 0.875000 0.362437 0.875000
v 1.062500 0.000000 0.875000
v 0.875000 0.000000 0.875000
v 1.062500 0.336548 0.812500
v 1.062500 0.362437 0.875000
v 0.875000 0.414213 1.000000
v 1.062500 0.000000 0.812500
v 0.875000 0.707107 0.707107
v 0.750000 0.707107 0.707107
v 1.062500 0.618718 0.618719
v 0.875000 0.618718 0.618719
v 1.062500 0.574524 0.574524
v 1.062500 -0.336549 -0.336549
v 1.062500 -0.336549 0.336549
v 1.062500 -0.336549 0.000000
v 1.062500 0.336548 -0.336549
v 1.062500 0.000000 0.000000
v 1.062500 0.336548 0.000000
v 1.062500 0.336548 0.336549
v 1.062500 0.000000 -0.336549
v 1.062500 0.000000 0.336549
vn -0.0000 -0.0000 1.0000
vn 1.0000 -0.0000 -0.0000
vn -1.0000 -0.0000 -0.0000
vn -0.0000 0.7071 0.7071
vn -0.0000 1.0000 -0.0000
vn -0.0000 0.7071 -0.7071
vn -0.0000 -0.0000 -1.0000
vn -0.0000 -0.7071 -0.7071
vn -0.0000 -1.0000 -0.0000
vn -0.0000 -0.7071 0.7071
vt 0.695262 0.979167
vt 0.833333 0.937500
vt 0.833333 0.979167
vt 0.833333 0.541667
vt 0.695262 0.875000
vt 0.833333 0.875000
vt 0.954146 0.833333
vt 0.971405 0.875000
vt 0.712521 0.937500
vt 0.833333 0.833333
vt 0.945516 0.812500
vt 0.721151 0.812500
vt 0.712521 0.833333
vt 0.954146 0.875000
vt 0.954146 0.937500
vt 0.971404 0.937500
vt 0.971404 0.979167
vt 0.695262 0.937500
vt 0.712521 0.875000
vt 0.833333 0.812500
vt 0.179484 0.596150
vt 0.020833 0.596150
vt 0.100159 0.516825
vt 0.403849 0.596150
vt 0.403849 0.437500
vt 0.483175 0.516825
vt 0.291667 0.437500
vt 0.291667 0.596150
vt 0.179484 0.820516
vt 0.291667 0.708333
vt 0.291667 0.820516
vt 0.403849 0.820516
vt 0.562500 0.708333
vt 0.562500 0.820516
vt 0.020833 0.820516
vt 0.179484 0.708333
vt 0.403849 0.708333
vt 0.020833 0.708333
vt 0.179484 0.979167
vt 0.291667 0.979167
vt 0.483175 0.899841
vt 0.100159 0.899841
vt 0.403849 0.979167
vt 0.562500 0.596150
vt 0.179484 0.437500
s 0
usemtl m_6388cca0-eaf2-d4b4-0c6d-35584f51eb88
f 1/1/1 2/2/1 3/3/1
f 4/4/2 1/5/2 3/6/2
f 2/6/3 5/7/3 6/8/3
f 7/9/1 8/6/1 9/2/1
f 8/10/3 10/11/3 11/7/3
f 12/12/3 8/10/3 13/13/3
f 9/2/1 11/14/1 5/15/1
f 7/13/3 2/6/3 14/5/3
f 3/3/1 6/16/1 15/17/1
f 15/8/2 4/4/2 3/6/2
f 1/1/1 14/18/1 2/2/1
f 2/6/3 9/10/3 5/7/3
f 7/9/1 13/19/1 8/6/1
f 8/10/3 16/20/3 10/11/3
f 12/12/3 16/20/3 8/10/3
f 9/2/1 8/6/1 11/14/1
f 7/13/3 9/10/3 2/6/3
f 3/3/1 2/2/1 6/16/1
f 17/1/4 18/2/4 19/3/4
f 4/4/2 17/5/2 19/6/2
f 18/6/3 7/7/3 14/8/3
f 20/9/4 21/6/4 22/2/4
f 21/10/3 12/11/3 13/7/3
f 23/12/3 21/10/3 24/13/3
f 22/2/4 13/14/4 7/15/4
f 20/13/3 18/6/3 25/5/3
f 19/3/4 14/16/4 1/17/4
f 1/8/2 4/4/2 19/6/2
f 17/1/4 25/18/4 18/2/4
f 18/6/3 22/10/3 7/7/3
f 20/9/4 24/19/4 21/6/4
f 21/10/3 26/20/3 12/11/3
f 23/12/3 26/20/3 21/10/3
f 22/2/4 21/6/4 13/14/4
f 20/13/3 22/10/3 18/6/3
f 19/3/4 18/2/4 14/16/4
f 27/1/5 28/2/5 29/3/5
f 4/4/2 27/5/2 29/6/2
f 28/6/3 20/7/3 25/8/3
f 30/9/5 31/6/5 32/2/5
f 31/10/3 23/11/3 24/7/3
f 33/12/3 31/10/3 34/13/3
f 32/2/5 24/14/5 20/15/5
f 30/13/3 28/6/3 35/5/3
f 29/3/5 25/16/5 17/17/5
f 17/8/2 4/4/2 29/6/2
f 27/1/5 35/18/5 28/2/5
f 28/6/3 32/10/3 20/7/3
f 30/9/5 34/19/5 31/6/5
f 31/10/3 36/20/3 23/11/3
f 33/12/3 36/20/3 31/10/3
f 32/2/5 31/6/5 24/14/5
f 30/13/3 32/10/3 28/6/3
f 29/3/5 28/2/5 25/16/5
f 37/1/6 38/2/6 39/3/6
f 4/4/2 37/5/2 39/6/2
f 38/6/3 30/7/3 35/8/3
f 40/9/6 41/6/6 42/2/6
f 41/10/3 33/11/3 34/7/3
f 43/12/3 41/10/3 44/13/3
f 42/2/6 34/14/6 30/15/6
f 40/13/3 38/6/3 45/5/3
f 39/3/6 35/16/6 27/17/6
f 27/8/2 4/4/2 39/6/2
f 37/1/6 45/18/6 38/2/6
f 38/6/3 42/10/3 30/7/3
f 40/9/6 44/19/6 41/6/6
f 41/10/3 46/20/3 33/11/3
f 43/12/3 46/20/3 41/10/3
f 42/2/6 41/6/6 34/14/6
f 40/13/3 42/10/3 38/6/3
f 39/3/6 38/2/6 35/16/6
f 47/1/7 48/2/7 49/3/7
f 4/4/2 47/5/2 49/6/2
f 48/6/3 40/7/3 45/8/3
f 50/9/7 51/6/7 52/2/7
f 51/10/3 43/11/3 44/7/3
f 53/12/3 51/10/3 54/13/3
f 52/2/7 44/14/7 40/15/7
f 50/13/3 48/6/3 55/5/3
f 49/3/7 45/16/7 37/17/7
f 37/8/2 4/4/2 49/6/2
f 47/1/7 55/18/7 48/2/7
f 48/6/3 52/10/3 40/7/3
f 50/9/7 54/19/7 51/6/7
f 51/10/3 56/20/3 43/11/3
f 53/12/3 56/20/3 51/10/3
f 52/2/7 51/6/7 44/14/7
f 50/13/3 52/10/3 48/6/3
f 49/3/7 48/2/7 45/16/7
f 57/1/8 58/2/8 59/3/8
f 4/4/2 57/5/2 59/6/2
f 58/6/3 50/7/3 55/8/3
f 60/9/8 61/6/8 62/2/8
f 61/10/3 53/11/3 54/7/3
f 63/12/3 61/10/3 64/13/3
f 62/2/8 54/14/8 50/15/8
f 60/13/3 58/6/3 65/5/3
f 59/3/8 55/16/8 47/17/8
f 47/8/2 4/4/2 59/6/2
f 57/1/8 65/18/8 58/2/8
f 58/6/3 62/10/3 50/7/3
f 60/9/8 64/19/8 61/6/8
f 61/10/3 66/20/3 53/11/3
f 63/12/3 66/20/3 61/10/3
f 62/2/8 61/6/8 54/14/8
f 60/13/3 62/10/3 58/6/3
f 59/3/8 58/2/8 55/16/8
f 67/1/9 68/2/9 69/3/9
f 4/4/2 67/5/2 69/6/2
f 68/6/3 60/7/3 65/8/3
f 70/9/9 71/6/9 72/2/9
f 71/10/3 63/11/3 64/7/3
f 73/12/3 71/10/3 74/13/3
f 72/2/9 64/14/9 60/15/9
f 70/13/3 68/6/3 75/5/3
f 69/3/9 65/16/9 57/17/9
f 57/8/2 4/4/2 69/6/2
f 67/1/9 75/18/9 68/2/9
f 68/6/3 72/10/3 60/7/3
f 70/9/9 74/19/9 71/6/9
f 71/10/3 76/20/3 63/11/3
f 73/12/3 76/20/3 71/10/3
f 72/2/9 71/6/9 64/14/9
f 70/13/3 72/10/3 68/6/3
f 69/3/9 68/2/9 65/16/9
f 15/1/10 77/2/10 78/3/10
f 4/4/2 15/5/2 78/6/2
f 77/6/3 70/7/3 75/8/3
f 5/9/10 79/6/10 80/2/10
f 79/10/3 73/11/3 74/7/3
f 10/12/3 79/10/3 11/13/3
f 80/2/10 74/14/10 70/15/10
f 5/13/3 77/6/3 6/5/3
f 78/3/10 75/16/10 67/17/10
f 67/8/2 4/4/2 78/6/2
f 15/1/10 6/18/10 77/2/10
f 77/6/3 80/10/3 70/7/3
f 5/9/10 11/19/10 79/6/10
f 79/10/3 81/20/3 73/11/3
f 10/12/3 81/20/3 79/10/3
f 80/2/10 79/6/10 74/14/10
f 5/13/3 80/10/3 77/6/3
f 78/3/10 77/2/10 75/16/10
f 82/21/3 33/22/3 46/23/3
f 83/24/3 53/25/3 66/26/3
f 82/21/3 56/27/3 84/28/3
f 85/29/3 86/30/3 87/31/3
f 88/32/3 76/33/3 73/34/3
f 23/35/3 89/36/3 85/29/3
f 86/30/3 82/21/3 84/28/3
f 83/24/3 76/33/3 90/37/3
f 36/38/3 82/21/3 89/36/3
f 12/39/3 87/31/3 16/40/3
f 88/32/3 73/34/3 81/41/3
f 26/42/3 23/35/3 85/29/3
f 88/32/3 86/30/3 90/37/3
f 86/30/3 83/24/3 90/37/3
f 84/28/3 53/25/3 83/24/3
f 16/40/3 88/32/3 10/43/3
f 12/39/3 26/42/3 85/29/3
f 63/44/3 83/24/3 66/26/3
f 10/43/3 88/32/3 81/41/3
f 43/45/3 82/21/3 46/23/3
f 82/21/3 43/45/3 56/27/3
f 85/29/3 89/36/3 86/30/3
f 88/32/3 90/37/3 76/33/3
f 23/35/3 36/38/3 89/36/3
f 86/30/3 89/36/3 82/21/3
f 83/24/3 63/44/3 76/33/3
f 36/38/3 33/22/3 82/21/3
f 12/39/3 85/29/3 87/31/3
f 88/32/3 87/31/3 86/30/3
f 86/30/3 84/28/3 83/24/3
f 84/28/3 56/27/3 53/25/3
f 16/40/3 87/31/3 88/32/3
f 92/2/5 91/1/5 93/3/5
f 91/5/3 94/4/3 93/6/3
f 95/7/2 92/6/2 96/8/2
f 98/6/5 97/9/5 99/2/5
f 100/11/2 98/10/2 101/7/2
f 98/10/2 102/12/2 103/13/2
f 101/14/5 99/2/5 95/15/5
f 92/6/2 97/13/2 104/5/2
f 96/16/5 93/3/5 105/17/5
f 94/4/3 105/8/3 93/6/3
f 104/18/5 91/1/5 92/2/5
f 99/10/2 92/6/2 95/7/2
f 103/19/5 97/9/5 98/6/5
f 106/20/2 98/10/2 100/11/2
f 106/20/2 102/12/2 98/10/2
f 98/6/5 99/2/5 101/14/5
f 99/10/2 97/13/2 92/6/2
f 92/2/5 93/3/5 96/16/5
f 108/2/6 107/1/6 109/3/6
f 107/5/3 94/4/3 109/6/3
f 97/7/2 108/6/2 104/8/2
f 111/6/6 110/9/6 112/2/6
f 102/11/2 111/10/2 103/7/2
f 111/10/2 113/12/2 114/13/2
f 103/14/6 112/2/6 97/15/6
f 108/6/2 110/13/2 115/5/2
f 104/16/6 109/3/6 91/17/6
f 94/4/3 91/8/3 109/6/3
f 115/18/6 107/1/6 108/2/6
f 112/10/2 108/6/2 97/7/2
f 114/19/6 110/9/6 111/6/6
f 116/20/2 111/10/2 102/11/2
f 116/20/2 113/12/2 111/10/2
f 111/6/6 112/2/6 103/14/6
f 112/10/2 110/13/2 108/6/2
f 108/2/6 109/3/6 104/16/6
f 118/2/7 117/1/7 119/3/7
f 117/5/3 94/4/3 119/6/3
f 110/7/2 118/6/2 115/8/2
f 121/6/7 120/9/7 122/2/7
f 113/11/2 121/10/2 114/7/2
f 121/10/2 123/12/2 124/13/2
f 114/14/7 122/2/7 110/15/7
f 118/6/2 120/13/2 125/5/2
f 115/16/7 119/3/7 107/17/7
f 94/4/3 107/8/3 119/6/3
f 125/18/7 117/1/7 118/2/7
f 122/10/2 118/6/2 110/7/2
f 124/19/7 120/9/7 121/6/7
f 126/20/2 121/10/2 113/11/2
f 126/20/2 123/12/2 121/10/2
f 121/6/7 122/2/7 114/14/7
f 122/10/2 120/13/2 118/6/2
f 118/2/7 119/3/7 115/16/7
f 128/2/8 127/1/8 129/3/8
f 127/5/3 94/4/3 129/6/3
f 120/7/2 128/6/2 125/8/2
f 131/6/8 130/9/8 132/2/8
f 123/11/2 131/10/2 124/7/2
f 131/10/2 133/12/2 134/13/2
f 124/14/8 132/2/8 120/15/8
f 128/6/2 130/13/2 135/5/2
f 125/16/8 129/3/8 117/17/8
f 94/4/3 117/8/3 129/6/3
f 135/18/8 127/1/8 128/2/8
f 132/10/2 128/6/2 120/7/2
f 134/19/8 130/9/8 131/6/8
f 136/20/2 131/10/2 123/11/2
f 136/20/2 133/12/2 131/10/2
f 131/6/8 132/2/8 124/14/8
f 132/10/2 130/13/2 128/6/2
f 128/2/8 129/3/8 125/16/8
f 138/2/9 137/1/9 139/3/9
f 137/5/3 94/4/3 139/6/3
f 130/7/2 138/6/2 135/8/2
f 141/6/9 140/9/9 142/2/9
f 133/11/2 141/10/2 134/7/2
f 141/10/2 143/12/2 144/13/2
f 134/14/9 142/2/9 130/15/9
f 138/6/2 140/13/2 145/5/2
f 135/16/9 139/3/9 127/17/9
f 94/4/3 127/8/3 139/6/3
f 145/18/9 137/1/9 138/2/9
f 142/10/2 138/6/2 130/7/2
f 144/19/9 140/9/9 141/6/9
f 146/20/2 141/10/2 133/11/2
f 146/20/2 143/12/2 141/10/2
f 141/6/9 142/2/9 134/14/9
f 142/10/2 140/13/2 138/6/2
f 138/2/9 139/3/9 135/16/9
f 148/2/10 147/1/10 149/3/10
f 147/5/3 94/4/3 149/6/3
f 140/7/2 148/6/2 145/8/2
f 151/6/10 150/9/10 152/2/10
f 143/11/2 151/10/2 144/7/2
f 151/10/2 153/12/2 154/13/2
f 144/14/10 152/2/10 140/15/10
f 148/6/2 150/13/2 155/5/2
f 145/16/10 149/3/10 137/17/10
f 94/4/3 137/8/3 149/6/3
f 155/18/10 147/1/10 148/2/10
f 152/10/2 148/6/2 140/7/2
f 154/19/10 150/9/10 151/6/10
f 156/20/2 151/10/2 143/11/2
f 156/20/2 153/12/2 151/10/2
f 151/6/10 152/2/10 144/14/10
f 152/10/2 150/13/2 148/6/2
f 148/2/10 149/3/10 145/16/10
f 158/2/1 157/1/1 159/3/1
f 157/5/3 94/4/3 159/6/3
f 150/7/2 158/6/2 155/8/2
f 161/6/1 160/9/1 162/2/1
f 153/11/2 161/10/2 154/7/2
f 161/10/2 163/12/2 164/13/2
f 154/14/1 162/2/1 150/15/1
f 158/6/2 160/13/2 165/5/2
f 155/16/1 159/3/1 147/17/1
f 94/4/3 147/8/3 159/6/3
f 165/18/1 157/1/1 158/2/1
f 162/10/2 158/6/2 150/7/2
f 164/19/1 160/9/1 161/6/1
f 166/20/2 161/10/2 153/11/2
f 166/20/2 163/12/2 161/10/2
f 161/6/1 162/2/1 154/14/1
f 162/10/2 160/13/2 158/6/2
f 158/2/1 159/3/1 155/16/1
f 167/2/4 105/1/4 168/3/4
f 105/5/3 94/4/3 168/6/3
f 160/7/2 167/6/2 165/8/2
f 169/6/4 95/9/4 170/2/4
f 163/11/2 169/10/2 164/7/2
f 169/10/2 100/12/2 101/13/2
f 164/14/4 170/2/4 160/15/4
f 167/6/2 95/13/2 96/5/2
f 165/16/4 168/3/4 157/17/4
f 94/4/3 157/8/3 168/6/3
f 96/18/4 105/1/4 167/2/4
f 170/10/2 167/6/2 160/7/2
f 101/19/4 95/9/4 169/6/4
f 171/20/2 169/10/2 163/11/2
f 171/20/2 100/12/2 169/10/2
f 169/6/4 170/2/4 164/14/4
f 170/10/2 95/13/2 167/6/2
f 167/2/4 168/3/4 165/16/4
f 123/22/2 172/21/2 136/23/2
f 143/25/2 173/24/2 156/26/2
f 146/27/2 172/21/2 174/28/2
f 176/30/2 175/29/2 177/31/2
f 166/33/2 178/32/2 163/34/2
f 179/36/2 113/35/2 175/29/2
f 172/21/2 176/30/2 174/28/2
f 166/33/2 173/24/2 180/37/2
f 172/21/2 126/38/2 179/36/2
f 177/31/2 102/39/2 106/40/2
f 163/34/2 178/32/2 171/41/2
f 113/35/2 116/42/2 175/29/2
f 176/30/2 178/32/2 180/37/2
f 173/24/2 176/30/2 180/37/2
f 143/25/2 174/28/2 173/24/2
f 178/32/2 106/40/2 100/43/2
f 116/42/2 102/39/2 175/29/2
f 173/24/2 153/44/2 156/26/2
f 178/32/2 100/43/2 171/41/2
f 172/21/2 133/45/2 136/23/2
f 133/45/2 172/21/2 146/27/2
f 179/36/2 175/29/2 176/30/2
f 180/37/2 178/32/2 166/33/2
f 126/38/2 113/35/2 179/36/2
f 179/36/2 176/30/2 172/21/2
f 153/44/2 173/24/2 166/33/2
f 123/22/2 126/38/2 172/21/2
f 175/29/2 102/39/2 177/31/2
f 177/31/2 178/32/2 176/30/2
f 174/28/2 176/30/2 173/24/2
f 146/27/2 174/28/2 143/25/2
f 177/31/2 106/40/2 178/32/2
