# Blender 4.0.2
# www.blender.org
mtllib left_pins.mtl
o cube.003
v -1.062500 0.125000 1.000000
v -1.062500 0.125000 0.750000
v -1.062500 -0.125000 1.000000
v -1.062500 -0.125000 0.750000
v -1.312500 0.125000 0.750000
v -1.312500 0.125000 1.000000
v -1.312500 -0.125000 0.750000
v -1.312500 -0.125000 1.000000
v -1.062500 0.125000 2.750000
v -1.062500 0.125000 2.500000
v -1.062500 -0.125000 2.750000
v -1.062500 -0.125000 2.500000
v -1.312500 0.125000 2.500000
v -1.312500 0.125000 2.750000
v -1.312500 -0.125000 2.500000
v -1.312500 -0.125000 2.750000
v -1.062500 0.125000 -2.500000
v -1.062500 0.125000 -2.750000
v -1.062500 -0.125000 -2.500000
v -1.062500 -0.125000 -2.750000
v -1.312500 0.125000 -2.750000
v -1.312500 0.125000 -2.500000
v -1.312500 -0.125000 -2.750000
v -1.312500 -0.125000 -2.500000
v -1.062500 0.125000 -0.750000
v -1.062500 0.125000 -1.000000
v -1.062500 -0.125000 -0.750000
v -1.062500 -0.125000 -1.000000
v -1.312500 0.125000 -1.000000
v -1.312500 0.125000 -0.750000
v -1.312500 -0.125000 -1.000000
v -1.312500 -0.125000 -0.750000
vn -0.0000 -0.0000 -1.0000
vn -0.0000 -0.0000 1.0000
vn -1.0000 -0.0000 -0.0000
vn -0.0000 1.0000 -0.0000
vn -0.0000 -1.0000 -0.0000
vt 0.500000 0.500000
vt 0.375000 0.500000
vt 0.375000 0.625000
vt 0.500000 0.625000
vt 0.250000 0.500000
vt 0.250000 0.625000
s 0
usemtl m_7fcd0bea-fb38-836f-b221-8b581874fdbb.001
f 4/1/1 7/2/1 5/3/1 2/4/1
f 8/2/2 3/1/2 1/4/2 6/3/2
f 7/5/3 8/2/3 6/3/3 5/6/3
f 6/2/4 1/1/4 2/4/4 5/3/4
f 7/2/5 4/1/5 3/4/5 8/3/5
f 12/1/1 15/2/1 13/3/1 10/4/1
f 16/2/2 11/1/2 9/4/2 14/3/2
f 15/5/3 16/2/3 14/3/3 13/6/3
f 14/2/4 9/1/4 10/4/4 13/3/4
f 15/2/5 12/1/5 11/4/5 16/3/5
f 20/1/1 23/2/1 21/3/1 18/4/1
f 24/2/2 19/1/2 17/4/2 22/3/2
f 23/5/3 24/2/3 22/3/3 21/6/3
f 22/2/4 17/1/4 18/4/4 21/3/4
f 23/2/5 20/1/5 19/4/5 24/3/5
f 28/1/1 31/2/1 29/3/1 26/4/1
f 32/2/2 27/1/2 25/4/2 30/3/2
f 31/5/3 32/2/3 30/3/3 29/6/3
f 30/2/4 25/1/4 26/4/4 29/3/4
f 31/2/5 28/1/5 27/4/5 32/3/5
