# Blender 4.0.2
# www.blender.org
mtllib right_piston.mtl
o cube.033
v 1.187500 -0.312500 2.812500
v 1.187500 -0.312500 2.437500
v 1.187500 -0.437500 2.812500
v 1.187500 -0.437500 2.437500
v 1.062500 -0.312500 2.437500
v 1.062500 -0.312500 2.812500
v 1.062500 -0.437500 2.437500
v 1.062500 -0.437500 2.812500
v 1.187500 0.187500 -2.875000
v 1.187500 0.187500 -3.625000
v 1.187500 0.062500 -2.875000
v 1.187500 0.062500 -3.625000
v 1.062500 0.187500 -3.625000
v 1.062500 0.187500 -2.875000
v 1.062500 0.062500 -3.625000
v 1.062500 0.062500 -2.875000
v 1.187500 -0.062500 -2.875000
v 1.187500 -0.062500 -3.625000
v 1.187500 -0.187500 -2.875000
v 1.187500 -0.187500 -3.625000
v 1.062500 -0.062500 -3.625000
v 1.062500 -0.062500 -2.875000
v 1.062500 -0.187500 -3.625000
v 1.062500 -0.187500 -2.875000
v 1.187500 0.187500 -1.125000
v 1.187500 0.187500 -2.375000
v 1.187500 0.062500 -1.125000
v 1.187500 0.062500 -2.375000
v 1.062500 0.187500 -2.375000
v 1.062500 0.187500 -1.125000
v 1.062500 0.062500 -2.375000
v 1.062500 0.062500 -1.125000
v 1.187500 -0.062500 -1.125000
v 1.187500 -0.062500 -2.375000
v 1.187500 -0.187500 -1.125000
v 1.187500 -0.187500 -2.375000
v 1.062500 -0.062500 -2.375000
v 1.062500 -0.062500 -1.125000
v 1.062500 -0.187500 -2.375000
v 1.062500 -0.187500 -1.125000
v 1.187500 0.187500 0.625000
v 1.187500 0.187500 -0.625000
v 1.187500 0.062500 0.625000
v 1.187500 0.062500 -0.625000
v 1.062500 0.187500 -0.625000
v 1.062500 0.187500 0.625000
v 1.062500 0.062500 -0.625000
v 1.062500 0.062500 0.625000
v 1.187500 -0.062500 0.625000
v 1.187500 -0.062500 -0.625000
v 1.187500 -0.187500 0.625000
v 1.187500 -0.187500 -0.625000
v 1.062500 -0.062500 -0.625000
v 1.062500 -0.062500 0.625000
v 1.062500 -0.187500 -0.625000
v 1.062500 -0.187500 0.625000
v 1.187500 0.187500 2.375000
v 1.187500 0.187500 1.125000
v 1.187500 0.062500 2.375000
v 1.187500 0.062500 1.125000
v 1.062500 0.187500 1.125000
v 1.062500 0.187500 2.375000
v 1.062500 0.062500 1.125000
v 1.062500 0.062500 2.375000
v 1.187500 -0.062500 2.375000
v 1.187500 -0.062500 1.125000
v 1.187500 -0.187500 2.375000
v 1.187500 -0.187500 1.125000
v 1.062500 -0.062500 1.125000
v 1.062500 -0.062500 2.375000
v 1.062500 -0.187500 1.125000
v 1.062500 -0.187500 2.375000
v 1.187500 0.187500 3.625000
v 1.187500 0.187500 2.875000
v 1.187500 0.062500 3.625000
v 1.187500 0.062500 2.875000
v 1.062500 0.187500 2.875000
v 1.062500 0.187500 3.625000
v 1.062500 0.062500 2.875000
v 1.062500 0.062500 3.625000
v 1.187500 -0.062500 3.625000
v 1.187500 -0.062500 2.875000
v 1.187500 -0.187500 3.625000
v 1.187500 -0.187500 2.875000
v 1.062500 -0.062500 2.875000
v 1.062500 -0.062500 3.625000
v 1.062500 -0.187500 2.875000
v 1.062500 -0.187500 3.625000
v 1.187500 0.437500 -0.687500
v 1.187500 0.437500 -1.062500
v 1.187500 0.312500 -0.687500
v 1.187500 0.312500 -1.062500
v 1.062500 0.437500 -1.062500
v 1.062500 0.437500 -0.687500
v 1.062500 0.312500 -1.062500
v 1.062500 0.312500 -0.687500
v 1.187500 0.312500 -0.937500
v 1.187500 0.312500 -1.062500
v 1.187500 -0.312500 -0.937500
v 1.187500 -0.312500 -1.062500
v 1.062500 0.312500 -1.062500
v 1.062500 0.312500 -0.937500
v 1.062500 -0.312500 -1.062500
v 1.062500 -0.312500 -0.937500
v 1.187500 0.312500 -0.687500
v 1.187500 0.312500 -0.812500
v 1.187500 -0.312500 -0.687500
v 1.187500 -0.312500 -0.812500
v 1.062500 0.312500 -0.812500
v 1.062500 0.312500 -0.687500
v 1.062500 -0.312500 -0.812500
v 1.062500 -0.312500 -0.687500
v 1.250000 0.250000 -0.625000
v 1.250000 0.250000 -0.750000
v 1.250000 -0.250000 -0.625000
v 1.250000 -0.250000 -0.750000
v 1.062500 0.250000 -0.750000
v 1.062500 0.250000 -0.625000
v 1.062500 -0.250000 -0.750000
v 1.062500 -0.250000 -0.625000
v 1.250000 0.250000 -1.000000
v 1.250000 0.250000 -1.125000
v 1.250000 -0.250000 -1.000000
v 1.250000 -0.250000 -1.125000
v 1.062500 0.250000 -1.125000
v 1.062500 0.250000 -1.000000
v 1.062500 -0.250000 -1.125000
v 1.062500 -0.250000 -1.000000
v 1.187500 -0.312500 -0.687500
v 1.187500 -0.312500 -1.062500
v 1.187500 -0.437500 -0.687500
v 1.187500 -0.437500 -1.062500
v 1.062500 -0.312500 -1.062500
v 1.062500 -0.312500 -0.687500
v 1.062500 -0.437500 -1.062500
v 1.062500 -0.437500 -0.687500
v 1.187500 0.437500 -2.437500
v 1.187500 0.437500 -2.812500
v 1.187500 0.312500 -2.437500
v 1.187500 0.312500 -2.812500
v 1.062500 0.437500 -2.812500
v 1.062500 0.437500 -2.437500
v 1.062500 0.312500 -2.812500
v 1.062500 0.312500 -2.437500
v 1.187500 0.312500 -2.687500
v 1.187500 0.312500 -2.812500
v 1.187500 -0.312500 -2.687500
v 1.187500 -0.312500 -2.812500
v 1.062500 0.312500 -2.812500
v 1.062500 0.312500 -2.687500
v 1.062500 -0.312500 -2.812500
v 1.062500 -0.312500 -2.687500
v 1.187500 0.312500 -2.437500
v 1.187500 0.312500 -2.562500
v 1.187500 -0.312500 -2.437500
v 1.187500 -0.312500 -2.562500
v 1.062500 0.312500 -2.562500
v 1.062500 0.312500 -2.437500
v 1.062500 -0.312500 -2.562500
v 1.062500 -0.312500 -2.437500
v 1.250000 0.250000 -2.375000
v 1.250000 0.250000 -2.500000
v 1.250000 -0.250000 -2.375000
v 1.250000 -0.250000 -2.500000
v 1.062500 0.250000 -2.500000
v 1.062500 0.250000 -2.375000
v 1.062500 -0.250000 -2.500000
v 1.062500 -0.250000 -2.375000
v 1.250000 0.250000 -2.750000
v 1.250000 0.250000 -2.875000
v 1.250000 -0.250000 -2.750000
v 1.250000 -0.250000 -2.875000
v 1.062500 0.250000 -2.875000
v 1.062500 0.250000 -2.750000
v 1.062500 -0.250000 -2.875000
v 1.062500 -0.250000 -2.750000
v 1.187500 -0.312500 -2.437500
v 1.187500 -0.312500 -2.812500
v 1.187500 -0.437500 -2.437500
v 1.187500 -0.437500 -2.812500
v 1.062500 -0.312500 -2.812500
v 1.062500 -0.312500 -2.437500
v 1.062500 -0.437500 -2.812500
v 1.062500 -0.437500 -2.437500
v 1.187500 0.437500 1.062500
v 1.187500 0.437500 0.687500
v 1.187500 0.312500 1.062500
v 1.187500 0.312500 0.687500
v 1.062500 0.437500 0.687500
v 1.062500 0.437500 1.062500
v 1.062500 0.312500 0.687500
v 1.062500 0.312500 1.062500
v 1.187500 0.312500 0.812500
v 1.187500 0.312500 0.687500
v 1.187500 -0.312500 0.812500
v 1.187500 -0.312500 0.687500
v 1.062500 0.312500 0.687500
v 1.062500 0.312500 0.812500
v 1.062500 -0.312500 0.687500
v 1.062500 -0.312500 0.812500
v 1.187500 0.312500 1.062500
v 1.187500 0.312500 0.937500
v 1.187500 -0.312500 1.062500
v 1.187500 -0.312500 0.937500
v 1.062500 0.312500 0.937500
v 1.062500 0.312500 1.062500
v 1.062500 -0.312500 0.937500
v 1.062500 -0.312500 1.062500
v 1.250000 0.250000 1.125000
v 1.250000 0.250000 1.000000
v 1.250000 -0.250000 1.125000
v 1.250000 -0.250000 1.000000
v 1.062500 0.250000 1.000000
v 1.062500 0.250000 1.125000
v 1.062500 -0.250000 1.000000
v 1.062500 -0.250000 1.125000
v 1.250000 0.250000 0.750000
v 1.250000 0.250000 0.625000
v 1.250000 -0.250000 0.750000
v 1.250000 -0.250000 0.625000
v 1.062500 0.250000 0.625000
v 1.062500 0.250000 0.750000
v 1.062500 -0.250000 0.625000
v 1.062500 -0.250000 0.750000
v 1.187500 -0.312500 1.062500
v 1.187500 -0.312500 0.687500
v 1.187500 -0.437500 1.062500
v 1.187500 -0.437500 0.687500
v 1.062500 -0.312500 0.687500
v 1.062500 -0.312500 1.062500
v 1.062500 -0.437500 0.687500
v 1.062500 -0.437500 1.062500
v 1.187500 0.437500 2.812500
v 1.187500 0.437500 2.437500
v 1.187500 0.312500 2.812500
v 1.187500 0.312500 2.437500
v 1.062500 0.437500 2.437500
v 1.062500 0.437500 2.812500
v 1.062500 0.312500 2.437500
v 1.062500 0.312500 2.812500
v 1.187500 0.312500 2.562500
v 1.187500 0.312500 2.437500
v 1.187500 -0.312500 2.562500
v 1.187500 -0.312500 2.437500
v 1.062500 0.312500 2.437500
v 1.062500 0.312500 2.562500
v 1.062500 -0.312500 2.437500
v 1.062500 -0.312500 2.562500
v 1.187500 0.312500 2.812500
v 1.187500 0.312500 2.687500
v 1.187500 -0.312500 2.812500
v 1.187500 -0.312500 2.687500
v 1.062500 0.312500 2.687500
v 1.062500 0.312500 2.812500
v 1.062500 -0.312500 2.687500
v 1.062500 -0.312500 2.812500
v 1.250000 0.250000 2.875000
v 1.250000 0.250000 2.750000
v 1.250000 -0.250000 2.875000
v 1.250000 -0.250000 2.750000
v 1.062500 0.250000 2.750000
v 1.062500 0.250000 2.875000
v 1.062500 -0.250000 2.750000
v 1.062500 -0.250000 2.875000
v 1.250000 0.250000 2.500000
v 1.250000 0.250000 2.375000
v 1.250000 -0.250000 2.500000
v 1.250000 -0.250000 2.375000
v 1.062500 0.250000 2.375000
v 1.062500 0.250000 2.500000
v 1.062500 -0.250000 2.375000
v 1.062500 -0.250000 2.500000
vn -0.0000 -0.0000 -1.0000
vn 1.0000 -0.0000 -0.0000
vn -0.0000 -0.0000 1.0000
vn -0.0000 1.0000 -0.0000
vn -0.0000 -1.0000 -0.0000
vn -1.0000 -0.0000 -0.0000
vt 0.187500 0.812500
vt 0.250000 0.812500
vt 0.250000 0.875000
vt 0.187500 0.875000
vt 0.000000 0.500000
vt 0.187500 0.500000
vt 0.187500 0.562500
vt 0.000000 0.562500
vt 0.125000 0.687500
vt 0.062500 0.687500
vt 0.062500 0.875000
vt 0.125000 0.875000
vt 1.000000 0.375000
vt 1.000000 0.000000
vt 0.937500 0.000000
vt 0.937500 0.375000
vt 0.125000 1.000000
vt 0.250000 1.000000
vt 0.625000 0.906250
vt 0.000000 0.906250
vt 0.000000 0.968750
vt 0.625000 0.968750
vt 0.625000 1.000000
vt 0.625000 0.937500
vt 0.000000 0.937500
vt 0.000000 1.000000
vt 0.187500 0.531250
vt 0.250000 0.531250
vt 0.250000 0.593750
vt 0.187500 0.593750
vt 0.000000 0.875000
vt 0.187500 0.937500
vt 0.250000 0.562500
vt 0.000000 0.593750
vt 0.062500 0.593750
vt 0.062500 0.562500
vt 0.250000 0.687500
vt 0.343750 0.687500
vt 0.343750 0.937500
vt 0.250000 0.937500
vt 0.343750 1.000000
vt 0.093750 0.937500
vt 0.093750 1.000000
vt 0.187500 0.468750
vt 0.125000 0.562500
vt 0.125000 0.468750
s 0
usemtl m_7fcd0bea-fb38-836f-b221-8b581874fdbb.004
f 4/1/1 7/2/1 5/3/1 2/4/1
f 3/5/2 4/6/2 2/7/2 1/8/2
f 8/2/3 3/1/3 1/4/3 6/3/3
f 6/9/4 1/10/4 2/11/4 5/12/4
f 7/9/5 4/10/5 3/11/5 8/12/5
f 11/13/2 12/14/2 10/15/2 9/16/2
f 15/14/6 16/13/6 14/16/6 13/15/6
f 14/16/4 9/13/4 10/14/4 13/15/4
f 15/15/5 12/14/5 11/13/5 16/16/5
f 19/13/2 20/14/2 18/15/2 17/16/2
f 23/14/6 24/13/6 22/16/6 21/15/6
f 22/16/4 17/13/4 18/14/4 21/15/4
f 23/15/5 20/14/5 19/13/5 24/16/5
f 75/14/2 76/13/2 74/16/2 73/15/2
f 79/13/6 80/14/6 78/15/6 77/16/6
f 78/15/4 73/14/4 74/13/4 77/16/4
f 79/16/5 76/13/5 75/14/5 80/15/5
f 83/14/2 84/13/2 82/16/2 81/15/2
f 87/13/6 88/14/6 86/15/6 85/16/6
f 86/15/4 81/14/4 82/13/4 85/16/4
f 87/16/5 84/13/5 83/14/5 88/15/5
f 92/27/1 95/28/1 93/29/1 90/30/1
f 91/31/2 92/4/2 90/32/2 89/25/2
f 96/28/3 91/27/3 89/30/3 94/29/3
f 94/9/4 89/10/4 90/11/4 93/12/4
f 95/9/5 92/10/5 91/11/5 96/12/5
f 100/7/1 103/33/1 101/3/1 98/4/1
f 99/34/2 100/35/2 98/11/2 97/31/2
f 104/33/3 99/7/3 97/4/3 102/3/3
f 108/27/1 111/28/1 109/3/1 106/4/1
f 107/8/2 108/36/2 106/11/2 105/31/2
f 112/33/3 107/7/3 105/4/3 110/3/3
f 116/37/1 119/38/1 117/39/1 114/40/1
f 115/41/2 116/39/2 114/42/2 113/43/2
f 120/38/3 115/37/3 113/40/3 118/39/3
f 118/44/4 113/7/4 114/45/4 117/46/4
f 119/46/5 116/45/5 115/7/5 120/44/5
f 124/37/1 127/38/1 125/39/1 122/40/1
f 123/39/2 124/41/2 122/43/2 121/42/2
f 128/38/3 123/37/3 121/40/3 126/39/3
f 126/46/4 121/45/4 122/7/4 125/44/4
f 127/44/5 124/7/5 123/45/5 128/46/5
f 132/1/1 135/2/1 133/3/1 130/4/1
f 131/5/2 132/6/2 130/7/2 129/8/2
f 136/2/3 131/1/3 129/4/3 134/3/3
f 134/9/4 129/10/4 130/11/4 133/12/4
f 135/9/5 132/10/5 131/11/5 136/12/5
f 140/27/1 143/28/1 141/29/1 138/30/1
f 139/31/2 140/4/2 138/32/2 137/25/2
f 144/28/3 139/27/3 137/30/3 142/29/3
f 142/9/4 137/10/4 138/11/4 141/12/4
f 143/9/5 140/10/5 139/11/5 144/12/5
f 148/7/1 151/33/1 149/3/1 146/4/1
f 147/34/2 148/35/2 146/11/2 145/31/2
f 152/33/3 147/7/3 145/4/3 150/3/3
f 156/27/1 159/28/1 157/3/1 154/4/1
f 155/8/2 156/36/2 154/11/2 153/31/2
f 160/33/3 155/7/3 153/4/3 158/3/3
f 164/37/1 167/38/1 165/39/1 162/40/1
f 163/41/2 164/39/2 162/42/2 161/43/2
f 168/38/3 163/37/3 161/40/3 166/39/3
f 166/44/4 161/7/4 162/45/4 165/46/4
f 167/46/5 164/45/5 163/7/5 168/44/5
f 172/37/1 175/38/1 173/39/1 170/40/1
f 171/39/2 172/41/2 170/43/2 169/42/2
f 176/38/3 171/37/3 169/40/3 174/39/3
f 174/46/4 169/45/4 170/7/4 173/44/4
f 175/44/5 172/7/5 171/45/5 176/46/5
f 180/1/1 183/2/1 181/3/1 178/4/1
f 179/5/2 180/6/2 178/7/2 177/8/2
f 184/2/3 179/1/3 177/4/3 182/3/3
f 182/9/4 177/10/4 178/11/4 181/12/4
f 183/9/5 180/10/5 179/11/5 184/12/5
f 188/27/1 191/28/1 189/29/1 186/30/1
f 187/31/2 188/4/2 186/32/2 185/25/2
f 192/28/3 187/27/3 185/30/3 190/29/3
f 190/9/4 185/10/4 186/11/4 189/12/4
f 191/9/5 188/10/5 187/11/5 192/12/5
f 196/7/1 199/33/1 197/3/1 194/4/1
f 195/34/2 196/35/2 194/11/2 193/31/2
f 200/33/3 195/7/3 193/4/3 198/3/3
f 204/27/1 207/28/1 205/3/1 202/4/1
f 203/8/2 204/36/2 202/11/2 201/31/2
f 208/33/3 203/7/3 201/4/3 206/3/3
f 212/37/1 215/38/1 213/39/1 210/40/1
f 211/41/2 212/39/2 210/42/2 209/43/2
f 216/38/3 211/37/3 209/40/3 214/39/3
f 214/44/4 209/7/4 210/45/4 213/46/4
f 215/46/5 212/45/5 211/7/5 216/44/5
f 220/37/1 223/38/1 221/39/1 218/40/1
f 219/39/2 220/41/2 218/43/2 217/42/2
f 224/38/3 219/37/3 217/40/3 222/39/3
f 222/46/4 217/45/4 218/7/4 221/44/4
f 223/44/5 220/7/5 219/45/5 224/46/5
f 228/1/1 231/2/1 229/3/1 226/4/1
f 227/5/2 228/6/2 226/7/2 225/8/2
f 232/2/3 227/1/3 225/4/3 230/3/3
f 230/9/4 225/10/4 226/11/4 229/12/4
f 231/9/5 228/10/5 227/11/5 232/12/5
f 236/27/1 239/28/1 237/29/1 234/30/1
f 235/31/2 236/4/2 234/32/2 233/25/2
f 240/28/3 235/27/3 233/30/3 238/29/3
f 238/9/4 233/10/4 234/11/4 237/12/4
f 239/9/5 236/10/5 235/11/5 240/12/5
f 244/7/1 247/33/1 245/3/1 242/4/1
f 243/34/2 244/35/2 242/11/2 241/31/2
f 248/33/3 243/7/3 241/4/3 246/3/3
f 252/27/1 255/28/1 253/3/1 250/4/1
f 251/8/2 252/36/2 250/11/2 249/31/2
f 256/33/3 251/7/3 249/4/3 254/3/3
f 260/37/1 263/38/1 261/39/1 258/40/1
f 259/41/2 260/39/2 258/42/2 257/43/2
f 264/38/3 259/37/3 257/40/3 262/39/3
f 262/44/4 257/7/4 258/45/4 261/46/4
f 263/46/5 260/45/5 259/7/5 264/44/5
f 268/37/1 271/38/1 269/39/1 266/40/1
f 267/39/2 268/41/2 266/43/2 265/42/2
f 272/38/3 267/37/3 265/40/3 270/39/3
f 270/46/4 265/45/4 266/7/4 269/44/4
f 271/44/5 268/7/5 267/45/5 272/46/5
usemtl m_ec6b04bd-7cc1-6a13-c269-3b178e3169bd.001
f 28/3/1 31/12/1 29/17/1 26/18/1
f 27/19/2 28/20/2 26/21/2 25/22/2
f 32/3/3 27/12/3 25/17/3 30/18/3
f 31/22/6 32/21/6 30/20/6 29/19/6
f 30/23/4 25/24/4 26/25/4 29/26/4
f 31/23/5 28/24/5 27/25/5 32/26/5
f 36/3/1 39/12/1 37/17/1 34/18/1
f 35/19/2 36/20/2 34/21/2 33/22/2
f 40/3/3 35/12/3 33/17/3 38/18/3
f 39/22/6 40/21/6 38/20/6 37/19/6
f 38/23/4 33/24/4 34/25/4 37/26/4
f 39/23/5 36/24/5 35/25/5 40/26/5
f 44/3/1 47/12/1 45/17/1 42/18/1
f 43/19/2 44/20/2 42/21/2 41/22/2
f 48/3/3 43/12/3 41/17/3 46/18/3
f 47/22/6 48/21/6 46/20/6 45/19/6
f 46/23/4 41/24/4 42/25/4 45/26/4
f 47/23/5 44/24/5 43/25/5 48/26/5
f 52/3/1 55/12/1 53/17/1 50/18/1
f 51/19/2 52/20/2 50/21/2 49/22/2
f 56/3/3 51/12/3 49/17/3 54/18/3
f 55/22/6 56/21/6 54/20/6 53/19/6
f 54/23/4 49/24/4 50/25/4 53/26/4
f 55/23/5 52/24/5 51/25/5 56/26/5
f 60/3/1 63/12/1 61/17/1 58/18/1
f 59/19/2 60/20/2 58/21/2 57/22/2
f 64/3/3 59/12/3 57/17/3 62/18/3
f 63/22/6 64/21/6 62/20/6 61/19/6
f 62/23/4 57/24/4 58/25/4 61/26/4
f 63/23/5 60/24/5 59/25/5 64/26/5
f 68/3/1 71/12/1 69/17/1 66/18/1
f 67/19/2 68/20/2 66/21/2 65/22/2
f 72/3/3 67/12/3 65/17/3 70/18/3
f 71/22/6 72/21/6 70/20/6 69/19/6
f 70/23/4 65/24/4 66/25/4 69/26/4
f 71/23/5 68/24/5 67/25/5 72/26/5
