# Blender 4.0.2
# www.blender.org
mtllib left_c_rod.mtl
o cube.013
v -1.187500 0.125000 0.125000
v -1.187500 0.125000 -0.125000
v -1.187500 -0.125000 0.125000
v -1.187500 -0.125000 -0.125000
v -1.250000 0.125000 -0.125000
v -1.250000 0.125000 0.125000
v -1.250000 -0.125000 -0.125000
v -1.250000 -0.125000 0.125000
v -1.062500 0.125000 -1.875000
v -1.062500 0.125000 -3.187500
v -1.062500 -0.125000 -1.875000
v -1.062500 -0.125000 -3.187500
v -1.187500 0.125000 -3.187500
v -1.187500 0.125000 -1.875000
v -1.187500 -0.125000 -3.187500
v -1.187500 -0.125000 -1.875000
v -1.062500 0.125000 -0.187500
v -1.062500 0.125000 -1.500000
v -1.062500 -0.125000 -0.187500
v -1.062500 -0.125000 -1.500000
v -1.187500 0.125000 -1.500000
v -1.187500 0.125000 -0.187500
v -1.187500 -0.125000 -1.500000
v -1.187500 -0.125000 -0.187500
v -1.062500 0.125000 1.500000
v -1.062500 0.125000 0.187500
v -1.062500 -0.125000 1.500000
v -1.062500 -0.125000 0.187500
v -1.187500 0.125000 0.187500
v -1.187500 0.125000 1.500000
v -1.187500 -0.125000 0.187500
v -1.187500 -0.125000 1.500000
v -1.062500 0.125000 3.187500
v -1.062500 0.125000 1.875000
v -1.062500 -0.125000 3.187500
v -1.062500 -0.125000 1.875000
v -1.187500 0.125000 1.875000
v -1.187500 0.125000 3.187500
v -1.187500 -0.125000 1.875000
v -1.187500 -0.125000 3.187500
v -1.131250 0.125000 -3.250000
v -1.131250 0.125000 -3.500000
v -1.131250 -0.125000 -3.250000
v -1.131250 -0.125000 -3.500000
v -1.193750 0.125000 -3.500000
v -1.193750 0.125000 -3.250000
v -1.193750 -0.125000 -3.500000
v -1.193750 -0.125000 -3.250000
v -1.187500 0.125000 -1.562500
v -1.187500 0.125000 -1.812500
v -1.187500 -0.125000 -1.562500
v -1.187500 -0.125000 -1.812500
v -1.375000 0.125000 -1.812500
v -1.375000 0.125000 -1.562500
v -1.375000 -0.125000 -1.812500
v -1.375000 -0.125000 -1.562500
v -1.187500 0.125000 1.812500
v -1.187500 0.125000 1.562500
v -1.187500 -0.125000 1.812500
v -1.187500 -0.125000 1.562500
v -1.250000 0.125000 1.562500
v -1.250000 0.125000 1.812500
v -1.250000 -0.125000 1.562500
v -1.250000 -0.125000 1.812500
v -1.187500 0.125000 3.500000
v -1.187500 0.125000 3.250000
v -1.187500 -0.125000 3.500000
v -1.187500 -0.125000 3.250000
v -1.250000 0.125000 3.250000
v -1.250000 0.125000 3.500000
v -1.250000 -0.125000 3.250000
v -1.250000 -0.125000 3.500000
v -1.062500 0.187500 3.562500
v -1.062500 0.187500 3.187500
v -1.062500 -0.187500 3.562500
v -1.062500 -0.187500 3.187500
v -1.187500 0.187500 3.187500
v -1.187500 0.187500 3.562500
v -1.187500 -0.187500 3.187500
v -1.187500 -0.187500 3.562500
v -1.062500 0.187500 1.875000
v -1.062500 0.187500 1.500000
v -1.062500 -0.187500 1.875000
v -1.062500 -0.187500 1.500000
v -1.187500 0.187500 1.500000
v -1.187500 0.187500 1.875000
v -1.187500 -0.187500 1.500000
v -1.187500 -0.187500 1.875000
v -1.062500 0.187500 0.187500
v -1.062500 0.187500 -0.187500
v -1.062500 -0.187500 0.187500
v -1.062500 -0.187500 -0.187500
v -1.187500 0.187500 -0.187500
v -1.187500 0.187500 0.187500
v -1.187500 -0.187500 -0.187500
v -1.187500 -0.187500 0.187500
v -1.062500 0.187500 -1.500000
v -1.062500 0.187500 -1.875000
v -1.062500 -0.187500 -1.500000
v -1.062500 -0.187500 -1.875000
v -1.187500 0.187500 -1.875000
v -1.187500 0.187500 -1.500000
v -1.187500 -0.187500 -1.875000
v -1.187500 -0.187500 -1.500000
v -1.062500 0.187500 -3.187500
v -1.062500 0.187500 -3.562500
v -1.062500 -0.187500 -3.187500
v -1.062500 -0.187500 -3.562500
v -1.187500 0.187500 -3.562500
v -1.187500 0.187500 -3.187500
v -1.187500 -0.187500 -3.562500
v -1.187500 -0.187500 -3.187500
vn -0.0000 -0.0000 -1.0000
vn 1.0000 -0.0000 -0.0000
vn -0.0000 -0.0000 1.0000
vn -1.0000 -0.0000 -0.0000
vn -0.0000 1.0000 -0.0000
vn -0.0000 -1.0000 -0.0000
vt 0.901786 0.071429
vt 0.892857 0.071429
vt 0.892857 0.035714
vt 0.901786 0.035714
vt 0.857143 0.035714
vt 0.857143 0.071429
vt 0.982143 0.410714
vt 1.000000 0.410714
vt 1.000000 0.446429
vt 0.982143 0.446429
vt 0.812500 0.410714
vt 0.812500 0.446429
vt 0.830357 0.410714
vt 0.848214 0.410714
vt 0.848214 0.446429
vt 0.830357 0.446429
vt 0.991071 0.410714
vt 0.991071 0.428571
vt 0.803571 0.428571
vt 0.803571 0.410714
vt 0.803571 0.446429
vt 0.991071 0.446429
vt 0.919643 0.071429
vt 0.919643 0.035714
vt 0.857143 0.062500
vt 0.839286 0.062500
vt 0.839286 0.008929
vt 0.857143 0.008929
vt 0.785714 0.008929
vt 0.785714 0.062500
s 0
usemtl m_a04509b2-9e79-7152-ac01-54b87f7e5258.030
f 4/1/1 7/2/1 5/3/1 2/4/1
f 3/5/2 4/3/2 2/2/2 1/6/2
f 8/3/3 3/4/3 1/1/3 6/2/3
f 7/3/4 8/2/4 6/6/4 5/5/4
f 6/3/5 1/4/5 2/1/5 5/2/5
f 7/3/6 4/4/6 3/1/6 8/2/6
f 12/7/1 15/8/1 13/9/1 10/10/1
f 11/11/2 12/8/2 10/9/2 9/12/2
f 16/13/3 11/14/3 9/15/3 14/16/3
f 15/11/4 16/8/4 14/9/4 13/12/4
f 14/17/5 9/18/5 10/19/5 13/20/5
f 15/17/6 12/18/6 11/19/6 16/20/6
f 20/7/1 23/8/1 21/9/1 18/10/1
f 19/11/2 20/8/2 18/9/2 17/12/2
f 24/13/3 19/14/3 17/15/3 22/16/3
f 23/11/4 24/8/4 22/9/4 21/12/4
f 22/17/5 17/18/5 18/19/5 21/20/5
f 23/17/6 20/18/6 19/19/6 24/20/6
f 28/8/1 31/7/1 29/10/1 26/9/1
f 27/17/2 28/20/2 26/21/2 25/22/2
f 32/13/3 27/11/3 25/12/3 30/16/3
f 31/17/4 32/20/4 30/21/4 29/22/4
f 30/22/5 25/18/5 26/19/5 29/21/5
f 31/17/6 28/18/6 27/19/6 32/20/6
f 36/8/1 39/7/1 37/10/1 34/9/1
f 35/17/2 36/20/2 34/21/2 33/22/2
f 40/13/3 35/11/3 33/12/3 38/16/3
f 39/17/4 40/20/4 38/21/4 37/22/4
f 38/22/5 33/18/5 34/19/5 37/21/5
f 39/17/6 36/18/6 35/19/6 40/20/6
f 44/1/1 47/2/1 45/3/1 42/4/1
f 43/5/2 44/3/2 42/2/2 41/6/2
f 48/3/3 43/4/3 41/1/3 46/2/3
f 47/3/4 48/2/4 46/6/4 45/5/4
f 46/3/5 41/4/5 42/1/5 45/2/5
f 47/3/6 44/4/6 43/1/6 48/2/6
f 52/23/1 55/2/1 53/3/1 50/24/1
f 51/5/2 52/3/2 50/2/2 49/6/2
f 56/3/3 51/24/3 49/23/3 54/2/3
f 55/3/4 56/2/4 54/6/4 53/5/4
f 54/3/5 49/24/5 50/23/5 53/2/5
f 55/3/6 52/24/6 51/23/6 56/2/6
f 60/1/1 63/2/1 61/3/1 58/4/1
f 59/5/2 60/3/2 58/2/2 57/6/2
f 64/3/3 59/4/3 57/1/3 62/2/3
f 63/3/4 64/2/4 62/6/4 61/5/4
f 62/3/5 57/4/5 58/1/5 61/2/5
f 63/3/6 60/4/6 59/1/6 64/2/6
f 68/1/1 71/2/1 69/3/1 66/4/1
f 67/5/2 68/3/2 66/2/2 65/6/2
f 72/3/3 67/4/3 65/1/3 70/2/3
f 71/3/4 72/2/4 70/6/4 69/5/4
f 70/3/5 65/4/5 66/1/5 69/2/5
f 71/3/6 68/4/6 67/1/6 72/2/6
f 76/25/1 79/26/1 77/27/1 74/28/1
f 75/29/2 76/27/2 74/26/2 73/30/2
f 80/27/3 75/28/3 73/25/3 78/26/3
f 79/27/4 80/26/4 78/30/4 77/29/4
f 78/27/5 73/28/5 74/25/5 77/26/5
f 79/27/6 76/28/6 75/25/6 80/26/6
f 84/25/1 87/26/1 85/27/1 82/28/1
f 83/29/2 84/27/2 82/26/2 81/30/2
f 88/27/3 83/28/3 81/25/3 86/26/3
f 87/27/4 88/26/4 86/30/4 85/29/4
f 86/27/5 81/28/5 82/25/5 85/26/5
f 87/27/6 84/28/6 83/25/6 88/26/6
f 92/25/1 95/26/1 93/27/1 90/28/1
f 91/29/2 92/27/2 90/26/2 89/30/2
f 96/27/3 91/28/3 89/25/3 94/26/3
f 95/27/4 96/26/4 94/30/4 93/29/4
f 94/27/5 89/28/5 90/25/5 93/26/5
f 95/27/6 92/28/6 91/25/6 96/26/6
f 100/25/1 103/26/1 101/27/1 98/28/1
f 99/29/2 100/27/2 98/26/2 97/30/2
f 104/27/3 99/28/3 97/25/3 102/26/3
f 103/27/4 104/26/4 102/30/4 101/29/4
f 102/27/5 97/28/5 98/25/5 101/26/5
f 103/27/6 100/28/6 99/25/6 104/26/6
f 108/25/1 111/26/1 109/27/1 106/28/1
f 107/29/2 108/27/2 106/26/2 105/30/2
f 112/27/3 107/28/3 105/25/3 110/26/3
f 111/27/4 112/26/4 110/30/4 109/29/4
f 110/27/5 105/28/5 106/25/5 109/26/5
f 111/27/6 108/28/6 107/25/6 112/26/6
