# Blender 4.0.2
# www.blender.org
mtllib right_c_rod.mtl
o cube.013
v 1.187500 0.125000 -1.875000
v 1.187500 0.125000 -3.187500
v 1.187500 -0.125000 -1.875000
v 1.187500 -0.125000 -3.187500
v 1.062500 0.125000 -3.187500
v 1.062500 0.125000 -1.875000
v 1.062500 -0.125000 -3.187500
v 1.062500 -0.125000 -1.875000
v 1.187500 0.187500 -3.187500
v 1.187500 0.187500 -3.562500
v 1.187500 -0.187500 -3.187500
v 1.187500 -0.187500 -3.562500
v 1.062500 0.187500 -3.562500
v 1.062500 0.187500 -3.187500
v 1.062500 -0.187500 -3.562500
v 1.062500 -0.187500 -3.187500
v 1.187500 0.187500 -1.500000
v 1.187500 0.187500 -1.875000
v 1.187500 -0.187500 -1.500000
v 1.187500 -0.187500 -1.875000
v 1.062500 0.187500 -1.875000
v 1.062500 0.187500 -1.500000
v 1.062500 -0.187500 -1.875000
v 1.062500 -0.187500 -1.500000
v 1.187500 0.187500 0.187500
v 1.187500 0.187500 -0.187500
v 1.187500 -0.187500 0.187500
v 1.187500 -0.187500 -0.187500
v 1.062500 0.187500 -0.187500
v 1.062500 0.187500 0.187500
v 1.062500 -0.187500 -0.187500
v 1.062500 -0.187500 0.187500
v 1.187500 0.187500 1.875000
v 1.187500 0.187500 1.500000
v 1.187500 -0.187500 1.875000
v 1.187500 -0.187500 1.500000
v 1.062500 0.187500 1.500000
v 1.062500 0.187500 1.875000
v 1.062500 -0.187500 1.500000
v 1.062500 -0.187500 1.875000
v 1.187500 0.187500 3.562500
v 1.187500 0.187500 3.187500
v 1.187500 -0.187500 3.562500
v 1.187500 -0.187500 3.187500
v 1.062500 0.187500 3.187500
v 1.062500 0.187500 3.562500
v 1.062500 -0.187500 3.187500
v 1.062500 -0.187500 3.562500
v 1.250000 0.125000 3.500000
v 1.250000 0.125000 3.250000
v 1.250000 -0.125000 3.500000
v 1.250000 -0.125000 3.250000
v 1.187500 0.125000 3.250000
v 1.187500 0.125000 3.500000
v 1.187500 -0.125000 3.250000
v 1.187500 -0.125000 3.500000
v 1.250000 0.125000 1.812500
v 1.250000 0.125000 1.562500
v 1.250000 -0.125000 1.812500
v 1.250000 -0.125000 1.562500
v 1.187500 0.125000 1.562500
v 1.187500 0.125000 1.812500
v 1.187500 -0.125000 1.562500
v 1.187500 -0.125000 1.812500
v 1.250000 0.125000 0.125000
v 1.250000 0.125000 -0.125000
v 1.250000 -0.125000 0.125000
v 1.250000 -0.125000 -0.125000
v 1.187500 0.125000 -0.125000
v 1.187500 0.125000 0.125000
v 1.187500 -0.125000 -0.125000
v 1.187500 -0.125000 0.125000
v 1.375000 0.125000 -1.562500
v 1.375000 0.125000 -1.812500
v 1.375000 -0.125000 -1.562500
v 1.375000 -0.125000 -1.812500
v 1.187500 0.125000 -1.812500
v 1.187500 0.125000 -1.562500
v 1.187500 -0.125000 -1.812500
v 1.187500 -0.125000 -1.562500
v 1.193750 0.125000 -3.250000
v 1.193750 0.125000 -3.500000
v 1.193750 -0.125000 -3.250000
v 1.193750 -0.125000 -3.500000
v 1.131250 0.125000 -3.500000
v 1.131250 0.125000 -3.250000
v 1.131250 -0.125000 -3.500000
v 1.131250 -0.125000 -3.250000
v 1.187500 0.125000 3.187500
v 1.187500 0.125000 1.875000
v 1.187500 -0.125000 3.187500
v 1.187500 -0.125000 1.875000
v 1.062500 0.125000 1.875000
v 1.062500 0.125000 3.187500
v 1.062500 -0.125000 1.875000
v 1.062500 -0.125000 3.187500
v 1.187500 0.125000 1.500000
v 1.187500 0.125000 0.187500
v 1.187500 -0.125000 1.500000
v 1.187500 -0.125000 0.187500
v 1.062500 0.125000 0.187500
v 1.062500 0.125000 1.500000
v 1.062500 -0.125000 0.187500
v 1.062500 -0.125000 1.500000
v 1.187500 0.125000 -0.187500
v 1.187500 0.125000 -1.500000
v 1.187500 -0.125000 -0.187500
v 1.187500 -0.125000 -1.500000
v 1.062500 0.125000 -1.500000
v 1.062500 0.125000 -0.187500
v 1.062500 -0.125000 -1.500000
v 1.062500 -0.125000 -0.187500
vn -0.0000 -0.0000 -1.0000
vn 1.0000 -0.0000 -0.0000
vn -0.0000 -0.0000 1.0000
vn -1.0000 -0.0000 -0.0000
vn -0.0000 1.0000 -0.0000
vn -0.0000 -1.0000 -0.0000
vt 1.000000 0.410714
vt 0.982143 0.410714
vt 0.982143 0.446429
vt 1.000000 0.446429
vt 0.812500 0.410714
vt 0.812500 0.446429
vt 0.848214 0.410714
vt 0.830357 0.410714
vt 0.830357 0.446429
vt 0.848214 0.446429
vt 0.991071 0.428571
vt 0.991071 0.410714
vt 0.803571 0.410714
vt 0.803571 0.428571
vt 0.839286 0.062500
vt 0.857143 0.062500
vt 0.857143 0.008929
vt 0.839286 0.008929
vt 0.785714 0.008929
vt 0.785714 0.062500
vt 0.892857 0.071429
vt 0.901786 0.071429
vt 0.901786 0.035714
vt 0.892857 0.035714
vt 0.857143 0.035714
vt 0.857143 0.071429
vt 0.919643 0.071429
vt 0.919643 0.035714
vt 0.991071 0.446429
vt 0.803571 0.446429
s 0
usemtl m_a04509b2-9e79-7152-ac01-54b87f7e5258.029
f 4/1/1 7/2/1 5/3/1 2/4/1
f 3/1/2 4/5/2 2/6/2 1/4/2
f 8/7/3 3/8/3 1/9/3 6/10/3
f 7/1/4 8/5/4 6/6/4 5/4/4
f 6/11/5 1/12/5 2/13/5 5/14/5
f 7/11/6 4/12/6 3/13/6 8/14/6
f 12/15/1 15/16/1 13/17/1 10/18/1
f 11/15/2 12/18/2 10/19/2 9/20/2
f 16/17/3 11/18/3 9/15/3 14/16/3
f 15/18/4 16/19/4 14/20/4 13/15/4
f 14/17/5 9/18/5 10/15/5 13/16/5
f 15/17/6 12/18/6 11/15/6 16/16/6
f 20/15/1 23/16/1 21/17/1 18/18/1
f 19/15/2 20/18/2 18/19/2 17/20/2
f 24/17/3 19/18/3 17/15/3 22/16/3
f 23/18/4 24/19/4 22/20/4 21/15/4
f 22/17/5 17/18/5 18/15/5 21/16/5
f 23/17/6 20/18/6 19/15/6 24/16/6
f 28/15/1 31/16/1 29/17/1 26/18/1
f 27/15/2 28/18/2 26/19/2 25/20/2
f 32/17/3 27/18/3 25/15/3 30/16/3
f 31/18/4 32/19/4 30/20/4 29/15/4
f 30/17/5 25/18/5 26/15/5 29/16/5
f 31/17/6 28/18/6 27/15/6 32/16/6
f 36/15/1 39/16/1 37/17/1 34/18/1
f 35/15/2 36/18/2 34/19/2 33/20/2
f 40/17/3 35/18/3 33/15/3 38/16/3
f 39/18/4 40/19/4 38/20/4 37/15/4
f 38/17/5 33/18/5 34/15/5 37/16/5
f 39/17/6 36/18/6 35/15/6 40/16/6
f 44/15/1 47/16/1 45/17/1 42/18/1
f 43/15/2 44/18/2 42/19/2 41/20/2
f 48/17/3 43/18/3 41/15/3 46/16/3
f 47/18/4 48/19/4 46/20/4 45/15/4
f 46/17/5 41/18/5 42/15/5 45/16/5
f 47/17/6 44/18/6 43/15/6 48/16/6
f 52/21/1 55/22/1 53/23/1 50/24/1
f 51/21/2 52/24/2 50/25/2 49/26/2
f 56/23/3 51/24/3 49/21/3 54/22/3
f 55/24/4 56/25/4 54/26/4 53/21/4
f 54/23/5 49/24/5 50/21/5 53/22/5
f 55/23/6 52/24/6 51/21/6 56/22/6
f 60/21/1 63/22/1 61/23/1 58/24/1
f 59/21/2 60/24/2 58/25/2 57/26/2
f 64/23/3 59/24/3 57/21/3 62/22/3
f 63/24/4 64/25/4 62/26/4 61/21/4
f 62/23/5 57/24/5 58/21/5 61/22/5
f 63/23/6 60/24/6 59/21/6 64/22/6
f 68/21/1 71/22/1 69/23/1 66/24/1
f 67/21/2 68/24/2 66/25/2 65/26/2
f 72/23/3 67/24/3 65/21/3 70/22/3
f 71/24/4 72/25/4 70/26/4 69/21/4
f 70/23/5 65/24/5 66/21/5 69/22/5
f 71/23/6 68/24/6 67/21/6 72/22/6
f 76/21/1 79/27/1 77/28/1 74/24/1
f 75/21/2 76/24/2 74/25/2 73/26/2
f 80/28/3 75/24/3 73/21/3 78/27/3
f 79/24/4 80/25/4 78/26/4 77/21/4
f 78/28/5 73/24/5 74/21/5 77/27/5
f 79/28/6 76/24/6 75/21/6 80/27/6
f 84/21/1 87/22/1 85/23/1 82/24/1
f 83/21/2 84/24/2 82/25/2 81/26/2
f 88/23/3 83/24/3 81/21/3 86/22/3
f 87/24/4 88/25/4 86/26/4 85/21/4
f 86/23/5 81/24/5 82/21/5 85/22/5
f 87/23/6 84/24/6 83/21/6 88/22/6
f 92/2/1 95/1/1 93/4/1 90/3/1
f 91/13/2 92/12/2 90/29/2 89/30/2
f 96/5/3 91/8/3 89/9/3 94/6/3
f 95/13/4 96/12/4 94/29/4 93/30/4
f 94/11/5 89/29/5 90/30/5 93/14/5
f 95/11/6 92/12/6 91/13/6 96/14/6
f 100/2/1 103/1/1 101/4/1 98/3/1
f 99/13/2 100/12/2 98/29/2 97/30/2
f 104/5/3 99/8/3 97/9/3 102/6/3
f 103/13/4 104/12/4 102/29/4 101/30/4
f 102/11/5 97/29/5 98/30/5 101/14/5
f 103/11/6 100/12/6 99/13/6 104/14/6
f 108/1/1 111/2/1 109/3/1 106/4/1
f 107/1/2 108/5/2 106/6/2 105/4/2
f 112/7/3 107/8/3 105/9/3 110/10/3
f 111/1/4 112/5/4 110/6/4 109/4/4
f 110/11/5 105/12/5 106/13/5 109/14/5
f 111/11/6 108/12/6 107/13/6 112/14/6
